M48
; DRILL file {KiCad 9.0.4} date 2026-04-05T10:22:39-0400
; FORMAT={-:-/ absolute / metric / decimal}
; #@! TF.CreationDate,2026-04-05T10:22:39-04:00
; #@! TF.GenerationSoftware,Kicad,Pcbnew,9.0.4
; #@! TF.FileFunction,Plated,1,2,PTH
FMAT,2
METRIC
; #@! TA.AperFunction,Plated,PTH,ViaDrill
T1C0.400
; #@! TA.AperFunction,Plated,PTH,ViaDrill
T2C0.600
; #@! TA.AperFunction,Plated,PTH,ComponentDrill
T3C0.800
; #@! TA.AperFunction,Plated,PTH,ComponentDrill
T4C0.899
; #@! TA.AperFunction,Plated,PTH,ComponentDrill
T5C1.000
; #@! TA.AperFunction,Plated,PTH,ComponentDrill
T6C3.200
%
G90
G05
T1
X111.9Y-134.7
X117.194Y-110.85
X118.475Y-112.19
X122.92Y-113.46
X125.46Y-112.19
X129.2Y-134.1
X130.5Y-113.46
X131.81Y-66.47
X134.3Y-112.2
X134.985Y-61.39
X135.577Y-100.022
X135.62Y-113.46
X135.7Y-132.7
X135.7Y-135.5
X135.7Y-137.3
X136.255Y-63.93
X136.89Y-96.315
X137.525Y-66.47
X137.525Y-93.14
X138.795Y-81.71
X138.795Y-96.315
X140.0Y-138.4
X140.065Y-82.98
X140.7Y-110.92
X141.335Y-85.52
X141.335Y-86.79
X142.605Y-88.06
X142.605Y-89.33
X142.605Y-112.19
X142.605Y-114.73
X143.875Y-90.6
X143.875Y-91.87
X145.145Y-80.44
X145.78Y-108.38
X148.955Y-103.3
X149.59Y-82.345
X150.225Y-118.5
X155.305Y-121.08
X156.59Y-123.59
X157.845Y-127.1
X159.115Y-81.71
X159.115Y-128.485
X160.385Y-84.25
X160.385Y-128.485
X161.655Y-86.79
X161.655Y-128.485
X162.925Y-89.33
X162.925Y-128.485
X164.195Y-95.68
X164.195Y-119.81
X165.465Y-105.84
X165.465Y-107.11
X165.465Y-113.46
X166.735Y-82.98
X166.735Y-116.0
X171.8Y-121.7
X171.815Y-68.375
X171.815Y-78.535
X171.815Y-114.73
X173.085Y-67.105
X173.085Y-117.905
X175.625Y-81.075
X191.7Y-121.129
X191.8Y-79.201
X194.6Y-122.3
X194.8Y-80.3
X202.4Y-85.2
X202.508Y-129.8
T2
X108.96Y-138.659
X110.2Y-130.8
X112.76Y-73.455
X112.76Y-75.995
X114.0Y-138.7
X117.205Y-73.455
X117.205Y-75.995
X117.84Y-107.11
X117.84Y-109.015
X121.65Y-73.455
X121.65Y-75.995
X125.7Y-148.4
X131.81Y-107.11
X131.81Y-109.015
X138.152Y-108.38
X143.85Y-148.4
X154.035Y-72.82
X157.3Y-134.9
X159.7Y-134.9
X159.77Y-137.8
X161.655Y-72.82
X162.0Y-148.4
X162.3Y-135.1
X167.38Y-137.92
X174.99Y-62.66
X174.99Y-72.185
X175.625Y-90.6
X175.625Y-95.045
X176.26Y-56.945
X176.4Y-119.8
X176.4Y-122.4
X176.895Y-72.185
X176.895Y-86.155
X178.8Y-72.185
X178.8Y-89.965
X178.8Y-91.87
X178.8Y-103.34
X178.8Y-105.88
X180.07Y-59.485
X183.88Y-56.945
X184.3Y-136.6
X185.15Y-62.66
X190.629Y-146.0
X192.77Y-52.5
X194.675Y-131.915
X194.675Y-140.17
X204.2Y-52.5
X204.2Y-70.28
X204.2Y-86.79
X204.2Y-115.405
X204.2Y-131.915
X204.2Y-140.17
T3
X111.5Y-78.5
X111.5Y-81.0
X117.84Y-81.71
X117.84Y-84.25
X117.84Y-86.79
X117.84Y-89.33
X117.84Y-91.87
X117.84Y-94.41
X117.84Y-96.95
X117.84Y-99.49
X117.84Y-102.03
X117.84Y-104.57
X125.46Y-73.535
X125.46Y-78.535
X125.46Y-81.71
X125.46Y-84.25
X125.46Y-86.79
X125.46Y-89.33
X125.46Y-91.87
X125.46Y-94.41
X125.46Y-96.95
X125.46Y-99.49
X125.46Y-102.03
X125.46Y-104.57
X131.81Y-56.31
X131.81Y-58.85
X131.81Y-61.39
X131.81Y-63.93
X131.81Y-66.47
X131.81Y-69.01
X131.81Y-71.55
X131.81Y-74.09
X131.81Y-76.63
X131.81Y-79.17
X131.81Y-81.71
X131.81Y-84.25
X131.81Y-86.79
X131.81Y-89.33
X131.81Y-91.87
X131.81Y-94.41
X131.81Y-96.95
X131.81Y-99.49
X131.81Y-102.03
X131.81Y-104.57
X147.05Y-56.31
X147.05Y-58.85
X147.05Y-61.39
X147.05Y-63.93
X147.05Y-66.47
X147.05Y-69.01
X147.05Y-71.55
X147.05Y-74.09
X147.05Y-76.63
X147.05Y-79.17
X147.05Y-81.71
X147.05Y-84.25
X147.05Y-86.79
X147.05Y-89.33
X147.05Y-91.87
X147.05Y-94.41
X147.05Y-96.95
X147.05Y-99.49
X147.05Y-102.03
X147.05Y-104.57
X150.86Y-56.31
X150.86Y-61.31
X153.4Y-81.71
X153.4Y-84.25
X153.4Y-86.79
X153.4Y-89.33
X153.4Y-91.87
X153.4Y-94.41
X153.4Y-96.95
X153.4Y-99.49
X153.4Y-102.03
X153.4Y-104.57
X153.4Y-107.11
X153.4Y-109.65
X153.4Y-112.19
X153.4Y-114.73
X153.4Y-117.27
X153.4Y-119.81
X153.4Y-122.35
X153.4Y-124.89
X153.4Y-127.43
X153.4Y-129.97
X157.845Y-57.58
X157.845Y-65.2
X157.845Y-72.82
X165.465Y-57.58
X165.465Y-65.2
X165.465Y-72.82
X168.64Y-81.71
X168.64Y-84.25
X168.64Y-86.79
X168.64Y-89.33
X168.64Y-91.87
X168.64Y-94.41
X168.64Y-96.95
X168.64Y-99.49
X168.64Y-102.03
X168.64Y-104.57
X168.64Y-107.11
X168.64Y-109.65
X168.64Y-112.19
X168.64Y-114.73
X168.64Y-117.27
X168.64Y-119.81
X168.64Y-122.35
X168.64Y-124.89
X168.64Y-127.43
X168.64Y-129.97
X171.18Y-56.31
X171.18Y-61.31
X172.45Y-81.71
X172.45Y-86.71
X185.15Y-65.24
X185.15Y-67.78
X185.15Y-70.32
X185.15Y-72.86
X185.15Y-75.4
X185.15Y-77.94
X185.15Y-80.48
X185.15Y-83.02
X185.15Y-85.56
X185.15Y-88.1
X185.15Y-95.085
X185.15Y-97.585
X185.15Y-104.61
X185.15Y-107.15
X185.15Y-109.69
X185.15Y-112.23
X185.15Y-114.77
X185.15Y-117.31
X185.15Y-119.85
X185.15Y-122.39
X185.15Y-124.93
X185.15Y-127.47
X192.77Y-57.065
X192.77Y-62.065
X192.77Y-65.24
X192.77Y-67.78
X192.77Y-70.32
X192.77Y-72.86
X192.77Y-75.4
X192.77Y-77.94
X192.77Y-80.48
X192.77Y-83.02
X192.77Y-85.56
X192.77Y-88.1
X192.77Y-104.61
X192.77Y-107.15
X192.77Y-109.69
X192.77Y-112.23
X192.77Y-114.77
X192.77Y-117.31
X192.77Y-119.85
X192.77Y-122.39
X192.77Y-124.93
X192.77Y-127.47
X194.04Y-96.885
X194.04Y-99.385
X196.3Y-104.6
X201.3Y-104.6
T4
X198.209Y-73.603
X198.209Y-76.372
X198.209Y-79.143
X198.209Y-81.914
X198.209Y-84.683
X198.209Y-118.337
X198.209Y-121.106
X198.209Y-123.877
X198.209Y-126.648
X198.209Y-129.417
X200.749Y-74.988
X200.749Y-77.759
X200.749Y-80.527
X200.749Y-83.298
X200.749Y-119.722
X200.749Y-122.493
X200.749Y-125.261
X200.749Y-128.032
T5
X107.69Y-141.04
X107.69Y-143.58
X110.23Y-141.04
X110.23Y-143.58
X112.77Y-141.04
X112.77Y-143.58
X115.31Y-141.04
X115.31Y-143.58
X117.85Y-141.04
X117.85Y-143.58
X120.38Y-117.905
X120.38Y-120.445
X120.38Y-125.525
X120.38Y-128.065
X120.39Y-141.04
X120.39Y-143.58
X122.92Y-117.905
X122.92Y-120.445
X122.92Y-125.525
X122.92Y-128.065
X122.93Y-141.04
X122.93Y-143.58
X125.46Y-117.905
X125.46Y-120.445
X125.46Y-125.525
X125.46Y-128.065
X125.47Y-141.04
X125.47Y-143.58
X128.01Y-141.04
X128.01Y-143.58
X130.55Y-141.04
X130.55Y-143.58
X133.09Y-141.04
X133.09Y-143.58
X134.35Y-117.905
X134.35Y-120.445
X134.35Y-122.985
X134.35Y-125.525
X134.35Y-128.065
X135.63Y-141.04
X135.63Y-143.58
X136.89Y-117.905
X136.89Y-120.445
X136.89Y-122.985
X136.89Y-125.525
X136.89Y-128.065
X138.17Y-141.04
X138.17Y-143.58
X140.71Y-141.04
X140.71Y-143.58
X143.24Y-117.905
X143.24Y-120.445
X143.24Y-122.985
X143.24Y-125.525
X143.24Y-128.065
X143.25Y-141.04
X143.25Y-143.58
X145.78Y-117.905
X145.78Y-120.445
X145.78Y-122.985
X145.78Y-125.525
X145.78Y-128.065
X145.79Y-141.04
X145.79Y-143.58
X148.33Y-141.04
X148.33Y-143.58
X150.87Y-141.04
X150.87Y-143.58
X153.41Y-141.04
X153.41Y-143.58
X155.95Y-141.04
X155.95Y-143.58
X158.49Y-141.04
X158.49Y-143.58
X161.03Y-141.04
X161.03Y-143.58
X163.57Y-141.04
X163.57Y-143.58
X166.11Y-141.04
X166.11Y-143.58
X168.65Y-141.04
X168.65Y-143.58
X171.19Y-141.04
X171.19Y-143.58
X173.73Y-141.04
X173.73Y-143.58
X176.27Y-141.04
X176.27Y-143.58
X178.81Y-141.04
X178.81Y-143.58
X181.35Y-141.04
X181.35Y-143.58
X183.89Y-141.04
X183.89Y-143.58
T6
X199.479Y-66.649
X199.479Y-91.637
X199.479Y-111.383
X199.479Y-136.371
M30
