%TF.GenerationSoftware,KiCad,Pcbnew,9.0.4*%
%TF.CreationDate,2026-04-01T11:29:19-04:00*%
%TF.ProjectId,DualSerialPlus,4475616c-5365-4726-9961-6c506c75732e,rev?*%
%TF.SameCoordinates,Original*%
%TF.FileFunction,Soldermask,Bot*%
%TF.FilePolarity,Negative*%
%FSLAX46Y46*%
G04 Gerber Fmt 4.6, Leading zero omitted, Abs format (unit mm)*
G04 Created by KiCad (PCBNEW 9.0.4) date 2026-04-01 11:29:19*
%MOMM*%
%LPD*%
G01*
G04 APERTURE LIST*
%ADD10C,1.600000*%
%ADD11R,1.600000X1.600000*%
%ADD12O,1.998980X1.501140*%
%ADD13C,5.001260*%
%ADD14R,1.700000X1.700000*%
%ADD15O,1.700000X1.700000*%
%ADD16R,1.600000X1.501140*%
%ADD17O,1.600000X1.501140*%
%ADD18R,2.300000X1.600000*%
%ADD19O,2.300000X1.600000*%
%ADD20O,1.600000X1.600000*%
G04 APERTURE END LIST*
D10*
%TO.C,C8*%
X172450000Y-81710000D03*
X172450000Y-86710000D03*
%TD*%
%TO.C,C2*%
X125460000Y-78535000D03*
X125460000Y-73535000D03*
%TD*%
D11*
%TO.C,C5*%
X111500000Y-78500000D03*
D10*
X111500000Y-81000000D03*
%TD*%
D11*
%TO.C,C7*%
X185150000Y-95085000D03*
D10*
X185150000Y-97585000D03*
%TD*%
D12*
%TO.C,CN1*%
X197960080Y-84682740D03*
X197960080Y-81914140D03*
X197960080Y-79143000D03*
X197960080Y-76371860D03*
D13*
X199479000Y-91637260D03*
D12*
X197960080Y-73603260D03*
D13*
X199479000Y-66648740D03*
D12*
X200997920Y-83298440D03*
X200997920Y-80527300D03*
X200997920Y-77758700D03*
X200997920Y-74987560D03*
%TD*%
D14*
%TO.C,J1*%
X120380000Y-117905000D03*
D15*
X122920000Y-117905000D03*
X125460000Y-117905000D03*
X120380000Y-120445000D03*
X122920000Y-120445000D03*
X125460000Y-120445000D03*
%TD*%
D14*
%TO.C,J4*%
X143240000Y-117905000D03*
D15*
X145780000Y-117905000D03*
X143240000Y-120445000D03*
X145780000Y-120445000D03*
X143240000Y-122985000D03*
X145780000Y-122985000D03*
X143240000Y-125525000D03*
X145780000Y-125525000D03*
X143240000Y-128065000D03*
X145780000Y-128065000D03*
%TD*%
D16*
%TO.C,U9*%
X185150000Y-104610000D03*
D17*
X185150000Y-107150000D03*
X185150000Y-109690000D03*
X185150000Y-112230000D03*
X185150000Y-114770000D03*
X185150000Y-117310000D03*
X185150000Y-119850000D03*
X185150000Y-122390000D03*
X185150000Y-124930000D03*
X185150000Y-127470000D03*
X192770000Y-127470000D03*
X192770000Y-124930000D03*
X192770000Y-122390000D03*
X192770000Y-119850000D03*
X192770000Y-117310000D03*
X192770000Y-114770000D03*
X192770000Y-112230000D03*
X192770000Y-109690000D03*
X192770000Y-107150000D03*
X192770000Y-104610000D03*
%TD*%
D18*
%TO.C,U4*%
X157845000Y-57580000D03*
D19*
X157845000Y-65200000D03*
X157845000Y-72820000D03*
X165465000Y-72820000D03*
X165465000Y-65200000D03*
X165465000Y-57580000D03*
%TD*%
D11*
%TO.C,U1*%
X131810000Y-56310000D03*
D20*
X131810000Y-58850000D03*
X131810000Y-61390000D03*
X131810000Y-63930000D03*
X131810000Y-66470000D03*
X131810000Y-69010000D03*
X131810000Y-71550000D03*
X131810000Y-74090000D03*
X131810000Y-76630000D03*
X131810000Y-79170000D03*
X131810000Y-81710000D03*
X131810000Y-84250000D03*
X131810000Y-86790000D03*
X131810000Y-89330000D03*
X131810000Y-91870000D03*
X131810000Y-94410000D03*
X131810000Y-96950000D03*
X131810000Y-99490000D03*
X131810000Y-102030000D03*
X131810000Y-104570000D03*
X147050000Y-104570000D03*
X147050000Y-102030000D03*
X147050000Y-99490000D03*
X147050000Y-96950000D03*
X147050000Y-94410000D03*
X147050000Y-91870000D03*
X147050000Y-89330000D03*
X147050000Y-86790000D03*
X147050000Y-84250000D03*
X147050000Y-81710000D03*
X147050000Y-79170000D03*
X147050000Y-76630000D03*
X147050000Y-74090000D03*
X147050000Y-71550000D03*
X147050000Y-69010000D03*
X147050000Y-66470000D03*
X147050000Y-63930000D03*
X147050000Y-61390000D03*
X147050000Y-58850000D03*
X147050000Y-56310000D03*
%TD*%
D14*
%TO.C,J3*%
X120380000Y-125525000D03*
D15*
X122920000Y-125525000D03*
X125460000Y-125525000D03*
X120380000Y-128065000D03*
X122920000Y-128065000D03*
X125460000Y-128065000D03*
%TD*%
D12*
%TO.C,CN2*%
X197960080Y-129416740D03*
X197960080Y-126648140D03*
X197960080Y-123877000D03*
X197960080Y-121105860D03*
D13*
X199479000Y-136371260D03*
D12*
X197960080Y-118337260D03*
D13*
X199479000Y-111382740D03*
D12*
X200997920Y-128032440D03*
X200997920Y-125261300D03*
X200997920Y-122492700D03*
X200997920Y-119721560D03*
%TD*%
D11*
%TO.C,U2*%
X117840000Y-81710000D03*
D20*
X117840000Y-84250000D03*
X117840000Y-86790000D03*
X117840000Y-89330000D03*
X117840000Y-91870000D03*
X117840000Y-94410000D03*
X117840000Y-96950000D03*
X117840000Y-99490000D03*
X117840000Y-102030000D03*
X117840000Y-104570000D03*
X125460000Y-104570000D03*
X125460000Y-102030000D03*
X125460000Y-99490000D03*
X125460000Y-96950000D03*
X125460000Y-94410000D03*
X125460000Y-91870000D03*
X125460000Y-89330000D03*
X125460000Y-86790000D03*
X125460000Y-84250000D03*
X125460000Y-81710000D03*
%TD*%
D10*
%TO.C,C9*%
X196300000Y-104600000D03*
X201300000Y-104600000D03*
%TD*%
D14*
%TO.C,J2*%
X134350000Y-117905000D03*
D15*
X136890000Y-117905000D03*
X134350000Y-120445000D03*
X136890000Y-120445000D03*
X134350000Y-122985000D03*
X136890000Y-122985000D03*
X134350000Y-125525000D03*
X136890000Y-125525000D03*
X134350000Y-128065000D03*
X136890000Y-128065000D03*
%TD*%
D16*
%TO.C,U3*%
X185150000Y-65240000D03*
D17*
X185150000Y-67780000D03*
X185150000Y-70320000D03*
X185150000Y-72860000D03*
X185150000Y-75400000D03*
X185150000Y-77940000D03*
X185150000Y-80480000D03*
X185150000Y-83020000D03*
X185150000Y-85560000D03*
X185150000Y-88100000D03*
X192770000Y-88100000D03*
X192770000Y-85560000D03*
X192770000Y-83020000D03*
X192770000Y-80480000D03*
X192770000Y-77940000D03*
X192770000Y-75400000D03*
X192770000Y-72860000D03*
X192770000Y-70320000D03*
X192770000Y-67780000D03*
X192770000Y-65240000D03*
%TD*%
D10*
%TO.C,C3*%
X192770000Y-62065000D03*
X192770000Y-57065000D03*
%TD*%
D11*
%TO.C,C6*%
X194040000Y-96885000D03*
D20*
X194040000Y-99385000D03*
%TD*%
D10*
%TO.C,C1*%
X150860000Y-56310000D03*
X150860000Y-61310000D03*
%TD*%
%TO.C,C4*%
X171180000Y-56310000D03*
X171180000Y-61310000D03*
%TD*%
D11*
%TO.C,U8*%
X153400000Y-81710000D03*
D20*
X153400000Y-84250000D03*
X153400000Y-86790000D03*
X153400000Y-89330000D03*
X153400000Y-91870000D03*
X153400000Y-94410000D03*
X153400000Y-96950000D03*
X153400000Y-99490000D03*
X153400000Y-102030000D03*
X153400000Y-104570000D03*
X153400000Y-107110000D03*
X153400000Y-109650000D03*
X153400000Y-112190000D03*
X153400000Y-114730000D03*
X153400000Y-117270000D03*
X153400000Y-119810000D03*
X153400000Y-122350000D03*
X153400000Y-124890000D03*
X153400000Y-127430000D03*
X153400000Y-129970000D03*
X168640000Y-129970000D03*
X168640000Y-127430000D03*
X168640000Y-124890000D03*
X168640000Y-122350000D03*
X168640000Y-119810000D03*
X168640000Y-117270000D03*
X168640000Y-114730000D03*
X168640000Y-112190000D03*
X168640000Y-109650000D03*
X168640000Y-107110000D03*
X168640000Y-104570000D03*
X168640000Y-102030000D03*
X168640000Y-99490000D03*
X168640000Y-96950000D03*
X168640000Y-94410000D03*
X168640000Y-91870000D03*
X168640000Y-89330000D03*
X168640000Y-86790000D03*
X168640000Y-84250000D03*
X168640000Y-81710000D03*
%TD*%
D14*
%TO.C,J5*%
X183890000Y-143580000D03*
D15*
X181350000Y-143580000D03*
X178810000Y-143580000D03*
X176270000Y-143580000D03*
X173730000Y-143580000D03*
X171190000Y-143580000D03*
X168650000Y-143580000D03*
X166110000Y-143580000D03*
X163570000Y-143580000D03*
X161030000Y-143580000D03*
X158490000Y-143580000D03*
X155950000Y-143580000D03*
X153410000Y-143580000D03*
X150870000Y-143580000D03*
X148330000Y-143580000D03*
X145790000Y-143580000D03*
X143250000Y-143580000D03*
X140710000Y-143580000D03*
X138170000Y-143580000D03*
X135630000Y-143580000D03*
X133090000Y-143580000D03*
X130550000Y-143580000D03*
X128010000Y-143580000D03*
X125470000Y-143580000D03*
X122930000Y-143580000D03*
X120390000Y-143580000D03*
X117850000Y-143580000D03*
X115310000Y-143580000D03*
X112770000Y-143580000D03*
X110230000Y-143580000D03*
X107690000Y-143580000D03*
X183890000Y-141040000D03*
X181350000Y-141040000D03*
X178810000Y-141040000D03*
X176270000Y-141040000D03*
X173730000Y-141040000D03*
X171190000Y-141040000D03*
X168650000Y-141040000D03*
X166110000Y-141040000D03*
X163570000Y-141040000D03*
X161030000Y-141040000D03*
X158490000Y-141040000D03*
X155950000Y-141040000D03*
X153410000Y-141040000D03*
X150870000Y-141040000D03*
X148330000Y-141040000D03*
X145790000Y-141040000D03*
X143250000Y-141040000D03*
X140710000Y-141040000D03*
X138170000Y-141040000D03*
X135630000Y-141040000D03*
X133090000Y-141040000D03*
X130550000Y-141040000D03*
X128010000Y-141040000D03*
X125470000Y-141040000D03*
X122930000Y-141040000D03*
X120390000Y-141040000D03*
X117850000Y-141040000D03*
X115310000Y-141040000D03*
X112770000Y-141040000D03*
X110230000Y-141040000D03*
X107690000Y-141040000D03*
%TD*%
M02*
