%TF.GenerationSoftware,KiCad,Pcbnew,9.0.4*%
%TF.CreationDate,2026-04-05T10:22:42-04:00*%
%TF.ProjectId,DualSerialPlus,4475616c-5365-4726-9961-6c506c75732e,rev?*%
%TF.SameCoordinates,Original*%
%TF.FileFunction,Legend,Bot*%
%TF.FilePolarity,Positive*%
%FSLAX46Y46*%
G04 Gerber Fmt 4.6, Leading zero omitted, Abs format (unit mm)*
G04 Created by KiCad (PCBNEW 9.0.4) date 2026-04-05 10:22:42*
%MOMM*%
%LPD*%
G01*
G04 APERTURE LIST*
%ADD10C,0.150000*%
%ADD11C,0.304800*%
%ADD12C,0.120000*%
%ADD13C,0.381000*%
G04 APERTURE END LIST*
D10*
X195520580Y-70690523D02*
X195568200Y-70642904D01*
X195568200Y-70642904D02*
X195615819Y-70500047D01*
X195615819Y-70500047D02*
X195615819Y-70404809D01*
X195615819Y-70404809D02*
X195568200Y-70261952D01*
X195568200Y-70261952D02*
X195472961Y-70166714D01*
X195472961Y-70166714D02*
X195377723Y-70119095D01*
X195377723Y-70119095D02*
X195187247Y-70071476D01*
X195187247Y-70071476D02*
X195044390Y-70071476D01*
X195044390Y-70071476D02*
X194853914Y-70119095D01*
X194853914Y-70119095D02*
X194758676Y-70166714D01*
X194758676Y-70166714D02*
X194663438Y-70261952D01*
X194663438Y-70261952D02*
X194615819Y-70404809D01*
X194615819Y-70404809D02*
X194615819Y-70500047D01*
X194615819Y-70500047D02*
X194663438Y-70642904D01*
X194663438Y-70642904D02*
X194711057Y-70690523D01*
X195615819Y-71119095D02*
X194615819Y-71119095D01*
X194615819Y-71119095D02*
X195615819Y-71690523D01*
X195615819Y-71690523D02*
X194615819Y-71690523D01*
X195615819Y-72690523D02*
X195615819Y-72119095D01*
X195615819Y-72404809D02*
X194615819Y-72404809D01*
X194615819Y-72404809D02*
X194758676Y-72309571D01*
X194758676Y-72309571D02*
X194853914Y-72214333D01*
X194853914Y-72214333D02*
X194901533Y-72119095D01*
D11*
X214900181Y-74698000D02*
X213376181Y-74698000D01*
X213376181Y-74698000D02*
X213376181Y-75060857D01*
X213376181Y-75060857D02*
X213448752Y-75278571D01*
X213448752Y-75278571D02*
X213593895Y-75423714D01*
X213593895Y-75423714D02*
X213739038Y-75496285D01*
X213739038Y-75496285D02*
X214029324Y-75568857D01*
X214029324Y-75568857D02*
X214247038Y-75568857D01*
X214247038Y-75568857D02*
X214537324Y-75496285D01*
X214537324Y-75496285D02*
X214682467Y-75423714D01*
X214682467Y-75423714D02*
X214827610Y-75278571D01*
X214827610Y-75278571D02*
X214900181Y-75060857D01*
X214900181Y-75060857D02*
X214900181Y-74698000D01*
X214101895Y-76730000D02*
X214174467Y-76947714D01*
X214174467Y-76947714D02*
X214247038Y-77020285D01*
X214247038Y-77020285D02*
X214392181Y-77092857D01*
X214392181Y-77092857D02*
X214609895Y-77092857D01*
X214609895Y-77092857D02*
X214755038Y-77020285D01*
X214755038Y-77020285D02*
X214827610Y-76947714D01*
X214827610Y-76947714D02*
X214900181Y-76802571D01*
X214900181Y-76802571D02*
X214900181Y-76222000D01*
X214900181Y-76222000D02*
X213376181Y-76222000D01*
X213376181Y-76222000D02*
X213376181Y-76730000D01*
X213376181Y-76730000D02*
X213448752Y-76875143D01*
X213448752Y-76875143D02*
X213521324Y-76947714D01*
X213521324Y-76947714D02*
X213666467Y-77020285D01*
X213666467Y-77020285D02*
X213811610Y-77020285D01*
X213811610Y-77020285D02*
X213956752Y-76947714D01*
X213956752Y-76947714D02*
X214029324Y-76875143D01*
X214029324Y-76875143D02*
X214101895Y-76730000D01*
X214101895Y-76730000D02*
X214101895Y-76222000D01*
X214900181Y-77818571D02*
X214900181Y-78108857D01*
X214900181Y-78108857D02*
X214827610Y-78254000D01*
X214827610Y-78254000D02*
X214755038Y-78326571D01*
X214755038Y-78326571D02*
X214537324Y-78471714D01*
X214537324Y-78471714D02*
X214247038Y-78544285D01*
X214247038Y-78544285D02*
X213666467Y-78544285D01*
X213666467Y-78544285D02*
X213521324Y-78471714D01*
X213521324Y-78471714D02*
X213448752Y-78399143D01*
X213448752Y-78399143D02*
X213376181Y-78254000D01*
X213376181Y-78254000D02*
X213376181Y-77963714D01*
X213376181Y-77963714D02*
X213448752Y-77818571D01*
X213448752Y-77818571D02*
X213521324Y-77746000D01*
X213521324Y-77746000D02*
X213666467Y-77673428D01*
X213666467Y-77673428D02*
X214029324Y-77673428D01*
X214029324Y-77673428D02*
X214174467Y-77746000D01*
X214174467Y-77746000D02*
X214247038Y-77818571D01*
X214247038Y-77818571D02*
X214319610Y-77963714D01*
X214319610Y-77963714D02*
X214319610Y-78254000D01*
X214319610Y-78254000D02*
X214247038Y-78399143D01*
X214247038Y-78399143D02*
X214174467Y-78471714D01*
X214174467Y-78471714D02*
X214029324Y-78544285D01*
X214900181Y-80358572D02*
X213376181Y-80358572D01*
X213376181Y-80358572D02*
X214464752Y-80866572D01*
X214464752Y-80866572D02*
X213376181Y-81374572D01*
X213376181Y-81374572D02*
X214900181Y-81374572D01*
X214900181Y-82753429D02*
X214101895Y-82753429D01*
X214101895Y-82753429D02*
X213956752Y-82680857D01*
X213956752Y-82680857D02*
X213884181Y-82535714D01*
X213884181Y-82535714D02*
X213884181Y-82245429D01*
X213884181Y-82245429D02*
X213956752Y-82100286D01*
X214827610Y-82753429D02*
X214900181Y-82608286D01*
X214900181Y-82608286D02*
X214900181Y-82245429D01*
X214900181Y-82245429D02*
X214827610Y-82100286D01*
X214827610Y-82100286D02*
X214682467Y-82027714D01*
X214682467Y-82027714D02*
X214537324Y-82027714D01*
X214537324Y-82027714D02*
X214392181Y-82100286D01*
X214392181Y-82100286D02*
X214319610Y-82245429D01*
X214319610Y-82245429D02*
X214319610Y-82608286D01*
X214319610Y-82608286D02*
X214247038Y-82753429D01*
X214900181Y-83696857D02*
X214827610Y-83551714D01*
X214827610Y-83551714D02*
X214682467Y-83479143D01*
X214682467Y-83479143D02*
X213376181Y-83479143D01*
X214827610Y-84858000D02*
X214900181Y-84712857D01*
X214900181Y-84712857D02*
X214900181Y-84422572D01*
X214900181Y-84422572D02*
X214827610Y-84277429D01*
X214827610Y-84277429D02*
X214682467Y-84204857D01*
X214682467Y-84204857D02*
X214101895Y-84204857D01*
X214101895Y-84204857D02*
X213956752Y-84277429D01*
X213956752Y-84277429D02*
X213884181Y-84422572D01*
X213884181Y-84422572D02*
X213884181Y-84712857D01*
X213884181Y-84712857D02*
X213956752Y-84858000D01*
X213956752Y-84858000D02*
X214101895Y-84930572D01*
X214101895Y-84930572D02*
X214247038Y-84930572D01*
X214247038Y-84930572D02*
X214392181Y-84204857D01*
D10*
X195615819Y-75809666D02*
X194615819Y-75809666D01*
X194615819Y-75809666D02*
X194615819Y-76047761D01*
X194615819Y-76047761D02*
X194663438Y-76190618D01*
X194663438Y-76190618D02*
X194758676Y-76285856D01*
X194758676Y-76285856D02*
X194853914Y-76333475D01*
X194853914Y-76333475D02*
X195044390Y-76381094D01*
X195044390Y-76381094D02*
X195187247Y-76381094D01*
X195187247Y-76381094D02*
X195377723Y-76333475D01*
X195377723Y-76333475D02*
X195472961Y-76285856D01*
X195472961Y-76285856D02*
X195568200Y-76190618D01*
X195568200Y-76190618D02*
X195615819Y-76047761D01*
X195615819Y-76047761D02*
X195615819Y-75809666D01*
X195092009Y-77142999D02*
X195139628Y-77285856D01*
X195139628Y-77285856D02*
X195187247Y-77333475D01*
X195187247Y-77333475D02*
X195282485Y-77381094D01*
X195282485Y-77381094D02*
X195425342Y-77381094D01*
X195425342Y-77381094D02*
X195520580Y-77333475D01*
X195520580Y-77333475D02*
X195568200Y-77285856D01*
X195568200Y-77285856D02*
X195615819Y-77190618D01*
X195615819Y-77190618D02*
X195615819Y-76809666D01*
X195615819Y-76809666D02*
X194615819Y-76809666D01*
X194615819Y-76809666D02*
X194615819Y-77142999D01*
X194615819Y-77142999D02*
X194663438Y-77238237D01*
X194663438Y-77238237D02*
X194711057Y-77285856D01*
X194711057Y-77285856D02*
X194806295Y-77333475D01*
X194806295Y-77333475D02*
X194901533Y-77333475D01*
X194901533Y-77333475D02*
X194996771Y-77285856D01*
X194996771Y-77285856D02*
X195044390Y-77238237D01*
X195044390Y-77238237D02*
X195092009Y-77142999D01*
X195092009Y-77142999D02*
X195092009Y-76809666D01*
X195615819Y-77857285D02*
X195615819Y-78047761D01*
X195615819Y-78047761D02*
X195568200Y-78142999D01*
X195568200Y-78142999D02*
X195520580Y-78190618D01*
X195520580Y-78190618D02*
X195377723Y-78285856D01*
X195377723Y-78285856D02*
X195187247Y-78333475D01*
X195187247Y-78333475D02*
X194806295Y-78333475D01*
X194806295Y-78333475D02*
X194711057Y-78285856D01*
X194711057Y-78285856D02*
X194663438Y-78238237D01*
X194663438Y-78238237D02*
X194615819Y-78142999D01*
X194615819Y-78142999D02*
X194615819Y-77952523D01*
X194615819Y-77952523D02*
X194663438Y-77857285D01*
X194663438Y-77857285D02*
X194711057Y-77809666D01*
X194711057Y-77809666D02*
X194806295Y-77762047D01*
X194806295Y-77762047D02*
X195044390Y-77762047D01*
X195044390Y-77762047D02*
X195139628Y-77809666D01*
X195139628Y-77809666D02*
X195187247Y-77857285D01*
X195187247Y-77857285D02*
X195234866Y-77952523D01*
X195234866Y-77952523D02*
X195234866Y-78142999D01*
X195234866Y-78142999D02*
X195187247Y-78238237D01*
X195187247Y-78238237D02*
X195139628Y-78285856D01*
X195139628Y-78285856D02*
X195044390Y-78333475D01*
X195615819Y-79523952D02*
X194615819Y-79523952D01*
X194615819Y-79523952D02*
X195330104Y-79857285D01*
X195330104Y-79857285D02*
X194615819Y-80190618D01*
X194615819Y-80190618D02*
X195615819Y-80190618D01*
X195615819Y-81095380D02*
X195092009Y-81095380D01*
X195092009Y-81095380D02*
X194996771Y-81047761D01*
X194996771Y-81047761D02*
X194949152Y-80952523D01*
X194949152Y-80952523D02*
X194949152Y-80762047D01*
X194949152Y-80762047D02*
X194996771Y-80666809D01*
X195568200Y-81095380D02*
X195615819Y-81000142D01*
X195615819Y-81000142D02*
X195615819Y-80762047D01*
X195615819Y-80762047D02*
X195568200Y-80666809D01*
X195568200Y-80666809D02*
X195472961Y-80619190D01*
X195472961Y-80619190D02*
X195377723Y-80619190D01*
X195377723Y-80619190D02*
X195282485Y-80666809D01*
X195282485Y-80666809D02*
X195234866Y-80762047D01*
X195234866Y-80762047D02*
X195234866Y-81000142D01*
X195234866Y-81000142D02*
X195187247Y-81095380D01*
X195615819Y-81714428D02*
X195568200Y-81619190D01*
X195568200Y-81619190D02*
X195472961Y-81571571D01*
X195472961Y-81571571D02*
X194615819Y-81571571D01*
X195568200Y-82476333D02*
X195615819Y-82381095D01*
X195615819Y-82381095D02*
X195615819Y-82190619D01*
X195615819Y-82190619D02*
X195568200Y-82095381D01*
X195568200Y-82095381D02*
X195472961Y-82047762D01*
X195472961Y-82047762D02*
X195092009Y-82047762D01*
X195092009Y-82047762D02*
X194996771Y-82095381D01*
X194996771Y-82095381D02*
X194949152Y-82190619D01*
X194949152Y-82190619D02*
X194949152Y-82381095D01*
X194949152Y-82381095D02*
X194996771Y-82476333D01*
X194996771Y-82476333D02*
X195092009Y-82523952D01*
X195092009Y-82523952D02*
X195187247Y-82523952D01*
X195187247Y-82523952D02*
X195282485Y-82047762D01*
X195520580Y-115783523D02*
X195568200Y-115735904D01*
X195568200Y-115735904D02*
X195615819Y-115593047D01*
X195615819Y-115593047D02*
X195615819Y-115497809D01*
X195615819Y-115497809D02*
X195568200Y-115354952D01*
X195568200Y-115354952D02*
X195472961Y-115259714D01*
X195472961Y-115259714D02*
X195377723Y-115212095D01*
X195377723Y-115212095D02*
X195187247Y-115164476D01*
X195187247Y-115164476D02*
X195044390Y-115164476D01*
X195044390Y-115164476D02*
X194853914Y-115212095D01*
X194853914Y-115212095D02*
X194758676Y-115259714D01*
X194758676Y-115259714D02*
X194663438Y-115354952D01*
X194663438Y-115354952D02*
X194615819Y-115497809D01*
X194615819Y-115497809D02*
X194615819Y-115593047D01*
X194615819Y-115593047D02*
X194663438Y-115735904D01*
X194663438Y-115735904D02*
X194711057Y-115783523D01*
X195615819Y-116212095D02*
X194615819Y-116212095D01*
X194615819Y-116212095D02*
X195615819Y-116783523D01*
X195615819Y-116783523D02*
X194615819Y-116783523D01*
X194711057Y-117212095D02*
X194663438Y-117259714D01*
X194663438Y-117259714D02*
X194615819Y-117354952D01*
X194615819Y-117354952D02*
X194615819Y-117593047D01*
X194615819Y-117593047D02*
X194663438Y-117688285D01*
X194663438Y-117688285D02*
X194711057Y-117735904D01*
X194711057Y-117735904D02*
X194806295Y-117783523D01*
X194806295Y-117783523D02*
X194901533Y-117783523D01*
X194901533Y-117783523D02*
X195044390Y-117735904D01*
X195044390Y-117735904D02*
X195615819Y-117164476D01*
X195615819Y-117164476D02*
X195615819Y-117783523D01*
D11*
X214900181Y-119432000D02*
X213376181Y-119432000D01*
X213376181Y-119432000D02*
X213376181Y-119794857D01*
X213376181Y-119794857D02*
X213448752Y-120012571D01*
X213448752Y-120012571D02*
X213593895Y-120157714D01*
X213593895Y-120157714D02*
X213739038Y-120230285D01*
X213739038Y-120230285D02*
X214029324Y-120302857D01*
X214029324Y-120302857D02*
X214247038Y-120302857D01*
X214247038Y-120302857D02*
X214537324Y-120230285D01*
X214537324Y-120230285D02*
X214682467Y-120157714D01*
X214682467Y-120157714D02*
X214827610Y-120012571D01*
X214827610Y-120012571D02*
X214900181Y-119794857D01*
X214900181Y-119794857D02*
X214900181Y-119432000D01*
X214101895Y-121464000D02*
X214174467Y-121681714D01*
X214174467Y-121681714D02*
X214247038Y-121754285D01*
X214247038Y-121754285D02*
X214392181Y-121826857D01*
X214392181Y-121826857D02*
X214609895Y-121826857D01*
X214609895Y-121826857D02*
X214755038Y-121754285D01*
X214755038Y-121754285D02*
X214827610Y-121681714D01*
X214827610Y-121681714D02*
X214900181Y-121536571D01*
X214900181Y-121536571D02*
X214900181Y-120956000D01*
X214900181Y-120956000D02*
X213376181Y-120956000D01*
X213376181Y-120956000D02*
X213376181Y-121464000D01*
X213376181Y-121464000D02*
X213448752Y-121609143D01*
X213448752Y-121609143D02*
X213521324Y-121681714D01*
X213521324Y-121681714D02*
X213666467Y-121754285D01*
X213666467Y-121754285D02*
X213811610Y-121754285D01*
X213811610Y-121754285D02*
X213956752Y-121681714D01*
X213956752Y-121681714D02*
X214029324Y-121609143D01*
X214029324Y-121609143D02*
X214101895Y-121464000D01*
X214101895Y-121464000D02*
X214101895Y-120956000D01*
X214900181Y-122552571D02*
X214900181Y-122842857D01*
X214900181Y-122842857D02*
X214827610Y-122988000D01*
X214827610Y-122988000D02*
X214755038Y-123060571D01*
X214755038Y-123060571D02*
X214537324Y-123205714D01*
X214537324Y-123205714D02*
X214247038Y-123278285D01*
X214247038Y-123278285D02*
X213666467Y-123278285D01*
X213666467Y-123278285D02*
X213521324Y-123205714D01*
X213521324Y-123205714D02*
X213448752Y-123133143D01*
X213448752Y-123133143D02*
X213376181Y-122988000D01*
X213376181Y-122988000D02*
X213376181Y-122697714D01*
X213376181Y-122697714D02*
X213448752Y-122552571D01*
X213448752Y-122552571D02*
X213521324Y-122480000D01*
X213521324Y-122480000D02*
X213666467Y-122407428D01*
X213666467Y-122407428D02*
X214029324Y-122407428D01*
X214029324Y-122407428D02*
X214174467Y-122480000D01*
X214174467Y-122480000D02*
X214247038Y-122552571D01*
X214247038Y-122552571D02*
X214319610Y-122697714D01*
X214319610Y-122697714D02*
X214319610Y-122988000D01*
X214319610Y-122988000D02*
X214247038Y-123133143D01*
X214247038Y-123133143D02*
X214174467Y-123205714D01*
X214174467Y-123205714D02*
X214029324Y-123278285D01*
X214900181Y-125092572D02*
X213376181Y-125092572D01*
X213376181Y-125092572D02*
X214464752Y-125600572D01*
X214464752Y-125600572D02*
X213376181Y-126108572D01*
X213376181Y-126108572D02*
X214900181Y-126108572D01*
X214900181Y-127487429D02*
X214101895Y-127487429D01*
X214101895Y-127487429D02*
X213956752Y-127414857D01*
X213956752Y-127414857D02*
X213884181Y-127269714D01*
X213884181Y-127269714D02*
X213884181Y-126979429D01*
X213884181Y-126979429D02*
X213956752Y-126834286D01*
X214827610Y-127487429D02*
X214900181Y-127342286D01*
X214900181Y-127342286D02*
X214900181Y-126979429D01*
X214900181Y-126979429D02*
X214827610Y-126834286D01*
X214827610Y-126834286D02*
X214682467Y-126761714D01*
X214682467Y-126761714D02*
X214537324Y-126761714D01*
X214537324Y-126761714D02*
X214392181Y-126834286D01*
X214392181Y-126834286D02*
X214319610Y-126979429D01*
X214319610Y-126979429D02*
X214319610Y-127342286D01*
X214319610Y-127342286D02*
X214247038Y-127487429D01*
X214900181Y-128430857D02*
X214827610Y-128285714D01*
X214827610Y-128285714D02*
X214682467Y-128213143D01*
X214682467Y-128213143D02*
X213376181Y-128213143D01*
X214827610Y-129592000D02*
X214900181Y-129446857D01*
X214900181Y-129446857D02*
X214900181Y-129156572D01*
X214900181Y-129156572D02*
X214827610Y-129011429D01*
X214827610Y-129011429D02*
X214682467Y-128938857D01*
X214682467Y-128938857D02*
X214101895Y-128938857D01*
X214101895Y-128938857D02*
X213956752Y-129011429D01*
X213956752Y-129011429D02*
X213884181Y-129156572D01*
X213884181Y-129156572D02*
X213884181Y-129446857D01*
X213884181Y-129446857D02*
X213956752Y-129592000D01*
X213956752Y-129592000D02*
X214101895Y-129664572D01*
X214101895Y-129664572D02*
X214247038Y-129664572D01*
X214247038Y-129664572D02*
X214392181Y-128938857D01*
D10*
X195615819Y-120543666D02*
X194615819Y-120543666D01*
X194615819Y-120543666D02*
X194615819Y-120781761D01*
X194615819Y-120781761D02*
X194663438Y-120924618D01*
X194663438Y-120924618D02*
X194758676Y-121019856D01*
X194758676Y-121019856D02*
X194853914Y-121067475D01*
X194853914Y-121067475D02*
X195044390Y-121115094D01*
X195044390Y-121115094D02*
X195187247Y-121115094D01*
X195187247Y-121115094D02*
X195377723Y-121067475D01*
X195377723Y-121067475D02*
X195472961Y-121019856D01*
X195472961Y-121019856D02*
X195568200Y-120924618D01*
X195568200Y-120924618D02*
X195615819Y-120781761D01*
X195615819Y-120781761D02*
X195615819Y-120543666D01*
X195092009Y-121876999D02*
X195139628Y-122019856D01*
X195139628Y-122019856D02*
X195187247Y-122067475D01*
X195187247Y-122067475D02*
X195282485Y-122115094D01*
X195282485Y-122115094D02*
X195425342Y-122115094D01*
X195425342Y-122115094D02*
X195520580Y-122067475D01*
X195520580Y-122067475D02*
X195568200Y-122019856D01*
X195568200Y-122019856D02*
X195615819Y-121924618D01*
X195615819Y-121924618D02*
X195615819Y-121543666D01*
X195615819Y-121543666D02*
X194615819Y-121543666D01*
X194615819Y-121543666D02*
X194615819Y-121876999D01*
X194615819Y-121876999D02*
X194663438Y-121972237D01*
X194663438Y-121972237D02*
X194711057Y-122019856D01*
X194711057Y-122019856D02*
X194806295Y-122067475D01*
X194806295Y-122067475D02*
X194901533Y-122067475D01*
X194901533Y-122067475D02*
X194996771Y-122019856D01*
X194996771Y-122019856D02*
X195044390Y-121972237D01*
X195044390Y-121972237D02*
X195092009Y-121876999D01*
X195092009Y-121876999D02*
X195092009Y-121543666D01*
X195615819Y-122591285D02*
X195615819Y-122781761D01*
X195615819Y-122781761D02*
X195568200Y-122876999D01*
X195568200Y-122876999D02*
X195520580Y-122924618D01*
X195520580Y-122924618D02*
X195377723Y-123019856D01*
X195377723Y-123019856D02*
X195187247Y-123067475D01*
X195187247Y-123067475D02*
X194806295Y-123067475D01*
X194806295Y-123067475D02*
X194711057Y-123019856D01*
X194711057Y-123019856D02*
X194663438Y-122972237D01*
X194663438Y-122972237D02*
X194615819Y-122876999D01*
X194615819Y-122876999D02*
X194615819Y-122686523D01*
X194615819Y-122686523D02*
X194663438Y-122591285D01*
X194663438Y-122591285D02*
X194711057Y-122543666D01*
X194711057Y-122543666D02*
X194806295Y-122496047D01*
X194806295Y-122496047D02*
X195044390Y-122496047D01*
X195044390Y-122496047D02*
X195139628Y-122543666D01*
X195139628Y-122543666D02*
X195187247Y-122591285D01*
X195187247Y-122591285D02*
X195234866Y-122686523D01*
X195234866Y-122686523D02*
X195234866Y-122876999D01*
X195234866Y-122876999D02*
X195187247Y-122972237D01*
X195187247Y-122972237D02*
X195139628Y-123019856D01*
X195139628Y-123019856D02*
X195044390Y-123067475D01*
X195615819Y-124257952D02*
X194615819Y-124257952D01*
X194615819Y-124257952D02*
X195330104Y-124591285D01*
X195330104Y-124591285D02*
X194615819Y-124924618D01*
X194615819Y-124924618D02*
X195615819Y-124924618D01*
X195615819Y-125829380D02*
X195092009Y-125829380D01*
X195092009Y-125829380D02*
X194996771Y-125781761D01*
X194996771Y-125781761D02*
X194949152Y-125686523D01*
X194949152Y-125686523D02*
X194949152Y-125496047D01*
X194949152Y-125496047D02*
X194996771Y-125400809D01*
X195568200Y-125829380D02*
X195615819Y-125734142D01*
X195615819Y-125734142D02*
X195615819Y-125496047D01*
X195615819Y-125496047D02*
X195568200Y-125400809D01*
X195568200Y-125400809D02*
X195472961Y-125353190D01*
X195472961Y-125353190D02*
X195377723Y-125353190D01*
X195377723Y-125353190D02*
X195282485Y-125400809D01*
X195282485Y-125400809D02*
X195234866Y-125496047D01*
X195234866Y-125496047D02*
X195234866Y-125734142D01*
X195234866Y-125734142D02*
X195187247Y-125829380D01*
X195615819Y-126448428D02*
X195568200Y-126353190D01*
X195568200Y-126353190D02*
X195472961Y-126305571D01*
X195472961Y-126305571D02*
X194615819Y-126305571D01*
X195568200Y-127210333D02*
X195615819Y-127115095D01*
X195615819Y-127115095D02*
X195615819Y-126924619D01*
X195615819Y-126924619D02*
X195568200Y-126829381D01*
X195568200Y-126829381D02*
X195472961Y-126781762D01*
X195472961Y-126781762D02*
X195092009Y-126781762D01*
X195092009Y-126781762D02*
X194996771Y-126829381D01*
X194996771Y-126829381D02*
X194949152Y-126924619D01*
X194949152Y-126924619D02*
X194949152Y-127115095D01*
X194949152Y-127115095D02*
X194996771Y-127210333D01*
X194996771Y-127210333D02*
X195092009Y-127257952D01*
X195092009Y-127257952D02*
X195187247Y-127257952D01*
X195187247Y-127257952D02*
X195282485Y-126781762D01*
D12*
%TO.C,CN1*%
X196177000Y-63649000D02*
X211163000Y-63649000D01*
X196177000Y-94637000D02*
X196177000Y-63649000D01*
D13*
X208115000Y-64157000D02*
X208369000Y-64157000D01*
X208115000Y-68983000D02*
X208115000Y-64157000D01*
X208115000Y-89430000D02*
X208369000Y-89430000D01*
X208115000Y-94002000D02*
X208115000Y-89430000D01*
X208369000Y-64157000D02*
X208369000Y-68983000D01*
X208369000Y-68983000D02*
X208115000Y-68983000D01*
X208369000Y-89430000D02*
X208369000Y-94002000D01*
X208369000Y-94002000D02*
X208115000Y-94002000D01*
X208496000Y-63649000D02*
X208496000Y-94637000D01*
D12*
X208496000Y-70126000D02*
X196177000Y-70126000D01*
X208496000Y-88160000D02*
X196177000Y-88160000D01*
D13*
X211163000Y-63649000D02*
X211163000Y-94637000D01*
X211163000Y-64030000D02*
X217005000Y-64030000D01*
X211163000Y-65046000D02*
X217005000Y-65046000D01*
X211163000Y-68094000D02*
X217005000Y-68094000D01*
X211163000Y-71015000D02*
X217005000Y-71015000D01*
X211163000Y-89176000D02*
X217005000Y-89176000D01*
X211163000Y-90192000D02*
X217005000Y-90192000D01*
X211163000Y-93240000D02*
X217005000Y-93240000D01*
D12*
X211163000Y-94637000D02*
X196177000Y-94637000D01*
D13*
X217005000Y-64030000D02*
X217005000Y-69110000D01*
X217005000Y-69110000D02*
X211290000Y-69110000D01*
X217005000Y-71015000D02*
X217005000Y-87271000D01*
X217005000Y-87271000D02*
X211163000Y-87271000D01*
X217005000Y-89176000D02*
X217005000Y-94256000D01*
X217005000Y-94256000D02*
X211290000Y-94256000D01*
D12*
%TO.C,CN2*%
X196177000Y-108383000D02*
X211163000Y-108383000D01*
X196177000Y-139371000D02*
X196177000Y-108383000D01*
D13*
X208115000Y-108891000D02*
X208369000Y-108891000D01*
X208115000Y-113717000D02*
X208115000Y-108891000D01*
X208115000Y-134164000D02*
X208369000Y-134164000D01*
X208115000Y-138736000D02*
X208115000Y-134164000D01*
X208369000Y-108891000D02*
X208369000Y-113717000D01*
X208369000Y-113717000D02*
X208115000Y-113717000D01*
X208369000Y-134164000D02*
X208369000Y-138736000D01*
X208369000Y-138736000D02*
X208115000Y-138736000D01*
X208496000Y-108383000D02*
X208496000Y-139371000D01*
D12*
X208496000Y-114860000D02*
X196177000Y-114860000D01*
X208496000Y-132894000D02*
X196177000Y-132894000D01*
D13*
X211163000Y-108383000D02*
X211163000Y-139371000D01*
X211163000Y-108764000D02*
X217005000Y-108764000D01*
X211163000Y-109780000D02*
X217005000Y-109780000D01*
X211163000Y-112828000D02*
X217005000Y-112828000D01*
X211163000Y-115749000D02*
X217005000Y-115749000D01*
X211163000Y-133910000D02*
X217005000Y-133910000D01*
X211163000Y-134926000D02*
X217005000Y-134926000D01*
X211163000Y-137974000D02*
X217005000Y-137974000D01*
D12*
X211163000Y-139371000D02*
X196177000Y-139371000D01*
D13*
X217005000Y-108764000D02*
X217005000Y-113844000D01*
X217005000Y-113844000D02*
X211290000Y-113844000D01*
X217005000Y-115749000D02*
X217005000Y-132005000D01*
X217005000Y-132005000D02*
X211163000Y-132005000D01*
X217005000Y-133910000D02*
X217005000Y-138990000D01*
X217005000Y-138990000D02*
X211290000Y-138990000D01*
%TD*%
M02*
