%TF.GenerationSoftware,KiCad,Pcbnew,9.0.4*%
%TF.CreationDate,2026-03-28T11:49:58-04:00*%
%TF.ProjectId,TandyPlusToISA,54616e64-7950-46c7-9573-546f4953412e,rev?*%
%TF.SameCoordinates,Original*%
%TF.FileFunction,Drillmap*%
%TF.FilePolarity,Positive*%
%FSLAX45Y45*%
G04 Gerber Fmt 4.5, Leading zero omitted, Abs format (unit mm)*
G04 Created by KiCad (PCBNEW 9.0.4) date 2026-03-28 11:49:58*
%MOMM*%
%LPD*%
G01*
G04 APERTURE LIST*
%ADD10C,0.050000*%
%ADD11C,0.200000*%
%ADD12C,0.100000*%
G04 APERTURE END LIST*
D10*
X9474200Y-10734000D02*
X17703800Y-10734000D01*
X9410700Y-11874500D02*
X9410700Y-10797500D01*
X17640300Y-12001500D02*
X9537700Y-12001500D01*
X17767300Y-11874500D02*
G75*
G02*
X17640300Y-12001500I-127000J0D01*
G01*
X9537700Y-12001500D02*
G75*
G02*
X9410700Y-11874500I0J127000D01*
G01*
X17767300Y-10797500D02*
X17767300Y-11874500D01*
X17703800Y-10734000D02*
G75*
G02*
X17767300Y-10797500I0J-63500D01*
G01*
X9410700Y-10797500D02*
G75*
G02*
X9474200Y-10734000I63500J0D01*
G01*
D11*
D12*
X9856000Y-11507000D02*
X9956000Y-11607000D01*
X9956000Y-11507000D02*
X9856000Y-11607000D01*
X9856000Y-11761000D02*
X9956000Y-11861000D01*
X9956000Y-11761000D02*
X9856000Y-11861000D01*
X10110000Y-11507000D02*
X10210000Y-11607000D01*
X10210000Y-11507000D02*
X10110000Y-11607000D01*
X10110000Y-11761000D02*
X10210000Y-11861000D01*
X10210000Y-11761000D02*
X10110000Y-11861000D01*
X10364000Y-11507000D02*
X10464000Y-11607000D01*
X10464000Y-11507000D02*
X10364000Y-11607000D01*
X10364000Y-11761000D02*
X10464000Y-11861000D01*
X10464000Y-11761000D02*
X10364000Y-11861000D01*
X10618000Y-11507000D02*
X10718000Y-11607000D01*
X10718000Y-11507000D02*
X10618000Y-11607000D01*
X10618000Y-11761000D02*
X10718000Y-11861000D01*
X10718000Y-11761000D02*
X10618000Y-11861000D01*
X10872000Y-11507000D02*
X10972000Y-11607000D01*
X10972000Y-11507000D02*
X10872000Y-11607000D01*
X10872000Y-11761000D02*
X10972000Y-11861000D01*
X10972000Y-11761000D02*
X10872000Y-11861000D01*
X11126000Y-11507000D02*
X11226000Y-11607000D01*
X11226000Y-11507000D02*
X11126000Y-11607000D01*
X11126000Y-11761000D02*
X11226000Y-11861000D01*
X11226000Y-11761000D02*
X11126000Y-11861000D01*
X11380000Y-11507000D02*
X11480000Y-11607000D01*
X11480000Y-11507000D02*
X11380000Y-11607000D01*
X11380000Y-11761000D02*
X11480000Y-11861000D01*
X11480000Y-11761000D02*
X11380000Y-11861000D01*
X11634000Y-11507000D02*
X11734000Y-11607000D01*
X11734000Y-11507000D02*
X11634000Y-11607000D01*
X11634000Y-11761000D02*
X11734000Y-11861000D01*
X11734000Y-11761000D02*
X11634000Y-11861000D01*
X11888000Y-11507000D02*
X11988000Y-11607000D01*
X11988000Y-11507000D02*
X11888000Y-11607000D01*
X11888000Y-11761000D02*
X11988000Y-11861000D01*
X11988000Y-11761000D02*
X11888000Y-11861000D01*
X12142000Y-11507000D02*
X12242000Y-11607000D01*
X12242000Y-11507000D02*
X12142000Y-11607000D01*
X12142000Y-11761000D02*
X12242000Y-11861000D01*
X12242000Y-11761000D02*
X12142000Y-11861000D01*
X12396000Y-11507000D02*
X12496000Y-11607000D01*
X12496000Y-11507000D02*
X12396000Y-11607000D01*
X12396000Y-11761000D02*
X12496000Y-11861000D01*
X12496000Y-11761000D02*
X12396000Y-11861000D01*
X12650000Y-11507000D02*
X12750000Y-11607000D01*
X12750000Y-11507000D02*
X12650000Y-11607000D01*
X12650000Y-11761000D02*
X12750000Y-11861000D01*
X12750000Y-11761000D02*
X12650000Y-11861000D01*
X12904000Y-11507000D02*
X13004000Y-11607000D01*
X13004000Y-11507000D02*
X12904000Y-11607000D01*
X12904000Y-11761000D02*
X13004000Y-11861000D01*
X13004000Y-11761000D02*
X12904000Y-11861000D01*
X13158000Y-11507000D02*
X13258000Y-11607000D01*
X13258000Y-11507000D02*
X13158000Y-11607000D01*
X13158000Y-11761000D02*
X13258000Y-11861000D01*
X13258000Y-11761000D02*
X13158000Y-11861000D01*
X13412000Y-11507000D02*
X13512000Y-11607000D01*
X13512000Y-11507000D02*
X13412000Y-11607000D01*
X13412000Y-11761000D02*
X13512000Y-11861000D01*
X13512000Y-11761000D02*
X13412000Y-11861000D01*
X13666000Y-11507000D02*
X13766000Y-11607000D01*
X13766000Y-11507000D02*
X13666000Y-11607000D01*
X13666000Y-11761000D02*
X13766000Y-11861000D01*
X13766000Y-11761000D02*
X13666000Y-11861000D01*
X13920000Y-11507000D02*
X14020000Y-11607000D01*
X14020000Y-11507000D02*
X13920000Y-11607000D01*
X13920000Y-11761000D02*
X14020000Y-11861000D01*
X14020000Y-11761000D02*
X13920000Y-11861000D01*
X14174000Y-11507000D02*
X14274000Y-11607000D01*
X14274000Y-11507000D02*
X14174000Y-11607000D01*
X14174000Y-11761000D02*
X14274000Y-11861000D01*
X14274000Y-11761000D02*
X14174000Y-11861000D01*
X14428000Y-11507000D02*
X14528000Y-11607000D01*
X14528000Y-11507000D02*
X14428000Y-11607000D01*
X14428000Y-11761000D02*
X14528000Y-11861000D01*
X14528000Y-11761000D02*
X14428000Y-11861000D01*
X14682000Y-11507000D02*
X14782000Y-11607000D01*
X14782000Y-11507000D02*
X14682000Y-11607000D01*
X14682000Y-11761000D02*
X14782000Y-11861000D01*
X14782000Y-11761000D02*
X14682000Y-11861000D01*
X14936000Y-11507000D02*
X15036000Y-11607000D01*
X15036000Y-11507000D02*
X14936000Y-11607000D01*
X14936000Y-11761000D02*
X15036000Y-11861000D01*
X15036000Y-11761000D02*
X14936000Y-11861000D01*
X15190000Y-11507000D02*
X15290000Y-11607000D01*
X15290000Y-11507000D02*
X15190000Y-11607000D01*
X15190000Y-11761000D02*
X15290000Y-11861000D01*
X15290000Y-11761000D02*
X15190000Y-11861000D01*
X15444000Y-11507000D02*
X15544000Y-11607000D01*
X15544000Y-11507000D02*
X15444000Y-11607000D01*
X15444000Y-11761000D02*
X15544000Y-11861000D01*
X15544000Y-11761000D02*
X15444000Y-11861000D01*
X15698000Y-11507000D02*
X15798000Y-11607000D01*
X15798000Y-11507000D02*
X15698000Y-11607000D01*
X15698000Y-11761000D02*
X15798000Y-11861000D01*
X15798000Y-11761000D02*
X15698000Y-11861000D01*
X15952000Y-11507000D02*
X16052000Y-11607000D01*
X16052000Y-11507000D02*
X15952000Y-11607000D01*
X15952000Y-11761000D02*
X16052000Y-11861000D01*
X16052000Y-11761000D02*
X15952000Y-11861000D01*
X16206000Y-11507000D02*
X16306000Y-11607000D01*
X16306000Y-11507000D02*
X16206000Y-11607000D01*
X16206000Y-11761000D02*
X16306000Y-11861000D01*
X16306000Y-11761000D02*
X16206000Y-11861000D01*
X16460000Y-11507000D02*
X16560000Y-11607000D01*
X16560000Y-11507000D02*
X16460000Y-11607000D01*
X16460000Y-11761000D02*
X16560000Y-11861000D01*
X16560000Y-11761000D02*
X16460000Y-11861000D01*
X16714000Y-11507000D02*
X16814000Y-11607000D01*
X16814000Y-11507000D02*
X16714000Y-11607000D01*
X16714000Y-11761000D02*
X16814000Y-11861000D01*
X16814000Y-11761000D02*
X16714000Y-11861000D01*
X16968000Y-11507000D02*
X17068000Y-11607000D01*
X17068000Y-11507000D02*
X16968000Y-11607000D01*
X16968000Y-11761000D02*
X17068000Y-11861000D01*
X17068000Y-11761000D02*
X16968000Y-11861000D01*
X17222000Y-11507000D02*
X17322000Y-11607000D01*
X17322000Y-11507000D02*
X17222000Y-11607000D01*
X17222000Y-11761000D02*
X17322000Y-11861000D01*
X17322000Y-11761000D02*
X17222000Y-11861000D01*
X17476000Y-11507000D02*
X17576000Y-11607000D01*
X17576000Y-11507000D02*
X17476000Y-11607000D01*
X17476000Y-11761000D02*
X17576000Y-11861000D01*
X17576000Y-11761000D02*
X17476000Y-11861000D01*
D11*
X9668977Y-12315484D02*
X9668977Y-12115484D01*
X9668977Y-12115484D02*
X9716596Y-12115484D01*
X9716596Y-12115484D02*
X9745167Y-12125008D01*
X9745167Y-12125008D02*
X9764215Y-12144055D01*
X9764215Y-12144055D02*
X9773739Y-12163103D01*
X9773739Y-12163103D02*
X9783263Y-12201198D01*
X9783263Y-12201198D02*
X9783263Y-12229769D01*
X9783263Y-12229769D02*
X9773739Y-12267865D01*
X9773739Y-12267865D02*
X9764215Y-12286912D01*
X9764215Y-12286912D02*
X9745167Y-12305960D01*
X9745167Y-12305960D02*
X9716596Y-12315484D01*
X9716596Y-12315484D02*
X9668977Y-12315484D01*
X9868977Y-12315484D02*
X9868977Y-12182150D01*
X9868977Y-12220246D02*
X9878501Y-12201198D01*
X9878501Y-12201198D02*
X9888024Y-12191674D01*
X9888024Y-12191674D02*
X9907072Y-12182150D01*
X9907072Y-12182150D02*
X9926120Y-12182150D01*
X9992786Y-12315484D02*
X9992786Y-12182150D01*
X9992786Y-12115484D02*
X9983263Y-12125008D01*
X9983263Y-12125008D02*
X9992786Y-12134531D01*
X9992786Y-12134531D02*
X10002310Y-12125008D01*
X10002310Y-12125008D02*
X9992786Y-12115484D01*
X9992786Y-12115484D02*
X9992786Y-12134531D01*
X10116596Y-12315484D02*
X10097548Y-12305960D01*
X10097548Y-12305960D02*
X10088024Y-12286912D01*
X10088024Y-12286912D02*
X10088024Y-12115484D01*
X10221358Y-12315484D02*
X10202310Y-12305960D01*
X10202310Y-12305960D02*
X10192786Y-12286912D01*
X10192786Y-12286912D02*
X10192786Y-12115484D01*
X10449929Y-12315484D02*
X10449929Y-12115484D01*
X10449929Y-12115484D02*
X10516596Y-12258341D01*
X10516596Y-12258341D02*
X10583263Y-12115484D01*
X10583263Y-12115484D02*
X10583263Y-12315484D01*
X10764215Y-12315484D02*
X10764215Y-12210722D01*
X10764215Y-12210722D02*
X10754691Y-12191674D01*
X10754691Y-12191674D02*
X10735644Y-12182150D01*
X10735644Y-12182150D02*
X10697548Y-12182150D01*
X10697548Y-12182150D02*
X10678501Y-12191674D01*
X10764215Y-12305960D02*
X10745167Y-12315484D01*
X10745167Y-12315484D02*
X10697548Y-12315484D01*
X10697548Y-12315484D02*
X10678501Y-12305960D01*
X10678501Y-12305960D02*
X10668977Y-12286912D01*
X10668977Y-12286912D02*
X10668977Y-12267865D01*
X10668977Y-12267865D02*
X10678501Y-12248817D01*
X10678501Y-12248817D02*
X10697548Y-12239293D01*
X10697548Y-12239293D02*
X10745167Y-12239293D01*
X10745167Y-12239293D02*
X10764215Y-12229769D01*
X10859453Y-12182150D02*
X10859453Y-12382150D01*
X10859453Y-12191674D02*
X10878501Y-12182150D01*
X10878501Y-12182150D02*
X10916596Y-12182150D01*
X10916596Y-12182150D02*
X10935644Y-12191674D01*
X10935644Y-12191674D02*
X10945167Y-12201198D01*
X10945167Y-12201198D02*
X10954691Y-12220246D01*
X10954691Y-12220246D02*
X10954691Y-12277388D01*
X10954691Y-12277388D02*
X10945167Y-12296436D01*
X10945167Y-12296436D02*
X10935644Y-12305960D01*
X10935644Y-12305960D02*
X10916596Y-12315484D01*
X10916596Y-12315484D02*
X10878501Y-12315484D01*
X10878501Y-12315484D02*
X10859453Y-12305960D01*
X11040405Y-12296436D02*
X11049929Y-12305960D01*
X11049929Y-12305960D02*
X11040405Y-12315484D01*
X11040405Y-12315484D02*
X11030882Y-12305960D01*
X11030882Y-12305960D02*
X11040405Y-12296436D01*
X11040405Y-12296436D02*
X11040405Y-12315484D01*
X11040405Y-12191674D02*
X11049929Y-12201198D01*
X11049929Y-12201198D02*
X11040405Y-12210722D01*
X11040405Y-12210722D02*
X11030882Y-12201198D01*
X11030882Y-12201198D02*
X11040405Y-12191674D01*
X11040405Y-12191674D02*
X11040405Y-12210722D01*
D12*
X9308200Y-12594000D02*
X9408200Y-12694000D01*
X9408200Y-12594000D02*
X9308200Y-12694000D01*
D11*
X9773739Y-12735484D02*
X9659453Y-12735484D01*
X9716596Y-12735484D02*
X9716596Y-12535484D01*
X9716596Y-12535484D02*
X9697548Y-12564055D01*
X9697548Y-12564055D02*
X9678501Y-12583103D01*
X9678501Y-12583103D02*
X9659453Y-12592627D01*
X9859453Y-12716436D02*
X9868977Y-12725960D01*
X9868977Y-12725960D02*
X9859453Y-12735484D01*
X9859453Y-12735484D02*
X9849929Y-12725960D01*
X9849929Y-12725960D02*
X9859453Y-12716436D01*
X9859453Y-12716436D02*
X9859453Y-12735484D01*
X9992786Y-12535484D02*
X10011834Y-12535484D01*
X10011834Y-12535484D02*
X10030882Y-12545008D01*
X10030882Y-12545008D02*
X10040405Y-12554531D01*
X10040405Y-12554531D02*
X10049929Y-12573579D01*
X10049929Y-12573579D02*
X10059453Y-12611674D01*
X10059453Y-12611674D02*
X10059453Y-12659293D01*
X10059453Y-12659293D02*
X10049929Y-12697388D01*
X10049929Y-12697388D02*
X10040405Y-12716436D01*
X10040405Y-12716436D02*
X10030882Y-12725960D01*
X10030882Y-12725960D02*
X10011834Y-12735484D01*
X10011834Y-12735484D02*
X9992786Y-12735484D01*
X9992786Y-12735484D02*
X9973739Y-12725960D01*
X9973739Y-12725960D02*
X9964215Y-12716436D01*
X9964215Y-12716436D02*
X9954691Y-12697388D01*
X9954691Y-12697388D02*
X9945167Y-12659293D01*
X9945167Y-12659293D02*
X9945167Y-12611674D01*
X9945167Y-12611674D02*
X9954691Y-12573579D01*
X9954691Y-12573579D02*
X9964215Y-12554531D01*
X9964215Y-12554531D02*
X9973739Y-12545008D01*
X9973739Y-12545008D02*
X9992786Y-12535484D01*
X10183263Y-12535484D02*
X10202310Y-12535484D01*
X10202310Y-12535484D02*
X10221358Y-12545008D01*
X10221358Y-12545008D02*
X10230882Y-12554531D01*
X10230882Y-12554531D02*
X10240405Y-12573579D01*
X10240405Y-12573579D02*
X10249929Y-12611674D01*
X10249929Y-12611674D02*
X10249929Y-12659293D01*
X10249929Y-12659293D02*
X10240405Y-12697388D01*
X10240405Y-12697388D02*
X10230882Y-12716436D01*
X10230882Y-12716436D02*
X10221358Y-12725960D01*
X10221358Y-12725960D02*
X10202310Y-12735484D01*
X10202310Y-12735484D02*
X10183263Y-12735484D01*
X10183263Y-12735484D02*
X10164215Y-12725960D01*
X10164215Y-12725960D02*
X10154691Y-12716436D01*
X10154691Y-12716436D02*
X10145167Y-12697388D01*
X10145167Y-12697388D02*
X10135644Y-12659293D01*
X10135644Y-12659293D02*
X10135644Y-12611674D01*
X10135644Y-12611674D02*
X10145167Y-12573579D01*
X10145167Y-12573579D02*
X10154691Y-12554531D01*
X10154691Y-12554531D02*
X10164215Y-12545008D01*
X10164215Y-12545008D02*
X10183263Y-12535484D01*
X10373739Y-12535484D02*
X10392786Y-12535484D01*
X10392786Y-12535484D02*
X10411834Y-12545008D01*
X10411834Y-12545008D02*
X10421358Y-12554531D01*
X10421358Y-12554531D02*
X10430882Y-12573579D01*
X10430882Y-12573579D02*
X10440405Y-12611674D01*
X10440405Y-12611674D02*
X10440405Y-12659293D01*
X10440405Y-12659293D02*
X10430882Y-12697388D01*
X10430882Y-12697388D02*
X10421358Y-12716436D01*
X10421358Y-12716436D02*
X10411834Y-12725960D01*
X10411834Y-12725960D02*
X10392786Y-12735484D01*
X10392786Y-12735484D02*
X10373739Y-12735484D01*
X10373739Y-12735484D02*
X10354691Y-12725960D01*
X10354691Y-12725960D02*
X10345167Y-12716436D01*
X10345167Y-12716436D02*
X10335644Y-12697388D01*
X10335644Y-12697388D02*
X10326120Y-12659293D01*
X10326120Y-12659293D02*
X10326120Y-12611674D01*
X10326120Y-12611674D02*
X10335644Y-12573579D01*
X10335644Y-12573579D02*
X10345167Y-12554531D01*
X10345167Y-12554531D02*
X10354691Y-12545008D01*
X10354691Y-12545008D02*
X10373739Y-12535484D01*
X10526120Y-12735484D02*
X10526120Y-12602150D01*
X10526120Y-12621198D02*
X10535644Y-12611674D01*
X10535644Y-12611674D02*
X10554691Y-12602150D01*
X10554691Y-12602150D02*
X10583263Y-12602150D01*
X10583263Y-12602150D02*
X10602310Y-12611674D01*
X10602310Y-12611674D02*
X10611834Y-12630722D01*
X10611834Y-12630722D02*
X10611834Y-12735484D01*
X10611834Y-12630722D02*
X10621358Y-12611674D01*
X10621358Y-12611674D02*
X10640405Y-12602150D01*
X10640405Y-12602150D02*
X10668977Y-12602150D01*
X10668977Y-12602150D02*
X10688025Y-12611674D01*
X10688025Y-12611674D02*
X10697548Y-12630722D01*
X10697548Y-12630722D02*
X10697548Y-12735484D01*
X10792786Y-12735484D02*
X10792786Y-12602150D01*
X10792786Y-12621198D02*
X10802310Y-12611674D01*
X10802310Y-12611674D02*
X10821358Y-12602150D01*
X10821358Y-12602150D02*
X10849929Y-12602150D01*
X10849929Y-12602150D02*
X10868977Y-12611674D01*
X10868977Y-12611674D02*
X10878501Y-12630722D01*
X10878501Y-12630722D02*
X10878501Y-12735484D01*
X10878501Y-12630722D02*
X10888025Y-12611674D01*
X10888025Y-12611674D02*
X10907072Y-12602150D01*
X10907072Y-12602150D02*
X10935644Y-12602150D01*
X10935644Y-12602150D02*
X10954691Y-12611674D01*
X10954691Y-12611674D02*
X10964215Y-12630722D01*
X10964215Y-12630722D02*
X10964215Y-12735484D01*
X11354691Y-12525960D02*
X11183263Y-12783103D01*
X11611834Y-12535484D02*
X11630882Y-12535484D01*
X11630882Y-12535484D02*
X11649929Y-12545008D01*
X11649929Y-12545008D02*
X11659453Y-12554531D01*
X11659453Y-12554531D02*
X11668977Y-12573579D01*
X11668977Y-12573579D02*
X11678501Y-12611674D01*
X11678501Y-12611674D02*
X11678501Y-12659293D01*
X11678501Y-12659293D02*
X11668977Y-12697388D01*
X11668977Y-12697388D02*
X11659453Y-12716436D01*
X11659453Y-12716436D02*
X11649929Y-12725960D01*
X11649929Y-12725960D02*
X11630882Y-12735484D01*
X11630882Y-12735484D02*
X11611834Y-12735484D01*
X11611834Y-12735484D02*
X11592786Y-12725960D01*
X11592786Y-12725960D02*
X11583263Y-12716436D01*
X11583263Y-12716436D02*
X11573739Y-12697388D01*
X11573739Y-12697388D02*
X11564215Y-12659293D01*
X11564215Y-12659293D02*
X11564215Y-12611674D01*
X11564215Y-12611674D02*
X11573739Y-12573579D01*
X11573739Y-12573579D02*
X11583263Y-12554531D01*
X11583263Y-12554531D02*
X11592786Y-12545008D01*
X11592786Y-12545008D02*
X11611834Y-12535484D01*
X11764215Y-12716436D02*
X11773739Y-12725960D01*
X11773739Y-12725960D02*
X11764215Y-12735484D01*
X11764215Y-12735484D02*
X11754691Y-12725960D01*
X11754691Y-12725960D02*
X11764215Y-12716436D01*
X11764215Y-12716436D02*
X11764215Y-12735484D01*
X11897548Y-12535484D02*
X11916596Y-12535484D01*
X11916596Y-12535484D02*
X11935644Y-12545008D01*
X11935644Y-12545008D02*
X11945167Y-12554531D01*
X11945167Y-12554531D02*
X11954691Y-12573579D01*
X11954691Y-12573579D02*
X11964215Y-12611674D01*
X11964215Y-12611674D02*
X11964215Y-12659293D01*
X11964215Y-12659293D02*
X11954691Y-12697388D01*
X11954691Y-12697388D02*
X11945167Y-12716436D01*
X11945167Y-12716436D02*
X11935644Y-12725960D01*
X11935644Y-12725960D02*
X11916596Y-12735484D01*
X11916596Y-12735484D02*
X11897548Y-12735484D01*
X11897548Y-12735484D02*
X11878501Y-12725960D01*
X11878501Y-12725960D02*
X11868977Y-12716436D01*
X11868977Y-12716436D02*
X11859453Y-12697388D01*
X11859453Y-12697388D02*
X11849929Y-12659293D01*
X11849929Y-12659293D02*
X11849929Y-12611674D01*
X11849929Y-12611674D02*
X11859453Y-12573579D01*
X11859453Y-12573579D02*
X11868977Y-12554531D01*
X11868977Y-12554531D02*
X11878501Y-12545008D01*
X11878501Y-12545008D02*
X11897548Y-12535484D01*
X12030882Y-12535484D02*
X12154691Y-12535484D01*
X12154691Y-12535484D02*
X12088025Y-12611674D01*
X12088025Y-12611674D02*
X12116596Y-12611674D01*
X12116596Y-12611674D02*
X12135644Y-12621198D01*
X12135644Y-12621198D02*
X12145167Y-12630722D01*
X12145167Y-12630722D02*
X12154691Y-12649769D01*
X12154691Y-12649769D02*
X12154691Y-12697388D01*
X12154691Y-12697388D02*
X12145167Y-12716436D01*
X12145167Y-12716436D02*
X12135644Y-12725960D01*
X12135644Y-12725960D02*
X12116596Y-12735484D01*
X12116596Y-12735484D02*
X12059453Y-12735484D01*
X12059453Y-12735484D02*
X12040406Y-12725960D01*
X12040406Y-12725960D02*
X12030882Y-12716436D01*
X12249929Y-12735484D02*
X12288025Y-12735484D01*
X12288025Y-12735484D02*
X12307072Y-12725960D01*
X12307072Y-12725960D02*
X12316596Y-12716436D01*
X12316596Y-12716436D02*
X12335644Y-12687865D01*
X12335644Y-12687865D02*
X12345167Y-12649769D01*
X12345167Y-12649769D02*
X12345167Y-12573579D01*
X12345167Y-12573579D02*
X12335644Y-12554531D01*
X12335644Y-12554531D02*
X12326120Y-12545008D01*
X12326120Y-12545008D02*
X12307072Y-12535484D01*
X12307072Y-12535484D02*
X12268977Y-12535484D01*
X12268977Y-12535484D02*
X12249929Y-12545008D01*
X12249929Y-12545008D02*
X12240406Y-12554531D01*
X12240406Y-12554531D02*
X12230882Y-12573579D01*
X12230882Y-12573579D02*
X12230882Y-12621198D01*
X12230882Y-12621198D02*
X12240406Y-12640246D01*
X12240406Y-12640246D02*
X12249929Y-12649769D01*
X12249929Y-12649769D02*
X12268977Y-12659293D01*
X12268977Y-12659293D02*
X12307072Y-12659293D01*
X12307072Y-12659293D02*
X12326120Y-12649769D01*
X12326120Y-12649769D02*
X12335644Y-12640246D01*
X12335644Y-12640246D02*
X12345167Y-12621198D01*
X12516596Y-12602150D02*
X12516596Y-12735484D01*
X12468977Y-12525960D02*
X12421358Y-12668817D01*
X12421358Y-12668817D02*
X12545167Y-12668817D01*
X12611834Y-12535484D02*
X12611834Y-12573579D01*
X12688025Y-12535484D02*
X12688025Y-12573579D01*
X12983263Y-12811674D02*
X12973739Y-12802150D01*
X12973739Y-12802150D02*
X12954691Y-12773579D01*
X12954691Y-12773579D02*
X12945168Y-12754531D01*
X12945168Y-12754531D02*
X12935644Y-12725960D01*
X12935644Y-12725960D02*
X12926120Y-12678341D01*
X12926120Y-12678341D02*
X12926120Y-12640246D01*
X12926120Y-12640246D02*
X12935644Y-12592627D01*
X12935644Y-12592627D02*
X12945168Y-12564055D01*
X12945168Y-12564055D02*
X12954691Y-12545008D01*
X12954691Y-12545008D02*
X12973739Y-12516436D01*
X12973739Y-12516436D02*
X12983263Y-12506912D01*
X13145168Y-12535484D02*
X13107072Y-12535484D01*
X13107072Y-12535484D02*
X13088025Y-12545008D01*
X13088025Y-12545008D02*
X13078501Y-12554531D01*
X13078501Y-12554531D02*
X13059453Y-12583103D01*
X13059453Y-12583103D02*
X13049929Y-12621198D01*
X13049929Y-12621198D02*
X13049929Y-12697388D01*
X13049929Y-12697388D02*
X13059453Y-12716436D01*
X13059453Y-12716436D02*
X13068977Y-12725960D01*
X13068977Y-12725960D02*
X13088025Y-12735484D01*
X13088025Y-12735484D02*
X13126120Y-12735484D01*
X13126120Y-12735484D02*
X13145168Y-12725960D01*
X13145168Y-12725960D02*
X13154691Y-12716436D01*
X13154691Y-12716436D02*
X13164215Y-12697388D01*
X13164215Y-12697388D02*
X13164215Y-12649769D01*
X13164215Y-12649769D02*
X13154691Y-12630722D01*
X13154691Y-12630722D02*
X13145168Y-12621198D01*
X13145168Y-12621198D02*
X13126120Y-12611674D01*
X13126120Y-12611674D02*
X13088025Y-12611674D01*
X13088025Y-12611674D02*
X13068977Y-12621198D01*
X13068977Y-12621198D02*
X13059453Y-12630722D01*
X13059453Y-12630722D02*
X13049929Y-12649769D01*
X13240406Y-12554531D02*
X13249929Y-12545008D01*
X13249929Y-12545008D02*
X13268977Y-12535484D01*
X13268977Y-12535484D02*
X13316596Y-12535484D01*
X13316596Y-12535484D02*
X13335644Y-12545008D01*
X13335644Y-12545008D02*
X13345168Y-12554531D01*
X13345168Y-12554531D02*
X13354691Y-12573579D01*
X13354691Y-12573579D02*
X13354691Y-12592627D01*
X13354691Y-12592627D02*
X13345168Y-12621198D01*
X13345168Y-12621198D02*
X13230882Y-12735484D01*
X13230882Y-12735484D02*
X13354691Y-12735484D01*
X13592787Y-12735484D02*
X13592787Y-12535484D01*
X13678501Y-12735484D02*
X13678501Y-12630722D01*
X13678501Y-12630722D02*
X13668977Y-12611674D01*
X13668977Y-12611674D02*
X13649930Y-12602150D01*
X13649930Y-12602150D02*
X13621358Y-12602150D01*
X13621358Y-12602150D02*
X13602310Y-12611674D01*
X13602310Y-12611674D02*
X13592787Y-12621198D01*
X13802310Y-12735484D02*
X13783263Y-12725960D01*
X13783263Y-12725960D02*
X13773739Y-12716436D01*
X13773739Y-12716436D02*
X13764215Y-12697388D01*
X13764215Y-12697388D02*
X13764215Y-12640246D01*
X13764215Y-12640246D02*
X13773739Y-12621198D01*
X13773739Y-12621198D02*
X13783263Y-12611674D01*
X13783263Y-12611674D02*
X13802310Y-12602150D01*
X13802310Y-12602150D02*
X13830882Y-12602150D01*
X13830882Y-12602150D02*
X13849930Y-12611674D01*
X13849930Y-12611674D02*
X13859453Y-12621198D01*
X13859453Y-12621198D02*
X13868977Y-12640246D01*
X13868977Y-12640246D02*
X13868977Y-12697388D01*
X13868977Y-12697388D02*
X13859453Y-12716436D01*
X13859453Y-12716436D02*
X13849930Y-12725960D01*
X13849930Y-12725960D02*
X13830882Y-12735484D01*
X13830882Y-12735484D02*
X13802310Y-12735484D01*
X13983263Y-12735484D02*
X13964215Y-12725960D01*
X13964215Y-12725960D02*
X13954691Y-12706912D01*
X13954691Y-12706912D02*
X13954691Y-12535484D01*
X14135644Y-12725960D02*
X14116596Y-12735484D01*
X14116596Y-12735484D02*
X14078501Y-12735484D01*
X14078501Y-12735484D02*
X14059453Y-12725960D01*
X14059453Y-12725960D02*
X14049930Y-12706912D01*
X14049930Y-12706912D02*
X14049930Y-12630722D01*
X14049930Y-12630722D02*
X14059453Y-12611674D01*
X14059453Y-12611674D02*
X14078501Y-12602150D01*
X14078501Y-12602150D02*
X14116596Y-12602150D01*
X14116596Y-12602150D02*
X14135644Y-12611674D01*
X14135644Y-12611674D02*
X14145168Y-12630722D01*
X14145168Y-12630722D02*
X14145168Y-12649769D01*
X14145168Y-12649769D02*
X14049930Y-12668817D01*
X14221358Y-12725960D02*
X14240406Y-12735484D01*
X14240406Y-12735484D02*
X14278501Y-12735484D01*
X14278501Y-12735484D02*
X14297549Y-12725960D01*
X14297549Y-12725960D02*
X14307072Y-12706912D01*
X14307072Y-12706912D02*
X14307072Y-12697388D01*
X14307072Y-12697388D02*
X14297549Y-12678341D01*
X14297549Y-12678341D02*
X14278501Y-12668817D01*
X14278501Y-12668817D02*
X14249930Y-12668817D01*
X14249930Y-12668817D02*
X14230882Y-12659293D01*
X14230882Y-12659293D02*
X14221358Y-12640246D01*
X14221358Y-12640246D02*
X14221358Y-12630722D01*
X14221358Y-12630722D02*
X14230882Y-12611674D01*
X14230882Y-12611674D02*
X14249930Y-12602150D01*
X14249930Y-12602150D02*
X14278501Y-12602150D01*
X14278501Y-12602150D02*
X14297549Y-12611674D01*
X14373739Y-12811674D02*
X14383263Y-12802150D01*
X14383263Y-12802150D02*
X14402311Y-12773579D01*
X14402311Y-12773579D02*
X14411834Y-12754531D01*
X14411834Y-12754531D02*
X14421358Y-12725960D01*
X14421358Y-12725960D02*
X14430882Y-12678341D01*
X14430882Y-12678341D02*
X14430882Y-12640246D01*
X14430882Y-12640246D02*
X14421358Y-12592627D01*
X14421358Y-12592627D02*
X14411834Y-12564055D01*
X14411834Y-12564055D02*
X14402311Y-12545008D01*
X14402311Y-12545008D02*
X14383263Y-12516436D01*
X14383263Y-12516436D02*
X14373739Y-12506912D01*
M02*
