%TF.GenerationSoftware,KiCad,Pcbnew,9.0.4*%
%TF.CreationDate,2026-04-01T11:33:50-04:00*%
%TF.ProjectId,TandyPlusToISA,54616e64-7950-46c7-9573-546f4953412e,rev?*%
%TF.SameCoordinates,Original*%
%TF.FileFunction,Copper,L2,Bot*%
%TF.FilePolarity,Positive*%
%FSLAX46Y46*%
G04 Gerber Fmt 4.6, Leading zero omitted, Abs format (unit mm)*
G04 Created by KiCad (PCBNEW 9.0.4) date 2026-04-01 11:33:50*
%MOMM*%
%LPD*%
G01*
G04 APERTURE LIST*
%TA.AperFunction,SMDPad,CuDef*%
%ADD10R,1.000000X5.000000*%
%TD*%
%TA.AperFunction,ComponentPad*%
%ADD11R,1.700000X1.700000*%
%TD*%
%TA.AperFunction,ComponentPad*%
%ADD12C,1.700000*%
%TD*%
%TA.AperFunction,Conductor*%
%ADD13C,0.340000*%
%TD*%
%TA.AperFunction,Conductor*%
%ADD14C,0.700000*%
%TD*%
G04 APERTURE END LIST*
D10*
%TO.P,J1,1*%
%TO.N,GND1*%
X172731884Y-110123900D03*
%TO.P,J1,2*%
%TO.N,RESET*%
X170191884Y-110123900D03*
%TO.P,J1,3*%
%TO.N,VCC1*%
X167651884Y-110123900D03*
%TO.P,J1,4*%
%TO.N,IRQ2*%
X165111884Y-110123900D03*
%TO.P,J1,5*%
%TO.N,-5V*%
X162571884Y-110123900D03*
%TO.P,J1,6*%
%TO.N,DRQ2*%
X160031884Y-110123900D03*
%TO.P,J1,7*%
%TO.N,-12V*%
X157491884Y-110123900D03*
%TO.P,J1,8*%
%TO.N,UNUSED_THRU*%
X154951884Y-110123900D03*
%TO.P,J1,9*%
%TO.N,12V*%
X152411884Y-110123900D03*
%TO.P,J1,10*%
%TO.N,GND2*%
X149871884Y-110123900D03*
%TO.P,J1,11*%
%TO.N,~{MEMW}*%
X147331884Y-110123900D03*
%TO.P,J1,12*%
%TO.N,~{MEMR}*%
X144791884Y-110123900D03*
%TO.P,J1,13*%
%TO.N,~{IOW}*%
X142251884Y-110123900D03*
%TO.P,J1,14*%
%TO.N,~{IOR}*%
X139711884Y-110123900D03*
%TO.P,J1,15*%
%TO.N,~{DACK3}*%
X137171884Y-110123900D03*
%TO.P,J1,16*%
%TO.N,DRQ3*%
X134631884Y-110123900D03*
%TO.P,J1,17*%
%TO.N,~{DACK1}*%
X132091884Y-110123900D03*
%TO.P,J1,18*%
%TO.N,DRQ1*%
X129551884Y-110123900D03*
%TO.P,J1,19*%
%TO.N,~{DACK0}*%
X127011884Y-110123900D03*
%TO.P,J1,20*%
%TO.N,CLK*%
X124471884Y-110123900D03*
%TO.P,J1,21*%
%TO.N,IRQ7*%
X121931884Y-110123900D03*
%TO.P,J1,22*%
%TO.N,IRQ6*%
X119391884Y-110123900D03*
%TO.P,J1,23*%
%TO.N,IRQ5*%
X116851884Y-110123900D03*
%TO.P,J1,24*%
%TO.N,IRQ4*%
X114311884Y-110123900D03*
%TO.P,J1,25*%
%TO.N,IRQ3*%
X111771884Y-110123900D03*
%TO.P,J1,26*%
%TO.N,~{DACK2}*%
X109231884Y-110123900D03*
%TO.P,J1,27*%
%TO.N,TC*%
X106691884Y-110123900D03*
%TO.P,J1,28*%
%TO.N,ALE*%
X104151884Y-110123900D03*
%TO.P,J1,29*%
%TO.N,VCC2*%
X101611884Y-110123900D03*
%TO.P,J1,30*%
%TO.N,OSC*%
X99071884Y-110123900D03*
%TO.P,J1,31*%
%TO.N,GND3*%
X96531884Y-110123900D03*
%TD*%
D11*
%TO.P,J3,1*%
%TO.N,GND1*%
X175260000Y-118110000D03*
D12*
%TO.P,J3,2*%
%TO.N,RESET*%
X172720000Y-118110000D03*
%TO.P,J3,3*%
%TO.N,VCC1*%
X170180000Y-118110000D03*
%TO.P,J3,4*%
%TO.N,IRQ2*%
X167640000Y-118110000D03*
%TO.P,J3,5*%
%TO.N,-5V*%
X165100000Y-118110000D03*
%TO.P,J3,6*%
%TO.N,DRQ2*%
X162560000Y-118110000D03*
%TO.P,J3,7*%
%TO.N,-12V*%
X160020000Y-118110000D03*
%TO.P,J3,8*%
%TO.N,UNUSED_THRU*%
X157480000Y-118110000D03*
%TO.P,J3,9*%
%TO.N,12V*%
X154940000Y-118110000D03*
%TO.P,J3,10*%
%TO.N,GND2*%
X152400000Y-118110000D03*
%TO.P,J3,11*%
%TO.N,~{MEMW}*%
X149860000Y-118110000D03*
%TO.P,J3,12*%
%TO.N,~{MEMR}*%
X147320000Y-118110000D03*
%TO.P,J3,13*%
%TO.N,~{IOW}*%
X144780000Y-118110000D03*
%TO.P,J3,14*%
%TO.N,~{IOR}*%
X142240000Y-118110000D03*
%TO.P,J3,15*%
%TO.N,~{DACK3}*%
X139700000Y-118110000D03*
%TO.P,J3,16*%
%TO.N,DRQ3*%
X137160000Y-118110000D03*
%TO.P,J3,17*%
%TO.N,~{DACK1}*%
X134620000Y-118110000D03*
%TO.P,J3,18*%
%TO.N,DRQ1*%
X132080000Y-118110000D03*
%TO.P,J3,19*%
%TO.N,~{DACK0}*%
X129540000Y-118110000D03*
%TO.P,J3,20*%
%TO.N,CLK*%
X127000000Y-118110000D03*
%TO.P,J3,21*%
%TO.N,IRQ7*%
X124460000Y-118110000D03*
%TO.P,J3,22*%
%TO.N,IRQ6*%
X121920000Y-118110000D03*
%TO.P,J3,23*%
%TO.N,IRQ5*%
X119380000Y-118110000D03*
%TO.P,J3,24*%
%TO.N,IRQ4*%
X116840000Y-118110000D03*
%TO.P,J3,25*%
%TO.N,IRQ3*%
X114300000Y-118110000D03*
%TO.P,J3,26*%
%TO.N,~{DACK2}*%
X111760000Y-118110000D03*
%TO.P,J3,27*%
%TO.N,TC*%
X109220000Y-118110000D03*
%TO.P,J3,28*%
%TO.N,ALE*%
X106680000Y-118110000D03*
%TO.P,J3,29*%
%TO.N,VCC2*%
X104140000Y-118110000D03*
%TO.P,J3,30*%
%TO.N,OSC*%
X101600000Y-118110000D03*
%TO.P,J3,31*%
%TO.N,GND3*%
X99060000Y-118110000D03*
%TO.P,J3,32*%
%TO.N,~{IO_CH_CK}*%
X175260000Y-115570000D03*
%TO.P,J3,33*%
%TO.N,D7*%
X172720000Y-115570000D03*
%TO.P,J3,34*%
%TO.N,D6*%
X170180000Y-115570000D03*
%TO.P,J3,35*%
%TO.N,D5*%
X167640000Y-115570000D03*
%TO.P,J3,36*%
%TO.N,D4*%
X165100000Y-115570000D03*
%TO.P,J3,37*%
%TO.N,D3*%
X162560000Y-115570000D03*
%TO.P,J3,38*%
%TO.N,D2*%
X160020000Y-115570000D03*
%TO.P,J3,39*%
%TO.N,D1*%
X157480000Y-115570000D03*
%TO.P,J3,40*%
%TO.N,D0*%
X154940000Y-115570000D03*
%TO.P,J3,41*%
%TO.N,IOCHRDY*%
X152400000Y-115570000D03*
%TO.P,J3,42*%
%TO.N,AEN*%
X149860000Y-115570000D03*
%TO.P,J3,43*%
%TO.N,A19*%
X147320000Y-115570000D03*
%TO.P,J3,44*%
%TO.N,A18*%
X144780000Y-115570000D03*
%TO.P,J3,45*%
%TO.N,A17*%
X142240000Y-115570000D03*
%TO.P,J3,46*%
%TO.N,A16*%
X139700000Y-115570000D03*
%TO.P,J3,47*%
%TO.N,A15*%
X137160000Y-115570000D03*
%TO.P,J3,48*%
%TO.N,A14*%
X134620000Y-115570000D03*
%TO.P,J3,49*%
%TO.N,A13*%
X132080000Y-115570000D03*
%TO.P,J3,50*%
%TO.N,A12*%
X129540000Y-115570000D03*
%TO.P,J3,51*%
%TO.N,A11*%
X127000000Y-115570000D03*
%TO.P,J3,52*%
%TO.N,A10*%
X124460000Y-115570000D03*
%TO.P,J3,53*%
%TO.N,A09*%
X121920000Y-115570000D03*
%TO.P,J3,54*%
%TO.N,A08*%
X119380000Y-115570000D03*
%TO.P,J3,55*%
%TO.N,A07*%
X116840000Y-115570000D03*
%TO.P,J3,56*%
%TO.N,A06*%
X114300000Y-115570000D03*
%TO.P,J3,57*%
%TO.N,A05*%
X111760000Y-115570000D03*
%TO.P,J3,58*%
%TO.N,A04*%
X109220000Y-115570000D03*
%TO.P,J3,59*%
%TO.N,A03*%
X106680000Y-115570000D03*
%TO.P,J3,60*%
%TO.N,A02*%
X104140000Y-115570000D03*
%TO.P,J3,61*%
%TO.N,A01*%
X101600000Y-115570000D03*
%TO.P,J3,62*%
%TO.N,A00*%
X99060000Y-115570000D03*
%TD*%
D13*
%TO.N,OSC*%
X100330432Y-116840432D02*
X100330432Y-113430432D01*
X100330432Y-113430432D02*
X99071884Y-112171884D01*
X99071884Y-112171884D02*
X99071884Y-110123900D01*
X101600000Y-118110000D02*
X100330432Y-116840432D01*
%TO.N,ALE*%
X104151884Y-112093942D02*
X104151884Y-110123900D01*
X106680000Y-118110000D02*
X105410335Y-116840335D01*
X105410335Y-116840335D02*
X105410335Y-113352393D01*
X105410335Y-113352393D02*
X104151884Y-112093942D01*
%TO.N,TC*%
X109220000Y-118110000D02*
X107950135Y-116840135D01*
X106691884Y-112091884D02*
X106691884Y-110123900D01*
X107950135Y-113350135D02*
X106691884Y-112091884D01*
X107950135Y-116840135D02*
X107950135Y-113350135D01*
%TO.N,~{DACK2}*%
X111760000Y-118110000D02*
X110490253Y-116840253D01*
X110490253Y-116840253D02*
X110490253Y-113390253D01*
X109231884Y-112131884D02*
X109231884Y-110123900D01*
X110490253Y-113390253D02*
X109231884Y-112131884D01*
%TO.N,IRQ3*%
X113030432Y-113330432D02*
X111771884Y-112071884D01*
X114300000Y-118110000D02*
X113030432Y-116840432D01*
X111771884Y-112071884D02*
X111771884Y-110123900D01*
X113030432Y-116840432D02*
X113030432Y-113330432D01*
%TO.N,IRQ4*%
X114311884Y-112097338D02*
X114311884Y-110123900D01*
X115570073Y-113355527D02*
X114311884Y-112097338D01*
X116840000Y-118110000D02*
X115570073Y-116840073D01*
X115570073Y-116840073D02*
X115570073Y-113355527D01*
%TO.N,IRQ5*%
X118109535Y-116839535D02*
X118109535Y-113409535D01*
X119380000Y-118110000D02*
X118109535Y-116839535D01*
X116851884Y-112151884D02*
X116851884Y-110123900D01*
X118109535Y-113409535D02*
X116851884Y-112151884D01*
%TO.N,IRQ6*%
X119391884Y-112091884D02*
X119391884Y-110123900D01*
X120650015Y-116840015D02*
X120650015Y-113350015D01*
X120650015Y-113350015D02*
X119391884Y-112091884D01*
X121920000Y-118110000D02*
X120650015Y-116840015D01*
%TO.N,IRQ7*%
X121931884Y-112131884D02*
X121931884Y-110123900D01*
X124460000Y-118110000D02*
X123189994Y-116839994D01*
X123189994Y-113389994D02*
X121931884Y-112131884D01*
X123189994Y-116839994D02*
X123189994Y-113389994D01*
%TO.N,CLK*%
X125730432Y-116840432D02*
X125730432Y-113364174D01*
X127000000Y-118110000D02*
X125730432Y-116840432D01*
X124471884Y-112105626D02*
X124471884Y-110123900D01*
X125730432Y-113364174D02*
X124471884Y-112105626D01*
%TO.N,~{DACK0}*%
X129540000Y-118110000D02*
X128270073Y-116840073D01*
X128270073Y-116840073D02*
X128270073Y-113370073D01*
X127011884Y-112111884D02*
X127011884Y-110123900D01*
X128270073Y-113370073D02*
X127011884Y-112111884D01*
%TO.N,DRQ1*%
X132080000Y-118110000D02*
X130810432Y-116840432D01*
X130810432Y-116840432D02*
X130810432Y-113410432D01*
X130810432Y-113410432D02*
X129551884Y-112151884D01*
X129551884Y-112151884D02*
X129551884Y-110123900D01*
%TO.N,~{DACK1}*%
X132091884Y-112091884D02*
X132091884Y-110123900D01*
X134620000Y-118110000D02*
X133350282Y-116840282D01*
X133350282Y-116840282D02*
X133350282Y-113350282D01*
X133350282Y-113350282D02*
X132091884Y-112091884D01*
%TO.N,DRQ3*%
X134631884Y-112131884D02*
X134631884Y-110123900D01*
X135889865Y-113389865D02*
X134631884Y-112131884D01*
X137160000Y-118110000D02*
X135889865Y-116839865D01*
X135889865Y-116839865D02*
X135889865Y-113389865D01*
%TO.N,~{DACK3}*%
X138430432Y-116840432D02*
X138430432Y-113378476D01*
X138430432Y-113378476D02*
X137171884Y-112119928D01*
X137171884Y-112119928D02*
X137171884Y-110123900D01*
X139700000Y-118110000D02*
X138430432Y-116840432D01*
%TO.N,~{IOR}*%
X140970195Y-116840195D02*
X140970195Y-113370195D01*
X142240000Y-118110000D02*
X140970195Y-116840195D01*
X140970195Y-113370195D02*
X139711884Y-112111884D01*
X139711884Y-112111884D02*
X139711884Y-110123900D01*
%TO.N,~{IOW}*%
X142251884Y-112151884D02*
X142251884Y-110123900D01*
X143509656Y-116839656D02*
X143509656Y-113409656D01*
X143509656Y-113409656D02*
X142251884Y-112151884D01*
X144780000Y-118110000D02*
X143509656Y-116839656D01*
%TO.N,~{MEMR}*%
X147320000Y-118110000D02*
X146050282Y-116840282D01*
X144791884Y-112091884D02*
X144791884Y-110123900D01*
X146050282Y-113350282D02*
X144791884Y-112091884D01*
X146050282Y-116840282D02*
X146050282Y-113350282D01*
%TO.N,~{MEMW}*%
X148589994Y-116839994D02*
X148589994Y-113389994D01*
X148589994Y-113389994D02*
X147331884Y-112131884D01*
X149860000Y-118110000D02*
X148589994Y-116839994D01*
X147331884Y-112131884D02*
X147331884Y-110123900D01*
%TO.N,-12V*%
X160020000Y-118110000D02*
X158750403Y-116840403D01*
X157491884Y-112091884D02*
X157491884Y-110123900D01*
X158750403Y-113350403D02*
X157491884Y-112091884D01*
X158750403Y-116840403D02*
X158750403Y-113350403D01*
%TO.N,DRQ2*%
X161289743Y-113389743D02*
X160031884Y-112131884D01*
X161289743Y-116839743D02*
X161289743Y-113389743D01*
X162560000Y-118110000D02*
X161289743Y-116839743D01*
X160031884Y-112131884D02*
X160031884Y-110123900D01*
%TO.N,-5V*%
X165100000Y-118110000D02*
X163830369Y-116840369D01*
X163830369Y-113430369D02*
X162571884Y-112171884D01*
X162571884Y-112171884D02*
X162571884Y-110123900D01*
X163830369Y-116840369D02*
X163830369Y-113430369D01*
%TO.N,IRQ2*%
X165111884Y-112111884D02*
X165111884Y-110123900D01*
X167640000Y-118110000D02*
X166370073Y-116840073D01*
X166370073Y-113370073D02*
X165111884Y-112111884D01*
X166370073Y-116840073D02*
X166370073Y-113370073D01*
%TO.N,RESET*%
X171450039Y-116840039D02*
X171450039Y-113350039D01*
X171450039Y-113350039D02*
X170191884Y-112091884D01*
X172720000Y-118110000D02*
X171450039Y-116840039D01*
X170191884Y-112091884D02*
X170191884Y-110123900D01*
%TO.N,GND3*%
X99060000Y-118110000D02*
X97730432Y-116780432D01*
X97730432Y-113330432D02*
X96531884Y-112131884D01*
X96531884Y-112131884D02*
X96531884Y-110123900D01*
X97730432Y-116780432D02*
X97730432Y-113330432D01*
%TO.N,VCC2*%
X101611884Y-112111884D02*
X101611884Y-110123900D01*
X102870073Y-113370073D02*
X101611884Y-112111884D01*
X104140000Y-118110000D02*
X102870073Y-116840073D01*
X102870073Y-116840073D02*
X102870073Y-113370073D01*
%TO.N,GND2*%
X151130432Y-113330432D02*
X149871884Y-112071884D01*
X151130432Y-116840432D02*
X151130432Y-113330432D01*
X149871884Y-112071884D02*
X149871884Y-110123900D01*
X152400000Y-118110000D02*
X151130432Y-116840432D01*
%TO.N,12V*%
X154940000Y-118110000D02*
X153670073Y-116840073D01*
X152411884Y-112111884D02*
X152411884Y-110123900D01*
X153670073Y-116840073D02*
X153670073Y-113370073D01*
X153670073Y-113370073D02*
X152411884Y-112111884D01*
%TO.N,UNUSED_THRU*%
X154951884Y-112151884D02*
X154951884Y-110123900D01*
X156209656Y-116839656D02*
X156209656Y-113409656D01*
X156209656Y-113409656D02*
X154951884Y-112151884D01*
X157480000Y-118110000D02*
X156209656Y-116839656D01*
%TO.N,VCC1*%
X168910432Y-116840432D02*
X168910432Y-113410432D01*
X167651884Y-112151884D02*
X167651884Y-110123900D01*
X170180000Y-118110000D02*
X168910432Y-116840432D01*
X168910432Y-113410432D02*
X167651884Y-112151884D01*
D14*
%TO.N,GND1*%
X172731884Y-110123900D02*
X172731884Y-111931884D01*
D13*
X176531000Y-116839000D02*
X176531000Y-114631000D01*
X175260000Y-118110000D02*
X176531000Y-116839000D01*
X173990000Y-116840000D02*
X175260000Y-118110000D01*
D14*
X173990000Y-113190000D02*
X173990000Y-113490000D01*
X172731884Y-111931884D02*
X173990000Y-113190000D01*
D13*
X176531000Y-114631000D02*
X175390000Y-113490000D01*
X173990000Y-113490000D02*
X173990000Y-116840000D01*
X175390000Y-113490000D02*
X173990000Y-113490000D01*
%TD*%
M02*
