%TF.GenerationSoftware,KiCad,Pcbnew,9.0.4*%
%TF.CreationDate,2026-04-02T10:33:09-04:00*%
%TF.ProjectId,BasicSerialPlus,42617369-6353-4657-9269-616c506c7573,rev?*%
%TF.SameCoordinates,Original*%
%TF.FileFunction,Copper,L2,Bot*%
%TF.FilePolarity,Positive*%
%FSLAX46Y46*%
G04 Gerber Fmt 4.6, Leading zero omitted, Abs format (unit mm)*
G04 Created by KiCad (PCBNEW 9.0.4) date 2026-04-02 10:33:09*
%MOMM*%
%LPD*%
G01*
G04 APERTURE LIST*
%TA.AperFunction,ComponentPad*%
%ADD10R,1.700000X1.700000*%
%TD*%
%TA.AperFunction,ComponentPad*%
%ADD11O,1.700000X1.700000*%
%TD*%
%TA.AperFunction,ComponentPad*%
%ADD12R,1.600000X1.600000*%
%TD*%
%TA.AperFunction,ComponentPad*%
%ADD13O,1.600000X1.600000*%
%TD*%
%TA.AperFunction,ComponentPad*%
%ADD14O,1.998980X1.501140*%
%TD*%
%TA.AperFunction,ComponentPad*%
%ADD15C,5.001260*%
%TD*%
%TA.AperFunction,ComponentPad*%
%ADD16R,1.600000X1.501140*%
%TD*%
%TA.AperFunction,ComponentPad*%
%ADD17O,1.600000X1.501140*%
%TD*%
%TA.AperFunction,ComponentPad*%
%ADD18C,1.600000*%
%TD*%
%TA.AperFunction,ComponentPad*%
%ADD19R,2.300000X1.600000*%
%TD*%
%TA.AperFunction,ComponentPad*%
%ADD20O,2.300000X1.600000*%
%TD*%
%TA.AperFunction,ViaPad*%
%ADD21C,0.800000*%
%TD*%
%TA.AperFunction,ViaPad*%
%ADD22C,1.000000*%
%TD*%
%TA.AperFunction,Conductor*%
%ADD23C,0.300000*%
%TD*%
%TA.AperFunction,Conductor*%
%ADD24C,0.500000*%
%TD*%
%TA.AperFunction,Conductor*%
%ADD25C,1.750000*%
%TD*%
G04 APERTURE END LIST*
D10*
%TO.P,J1,1*%
%TO.N,VCC*%
X104140000Y-109285000D03*
D11*
%TO.P,J1,2*%
%TO.N,Net-(J1-Pad2)*%
X106680000Y-109285000D03*
%TO.P,J1,3*%
%TO.N,GND*%
X109220000Y-109285000D03*
%TO.P,J1,4*%
%TO.N,VCC*%
X104140000Y-111825000D03*
%TO.P,J1,5*%
%TO.N,Net-(J1-Pad5)*%
X106680000Y-111825000D03*
%TO.P,J1,6*%
%TO.N,GND*%
X109220000Y-111825000D03*
%TD*%
D12*
%TO.P,C5,1*%
%TO.N,VCC*%
X170815000Y-92140000D03*
D13*
%TO.P,C5,2*%
%TO.N,GND*%
X170815000Y-94640000D03*
%TD*%
D14*
%TO.P,CN1,1*%
%TO.N,/SER_PIN1*%
X188070080Y-79659740D03*
%TO.P,CN1,2*%
%TO.N,/SER_PIN2*%
X188070080Y-76891140D03*
%TO.P,CN1,3*%
%TO.N,/SER_PIN3*%
X188070080Y-74120000D03*
%TO.P,CN1,4*%
%TO.N,/SER_PIN4*%
X188070080Y-71348860D03*
D15*
%TO.P,CN1,5*%
%TO.N,GND*%
X189589000Y-86614260D03*
D14*
X188070080Y-68580260D03*
D15*
X189589000Y-61625740D03*
D14*
%TO.P,CN1,6*%
%TO.N,/SER_PIN6*%
X191107920Y-78275440D03*
%TO.P,CN1,7*%
%TO.N,/SER_PIN7*%
X191107920Y-75504300D03*
%TO.P,CN1,8*%
%TO.N,/SER_PIN8*%
X191107920Y-72735700D03*
%TO.P,CN1,9*%
%TO.N,/SER_PIN9*%
X191107920Y-69964560D03*
%TD*%
D10*
%TO.P,J2,1*%
%TO.N,IRQ2*%
X121920000Y-101665000D03*
D11*
%TO.P,J2,2*%
%TO.N,Net-(J2-Pad10)*%
X124460000Y-101665000D03*
%TO.P,J2,3*%
%TO.N,IRQ3*%
X121920000Y-104205000D03*
%TO.P,J2,4*%
%TO.N,Net-(J2-Pad10)*%
X124460000Y-104205000D03*
%TO.P,J2,5*%
%TO.N,IRQ4*%
X121920000Y-106745000D03*
%TO.P,J2,6*%
%TO.N,Net-(J2-Pad10)*%
X124460000Y-106745000D03*
%TO.P,J2,7*%
%TO.N,IRQ5*%
X121920000Y-109285000D03*
%TO.P,J2,8*%
%TO.N,Net-(J2-Pad10)*%
X124460000Y-109285000D03*
%TO.P,J2,9*%
%TO.N,IRQ7*%
X121920000Y-111825000D03*
%TO.P,J2,10*%
%TO.N,Net-(J2-Pad10)*%
X124460000Y-111825000D03*
%TD*%
D16*
%TO.P,U3,1*%
%TO.N,+12V*%
X170815000Y-62930000D03*
D17*
%TO.P,U3,2*%
%TO.N,/SER_PIN1*%
X170815000Y-65470000D03*
%TO.P,U3,3*%
%TO.N,/SER_PIN6*%
X170815000Y-68010000D03*
%TO.P,U3,4*%
%TO.N,/SER_PIN2*%
X170815000Y-70550000D03*
%TO.P,U3,5*%
%TO.N,/SER_PIN7*%
X170815000Y-73090000D03*
%TO.P,U3,6*%
%TO.N,/SER_PIN3*%
X170815000Y-75630000D03*
%TO.P,U3,7*%
%TO.N,/SER_PIN8*%
X170815000Y-78170000D03*
%TO.P,U3,8*%
%TO.N,/SER_PIN4*%
X170815000Y-80710000D03*
%TO.P,U3,9*%
%TO.N,/SER_PIN9*%
X170815000Y-83250000D03*
%TO.P,U3,10*%
%TO.N,-12V*%
X170815000Y-85790000D03*
%TO.P,U3,11*%
%TO.N,GND*%
X178435000Y-85790000D03*
%TO.P,U3,12*%
%TO.N,Net-(U1-Pad39)*%
X178435000Y-83250000D03*
%TO.P,U3,13*%
%TO.N,Net-(U1-Pad33)*%
X178435000Y-80710000D03*
%TO.P,U3,14*%
%TO.N,Net-(U1-Pad36)*%
X178435000Y-78170000D03*
%TO.P,U3,15*%
%TO.N,Net-(U1-Pad11)*%
X178435000Y-75630000D03*
%TO.P,U3,16*%
%TO.N,Net-(U1-Pad32)*%
X178435000Y-73090000D03*
%TO.P,U3,17*%
%TO.N,Net-(U1-Pad10)*%
X178435000Y-70550000D03*
%TO.P,U3,18*%
%TO.N,Net-(U1-Pad37)*%
X178435000Y-68010000D03*
%TO.P,U3,19*%
%TO.N,Net-(U1-Pad38)*%
X178435000Y-65470000D03*
%TO.P,U3,20*%
%TO.N,VCC*%
X178435000Y-62930000D03*
%TD*%
D12*
%TO.P,C6,1*%
%TO.N,+12V*%
X170815000Y-101665000D03*
D13*
%TO.P,C6,2*%
%TO.N,GND*%
X170815000Y-104165000D03*
%TD*%
D12*
%TO.P,U2,1*%
%TO.N,AEN*%
X104775000Y-62930000D03*
D13*
%TO.P,U2,2*%
%TO.N,GND*%
X104775000Y-65470000D03*
%TO.P,U2,3*%
X104775000Y-68010000D03*
%TO.P,U2,4*%
%TO.N,A03*%
X104775000Y-70550000D03*
%TO.P,U2,5*%
%TO.N,VCC*%
X104775000Y-73090000D03*
%TO.P,U2,6*%
%TO.N,A04*%
X104775000Y-75630000D03*
%TO.P,U2,7*%
%TO.N,Net-(J1-Pad2)*%
X104775000Y-78170000D03*
%TO.P,U2,8*%
%TO.N,A05*%
X104775000Y-80710000D03*
%TO.P,U2,9*%
%TO.N,VCC*%
X104775000Y-83250000D03*
%TO.P,U2,10*%
%TO.N,GND*%
X104775000Y-85790000D03*
%TO.P,U2,11*%
%TO.N,A06*%
X112395000Y-85790000D03*
%TO.P,U2,12*%
%TO.N,VCC*%
X112395000Y-83250000D03*
%TO.P,U2,13*%
%TO.N,A07*%
X112395000Y-80710000D03*
%TO.P,U2,14*%
%TO.N,VCC*%
X112395000Y-78170000D03*
%TO.P,U2,15*%
%TO.N,A08*%
X112395000Y-75630000D03*
%TO.P,U2,16*%
%TO.N,Net-(J1-Pad5)*%
X112395000Y-73090000D03*
%TO.P,U2,17*%
%TO.N,A09*%
X112395000Y-70550000D03*
%TO.P,U2,18*%
%TO.N,VCC*%
X112395000Y-68010000D03*
%TO.P,U2,19*%
%TO.N,~{UART_CS}*%
X112395000Y-65470000D03*
%TO.P,U2,20*%
%TO.N,VCC*%
X112395000Y-62930000D03*
%TD*%
D18*
%TO.P,C2,1*%
%TO.N,VCC*%
X116205000Y-62930000D03*
%TO.P,C2,2*%
%TO.N,GND*%
X116205000Y-67930000D03*
%TD*%
D12*
%TO.P,U1,1*%
%TO.N,D0*%
X141605000Y-62930000D03*
D13*
%TO.P,U1,2*%
%TO.N,D1*%
X141605000Y-65470000D03*
%TO.P,U1,3*%
%TO.N,D2*%
X141605000Y-68010000D03*
%TO.P,U1,4*%
%TO.N,D3*%
X141605000Y-70550000D03*
%TO.P,U1,5*%
%TO.N,D4*%
X141605000Y-73090000D03*
%TO.P,U1,6*%
%TO.N,D5*%
X141605000Y-75630000D03*
%TO.P,U1,7*%
%TO.N,D6*%
X141605000Y-78170000D03*
%TO.P,U1,8*%
%TO.N,D7*%
X141605000Y-80710000D03*
%TO.P,U1,9*%
%TO.N,Net-(U1-Pad15)*%
X141605000Y-83250000D03*
%TO.P,U1,10*%
%TO.N,Net-(U1-Pad10)*%
X141605000Y-85790000D03*
%TO.P,U1,11*%
%TO.N,Net-(U1-Pad11)*%
X141605000Y-88330000D03*
%TO.P,U1,12*%
%TO.N,VCC*%
X141605000Y-90870000D03*
%TO.P,U1,13*%
X141605000Y-93410000D03*
%TO.P,U1,14*%
%TO.N,~{UART_CS}*%
X141605000Y-95950000D03*
%TO.P,U1,15*%
%TO.N,Net-(U1-Pad15)*%
X141605000Y-98490000D03*
%TO.P,U1,16*%
%TO.N,UART_XIN*%
X141605000Y-101030000D03*
%TO.P,U1,17*%
%TO.N,UART_XOUT*%
X141605000Y-103570000D03*
%TO.P,U1,18*%
%TO.N,~{IOW}*%
X141605000Y-106110000D03*
%TO.P,U1,19*%
%TO.N,GND*%
X141605000Y-108650000D03*
%TO.P,U1,20*%
X141605000Y-111190000D03*
%TO.P,U1,21*%
%TO.N,~{IOR}*%
X156845000Y-111190000D03*
%TO.P,U1,22*%
%TO.N,GND*%
X156845000Y-108650000D03*
%TO.P,U1,23*%
%TO.N,Net-(U1-Pad23)*%
X156845000Y-106110000D03*
%TO.P,U1,24*%
%TO.N,Net-(U1-Pad24)*%
X156845000Y-103570000D03*
%TO.P,U1,25*%
%TO.N,GND*%
X156845000Y-101030000D03*
%TO.P,U1,26*%
%TO.N,A02*%
X156845000Y-98490000D03*
%TO.P,U1,27*%
%TO.N,A01*%
X156845000Y-95950000D03*
%TO.P,U1,28*%
%TO.N,A00*%
X156845000Y-93410000D03*
%TO.P,U1,29*%
%TO.N,Net-(U1-Pad29)*%
X156845000Y-90870000D03*
%TO.P,U1,30*%
%TO.N,Net-(J2-Pad10)*%
X156845000Y-88330000D03*
%TO.P,U1,31*%
%TO.N,Net-(U1-Pad31)*%
X156845000Y-85790000D03*
%TO.P,U1,32*%
%TO.N,Net-(U1-Pad32)*%
X156845000Y-83250000D03*
%TO.P,U1,33*%
%TO.N,Net-(U1-Pad33)*%
X156845000Y-80710000D03*
%TO.P,U1,34*%
%TO.N,Net-(U1-Pad34)*%
X156845000Y-78170000D03*
%TO.P,U1,35*%
%TO.N,RESET*%
X156845000Y-75630000D03*
%TO.P,U1,36*%
%TO.N,Net-(U1-Pad36)*%
X156845000Y-73090000D03*
%TO.P,U1,37*%
%TO.N,Net-(U1-Pad37)*%
X156845000Y-70550000D03*
%TO.P,U1,38*%
%TO.N,Net-(U1-Pad38)*%
X156845000Y-68010000D03*
%TO.P,U1,39*%
%TO.N,Net-(U1-Pad39)*%
X156845000Y-65470000D03*
%TO.P,U1,40*%
%TO.N,VCC*%
X156845000Y-62930000D03*
%TD*%
D18*
%TO.P,C1,1*%
%TO.N,VCC*%
X160655000Y-62930000D03*
%TO.P,C1,2*%
%TO.N,GND*%
X160655000Y-67930000D03*
%TD*%
%TO.P,C4,1*%
%TO.N,VCC*%
X136525000Y-62930000D03*
%TO.P,C4,2*%
%TO.N,GND*%
X136525000Y-67930000D03*
%TD*%
D19*
%TO.P,U4,1*%
%TO.N,VCC*%
X123190000Y-65470000D03*
D20*
%TO.P,U4,4*%
X123190000Y-73090000D03*
%TO.P,U4,7*%
%TO.N,GND*%
X123190000Y-80710000D03*
%TO.P,U4,8*%
%TO.N,UART_XIN*%
X130810000Y-80710000D03*
%TO.P,U4,11*%
%TO.N,VCC*%
X130810000Y-73090000D03*
%TO.P,U4,14*%
X130810000Y-65470000D03*
%TD*%
D18*
%TO.P,C3,1*%
%TO.N,VCC*%
X182245000Y-62930000D03*
%TO.P,C3,2*%
%TO.N,GND*%
X182245000Y-67930000D03*
%TD*%
D12*
%TO.P,C7,1*%
%TO.N,GND*%
X170815000Y-111190000D03*
D13*
%TO.P,C7,2*%
%TO.N,-12V*%
X170815000Y-113690000D03*
%TD*%
D10*
%TO.P,J1,1*%
%TO.N,GND*%
X174066000Y-128890000D03*
D11*
%TO.P,J1,2*%
%TO.N,RESET*%
X171526000Y-128890000D03*
%TO.P,J1,3*%
%TO.N,VCC*%
X168986000Y-128890000D03*
%TO.P,J1,4*%
%TO.N,IRQ2*%
X166446000Y-128890000D03*
%TO.P,J1,5*%
%TO.N,-5V*%
X163906000Y-128890000D03*
%TO.P,J1,6*%
%TO.N,DRQ2*%
X161366000Y-128890000D03*
%TO.P,J1,7*%
%TO.N,-12V*%
X158826000Y-128890000D03*
%TO.P,J1,8*%
%TO.N,AUDIOIN*%
X156286000Y-128890000D03*
%TO.P,J1,9*%
%TO.N,+12V*%
X153746000Y-128890000D03*
%TO.P,J1,10*%
%TO.N,GND*%
X151206000Y-128890000D03*
%TO.P,J1,11*%
%TO.N,~{MEMW}*%
X148666000Y-128890000D03*
%TO.P,J1,12*%
%TO.N,~{MEMR}*%
X146126000Y-128890000D03*
%TO.P,J1,13*%
%TO.N,~{IOW}*%
X143586000Y-128890000D03*
%TO.P,J1,14*%
%TO.N,~{IOR}*%
X141046000Y-128890000D03*
%TO.P,J1,15*%
%TO.N,~{DACK3}*%
X138506000Y-128890000D03*
%TO.P,J1,16*%
%TO.N,DRQ3*%
X135966000Y-128890000D03*
%TO.P,J1,17*%
%TO.N,~{DACK1}*%
X133426000Y-128890000D03*
%TO.P,J1,18*%
%TO.N,DRQ1*%
X130886000Y-128890000D03*
%TO.P,J1,19*%
%TO.N,~{DACK0}*%
X128346000Y-128890000D03*
%TO.P,J1,20*%
%TO.N,CLK*%
X125806000Y-128890000D03*
%TO.P,J1,21*%
%TO.N,IRQ7*%
X123266000Y-128890000D03*
%TO.P,J1,22*%
%TO.N,IRQ6*%
X120726000Y-128890000D03*
%TO.P,J1,23*%
%TO.N,IRQ5*%
X118186000Y-128890000D03*
%TO.P,J1,24*%
%TO.N,IRQ4*%
X115646000Y-128890000D03*
%TO.P,J1,25*%
%TO.N,IRQ3*%
X113106000Y-128890000D03*
%TO.P,J1,26*%
%TO.N,~{DACK2}*%
X110566000Y-128890000D03*
%TO.P,J1,27*%
%TO.N,TC*%
X108026000Y-128890000D03*
%TO.P,J1,28*%
%TO.N,ALE*%
X105486000Y-128890000D03*
%TO.P,J1,29*%
%TO.N,VCC*%
X102946000Y-128890000D03*
%TO.P,J1,30*%
%TO.N,OSC*%
X100406000Y-128890000D03*
%TO.P,J1,31*%
%TO.N,GND*%
X97866000Y-128890000D03*
%TO.P,J1,32*%
%TO.N,~{IO_CH_CK}*%
X174066000Y-126350000D03*
%TO.P,J1,33*%
%TO.N,D7*%
X171526000Y-126350000D03*
%TO.P,J1,34*%
%TO.N,D6*%
X168986000Y-126350000D03*
%TO.P,J1,35*%
%TO.N,D5*%
X166446000Y-126350000D03*
%TO.P,J1,36*%
%TO.N,D4*%
X163906000Y-126350000D03*
%TO.P,J1,37*%
%TO.N,D3*%
X161366000Y-126350000D03*
%TO.P,J1,38*%
%TO.N,D2*%
X158826000Y-126350000D03*
%TO.P,J1,39*%
%TO.N,D1*%
X156286000Y-126350000D03*
%TO.P,J1,40*%
%TO.N,D0*%
X153746000Y-126350000D03*
%TO.P,J1,41*%
%TO.N,IOCHRDY*%
X151206000Y-126350000D03*
%TO.P,J1,42*%
%TO.N,AEN*%
X148666000Y-126350000D03*
%TO.P,J1,43*%
%TO.N,A19*%
X146126000Y-126350000D03*
%TO.P,J1,44*%
%TO.N,A18*%
X143586000Y-126350000D03*
%TO.P,J1,45*%
%TO.N,A17*%
X141046000Y-126350000D03*
%TO.P,J1,46*%
%TO.N,A16*%
X138506000Y-126350000D03*
%TO.P,J1,47*%
%TO.N,A15*%
X135966000Y-126350000D03*
%TO.P,J1,48*%
%TO.N,A14*%
X133426000Y-126350000D03*
%TO.P,J1,49*%
%TO.N,A13*%
X130886000Y-126350000D03*
%TO.P,J1,50*%
%TO.N,A12*%
X128346000Y-126350000D03*
%TO.P,J1,51*%
%TO.N,A11*%
X125806000Y-126350000D03*
%TO.P,J1,52*%
%TO.N,A10*%
X123266000Y-126350000D03*
%TO.P,J1,53*%
%TO.N,A09*%
X120726000Y-126350000D03*
%TO.P,J1,54*%
%TO.N,A08*%
X118186000Y-126350000D03*
%TO.P,J1,55*%
%TO.N,A07*%
X115646000Y-126350000D03*
%TO.P,J1,56*%
%TO.N,A06*%
X113106000Y-126350000D03*
%TO.P,J1,57*%
%TO.N,A05*%
X110566000Y-126350000D03*
%TO.P,J1,58*%
%TO.N,A04*%
X108026000Y-126350000D03*
%TO.P,J1,59*%
%TO.N,A03*%
X105486000Y-126350000D03*
%TO.P,J1,60*%
%TO.N,A02*%
X102946000Y-126350000D03*
%TO.P,J1,61*%
%TO.N,A01*%
X100406000Y-126350000D03*
%TO.P,J1,62*%
%TO.N,A00*%
X97866000Y-126350000D03*
%TD*%
D21*
%TO.N,A00*%
X127000000Y-94680000D03*
X127000000Y-113730000D03*
%TO.N,A01*%
X128270000Y-97220000D03*
X128270000Y-115000000D03*
%TO.N,A02*%
X129540000Y-99760000D03*
X129540000Y-116270000D03*
%TO.N,A03*%
X113030000Y-118810000D03*
X109220000Y-70550000D03*
%TO.N,A04*%
X109220000Y-120715000D03*
%TO.N,A05*%
X111760000Y-120715000D03*
X107315000Y-80710000D03*
%TO.N,A07*%
X115570000Y-118810000D03*
%TO.N,A08*%
X116840000Y-119445002D03*
%TO.N,A09*%
X118110000Y-118810000D03*
%TO.N,AEN*%
X111760000Y-117540000D03*
%TO.N,D0*%
X147320000Y-112460000D03*
%TO.N,D1*%
X149225000Y-112460000D03*
X149225000Y-65470000D03*
%TO.N,D2*%
X150495000Y-68010000D03*
X151130000Y-112460000D03*
%TO.N,D3*%
X151765007Y-70550007D03*
X153034990Y-112460000D03*
%TO.N,D4*%
X154940000Y-112460000D03*
X153035000Y-73090000D03*
%TO.N,D5*%
X146685000Y-108650000D03*
%TO.N,D6*%
X144780000Y-105475000D03*
%TO.N,D7*%
X144024979Y-103737759D03*
D22*
%TO.N,GND*%
X161290000Y-94045000D03*
X141605000Y-114365000D03*
X136525000Y-73090000D03*
X104775000Y-88330000D03*
X185800000Y-120715000D03*
X170815000Y-107380000D03*
X135890000Y-116270000D03*
X161290000Y-98490000D03*
X99145000Y-123500000D03*
X194945000Y-59755000D03*
X99060000Y-116905000D03*
X137795000Y-109920000D03*
X97790000Y-118175000D03*
X136525000Y-76900000D03*
X178435000Y-59755000D03*
X194945000Y-120715000D03*
X141605000Y-118810000D03*
X164465000Y-68010000D03*
X120650000Y-69280000D03*
X123190000Y-76900000D03*
X194945000Y-105475000D03*
X135255000Y-85790000D03*
X184785000Y-59755000D03*
X99060000Y-119445000D03*
X130810000Y-69280000D03*
X123190000Y-90870000D03*
X97790000Y-115635000D03*
X194945000Y-90235000D03*
X194945000Y-74995000D03*
X123190000Y-85790000D03*
X120650000Y-62930000D03*
X130810000Y-76900000D03*
X135255000Y-90870000D03*
X181610000Y-59755000D03*
X147955000Y-116270012D03*
X102235000Y-68010000D03*
X133985000Y-109920000D03*
X100330000Y-118175000D03*
X178435000Y-105475000D03*
X149860000Y-118175002D03*
X125730000Y-69280000D03*
X151765000Y-120080010D03*
X130810000Y-62930000D03*
X125730000Y-62930000D03*
X161290000Y-89600000D03*
X164465000Y-64200000D03*
X170815000Y-97855000D03*
X178435000Y-90235000D03*
%TO.N,VCC*%
X104140000Y-123200000D03*
D21*
X110490000Y-71820000D03*
%TO.N,~{IOR}*%
X144780000Y-111190000D03*
D22*
%TO.N,+12V*%
X165100000Y-99760000D03*
X165100000Y-101665000D03*
X155030048Y-124038167D03*
%TO.N,-12V*%
X160100000Y-123900000D03*
D21*
%TO.N,RESET*%
X154300000Y-92200000D03*
%TO.N,Net-(J1-Pad5)*%
X102870000Y-74360000D03*
%TO.N,UART_XIN*%
X130810000Y-101030000D03*
%TO.N,Net-(J2-Pad10)*%
X154305000Y-102300000D03*
%TO.N,Net-(U1-Pad39)*%
X154305000Y-87060000D03*
%TO.N,Net-(U1-Pad36)*%
X158750000Y-79440000D03*
%TO.N,~{UART_CS}*%
X125095000Y-95950000D03*
%TO.N,Net-(U1-Pad32)*%
X160020000Y-74360000D03*
%TO.N,/SER_PIN6*%
X182245000Y-71820000D03*
X182245000Y-78170000D03*
%TO.N,/SER_PIN1*%
X184785000Y-70550000D03*
X184785000Y-80075000D03*
%TO.N,/SER_PIN2*%
X180975000Y-71820000D03*
X180975000Y-76900000D03*
%TO.N,/SER_PIN4*%
X183515000Y-80075000D03*
X183515000Y-71820000D03*
%TD*%
D23*
%TO.N,A00*%
X127000000Y-113730000D02*
X127000000Y-94680000D01*
%TO.N,A01*%
X128270000Y-115000000D02*
X128270000Y-97220000D01*
%TO.N,A02*%
X129540000Y-116270000D02*
X129540000Y-99760000D01*
%TO.N,A03*%
X113030000Y-118810000D02*
X113030000Y-89600000D01*
X113030000Y-89600000D02*
X109220000Y-85790000D01*
X109220000Y-85790000D02*
X109220000Y-70550000D01*
%TO.N,A04*%
X107940001Y-119435001D02*
X109220000Y-120715000D01*
X106045000Y-89917500D02*
X107940001Y-91812501D01*
X107940001Y-91812501D02*
X107940001Y-119435001D01*
X104775000Y-75630000D02*
X106045000Y-76900000D01*
X106045000Y-76900000D02*
X106045000Y-89917500D01*
%TO.N,A05*%
X110490000Y-119445000D02*
X111760000Y-120715000D01*
X110490000Y-92140000D02*
X110490000Y-119445000D01*
X107315000Y-88965000D02*
X110490000Y-92140000D01*
X107315000Y-80710000D02*
X107315000Y-88965000D01*
%TO.N,A06*%
X113106000Y-120639000D02*
X113106000Y-126350000D01*
X114300000Y-119445000D02*
X114300000Y-87695000D01*
X114300000Y-119445000D02*
X113106000Y-120639000D01*
X114300000Y-87695000D02*
X112395000Y-85790000D01*
%TO.N,A07*%
X115570000Y-83885000D02*
X115570000Y-118810000D01*
X112395000Y-80710000D02*
X115570000Y-83885000D01*
%TO.N,A08*%
X116840000Y-80075000D02*
X116840000Y-119445002D01*
X112395000Y-75630000D02*
X116840000Y-80075000D01*
%TO.N,A09*%
X112395000Y-70550000D02*
X118110000Y-76265000D01*
X118110000Y-76265000D02*
X118110000Y-118810000D01*
%TO.N,AEN*%
X111760000Y-90870000D02*
X111760000Y-117540000D01*
X108585000Y-79440000D02*
X108585000Y-87695000D01*
X108585000Y-87695000D02*
X111760000Y-90870000D01*
X107950000Y-66105000D02*
X107950000Y-78805000D01*
X107950000Y-78805000D02*
X108585000Y-79440000D01*
X104775000Y-62930000D02*
X107950000Y-66105000D01*
%TO.N,D0*%
X147955000Y-69280000D02*
X147955000Y-111825000D01*
X147955000Y-111825000D02*
X147320000Y-112460000D01*
X141605000Y-62930000D02*
X147955000Y-69280000D01*
%TO.N,D1*%
X149225000Y-112460000D02*
X149225000Y-65470000D01*
%TO.N,D2*%
X151130000Y-112460000D02*
X150495000Y-111825000D01*
X150495000Y-111825000D02*
X150495000Y-68010000D01*
%TO.N,D3*%
X151765007Y-111190017D02*
X151765007Y-70550007D01*
X153034990Y-112460000D02*
X151765007Y-111190017D01*
%TO.N,D4*%
X154940000Y-112383124D02*
X153035000Y-110478124D01*
X153035000Y-110478124D02*
X153035000Y-73090000D01*
X154940000Y-112460000D02*
X154940000Y-112383124D01*
%TO.N,D5*%
X146685000Y-80710000D02*
X146685000Y-108650000D01*
X141605000Y-75630000D02*
X146685000Y-80710000D01*
%TO.N,D6*%
X141605000Y-78170000D02*
X145415000Y-81980000D01*
X145415000Y-81980000D02*
X145415000Y-104840000D01*
X145415000Y-104840000D02*
X144780000Y-105475000D01*
%TO.N,D7*%
X144024979Y-83129979D02*
X144024979Y-103737759D01*
X141605000Y-80710000D02*
X144024979Y-83129979D01*
D24*
%TO.N,GND*%
X125730000Y-69280000D02*
X120650000Y-69280000D01*
X125730000Y-62930000D02*
X120650000Y-62930000D01*
X181610000Y-59755000D02*
X184785000Y-59755000D01*
D23*
X99127000Y-127629000D02*
X99127000Y-123967000D01*
D24*
X117395000Y-66740000D02*
X120650000Y-66740000D01*
X123190000Y-80710000D02*
X123190000Y-76900000D01*
X194945000Y-105475000D02*
X194945000Y-90235000D01*
X99060000Y-121350000D02*
X99060000Y-119445000D01*
X123190000Y-76900000D02*
X130810000Y-76900000D01*
X184785000Y-65390000D02*
X184785000Y-59755000D01*
X194945000Y-105475000D02*
X178435000Y-105475000D01*
X161845000Y-66740000D02*
X163195000Y-66740000D01*
X137795000Y-71820000D02*
X136525000Y-73090000D01*
X164465000Y-68010000D02*
X164465000Y-64200000D01*
X136525000Y-67930000D02*
X137795000Y-69200000D01*
D23*
X99127000Y-123967000D02*
X99060000Y-123900000D01*
D24*
X123190000Y-85790000D02*
X123190000Y-90870000D01*
X130810000Y-69280000D02*
X125730000Y-69280000D01*
D23*
X151206000Y-128890000D02*
X149945000Y-127629000D01*
D24*
X182245000Y-67930000D02*
X184785000Y-65390000D01*
X194945000Y-120715000D02*
X194945000Y-105475000D01*
X194945000Y-90235000D02*
X194945000Y-74995000D01*
X185800000Y-120715000D02*
X194945000Y-120715000D01*
D23*
X149945000Y-118260002D02*
X149860000Y-118175002D01*
D24*
X178435000Y-59755000D02*
X181610000Y-59755000D01*
X160655000Y-67930000D02*
X161845000Y-66740000D01*
D23*
X149945000Y-127629000D02*
X149945000Y-118260002D01*
D24*
X120650000Y-63637106D02*
X120650000Y-62930000D01*
X161290000Y-98490000D02*
X161290000Y-110555010D01*
X130810000Y-62930000D02*
X125730000Y-62930000D01*
X104775000Y-68010000D02*
X102235000Y-68010000D01*
X136525000Y-73090000D02*
X136525000Y-76900000D01*
X100330000Y-118175000D02*
X99060000Y-119445000D01*
X163195000Y-66740000D02*
X164465000Y-68010000D01*
D25*
X152172505Y-119672505D02*
X151765000Y-120080010D01*
D24*
X161290000Y-110555010D02*
X151765000Y-120080010D01*
X194945000Y-90235000D02*
X178435000Y-90235000D01*
X194945000Y-74995000D02*
X194945000Y-59755000D01*
X161290000Y-94045000D02*
X161290000Y-98490000D01*
X123190000Y-80710000D02*
X123190000Y-85790000D01*
D23*
X97866000Y-128890000D02*
X99127000Y-127629000D01*
D24*
X97790000Y-115635000D02*
X99060000Y-116905000D01*
X97790000Y-118175000D02*
X99060000Y-119445000D01*
X161290000Y-89600000D02*
X161290000Y-94045000D01*
X104775000Y-85790000D02*
X104775000Y-88330000D01*
X99060000Y-116905000D02*
X99060000Y-119445000D01*
X116205000Y-67930000D02*
X117395000Y-66740000D01*
X120650000Y-69280000D02*
X120650000Y-63637106D01*
X137795000Y-69200000D02*
X137795000Y-71820000D01*
D25*
X99060000Y-123900000D02*
X99060000Y-121350000D01*
%TO.N,VCC*%
X173355000Y-93410000D02*
X173355000Y-92140000D01*
X173355000Y-92140000D02*
X173355000Y-91505000D01*
X133350000Y-61660000D02*
X134620000Y-60390000D01*
D24*
X102552500Y-114047500D02*
X102235000Y-114365000D01*
X132080000Y-71820000D02*
X133350000Y-71820000D01*
X172085000Y-90235000D02*
X173355000Y-88965000D01*
X130810000Y-73090000D02*
X133350000Y-73090000D01*
X136525000Y-61025000D02*
X137160000Y-60390000D01*
X118110000Y-62295000D02*
X118110000Y-61025000D01*
D25*
X174625000Y-88965000D02*
X174625000Y-89600000D01*
X160020000Y-60390000D02*
X162560000Y-60390000D01*
X168986000Y-130686000D02*
X170200000Y-131900000D01*
D23*
X112395000Y-78170000D02*
X111125000Y-78170000D01*
X123190000Y-73090000D02*
X130810000Y-73090000D01*
D24*
X114300000Y-62930000D02*
X114300000Y-61025000D01*
X116205000Y-62930000D02*
X114300000Y-62930000D01*
D25*
X101600000Y-113730000D02*
X99695000Y-111825000D01*
D24*
X161925000Y-62930000D02*
X162560000Y-62295000D01*
D23*
X141605000Y-93410000D02*
X141605000Y-90870000D01*
D24*
X136525000Y-62930000D02*
X137795000Y-62930000D01*
D23*
X111125000Y-81980000D02*
X112395000Y-83250000D01*
X110490000Y-68010000D02*
X110490000Y-62930000D01*
D24*
X170815000Y-92140000D02*
X170815000Y-90870000D01*
D25*
X99695000Y-111825000D02*
X99695000Y-112460000D01*
X171300000Y-131900000D02*
X166000000Y-131900000D01*
X104300000Y-131900000D02*
X102946000Y-130546000D01*
D24*
X172085000Y-90235000D02*
X173355000Y-91505000D01*
X102552500Y-113412500D02*
X101917500Y-113412500D01*
D23*
X104207000Y-123367000D02*
X104140000Y-123300000D01*
D25*
X133350000Y-64835000D02*
X133350000Y-66740000D01*
X175260000Y-88330000D02*
X175260000Y-61025000D01*
X98425000Y-112460000D02*
X98425000Y-61025000D01*
D24*
X102552500Y-113412500D02*
X102552500Y-114047500D01*
D25*
X137160000Y-60390000D02*
X138430000Y-60390000D01*
D24*
X116205000Y-62930000D02*
X117475000Y-62930000D01*
D25*
X174625000Y-61025000D02*
X173990000Y-61660000D01*
X99695000Y-113730000D02*
X99695000Y-112460000D01*
D23*
X102946000Y-128890000D02*
X104207000Y-127629000D01*
D25*
X173355000Y-93410000D02*
X173355000Y-115555000D01*
X134620000Y-60390000D02*
X137160000Y-60390000D01*
X162560000Y-60390000D02*
X172720000Y-60390000D01*
X133350000Y-61660000D02*
X132080000Y-60390000D01*
D24*
X101917500Y-113412500D02*
X101600000Y-113730000D01*
X116205000Y-61025000D02*
X115570000Y-60390000D01*
X132715000Y-65470000D02*
X133350000Y-64835000D01*
X172720000Y-91505000D02*
X173355000Y-91505000D01*
X171450000Y-90235000D02*
X172085000Y-90235000D01*
D25*
X115570000Y-60390000D02*
X117475000Y-60390000D01*
X133350000Y-64200000D02*
X133350000Y-64835000D01*
D24*
X137795000Y-62930000D02*
X138430000Y-62295000D01*
X116205000Y-62930000D02*
X116205000Y-61025000D01*
D23*
X139700000Y-88965000D02*
X139700000Y-59755000D01*
D24*
X130810000Y-65470000D02*
X132080000Y-66740000D01*
D25*
X173990000Y-61660000D02*
X173990000Y-88330000D01*
X114935000Y-60390000D02*
X115570000Y-60390000D01*
D23*
X111125000Y-78170000D02*
X111125000Y-81980000D01*
D24*
X155575000Y-62930000D02*
X154940000Y-62295000D01*
X130810000Y-73090000D02*
X132080000Y-74360000D01*
D23*
X110490000Y-68010000D02*
X110490000Y-71820000D01*
D25*
X173990000Y-88330000D02*
X173355000Y-88965000D01*
D24*
X111125000Y-62930000D02*
X110490000Y-62930000D01*
D25*
X177700000Y-119900000D02*
X177700000Y-118075000D01*
D24*
X172720000Y-90235000D02*
X173355000Y-89600000D01*
D25*
X104140000Y-118810000D02*
X104140000Y-116270000D01*
X133350000Y-71820000D02*
X133350000Y-74360000D01*
X98425000Y-61025000D02*
X100330000Y-59120000D01*
D24*
X117475000Y-62930000D02*
X118110000Y-62295000D01*
D25*
X99695000Y-112460000D02*
X99695000Y-61660000D01*
X174625000Y-115000000D02*
X174625000Y-89600000D01*
X104140000Y-123300000D02*
X104140000Y-123200000D01*
D24*
X156845000Y-61025000D02*
X157480000Y-60390000D01*
D23*
X110490000Y-77535000D02*
X110490000Y-71820000D01*
D24*
X136525000Y-62930000D02*
X133350000Y-62930000D01*
D25*
X104140000Y-116270000D02*
X102235000Y-114365000D01*
D24*
X172085000Y-92140000D02*
X172720000Y-91505000D01*
X114300000Y-62930000D02*
X112395000Y-62930000D01*
X138430000Y-62295000D02*
X138430000Y-60390000D01*
X130810000Y-73090000D02*
X132080000Y-71820000D01*
D25*
X173355000Y-61025000D02*
X173990000Y-61660000D01*
X100965000Y-60390000D02*
X110490000Y-60390000D01*
D24*
X132080000Y-74360000D02*
X133350000Y-74360000D01*
X154940000Y-62295000D02*
X154940000Y-60390000D01*
D25*
X174625000Y-87695000D02*
X174625000Y-89600000D01*
D24*
X132080000Y-66740000D02*
X133350000Y-66740000D01*
X110490000Y-62930000D02*
X110490000Y-60390000D01*
D23*
X112395000Y-68010000D02*
X110490000Y-68010000D01*
D25*
X99695000Y-61660000D02*
X100965000Y-60390000D01*
D24*
X132080000Y-64200000D02*
X133350000Y-64200000D01*
D25*
X173355000Y-89600000D02*
X173355000Y-88965000D01*
X172720000Y-60390000D02*
X173355000Y-61025000D01*
X113030000Y-60390000D02*
X114935000Y-60390000D01*
D23*
X104207000Y-127629000D02*
X104207000Y-123367000D01*
D24*
X160655000Y-62930000D02*
X161925000Y-62930000D01*
D25*
X104140000Y-123200000D02*
X104140000Y-118810000D01*
X99695000Y-113730000D02*
X98425000Y-112460000D01*
D24*
X160655000Y-62930000D02*
X158750000Y-62930000D01*
D25*
X171300000Y-131900000D02*
X177700000Y-131900000D01*
D24*
X114300000Y-61025000D02*
X114935000Y-60390000D01*
D25*
X102235000Y-114365000D02*
X101600000Y-113730000D01*
D24*
X112395000Y-61025000D02*
X113030000Y-60390000D01*
X178435000Y-62930000D02*
X182245000Y-62930000D01*
D25*
X173355000Y-59120000D02*
X173355000Y-61025000D01*
D24*
X156845000Y-62930000D02*
X155575000Y-62930000D01*
D25*
X177700000Y-131900000D02*
X177700000Y-119900000D01*
X165600000Y-131900000D02*
X104300000Y-131900000D01*
X117475000Y-60390000D02*
X132080000Y-60390000D01*
X104140000Y-118175000D02*
X99695000Y-113730000D01*
D24*
X158750000Y-62930000D02*
X158750000Y-60390000D01*
X158750000Y-62930000D02*
X156845000Y-62930000D01*
X172085000Y-90235000D02*
X172720000Y-90235000D01*
X130810000Y-65470000D02*
X132715000Y-65470000D01*
X162560000Y-62295000D02*
X162560000Y-60390000D01*
D25*
X138430000Y-60390000D02*
X154940000Y-60390000D01*
X168986000Y-130686000D02*
X167972000Y-131700000D01*
D24*
X160655000Y-62930000D02*
X160655000Y-61025000D01*
D25*
X158750000Y-60390000D02*
X160020000Y-60390000D01*
D24*
X178435000Y-62930000D02*
X174625000Y-62930000D01*
X104140000Y-111825000D02*
X102552500Y-113412500D01*
D25*
X173355000Y-115555000D02*
X177700000Y-119900000D01*
X133350000Y-60390000D02*
X133350000Y-61660000D01*
D24*
X170815000Y-92140000D02*
X172085000Y-92140000D01*
D25*
X133350000Y-61660000D02*
X133350000Y-64200000D01*
D24*
X156845000Y-62930000D02*
X156845000Y-61025000D01*
D25*
X173355000Y-88965000D02*
X174625000Y-87695000D01*
D23*
X101685000Y-125755000D02*
X101685000Y-127629000D01*
X123190000Y-65470000D02*
X130810000Y-65470000D01*
D25*
X154940000Y-60390000D02*
X157480000Y-60390000D01*
X174625000Y-87695000D02*
X175260000Y-88330000D01*
X175260000Y-61025000D02*
X173355000Y-59120000D01*
X170200000Y-131900000D02*
X171300000Y-131900000D01*
X104140000Y-118810000D02*
X104140000Y-118175000D01*
X157480000Y-60390000D02*
X158750000Y-60390000D01*
X177700000Y-118075000D02*
X174625000Y-115000000D01*
D24*
X136525000Y-62930000D02*
X136525000Y-61025000D01*
D25*
X133350000Y-66740000D02*
X133350000Y-71820000D01*
X175260000Y-88330000D02*
X174625000Y-88965000D01*
X168986000Y-128890000D02*
X168986000Y-130686000D01*
D24*
X112395000Y-62930000D02*
X111125000Y-62930000D01*
X130810000Y-65470000D02*
X132080000Y-64200000D01*
X170815000Y-90870000D02*
X171450000Y-90235000D01*
X112395000Y-62930000D02*
X112395000Y-61025000D01*
D25*
X100330000Y-59120000D02*
X173355000Y-59120000D01*
D24*
X118110000Y-61025000D02*
X117475000Y-60390000D01*
D25*
X110490000Y-60390000D02*
X113030000Y-60390000D01*
D24*
X172085000Y-92140000D02*
X173355000Y-93410000D01*
X160655000Y-61025000D02*
X160020000Y-60390000D01*
D25*
X133350000Y-60390000D02*
X134620000Y-60390000D01*
D23*
X111125000Y-78170000D02*
X110490000Y-77535000D01*
D25*
X102946000Y-130546000D02*
X102946000Y-128890000D01*
D23*
X104140000Y-123300000D02*
X101685000Y-125755000D01*
D25*
X173355000Y-91505000D02*
X173355000Y-89600000D01*
D23*
X141605000Y-90870000D02*
X139700000Y-88965000D01*
D25*
X132080000Y-60390000D02*
X133350000Y-60390000D01*
D23*
X101685000Y-127629000D02*
X102946000Y-128890000D01*
D24*
X104140000Y-109285000D02*
X104140000Y-111825000D01*
X172085000Y-92140000D02*
X173355000Y-92140000D01*
D23*
%TO.N,IRQ3*%
X114367000Y-127629000D02*
X114367000Y-122133000D01*
X119380000Y-119445000D02*
X119380000Y-107420198D01*
X115785000Y-120715000D02*
X118110000Y-120715000D01*
X114367000Y-122133000D02*
X115785000Y-120715000D01*
X118110000Y-120715000D02*
X119380000Y-119445000D01*
X113106000Y-128890000D02*
X114367000Y-127629000D01*
X121920000Y-104880198D02*
X121920000Y-104205000D01*
X119380000Y-107420198D02*
X121920000Y-104880198D01*
%TO.N,IRQ4*%
X120015000Y-120080000D02*
X120015000Y-109325198D01*
X116907000Y-127629000D02*
X116907000Y-123188000D01*
X115646000Y-128890000D02*
X116907000Y-127629000D01*
X120015000Y-109325198D02*
X121920000Y-107420198D01*
X121920000Y-107420198D02*
X121920000Y-106745000D01*
X116907000Y-123188000D02*
X120015000Y-120080000D01*
%TO.N,IRQ5*%
X119447000Y-127629000D02*
X118186000Y-128890000D01*
X119582500Y-121782500D02*
X120650000Y-120715000D01*
X119447000Y-121918000D02*
X119447000Y-127629000D01*
X120650000Y-120715000D02*
X120650000Y-111230198D01*
X121920000Y-109960198D02*
X121920000Y-109285000D01*
X120650000Y-111230198D02*
X121920000Y-109960198D01*
X119582500Y-121782500D02*
X119447000Y-121918000D01*
%TO.N,IRQ7*%
X124527000Y-114432000D02*
X121920000Y-111825000D01*
X123266000Y-128890000D02*
X124527000Y-127629000D01*
X124527000Y-127629000D02*
X124527000Y-114432000D01*
%TO.N,~{IOR}*%
X144780000Y-119445000D02*
X142307000Y-121918000D01*
X144780000Y-111190000D02*
X144780000Y-119445000D01*
X142307000Y-127629000D02*
X141046000Y-128890000D01*
X142307000Y-121918000D02*
X142307000Y-127629000D01*
%TO.N,~{IOW}*%
X146010000Y-109880000D02*
X146010000Y-120755000D01*
X141605000Y-106110000D02*
X142240000Y-106110000D01*
X144847000Y-127629000D02*
X143586000Y-128890000D01*
X144847000Y-121918000D02*
X144847000Y-127629000D01*
X142240000Y-106110000D02*
X146010000Y-109880000D01*
X146010000Y-120755000D02*
X144847000Y-121918000D01*
D24*
%TO.N,+12V*%
X170180000Y-62295000D02*
X168275000Y-62295000D01*
D25*
X165100000Y-99760000D02*
X165100000Y-101665000D01*
D23*
X155025000Y-127611000D02*
X153746000Y-128890000D01*
D24*
X170180000Y-63565000D02*
X168910000Y-63565000D01*
D25*
X165100000Y-101665000D02*
X165100000Y-110710000D01*
X168275000Y-62930000D02*
X167640000Y-63565000D01*
D24*
X170815000Y-62930000D02*
X170180000Y-62295000D01*
D23*
X155030048Y-124969952D02*
X155025000Y-124975000D01*
D25*
X155030048Y-120779952D02*
X155030048Y-124038167D01*
D23*
X152485000Y-127629000D02*
X153746000Y-128890000D01*
X152600000Y-124800000D02*
X152485000Y-124915000D01*
X152485000Y-124915000D02*
X152485000Y-127629000D01*
D25*
X167640000Y-63565000D02*
X167640000Y-82615000D01*
D24*
X168275000Y-62295000D02*
X168275000Y-62930000D01*
D25*
X165100000Y-85155000D02*
X165100000Y-99760000D01*
D24*
X170815000Y-62930000D02*
X170180000Y-63565000D01*
D23*
X155030048Y-124038167D02*
X153361833Y-124038167D01*
X155030048Y-124038167D02*
X155030048Y-124969952D01*
D25*
X165100000Y-110710000D02*
X155030048Y-120779952D01*
D23*
X155025000Y-124975000D02*
X155025000Y-127611000D01*
D24*
X168910000Y-63565000D02*
X168275000Y-63565000D01*
D23*
X153361833Y-124038167D02*
X153200000Y-124200000D01*
D25*
X167640000Y-82615000D02*
X165100000Y-85155000D01*
D23*
X152485000Y-124915000D02*
X153361833Y-124038167D01*
%TO.N,-12V*%
X160105000Y-124395000D02*
X160100000Y-124390000D01*
D24*
X170180000Y-85155000D02*
X168910000Y-85155000D01*
X168910000Y-115000000D02*
X168402000Y-115000000D01*
D23*
X157900000Y-123900000D02*
X160100000Y-123900000D01*
D24*
X168600010Y-110880010D02*
X167949990Y-110880010D01*
X170180000Y-115000000D02*
X170815000Y-114365000D01*
X170815000Y-114365000D02*
X170815000Y-113690000D01*
X170180000Y-86425000D02*
X168910000Y-86425000D01*
X168148000Y-115000000D02*
X168148000Y-114492000D01*
X168402000Y-115000000D02*
X168402000Y-114746000D01*
D23*
X160105000Y-127611000D02*
X160105000Y-124395000D01*
X157565000Y-124335000D02*
X157565000Y-127629000D01*
D25*
X168275000Y-113095000D02*
X168275000Y-86425000D01*
D24*
X170815000Y-85790000D02*
X170180000Y-86425000D01*
X168148000Y-115000000D02*
X168148000Y-113222000D01*
D23*
X157565000Y-127629000D02*
X158826000Y-128890000D01*
D24*
X166878000Y-115000000D02*
X166624000Y-114746000D01*
X168402000Y-114746000D02*
X168021000Y-114365000D01*
X168910000Y-115000000D02*
X170180000Y-115000000D01*
X168148000Y-113222000D02*
X168275000Y-113095000D01*
D25*
X167513000Y-113857000D02*
X168275000Y-113095000D01*
D23*
X157565000Y-124335000D02*
X157565000Y-124235000D01*
D24*
X167894000Y-114238000D02*
X168656000Y-115000000D01*
X170220000Y-113095000D02*
X168275000Y-113095000D01*
X168021000Y-114365000D02*
X167894000Y-114238000D01*
X168910000Y-109285000D02*
X168584990Y-108959990D01*
X168656000Y-115000000D02*
X168910000Y-115000000D01*
D25*
X160100000Y-121270000D02*
X160100000Y-123900000D01*
D23*
X158826000Y-128890000D02*
X160105000Y-127611000D01*
X160100000Y-124390000D02*
X160100000Y-123900000D01*
D24*
X168148000Y-114492000D02*
X168021000Y-114365000D01*
X168148000Y-115000000D02*
X166878000Y-115000000D01*
X170815000Y-113690000D02*
X170220000Y-113095000D01*
X170815000Y-85790000D02*
X170180000Y-85155000D01*
D25*
X166624000Y-114746000D02*
X160100000Y-121270000D01*
X166624000Y-114746000D02*
X167513000Y-113857000D01*
X168275000Y-86425000D02*
X168910000Y-85790000D01*
D24*
X167894000Y-114238000D02*
X167513000Y-113857000D01*
X167894000Y-114746000D02*
X168148000Y-115000000D01*
D23*
X157565000Y-124235000D02*
X157900000Y-123900000D01*
D24*
X168029990Y-112150010D02*
X167949990Y-112150010D01*
X168402000Y-115000000D02*
X168148000Y-115000000D01*
X167894000Y-114238000D02*
X167894000Y-114746000D01*
D23*
%TO.N,RESET*%
X154305000Y-92195000D02*
X154300000Y-92200000D01*
X156845000Y-75630000D02*
X155575000Y-76900000D01*
X154305000Y-88965000D02*
X154305000Y-92195000D01*
X155575000Y-76900000D02*
X155575000Y-87695000D01*
X155575000Y-87695000D02*
X154305000Y-88965000D01*
%TO.N,Net-(J1-Pad5)*%
X101600000Y-103549800D02*
X101600000Y-75630000D01*
X105419999Y-107369799D02*
X101600000Y-103549800D01*
X101600000Y-75630000D02*
X102870000Y-74360000D01*
X106680000Y-111825000D02*
X105419999Y-110564999D01*
X105419999Y-110564999D02*
X105419999Y-107369799D01*
%TO.N,Net-(J1-Pad2)*%
X106680000Y-106745000D02*
X106680000Y-109285000D01*
X102870000Y-102935000D02*
X106680000Y-106745000D01*
X104775000Y-78170000D02*
X104457500Y-78170000D01*
X104457500Y-78170000D02*
X102870000Y-79757500D01*
X102870000Y-79757500D02*
X102870000Y-102935000D01*
%TO.N,UART_XIN*%
X130810000Y-80710000D02*
X130810000Y-101030000D01*
%TO.N,Net-(J2-Pad10)*%
X155575000Y-93625000D02*
X154305000Y-94895000D01*
X155575000Y-89600000D02*
X155575000Y-93625000D01*
X124460000Y-106745000D02*
X124460000Y-104205000D01*
X156845000Y-88330000D02*
X155575000Y-89600000D01*
X124460000Y-104205000D02*
X124460000Y-101665000D01*
X154305000Y-94895000D02*
X154305000Y-102300000D01*
X124460000Y-109285000D02*
X124460000Y-106745000D01*
X124460000Y-111825000D02*
X124460000Y-109285000D01*
%TO.N,Net-(U1-Pad39)*%
X154305000Y-68010000D02*
X156845000Y-65470000D01*
X154305000Y-87060000D02*
X154305000Y-68010000D01*
%TO.N,Net-(U1-Pad36)*%
X158750000Y-74995000D02*
X156845000Y-73090000D01*
X158750000Y-79440000D02*
X158750000Y-74995000D01*
%TO.N,Net-(U1-Pad15)*%
X142875000Y-97220000D02*
X141605000Y-98490000D01*
X142875000Y-84520000D02*
X142875000Y-97220000D01*
X141605000Y-83250000D02*
X142875000Y-84520000D01*
%TO.N,~{UART_CS}*%
X113665000Y-69280000D02*
X119380000Y-74995000D01*
X112395000Y-65470000D02*
X113665000Y-66740000D01*
X119380000Y-90235000D02*
X125095000Y-95950000D01*
X113665000Y-66740000D02*
X113665000Y-69280000D01*
X119380000Y-74995000D02*
X119380000Y-90235000D01*
%TO.N,Net-(U1-Pad32)*%
X160020000Y-74360000D02*
X160020000Y-80075000D01*
X160020000Y-80075000D02*
X156845000Y-83250000D01*
%TO.N,/SER_PIN6*%
X182245000Y-71820000D02*
X182245000Y-78170000D01*
%TO.N,/SER_PIN1*%
X184785000Y-79440000D02*
X184785000Y-70550000D01*
X184785000Y-80075000D02*
X184785000Y-79440000D01*
%TO.N,/SER_PIN2*%
X180975000Y-71820000D02*
X180975000Y-76900000D01*
%TO.N,/SER_PIN4*%
X183515000Y-71820000D02*
X183515000Y-80075000D01*
%TD*%
%TA.AperFunction,Conductor*%
%TO.N,GND*%
G36*
X195330930Y-58145888D02*
G01*
X195510797Y-58160044D01*
X195530325Y-58163137D01*
X195615627Y-58183616D01*
X195700932Y-58204095D01*
X195719734Y-58210205D01*
X195881827Y-58277346D01*
X195899444Y-58286322D01*
X196049044Y-58377997D01*
X196065040Y-58389619D01*
X196198453Y-58503566D01*
X196212433Y-58517546D01*
X196326380Y-58650959D01*
X196338002Y-58666955D01*
X196429677Y-58816555D01*
X196438653Y-58834172D01*
X196505794Y-58996265D01*
X196511904Y-59015069D01*
X196552862Y-59185674D01*
X196555955Y-59205201D01*
X196570112Y-59385069D01*
X196570500Y-59394956D01*
X196570500Y-133345043D01*
X196570112Y-133354929D01*
X196570112Y-133354930D01*
X196555955Y-133534798D01*
X196552862Y-133554325D01*
X196511904Y-133724930D01*
X196505794Y-133743734D01*
X196438653Y-133905827D01*
X196429677Y-133923444D01*
X196338002Y-134073044D01*
X196326380Y-134089040D01*
X196212433Y-134222453D01*
X196198453Y-134236433D01*
X196065040Y-134350380D01*
X196049044Y-134362002D01*
X195899444Y-134453677D01*
X195881827Y-134462653D01*
X195719734Y-134529794D01*
X195700930Y-134535904D01*
X195530325Y-134576862D01*
X195510798Y-134579955D01*
X195344770Y-134593022D01*
X195330928Y-134594112D01*
X195321044Y-134594500D01*
X97870956Y-134594500D01*
X97861071Y-134594112D01*
X97846111Y-134592934D01*
X97681201Y-134579955D01*
X97661674Y-134576862D01*
X97491069Y-134535904D01*
X97472265Y-134529794D01*
X97310172Y-134462653D01*
X97292555Y-134453677D01*
X97142955Y-134362002D01*
X97126959Y-134350380D01*
X96993546Y-134236433D01*
X96979566Y-134222453D01*
X96865619Y-134089040D01*
X96853997Y-134073044D01*
X96762322Y-133923444D01*
X96753346Y-133905827D01*
X96686205Y-133743734D01*
X96680095Y-133724930D01*
X96639137Y-133554325D01*
X96636044Y-133534797D01*
X96621888Y-133354929D01*
X96621500Y-133345043D01*
X96621500Y-127496364D01*
X96641502Y-127428243D01*
X96695158Y-127381750D01*
X96765432Y-127371646D01*
X96830012Y-127401140D01*
X96836595Y-127407269D01*
X96904770Y-127475444D01*
X96904773Y-127475446D01*
X96904776Y-127475449D01*
X97092669Y-127611961D01*
X97299604Y-127717400D01*
X97520486Y-127789169D01*
X97749876Y-127825500D01*
X97749878Y-127825500D01*
X97982122Y-127825500D01*
X97982124Y-127825500D01*
X98211514Y-127789169D01*
X98432396Y-127717400D01*
X98639331Y-127611961D01*
X98827224Y-127475449D01*
X98991449Y-127311224D01*
X99034065Y-127252566D01*
X99090285Y-127209215D01*
X99161021Y-127203138D01*
X99223813Y-127236270D01*
X99237929Y-127252559D01*
X99280551Y-127311224D01*
X99280555Y-127311229D01*
X99444769Y-127475443D01*
X99444772Y-127475445D01*
X99444776Y-127475449D01*
X99503431Y-127518064D01*
X99546784Y-127574287D01*
X99552859Y-127645023D01*
X99519727Y-127707815D01*
X99503432Y-127721934D01*
X99484259Y-127735865D01*
X99444769Y-127764556D01*
X99280555Y-127928770D01*
X99280553Y-127928773D01*
X99144041Y-128116665D01*
X99038601Y-128323602D01*
X99038598Y-128323608D01*
X98966832Y-128544481D01*
X98966831Y-128544484D01*
X98966831Y-128544486D01*
X98930500Y-128773876D01*
X98930500Y-129006124D01*
X98966831Y-129235514D01*
X99038600Y-129456396D01*
X99144039Y-129663331D01*
X99280551Y-129851224D01*
X99280553Y-129851226D01*
X99280555Y-129851229D01*
X99444770Y-130015444D01*
X99444773Y-130015446D01*
X99444776Y-130015449D01*
X99632669Y-130151961D01*
X99839604Y-130257400D01*
X100060486Y-130329169D01*
X100289876Y-130365500D01*
X100289878Y-130365500D01*
X100522122Y-130365500D01*
X100522124Y-130365500D01*
X100751514Y-130329169D01*
X100972396Y-130257400D01*
X101179331Y-130151961D01*
X101245442Y-130103928D01*
X101312306Y-130080072D01*
X101381457Y-130096151D01*
X101430938Y-130147065D01*
X101445500Y-130205866D01*
X101445500Y-130427908D01*
X101445500Y-130664092D01*
X101482447Y-130897368D01*
X101555432Y-131121992D01*
X101555433Y-131121993D01*
X101662659Y-131332437D01*
X101801484Y-131523512D01*
X103322487Y-133044515D01*
X103322490Y-133044517D01*
X103513566Y-133183343D01*
X103724008Y-133290568D01*
X103948631Y-133363553D01*
X104181908Y-133400500D01*
X104181911Y-133400500D01*
X165718088Y-133400500D01*
X165718092Y-133400500D01*
X165780295Y-133390648D01*
X165819705Y-133390648D01*
X165881908Y-133400500D01*
X165881912Y-133400500D01*
X177818089Y-133400500D01*
X177818092Y-133400500D01*
X178051368Y-133363553D01*
X178275992Y-133290568D01*
X178486433Y-133183343D01*
X178677510Y-133044517D01*
X178844517Y-132877510D01*
X178983343Y-132686433D01*
X179090568Y-132475992D01*
X179163553Y-132251368D01*
X179200500Y-132018092D01*
X179200500Y-119781908D01*
X179200500Y-117956908D01*
X179163553Y-117723632D01*
X179090568Y-117499008D01*
X178983343Y-117288567D01*
X178948691Y-117240873D01*
X178844518Y-117097490D01*
X178844517Y-117097488D01*
X176162405Y-114415376D01*
X176128379Y-114353064D01*
X176125500Y-114326281D01*
X176125500Y-89638718D01*
X176145502Y-89570597D01*
X176162405Y-89549622D01*
X176252885Y-89459142D01*
X176404518Y-89307510D01*
X176454449Y-89238786D01*
X176543343Y-89116434D01*
X176650568Y-88905992D01*
X176723553Y-88681369D01*
X176760500Y-88448092D01*
X176760500Y-88211908D01*
X176760500Y-83387155D01*
X176780502Y-83319034D01*
X176834158Y-83272541D01*
X176904432Y-83262437D01*
X176969012Y-83291931D01*
X177007396Y-83351657D01*
X177010947Y-83367435D01*
X177043383Y-83572230D01*
X177110316Y-83778228D01*
X177208649Y-83971218D01*
X177335963Y-84146449D01*
X177335965Y-84146451D01*
X177335968Y-84146455D01*
X177489114Y-84299601D01*
X177489117Y-84299603D01*
X177489121Y-84299607D01*
X177664352Y-84426921D01*
X177756101Y-84473669D01*
X177807717Y-84522417D01*
X177824783Y-84591332D01*
X177801883Y-84658533D01*
X177756103Y-84698202D01*
X177725934Y-84713574D01*
X177565664Y-84830017D01*
X177425587Y-84970094D01*
X177309146Y-85130361D01*
X177219208Y-85306875D01*
X177219205Y-85306881D01*
X177157991Y-85495278D01*
X177151541Y-85536000D01*
X178123314Y-85536000D01*
X178114920Y-85544394D01*
X178062259Y-85635606D01*
X178035000Y-85737339D01*
X178035000Y-85842661D01*
X178062259Y-85944394D01*
X178114920Y-86035606D01*
X178123314Y-86044000D01*
X177151541Y-86044000D01*
X177157991Y-86084721D01*
X177219205Y-86273118D01*
X177219208Y-86273124D01*
X177309146Y-86449638D01*
X177425587Y-86609905D01*
X177565664Y-86749982D01*
X177725931Y-86866423D01*
X177902445Y-86956361D01*
X177902451Y-86956364D01*
X178090849Y-87017578D01*
X178181000Y-87031856D01*
X178181000Y-86101686D01*
X178189394Y-86110080D01*
X178280606Y-86162741D01*
X178382339Y-86190000D01*
X178487661Y-86190000D01*
X178589394Y-86162741D01*
X178680606Y-86110080D01*
X178689000Y-86101686D01*
X178689000Y-87031856D01*
X178779150Y-87017578D01*
X178967548Y-86956364D01*
X178967554Y-86956361D01*
X179144068Y-86866423D01*
X179304335Y-86749982D01*
X179444412Y-86609905D01*
X179560855Y-86449635D01*
X179563065Y-86445298D01*
X186580370Y-86445298D01*
X186580370Y-86783221D01*
X186618205Y-87119022D01*
X186693402Y-87448474D01*
X186693401Y-87448474D01*
X186805001Y-87767409D01*
X186805012Y-87767436D01*
X186951624Y-88071879D01*
X186951629Y-88071888D01*
X187131413Y-88358011D01*
X187288747Y-88555301D01*
X187288748Y-88555301D01*
X188292224Y-87551824D01*
X188368436Y-87656720D01*
X188546540Y-87834824D01*
X188651433Y-87911034D01*
X187647957Y-88914510D01*
X187647957Y-88914512D01*
X187845248Y-89071846D01*
X188131371Y-89251630D01*
X188131380Y-89251635D01*
X188435823Y-89398247D01*
X188435850Y-89398258D01*
X188754785Y-89509858D01*
X189084237Y-89585054D01*
X189420038Y-89622890D01*
X189757962Y-89622890D01*
X190093762Y-89585054D01*
X190423214Y-89509858D01*
X190742149Y-89398258D01*
X190742176Y-89398247D01*
X191046619Y-89251635D01*
X191046628Y-89251630D01*
X191332748Y-89071849D01*
X191530042Y-88914511D01*
X190526565Y-87911034D01*
X190631460Y-87834824D01*
X190809564Y-87656720D01*
X190885774Y-87551825D01*
X191889251Y-88555302D01*
X192046589Y-88358008D01*
X192226370Y-88071888D01*
X192226375Y-88071879D01*
X192372987Y-87767436D01*
X192372998Y-87767409D01*
X192484598Y-87448474D01*
X192559794Y-87119022D01*
X192597630Y-86783221D01*
X192597630Y-86445298D01*
X192559794Y-86109497D01*
X192484597Y-85780045D01*
X192484598Y-85780045D01*
X192372998Y-85461110D01*
X192372987Y-85461083D01*
X192226375Y-85156640D01*
X192226370Y-85156631D01*
X192046586Y-84870508D01*
X191889252Y-84673217D01*
X191889250Y-84673217D01*
X190885774Y-85676693D01*
X190809564Y-85571800D01*
X190631460Y-85393696D01*
X190526565Y-85317484D01*
X191530041Y-84314008D01*
X191530041Y-84314007D01*
X191332751Y-84156673D01*
X191046628Y-83976889D01*
X191046619Y-83976884D01*
X190742176Y-83830272D01*
X190742149Y-83830261D01*
X190423214Y-83718661D01*
X190093762Y-83643465D01*
X189757962Y-83605630D01*
X189420038Y-83605630D01*
X189084237Y-83643465D01*
X188754785Y-83718661D01*
X188435850Y-83830261D01*
X188435823Y-83830272D01*
X188131380Y-83976884D01*
X188131371Y-83976889D01*
X187845245Y-84156675D01*
X187845241Y-84156678D01*
X187647957Y-84314006D01*
X187647957Y-84314008D01*
X188651434Y-85317485D01*
X188546540Y-85393696D01*
X188368436Y-85571800D01*
X188292225Y-85676694D01*
X187288748Y-84673217D01*
X187288746Y-84673217D01*
X187131418Y-84870501D01*
X187131415Y-84870505D01*
X186951629Y-85156631D01*
X186951624Y-85156640D01*
X186805012Y-85461083D01*
X186805001Y-85461110D01*
X186693401Y-85780045D01*
X186618205Y-86109497D01*
X186580370Y-86445298D01*
X179563065Y-86445298D01*
X179594012Y-86384562D01*
X179594012Y-86384561D01*
X179650791Y-86273124D01*
X179650794Y-86273118D01*
X179712008Y-86084721D01*
X179718459Y-86044000D01*
X178746686Y-86044000D01*
X178755080Y-86035606D01*
X178807741Y-85944394D01*
X178835000Y-85842661D01*
X178835000Y-85737339D01*
X178807741Y-85635606D01*
X178755080Y-85544394D01*
X178746686Y-85536000D01*
X179718458Y-85536000D01*
X179712008Y-85495278D01*
X179650794Y-85306881D01*
X179650791Y-85306875D01*
X179560853Y-85130361D01*
X179444412Y-84970094D01*
X179304335Y-84830017D01*
X179144067Y-84713575D01*
X179113897Y-84698203D01*
X179062282Y-84649454D01*
X179045216Y-84580539D01*
X179068117Y-84513338D01*
X179113895Y-84473670D01*
X179205648Y-84426921D01*
X179380879Y-84299607D01*
X179380885Y-84299601D01*
X179406347Y-84274140D01*
X179534031Y-84146455D01*
X179534037Y-84146449D01*
X179661351Y-83971218D01*
X179759684Y-83778228D01*
X179826617Y-83572230D01*
X179860500Y-83358299D01*
X179860500Y-83141701D01*
X179826617Y-82927770D01*
X179759684Y-82721772D01*
X179661351Y-82528782D01*
X179534037Y-82353551D01*
X179534033Y-82353547D01*
X179534031Y-82353544D01*
X179380881Y-82200394D01*
X179217838Y-82081936D01*
X179174484Y-82025713D01*
X179168409Y-81954977D01*
X179201541Y-81892186D01*
X179217838Y-81878064D01*
X179380879Y-81759607D01*
X179534037Y-81606449D01*
X179661351Y-81431218D01*
X179759684Y-81238228D01*
X179826617Y-81032230D01*
X179860500Y-80818299D01*
X179860500Y-80601701D01*
X179826617Y-80387770D01*
X179759684Y-80181772D01*
X179661351Y-79988782D01*
X179534037Y-79813551D01*
X179534033Y-79813547D01*
X179534031Y-79813544D01*
X179380881Y-79660394D01*
X179230925Y-79551444D01*
X179217837Y-79541935D01*
X179174484Y-79485713D01*
X179168409Y-79414977D01*
X179201541Y-79352186D01*
X179217838Y-79338064D01*
X179218601Y-79337510D01*
X179380879Y-79219607D01*
X179534037Y-79066449D01*
X179661351Y-78891218D01*
X179759684Y-78698228D01*
X179826617Y-78492230D01*
X179860500Y-78278299D01*
X179860500Y-78061701D01*
X179826617Y-77847770D01*
X179759684Y-77641772D01*
X179661351Y-77448782D01*
X179534037Y-77273551D01*
X179534033Y-77273547D01*
X179534031Y-77273544D01*
X179380881Y-77120394D01*
X179217838Y-77001936D01*
X179174484Y-76945713D01*
X179168409Y-76874977D01*
X179201541Y-76812186D01*
X179217838Y-76798064D01*
X179380879Y-76679607D01*
X179534037Y-76526449D01*
X179661351Y-76351218D01*
X179759684Y-76158228D01*
X179826617Y-75952230D01*
X179860500Y-75738299D01*
X179860500Y-75521701D01*
X179826617Y-75307770D01*
X179759684Y-75101772D01*
X179661351Y-74908782D01*
X179534037Y-74733551D01*
X179534033Y-74733547D01*
X179534031Y-74733544D01*
X179380881Y-74580394D01*
X179271115Y-74500644D01*
X179217837Y-74461935D01*
X179174484Y-74405713D01*
X179168409Y-74334977D01*
X179201541Y-74272186D01*
X179217838Y-74258064D01*
X179380879Y-74139607D01*
X179534037Y-73986449D01*
X179661351Y-73811218D01*
X179759684Y-73618228D01*
X179826617Y-73412230D01*
X179860500Y-73198299D01*
X179860500Y-72981701D01*
X179826617Y-72767770D01*
X179759684Y-72561772D01*
X179661351Y-72368782D01*
X179534037Y-72193551D01*
X179534033Y-72193547D01*
X179534031Y-72193544D01*
X179380881Y-72040394D01*
X179217838Y-71921936D01*
X179200383Y-71899300D01*
X179180461Y-71878801D01*
X179178994Y-71871561D01*
X179174484Y-71865713D01*
X179172038Y-71837234D01*
X179166361Y-71809218D01*
X179169040Y-71802334D01*
X179168409Y-71794977D01*
X179181747Y-71769698D01*
X179192119Y-71743059D01*
X179199682Y-71735708D01*
X179201541Y-71732186D01*
X179216765Y-71718994D01*
X179949500Y-71718994D01*
X179949500Y-71921005D01*
X179960190Y-71974745D01*
X179987624Y-72112668D01*
X179988910Y-72119130D01*
X180006396Y-72161343D01*
X180066214Y-72305756D01*
X180178265Y-72473454D01*
X180199480Y-72541205D01*
X180199500Y-72543454D01*
X180199500Y-76176545D01*
X180179498Y-76244666D01*
X180178265Y-76246547D01*
X180066215Y-76414242D01*
X179988910Y-76600869D01*
X179949500Y-76798994D01*
X179949500Y-77001005D01*
X179988910Y-77199130D01*
X179994809Y-77213370D01*
X180066214Y-77385756D01*
X180178442Y-77553718D01*
X180321282Y-77696558D01*
X180489244Y-77808786D01*
X180675873Y-77886091D01*
X180873997Y-77925500D01*
X180873998Y-77925500D01*
X181076003Y-77925500D01*
X181082169Y-77924893D01*
X181082456Y-77927816D01*
X181140590Y-77932867D01*
X181196770Y-77976275D01*
X181220563Y-78043166D01*
X181219215Y-78062745D01*
X181220107Y-78062833D01*
X181219500Y-78068998D01*
X181219500Y-78271005D01*
X181226691Y-78307155D01*
X181258909Y-78469127D01*
X181336214Y-78655756D01*
X181448442Y-78823718D01*
X181591282Y-78966558D01*
X181759244Y-79078786D01*
X181945873Y-79156091D01*
X182143997Y-79195500D01*
X182143998Y-79195500D01*
X182346002Y-79195500D01*
X182346003Y-79195500D01*
X182544127Y-79156091D01*
X182565280Y-79147328D01*
X182598430Y-79143763D01*
X182631432Y-79139019D01*
X182633551Y-79139987D01*
X182635868Y-79139738D01*
X182665685Y-79154662D01*
X182696012Y-79168513D01*
X182697271Y-79170472D01*
X182699356Y-79171516D01*
X182716373Y-79200196D01*
X182734396Y-79228239D01*
X182734838Y-79231314D01*
X182735585Y-79232573D01*
X182739500Y-79263737D01*
X182739500Y-79351545D01*
X182719498Y-79419666D01*
X182718268Y-79421541D01*
X182606214Y-79589244D01*
X182592360Y-79622691D01*
X182528910Y-79775869D01*
X182528909Y-79775872D01*
X182528909Y-79775873D01*
X182523396Y-79803588D01*
X182489500Y-79973994D01*
X182489500Y-80176005D01*
X182495846Y-80207906D01*
X182523868Y-80348786D01*
X182528910Y-80374130D01*
X182534560Y-80387770D01*
X182606214Y-80560756D01*
X182718442Y-80728718D01*
X182861282Y-80871558D01*
X183029244Y-80983786D01*
X183215873Y-81061091D01*
X183413997Y-81100500D01*
X183413998Y-81100500D01*
X183616002Y-81100500D01*
X183616003Y-81100500D01*
X183814127Y-81061091D01*
X184000756Y-80983786D01*
X184080001Y-80930835D01*
X184147750Y-80909622D01*
X184216217Y-80928404D01*
X184219937Y-80930794D01*
X184299244Y-80983786D01*
X184485873Y-81061091D01*
X184683997Y-81100500D01*
X184683998Y-81100500D01*
X184886002Y-81100500D01*
X184886003Y-81100500D01*
X185084127Y-81061091D01*
X185270756Y-80983786D01*
X185438718Y-80871558D01*
X185581558Y-80728718D01*
X185693786Y-80560756D01*
X185771091Y-80374127D01*
X185810500Y-80176003D01*
X185810500Y-79973997D01*
X185771091Y-79775873D01*
X185693786Y-79589244D01*
X185581734Y-79421546D01*
X185560520Y-79353794D01*
X185560500Y-79351545D01*
X185560500Y-71273454D01*
X185565913Y-71255016D01*
X185566172Y-71240561D01*
X186445090Y-71240561D01*
X186445090Y-71457159D01*
X186478973Y-71671090D01*
X186545906Y-71877088D01*
X186644239Y-72070078D01*
X186771553Y-72245309D01*
X186771555Y-72245311D01*
X186771558Y-72245315D01*
X186924704Y-72398461D01*
X186924707Y-72398463D01*
X186924711Y-72398467D01*
X187099942Y-72525781D01*
X187289103Y-72622163D01*
X187340718Y-72670911D01*
X187357784Y-72739826D01*
X187334883Y-72807028D01*
X187289103Y-72846697D01*
X187099942Y-72943079D01*
X186924704Y-73070398D01*
X186771558Y-73223544D01*
X186644239Y-73398782D01*
X186545907Y-73591770D01*
X186545906Y-73591772D01*
X186498561Y-73737486D01*
X186478973Y-73797770D01*
X186445090Y-74011701D01*
X186445090Y-74228299D01*
X186478973Y-74442230D01*
X186545906Y-74648228D01*
X186644239Y-74841218D01*
X186771553Y-75016449D01*
X186771555Y-75016451D01*
X186771558Y-75016455D01*
X186924704Y-75169601D01*
X186924707Y-75169603D01*
X186924711Y-75169607D01*
X187099942Y-75296921D01*
X187264182Y-75380605D01*
X187289103Y-75393303D01*
X187340718Y-75442051D01*
X187357784Y-75510966D01*
X187334883Y-75578168D01*
X187289103Y-75617836D01*
X187140042Y-75693787D01*
X187099942Y-75714219D01*
X186924704Y-75841538D01*
X186771558Y-75994684D01*
X186644239Y-76169922D01*
X186545907Y-76362910D01*
X186545906Y-76362912D01*
X186482305Y-76558656D01*
X186478973Y-76568910D01*
X186445090Y-76782841D01*
X186445090Y-76999439D01*
X186478973Y-77213370D01*
X186545906Y-77419368D01*
X186644239Y-77612358D01*
X186771553Y-77787589D01*
X186771555Y-77787591D01*
X186771558Y-77787595D01*
X186924704Y-77940741D01*
X186924707Y-77940743D01*
X186924711Y-77940747D01*
X187099942Y-78068061D01*
X187286611Y-78163173D01*
X187338226Y-78211921D01*
X187355292Y-78280836D01*
X187332391Y-78348038D01*
X187286611Y-78387706D01*
X187181208Y-78441412D01*
X187099942Y-78482819D01*
X186924704Y-78610138D01*
X186771558Y-78763284D01*
X186644239Y-78938522D01*
X186545907Y-79131510D01*
X186545906Y-79131512D01*
X186491370Y-79299357D01*
X186478973Y-79337510D01*
X186445090Y-79551441D01*
X186445090Y-79768039D01*
X186478973Y-79981970D01*
X186545906Y-80187968D01*
X186644239Y-80380958D01*
X186771553Y-80556189D01*
X186771555Y-80556191D01*
X186771558Y-80556195D01*
X186924704Y-80709341D01*
X186924707Y-80709343D01*
X186924711Y-80709347D01*
X187099942Y-80836661D01*
X187292932Y-80934994D01*
X187498930Y-81001927D01*
X187712861Y-81035810D01*
X187712864Y-81035810D01*
X188427296Y-81035810D01*
X188427299Y-81035810D01*
X188641230Y-81001927D01*
X188847228Y-80934994D01*
X189040218Y-80836661D01*
X189215449Y-80709347D01*
X189368607Y-80556189D01*
X189495921Y-80380958D01*
X189594254Y-80187968D01*
X189661187Y-79981970D01*
X189695070Y-79768039D01*
X189695070Y-79551441D01*
X189662790Y-79347633D01*
X189671890Y-79277226D01*
X189717612Y-79222912D01*
X189785440Y-79201939D01*
X189853839Y-79220966D01*
X189876334Y-79238831D01*
X189962544Y-79325041D01*
X189962547Y-79325043D01*
X189962551Y-79325047D01*
X190137782Y-79452361D01*
X190330772Y-79550694D01*
X190536770Y-79617627D01*
X190750701Y-79651510D01*
X190750704Y-79651510D01*
X191465136Y-79651510D01*
X191465139Y-79651510D01*
X191679070Y-79617627D01*
X191885068Y-79550694D01*
X192078058Y-79452361D01*
X192253289Y-79325047D01*
X192406447Y-79171889D01*
X192533761Y-78996658D01*
X192632094Y-78803668D01*
X192699027Y-78597670D01*
X192732910Y-78383739D01*
X192732910Y-78167141D01*
X192699027Y-77953210D01*
X192632094Y-77747212D01*
X192533761Y-77554222D01*
X192406447Y-77378991D01*
X192406443Y-77378987D01*
X192406441Y-77378984D01*
X192253295Y-77225838D01*
X192253291Y-77225835D01*
X192253289Y-77225833D01*
X192078058Y-77098519D01*
X191888894Y-77002135D01*
X191837281Y-76953389D01*
X191820215Y-76884474D01*
X191843116Y-76817272D01*
X191888894Y-76777604D01*
X192078058Y-76681221D01*
X192253289Y-76553907D01*
X192406447Y-76400749D01*
X192533761Y-76225518D01*
X192632094Y-76032528D01*
X192699027Y-75826530D01*
X192732910Y-75612599D01*
X192732910Y-75396001D01*
X192699027Y-75182070D01*
X192632094Y-74976072D01*
X192533761Y-74783082D01*
X192406447Y-74607851D01*
X192406443Y-74607847D01*
X192406441Y-74607844D01*
X192253295Y-74454698D01*
X192253291Y-74454695D01*
X192253289Y-74454693D01*
X192078058Y-74327379D01*
X191891386Y-74232265D01*
X191839773Y-74183519D01*
X191822707Y-74114604D01*
X191845608Y-74047402D01*
X191891385Y-74007734D01*
X192078058Y-73912621D01*
X192253289Y-73785307D01*
X192406447Y-73632149D01*
X192533761Y-73456918D01*
X192632094Y-73263928D01*
X192699027Y-73057930D01*
X192732910Y-72843999D01*
X192732910Y-72627401D01*
X192699027Y-72413470D01*
X192632094Y-72207472D01*
X192533761Y-72014482D01*
X192406447Y-71839251D01*
X192406443Y-71839247D01*
X192406441Y-71839244D01*
X192253295Y-71686098D01*
X192253291Y-71686095D01*
X192253289Y-71686093D01*
X192078058Y-71558779D01*
X191888894Y-71462395D01*
X191837281Y-71413649D01*
X191820215Y-71344734D01*
X191843116Y-71277532D01*
X191888894Y-71237864D01*
X192078058Y-71141481D01*
X192253289Y-71014167D01*
X192406447Y-70861009D01*
X192533761Y-70685778D01*
X192632094Y-70492788D01*
X192699027Y-70286790D01*
X192732910Y-70072859D01*
X192732910Y-69856261D01*
X192699027Y-69642330D01*
X192632094Y-69436332D01*
X192533761Y-69243342D01*
X192406447Y-69068111D01*
X192406443Y-69068107D01*
X192406441Y-69068104D01*
X192253295Y-68914958D01*
X192253291Y-68914955D01*
X192253289Y-68914953D01*
X192078058Y-68787639D01*
X191885068Y-68689306D01*
X191679070Y-68622373D01*
X191465139Y-68588490D01*
X190750701Y-68588490D01*
X190536770Y-68622373D01*
X190536767Y-68622373D01*
X190536766Y-68622374D01*
X190330772Y-68689306D01*
X190330770Y-68689307D01*
X190137782Y-68787639D01*
X189962544Y-68914958D01*
X189809398Y-69068104D01*
X189682079Y-69243342D01*
X189583747Y-69436330D01*
X189583746Y-69436332D01*
X189517176Y-69641214D01*
X189516813Y-69642330D01*
X189482930Y-69856261D01*
X189482930Y-70072859D01*
X189498623Y-70171939D01*
X189515209Y-70276663D01*
X189506109Y-70347074D01*
X189460387Y-70401388D01*
X189392559Y-70422360D01*
X189324159Y-70403333D01*
X189301665Y-70385468D01*
X189215455Y-70299258D01*
X189215451Y-70299255D01*
X189215449Y-70299253D01*
X189040218Y-70171939D01*
X188847228Y-70073606D01*
X188690307Y-70022619D01*
X188631702Y-69982545D01*
X188604065Y-69917148D01*
X188616172Y-69847192D01*
X188664178Y-69794886D01*
X188690308Y-69782953D01*
X188802118Y-69746624D01*
X188802124Y-69746621D01*
X188978638Y-69656683D01*
X189138905Y-69540242D01*
X189278982Y-69400165D01*
X189395423Y-69239898D01*
X189485361Y-69063384D01*
X189485364Y-69063378D01*
X189546578Y-68874981D01*
X189553029Y-68834260D01*
X188691482Y-68834260D01*
X188737941Y-68753791D01*
X188768580Y-68639448D01*
X188768580Y-68521072D01*
X188737941Y-68406729D01*
X188691482Y-68326260D01*
X189553028Y-68326260D01*
X189546578Y-68285538D01*
X189485364Y-68097141D01*
X189485361Y-68097135D01*
X189395423Y-67920621D01*
X189278982Y-67760354D01*
X189138905Y-67620277D01*
X188978638Y-67503836D01*
X188802124Y-67413898D01*
X188802118Y-67413895D01*
X188613721Y-67352681D01*
X188418049Y-67321690D01*
X188324080Y-67321690D01*
X188324080Y-68130680D01*
X188259812Y-68130680D01*
X188145469Y-68161319D01*
X188042952Y-68220507D01*
X187959247Y-68304212D01*
X187900059Y-68406729D01*
X187869420Y-68521072D01*
X187869420Y-68639448D01*
X187900059Y-68753791D01*
X187946518Y-68834260D01*
X186587131Y-68834260D01*
X186593581Y-68874981D01*
X186654795Y-69063378D01*
X186654798Y-69063384D01*
X186744736Y-69239898D01*
X186861177Y-69400165D01*
X187001254Y-69540242D01*
X187161521Y-69656683D01*
X187338035Y-69746621D01*
X187338041Y-69746624D01*
X187449851Y-69782953D01*
X187508457Y-69823026D01*
X187536094Y-69888423D01*
X187523987Y-69958380D01*
X187475981Y-70010686D01*
X187449852Y-70022619D01*
X187358332Y-70052356D01*
X187292932Y-70073606D01*
X187292930Y-70073606D01*
X187292930Y-70073607D01*
X187099942Y-70171939D01*
X186924704Y-70299258D01*
X186771558Y-70452404D01*
X186644239Y-70627642D01*
X186545907Y-70820630D01*
X186545906Y-70820632D01*
X186480008Y-71023446D01*
X186478973Y-71026630D01*
X186445090Y-71240561D01*
X185566172Y-71240561D01*
X185566257Y-71235802D01*
X185579973Y-71207132D01*
X185580502Y-71205333D01*
X185581664Y-71203558D01*
X185693786Y-71035756D01*
X185771091Y-70849127D01*
X185810500Y-70651003D01*
X185810500Y-70448997D01*
X185771091Y-70250873D01*
X185693786Y-70064244D01*
X185581558Y-69896282D01*
X185438718Y-69753442D01*
X185270756Y-69641214D01*
X185123626Y-69580270D01*
X185084130Y-69563910D01*
X185084128Y-69563909D01*
X185084127Y-69563909D01*
X184965144Y-69540242D01*
X184886005Y-69524500D01*
X184886003Y-69524500D01*
X184683997Y-69524500D01*
X184683994Y-69524500D01*
X184563440Y-69548480D01*
X184485873Y-69563909D01*
X184485872Y-69563909D01*
X184485869Y-69563910D01*
X184299242Y-69641215D01*
X184131283Y-69753441D01*
X184131277Y-69753446D01*
X183988446Y-69896277D01*
X183988441Y-69896283D01*
X183876215Y-70064242D01*
X183798910Y-70250869D01*
X183798909Y-70250872D01*
X183798909Y-70250873D01*
X183798908Y-70250880D01*
X183759500Y-70448994D01*
X183759500Y-70651001D01*
X183760107Y-70657167D01*
X183757291Y-70657444D01*
X183751918Y-70716134D01*
X183708249Y-70772112D01*
X183641249Y-70795595D01*
X183622252Y-70794236D01*
X183622167Y-70795107D01*
X183616003Y-70794500D01*
X183413997Y-70794500D01*
X183413994Y-70794500D01*
X183266410Y-70823856D01*
X183215873Y-70833909D01*
X183215872Y-70833909D01*
X183215869Y-70833910D01*
X183029243Y-70911214D01*
X182950001Y-70964162D01*
X182882248Y-70985376D01*
X182813781Y-70966592D01*
X182809999Y-70964162D01*
X182730756Y-70911214D01*
X182544130Y-70833910D01*
X182544128Y-70833909D01*
X182544127Y-70833909D01*
X182444394Y-70814071D01*
X182346005Y-70794500D01*
X182346003Y-70794500D01*
X182143997Y-70794500D01*
X182143994Y-70794500D01*
X181996410Y-70823856D01*
X181945873Y-70833909D01*
X181945872Y-70833909D01*
X181945869Y-70833910D01*
X181759243Y-70911214D01*
X181680001Y-70964162D01*
X181612248Y-70985376D01*
X181543781Y-70966592D01*
X181539999Y-70964162D01*
X181460756Y-70911214D01*
X181274130Y-70833910D01*
X181274128Y-70833909D01*
X181274127Y-70833909D01*
X181174394Y-70814071D01*
X181076005Y-70794500D01*
X181076003Y-70794500D01*
X180873997Y-70794500D01*
X180873994Y-70794500D01*
X180726410Y-70823856D01*
X180675873Y-70833909D01*
X180675872Y-70833909D01*
X180675869Y-70833910D01*
X180555402Y-70883810D01*
X180491968Y-70910086D01*
X180489242Y-70911215D01*
X180321283Y-71023441D01*
X180321277Y-71023446D01*
X180178446Y-71166277D01*
X180178441Y-71166283D01*
X180066215Y-71334242D01*
X179988910Y-71520869D01*
X179949500Y-71718994D01*
X179216765Y-71718994D01*
X179217838Y-71718064D01*
X179243250Y-71699601D01*
X179380879Y-71599607D01*
X179534037Y-71446449D01*
X179661351Y-71271218D01*
X179759684Y-71078228D01*
X179826617Y-70872230D01*
X179860500Y-70658299D01*
X179860500Y-70441701D01*
X179826617Y-70227770D01*
X179759684Y-70021772D01*
X179661351Y-69828782D01*
X179534037Y-69653551D01*
X179534033Y-69653547D01*
X179534031Y-69653544D01*
X179380881Y-69500394D01*
X179217838Y-69381936D01*
X179174484Y-69325713D01*
X179168409Y-69254977D01*
X179201541Y-69192186D01*
X179217838Y-69178064D01*
X179236623Y-69164416D01*
X179380879Y-69059607D01*
X179534037Y-68906449D01*
X179566252Y-68862110D01*
X179620358Y-68787639D01*
X179661351Y-68731218D01*
X179759684Y-68538228D01*
X179826617Y-68332230D01*
X179860500Y-68118299D01*
X179860500Y-67901701D01*
X179848678Y-67827061D01*
X180937000Y-67827061D01*
X180937000Y-68032938D01*
X180969208Y-68236296D01*
X181032826Y-68432093D01*
X181032829Y-68432099D01*
X181126297Y-68615540D01*
X181126298Y-68615541D01*
X181157416Y-68658372D01*
X181845000Y-67970788D01*
X181845000Y-67982661D01*
X181872259Y-68084394D01*
X181924920Y-68175606D01*
X181999394Y-68250080D01*
X182090606Y-68302741D01*
X182192339Y-68330000D01*
X182204210Y-68330000D01*
X181516626Y-69017582D01*
X181516626Y-69017583D01*
X181559454Y-69048699D01*
X181742900Y-69142170D01*
X181742906Y-69142173D01*
X181938705Y-69205791D01*
X181938701Y-69205791D01*
X182142061Y-69238000D01*
X182347939Y-69238000D01*
X182551296Y-69205791D01*
X182747093Y-69142173D01*
X182747099Y-69142170D01*
X182930541Y-69048701D01*
X182973372Y-69017582D01*
X182973372Y-69017581D01*
X182285791Y-68330000D01*
X182297661Y-68330000D01*
X182399394Y-68302741D01*
X182490606Y-68250080D01*
X182565080Y-68175606D01*
X182617741Y-68084394D01*
X182645000Y-67982661D01*
X182645000Y-67970791D01*
X183332581Y-68658372D01*
X183332582Y-68658372D01*
X183363701Y-68615541D01*
X183457170Y-68432099D01*
X183457173Y-68432093D01*
X183491560Y-68326260D01*
X186587131Y-68326260D01*
X187816080Y-68326260D01*
X187816080Y-67321690D01*
X187722111Y-67321690D01*
X187526438Y-67352681D01*
X187338041Y-67413895D01*
X187338035Y-67413898D01*
X187161521Y-67503836D01*
X187001254Y-67620277D01*
X186861177Y-67760354D01*
X186744736Y-67920621D01*
X186654798Y-68097135D01*
X186654795Y-68097141D01*
X186593581Y-68285538D01*
X186587131Y-68326260D01*
X183491560Y-68326260D01*
X183491975Y-68324984D01*
X183520791Y-68236296D01*
X183553000Y-68032938D01*
X183553000Y-67827061D01*
X183520791Y-67623703D01*
X183457173Y-67427906D01*
X183457170Y-67427900D01*
X183363699Y-67244454D01*
X183332583Y-67201626D01*
X183332582Y-67201626D01*
X182645000Y-67889208D01*
X182645000Y-67877339D01*
X182617741Y-67775606D01*
X182565080Y-67684394D01*
X182490606Y-67609920D01*
X182399394Y-67557259D01*
X182297661Y-67530000D01*
X182285790Y-67530000D01*
X182973372Y-66842416D01*
X182930541Y-66811298D01*
X182930540Y-66811297D01*
X182747099Y-66717829D01*
X182747093Y-66717826D01*
X182551294Y-66654208D01*
X182551298Y-66654208D01*
X182347939Y-66622000D01*
X182142061Y-66622000D01*
X181938703Y-66654208D01*
X181742906Y-66717826D01*
X181742900Y-66717829D01*
X181559452Y-66811301D01*
X181516625Y-66842416D01*
X182204209Y-67530000D01*
X182192339Y-67530000D01*
X182090606Y-67557259D01*
X181999394Y-67609920D01*
X181924920Y-67684394D01*
X181872259Y-67775606D01*
X181845000Y-67877339D01*
X181845000Y-67889209D01*
X181157416Y-67201625D01*
X181126301Y-67244452D01*
X181032829Y-67427900D01*
X181032826Y-67427906D01*
X180969208Y-67623703D01*
X180937000Y-67827061D01*
X179848678Y-67827061D01*
X179826617Y-67687770D01*
X179759684Y-67481772D01*
X179661351Y-67288782D01*
X179534037Y-67113551D01*
X179534033Y-67113547D01*
X179534031Y-67113544D01*
X179405991Y-66985504D01*
X179405986Y-66985500D01*
X179380879Y-66960393D01*
X179216622Y-66841052D01*
X179215480Y-66840181D01*
X179195294Y-66812701D01*
X179174484Y-66785713D01*
X179174353Y-66784191D01*
X179173450Y-66782962D01*
X179171325Y-66748940D01*
X179168409Y-66714977D01*
X179169121Y-66713627D01*
X179169026Y-66712104D01*
X179185641Y-66682319D01*
X179201541Y-66652186D01*
X179203301Y-66650660D01*
X179203613Y-66650102D01*
X179204481Y-66649637D01*
X179217838Y-66638064D01*
X179380879Y-66519607D01*
X179534037Y-66366449D01*
X179661351Y-66191218D01*
X179759684Y-65998228D01*
X179826617Y-65792230D01*
X179860500Y-65578299D01*
X179860500Y-65361701D01*
X179826617Y-65147770D01*
X179759684Y-64941772D01*
X179661351Y-64748782D01*
X179534037Y-64573551D01*
X179534033Y-64573547D01*
X179534031Y-64573544D01*
X179380881Y-64420394D01*
X179257383Y-64330667D01*
X179217837Y-64301935D01*
X179174484Y-64245713D01*
X179168409Y-64174977D01*
X179201541Y-64112186D01*
X179217838Y-64098064D01*
X179243250Y-64079601D01*
X179380879Y-63979607D01*
X179434496Y-63925990D01*
X179518082Y-63842405D01*
X179580394Y-63808379D01*
X179607177Y-63805500D01*
X181054872Y-63805500D01*
X181122993Y-63825502D01*
X181154274Y-63855047D01*
X181154469Y-63854882D01*
X181156011Y-63856688D01*
X181156812Y-63857444D01*
X181157691Y-63858654D01*
X181316343Y-64017306D01*
X181316346Y-64017308D01*
X181316349Y-64017311D01*
X181497875Y-64149197D01*
X181697798Y-64251063D01*
X181911195Y-64320400D01*
X182132811Y-64355500D01*
X182132814Y-64355500D01*
X182357186Y-64355500D01*
X182357189Y-64355500D01*
X182578805Y-64320400D01*
X182792202Y-64251063D01*
X182992125Y-64149197D01*
X183173651Y-64017311D01*
X183332311Y-63858651D01*
X183368836Y-63808379D01*
X183372959Y-63802704D01*
X183372959Y-63802703D01*
X183390036Y-63779199D01*
X183464197Y-63677125D01*
X183566063Y-63477202D01*
X183635400Y-63263805D01*
X183670500Y-63042189D01*
X183670500Y-62817811D01*
X183635400Y-62596195D01*
X183566063Y-62382798D01*
X183464197Y-62182875D01*
X183332311Y-62001349D01*
X183332307Y-62001345D01*
X183332306Y-62001343D01*
X183173656Y-61842693D01*
X183173653Y-61842691D01*
X183173651Y-61842689D01*
X182992125Y-61710803D01*
X182792202Y-61608937D01*
X182792199Y-61608936D01*
X182792197Y-61608935D01*
X182681836Y-61573077D01*
X182578805Y-61539600D01*
X182357189Y-61504500D01*
X182132811Y-61504500D01*
X181911195Y-61539600D01*
X181911189Y-61539601D01*
X181697802Y-61608935D01*
X181697796Y-61608938D01*
X181497871Y-61710805D01*
X181316346Y-61842691D01*
X181316343Y-61842693D01*
X181157691Y-62001345D01*
X181156812Y-62002556D01*
X181156358Y-62002905D01*
X181154469Y-62005118D01*
X181154004Y-62004721D01*
X181100591Y-62045913D01*
X181054872Y-62054500D01*
X179607177Y-62054500D01*
X179539056Y-62034498D01*
X179518082Y-62017595D01*
X179380885Y-61880398D01*
X179380881Y-61880395D01*
X179380879Y-61880393D01*
X179205648Y-61753079D01*
X179012658Y-61654746D01*
X178806660Y-61587813D01*
X178592729Y-61553930D01*
X178277271Y-61553930D01*
X178063340Y-61587813D01*
X178063337Y-61587813D01*
X178063336Y-61587814D01*
X177857342Y-61654746D01*
X177857340Y-61654747D01*
X177664352Y-61753079D01*
X177489114Y-61880398D01*
X177351918Y-62017595D01*
X177289606Y-62051621D01*
X177262823Y-62054500D01*
X176886500Y-62054500D01*
X176818379Y-62034498D01*
X176771886Y-61980842D01*
X176760500Y-61928500D01*
X176760500Y-61456778D01*
X186580370Y-61456778D01*
X186580370Y-61794701D01*
X186618205Y-62130502D01*
X186693402Y-62459954D01*
X186693401Y-62459954D01*
X186805001Y-62778889D01*
X186805012Y-62778916D01*
X186951624Y-63083359D01*
X186951629Y-63083368D01*
X187131413Y-63369491D01*
X187288747Y-63566781D01*
X187288748Y-63566781D01*
X188292224Y-62563304D01*
X188368436Y-62668200D01*
X188546540Y-62846304D01*
X188651433Y-62922514D01*
X187647957Y-63925990D01*
X187647957Y-63925992D01*
X187845248Y-64083326D01*
X188131371Y-64263110D01*
X188131380Y-64263115D01*
X188435823Y-64409727D01*
X188435850Y-64409738D01*
X188754785Y-64521338D01*
X189084237Y-64596534D01*
X189420038Y-64634370D01*
X189757962Y-64634370D01*
X190093762Y-64596534D01*
X190423214Y-64521338D01*
X190742149Y-64409738D01*
X190742176Y-64409727D01*
X191046619Y-64263115D01*
X191046628Y-64263110D01*
X191332748Y-64083329D01*
X191530042Y-63925991D01*
X190526565Y-62922514D01*
X190631460Y-62846304D01*
X190809564Y-62668200D01*
X190885774Y-62563305D01*
X191889251Y-63566782D01*
X192046589Y-63369488D01*
X192226370Y-63083368D01*
X192226375Y-63083359D01*
X192372987Y-62778916D01*
X192372998Y-62778889D01*
X192484598Y-62459954D01*
X192559794Y-62130502D01*
X192597630Y-61794701D01*
X192597630Y-61456778D01*
X192559794Y-61120977D01*
X192484597Y-60791525D01*
X192484598Y-60791525D01*
X192372998Y-60472590D01*
X192372987Y-60472563D01*
X192226375Y-60168120D01*
X192226370Y-60168111D01*
X192046586Y-59881988D01*
X191889252Y-59684697D01*
X191889250Y-59684697D01*
X190885774Y-60688173D01*
X190809564Y-60583280D01*
X190631460Y-60405176D01*
X190526565Y-60328964D01*
X191530041Y-59325488D01*
X191530041Y-59325487D01*
X191332751Y-59168153D01*
X191046628Y-58988369D01*
X191046619Y-58988364D01*
X190742176Y-58841752D01*
X190742149Y-58841741D01*
X190423214Y-58730141D01*
X190093762Y-58654945D01*
X189757962Y-58617110D01*
X189420038Y-58617110D01*
X189084237Y-58654945D01*
X188754785Y-58730141D01*
X188435850Y-58841741D01*
X188435823Y-58841752D01*
X188131380Y-58988364D01*
X188131371Y-58988369D01*
X187845245Y-59168155D01*
X187845241Y-59168158D01*
X187647957Y-59325486D01*
X187647957Y-59325488D01*
X188651434Y-60328965D01*
X188546540Y-60405176D01*
X188368436Y-60583280D01*
X188292225Y-60688174D01*
X187288748Y-59684697D01*
X187288746Y-59684697D01*
X187131418Y-59881981D01*
X187131415Y-59881985D01*
X186951629Y-60168111D01*
X186951624Y-60168120D01*
X186805012Y-60472563D01*
X186805001Y-60472590D01*
X186693401Y-60791525D01*
X186618205Y-61120977D01*
X186580370Y-61456778D01*
X176760500Y-61456778D01*
X176760500Y-60906911D01*
X176760500Y-60906908D01*
X176723553Y-60673632D01*
X176650568Y-60449008D01*
X176543343Y-60238567D01*
X176404517Y-60047490D01*
X176237510Y-59880483D01*
X176237509Y-59880482D01*
X174717622Y-58360595D01*
X174683596Y-58298283D01*
X174688661Y-58227468D01*
X174731208Y-58170632D01*
X174797728Y-58145821D01*
X174806717Y-58145500D01*
X195317715Y-58145500D01*
X195321044Y-58145500D01*
X195330930Y-58145888D01*
G37*
%TD.AperFunction*%
%TA.AperFunction,Conductor*%
G36*
X150023813Y-127236270D02*
G01*
X150037929Y-127252559D01*
X150080551Y-127311224D01*
X150080555Y-127311229D01*
X150244770Y-127475444D01*
X150244773Y-127475446D01*
X150244776Y-127475449D01*
X150432669Y-127611961D01*
X150639604Y-127717400D01*
X150860486Y-127789169D01*
X151089876Y-127825500D01*
X151089878Y-127825500D01*
X151322122Y-127825500D01*
X151322124Y-127825500D01*
X151551514Y-127789169D01*
X151551520Y-127789167D01*
X151551521Y-127789167D01*
X151582143Y-127779217D01*
X151653110Y-127777188D01*
X151713909Y-127813849D01*
X151737490Y-127850831D01*
X151739302Y-127855205D01*
X151797761Y-127996337D01*
X151820778Y-128030784D01*
X151878164Y-128116669D01*
X151882630Y-128123352D01*
X152261015Y-128501737D01*
X152295039Y-128564048D01*
X152296368Y-128610540D01*
X152270500Y-128773876D01*
X152270500Y-129006124D01*
X152306831Y-129235514D01*
X152378600Y-129456396D01*
X152484039Y-129663331D01*
X152620551Y-129851224D01*
X152620553Y-129851226D01*
X152620555Y-129851229D01*
X152784770Y-130015444D01*
X152784773Y-130015446D01*
X152784776Y-130015449D01*
X152972669Y-130151961D01*
X152990867Y-130161233D01*
X153042482Y-130209982D01*
X153059548Y-130278897D01*
X153036647Y-130346098D01*
X152981049Y-130390250D01*
X152933664Y-130399500D01*
X149478336Y-130399500D01*
X149410215Y-130379498D01*
X149363722Y-130325842D01*
X149353618Y-130255568D01*
X149383112Y-130190988D01*
X149421131Y-130161234D01*
X149439331Y-130151961D01*
X149627224Y-130015449D01*
X149791449Y-129851224D01*
X149927961Y-129663331D01*
X150033400Y-129456396D01*
X150105169Y-129235514D01*
X150141500Y-129006124D01*
X150141500Y-128773876D01*
X150105169Y-128544486D01*
X150033400Y-128323604D01*
X149927961Y-128116669D01*
X149791449Y-127928776D01*
X149791446Y-127928773D01*
X149791444Y-127928770D01*
X149627229Y-127764555D01*
X149627225Y-127764552D01*
X149627224Y-127764551D01*
X149568566Y-127721934D01*
X149525215Y-127665715D01*
X149519138Y-127594979D01*
X149552270Y-127532187D01*
X149568559Y-127518070D01*
X149627224Y-127475449D01*
X149791449Y-127311224D01*
X149834065Y-127252566D01*
X149890285Y-127209215D01*
X149961021Y-127203138D01*
X150023813Y-127236270D01*
G37*
%TD.AperFunction*%
%TA.AperFunction,Conductor*%
G36*
X171760266Y-114827328D02*
G01*
X171790458Y-114834349D01*
X171793828Y-114837816D01*
X171798443Y-114839259D01*
X171818337Y-114863036D01*
X171839938Y-114885263D01*
X171841200Y-114890362D01*
X171844002Y-114893710D01*
X171846050Y-114909943D01*
X171854500Y-114944063D01*
X171854500Y-115436908D01*
X171854500Y-115673092D01*
X171891447Y-115906368D01*
X171964432Y-116130992D01*
X171983797Y-116168998D01*
X172071659Y-116341437D01*
X172210484Y-116532512D01*
X172210487Y-116532515D01*
X176162595Y-120484622D01*
X176196621Y-120546934D01*
X176199500Y-120573717D01*
X176199500Y-130273500D01*
X176179498Y-130341621D01*
X176125842Y-130388114D01*
X176073500Y-130399500D01*
X172338336Y-130399500D01*
X172270215Y-130379498D01*
X172223722Y-130325842D01*
X172213618Y-130255568D01*
X172243112Y-130190988D01*
X172281131Y-130161234D01*
X172299331Y-130151961D01*
X172487224Y-130015449D01*
X172651449Y-129851224D01*
X172787961Y-129663331D01*
X172893400Y-129456396D01*
X172965169Y-129235514D01*
X173001500Y-129006124D01*
X173001500Y-128773876D01*
X172965169Y-128544486D01*
X172893400Y-128323604D01*
X172787961Y-128116669D01*
X172651449Y-127928776D01*
X172651446Y-127928773D01*
X172651444Y-127928770D01*
X172487229Y-127764555D01*
X172487225Y-127764552D01*
X172487224Y-127764551D01*
X172428566Y-127721934D01*
X172385215Y-127665715D01*
X172379138Y-127594979D01*
X172412270Y-127532187D01*
X172428559Y-127518070D01*
X172487224Y-127475449D01*
X172651449Y-127311224D01*
X172694065Y-127252566D01*
X172750285Y-127209215D01*
X172821021Y-127203138D01*
X172883813Y-127236270D01*
X172897929Y-127252559D01*
X172940551Y-127311224D01*
X172940555Y-127311229D01*
X173104770Y-127475444D01*
X173104773Y-127475446D01*
X173104776Y-127475449D01*
X173292669Y-127611961D01*
X173499604Y-127717400D01*
X173720486Y-127789169D01*
X173949876Y-127825500D01*
X173949878Y-127825500D01*
X174182122Y-127825500D01*
X174182124Y-127825500D01*
X174411514Y-127789169D01*
X174632396Y-127717400D01*
X174839331Y-127611961D01*
X175027224Y-127475449D01*
X175191449Y-127311224D01*
X175327961Y-127123331D01*
X175433400Y-126916396D01*
X175505169Y-126695514D01*
X175541500Y-126466124D01*
X175541500Y-126233876D01*
X175505169Y-126004486D01*
X175433400Y-125783604D01*
X175327961Y-125576669D01*
X175191449Y-125388776D01*
X175191446Y-125388773D01*
X175191444Y-125388770D01*
X175027229Y-125224555D01*
X175027226Y-125224553D01*
X175027225Y-125224552D01*
X175027224Y-125224551D01*
X174839331Y-125088039D01*
X174632396Y-124982600D01*
X174632393Y-124982599D01*
X174632391Y-124982598D01*
X174411518Y-124910832D01*
X174411516Y-124910831D01*
X174411514Y-124910831D01*
X174182124Y-124874500D01*
X173949876Y-124874500D01*
X173720486Y-124910831D01*
X173720484Y-124910831D01*
X173720481Y-124910832D01*
X173499608Y-124982598D01*
X173499602Y-124982601D01*
X173292665Y-125088041D01*
X173104773Y-125224553D01*
X173104770Y-125224555D01*
X172940556Y-125388769D01*
X172897936Y-125447431D01*
X172841713Y-125490784D01*
X172770977Y-125496859D01*
X172708185Y-125463727D01*
X172694064Y-125447431D01*
X172651449Y-125388776D01*
X172651445Y-125388772D01*
X172651443Y-125388769D01*
X172487229Y-125224555D01*
X172487226Y-125224553D01*
X172487225Y-125224552D01*
X172487224Y-125224551D01*
X172299331Y-125088039D01*
X172092396Y-124982600D01*
X172092393Y-124982599D01*
X172092391Y-124982598D01*
X171871518Y-124910832D01*
X171871516Y-124910831D01*
X171871514Y-124910831D01*
X171642124Y-124874500D01*
X171409876Y-124874500D01*
X171180486Y-124910831D01*
X171180484Y-124910831D01*
X171180481Y-124910832D01*
X170959608Y-124982598D01*
X170959602Y-124982601D01*
X170752665Y-125088041D01*
X170564773Y-125224553D01*
X170564770Y-125224555D01*
X170400556Y-125388769D01*
X170357936Y-125447431D01*
X170301713Y-125490784D01*
X170230977Y-125496859D01*
X170168185Y-125463727D01*
X170154064Y-125447431D01*
X170111449Y-125388776D01*
X170111445Y-125388772D01*
X170111443Y-125388769D01*
X169947229Y-125224555D01*
X169947226Y-125224553D01*
X169947225Y-125224552D01*
X169947224Y-125224551D01*
X169759331Y-125088039D01*
X169552396Y-124982600D01*
X169552393Y-124982599D01*
X169552391Y-124982598D01*
X169331518Y-124910832D01*
X169331516Y-124910831D01*
X169331514Y-124910831D01*
X169102124Y-124874500D01*
X168869876Y-124874500D01*
X168640486Y-124910831D01*
X168640484Y-124910831D01*
X168640481Y-124910832D01*
X168419608Y-124982598D01*
X168419602Y-124982601D01*
X168212665Y-125088041D01*
X168024773Y-125224553D01*
X168024770Y-125224555D01*
X167860556Y-125388769D01*
X167817936Y-125447431D01*
X167761713Y-125490784D01*
X167690977Y-125496859D01*
X167628185Y-125463727D01*
X167614064Y-125447431D01*
X167571449Y-125388776D01*
X167571445Y-125388772D01*
X167571443Y-125388769D01*
X167407229Y-125224555D01*
X167407226Y-125224553D01*
X167407225Y-125224552D01*
X167407224Y-125224551D01*
X167219331Y-125088039D01*
X167012396Y-124982600D01*
X167012393Y-124982599D01*
X167012391Y-124982598D01*
X166791518Y-124910832D01*
X166791516Y-124910831D01*
X166791514Y-124910831D01*
X166562124Y-124874500D01*
X166329876Y-124874500D01*
X166100486Y-124910831D01*
X166100484Y-124910831D01*
X166100481Y-124910832D01*
X165879608Y-124982598D01*
X165879602Y-124982601D01*
X165672665Y-125088041D01*
X165484773Y-125224553D01*
X165484770Y-125224555D01*
X165320556Y-125388769D01*
X165277936Y-125447431D01*
X165221713Y-125490784D01*
X165150977Y-125496859D01*
X165088185Y-125463727D01*
X165074064Y-125447431D01*
X165031449Y-125388776D01*
X165031445Y-125388772D01*
X165031443Y-125388769D01*
X164867229Y-125224555D01*
X164867226Y-125224553D01*
X164867225Y-125224552D01*
X164867224Y-125224551D01*
X164679331Y-125088039D01*
X164472396Y-124982600D01*
X164472393Y-124982599D01*
X164472391Y-124982598D01*
X164251518Y-124910832D01*
X164251516Y-124910831D01*
X164251514Y-124910831D01*
X164022124Y-124874500D01*
X163789876Y-124874500D01*
X163560486Y-124910831D01*
X163560484Y-124910831D01*
X163560481Y-124910832D01*
X163339608Y-124982598D01*
X163339602Y-124982601D01*
X163132665Y-125088041D01*
X162944773Y-125224553D01*
X162944770Y-125224555D01*
X162780556Y-125388769D01*
X162737936Y-125447431D01*
X162681713Y-125490784D01*
X162610977Y-125496859D01*
X162548185Y-125463727D01*
X162534064Y-125447431D01*
X162491449Y-125388776D01*
X162491445Y-125388772D01*
X162491443Y-125388769D01*
X162327229Y-125224555D01*
X162327226Y-125224553D01*
X162327225Y-125224552D01*
X162327224Y-125224551D01*
X162139331Y-125088039D01*
X161932396Y-124982600D01*
X161932393Y-124982599D01*
X161932391Y-124982598D01*
X161711518Y-124910832D01*
X161711516Y-124910831D01*
X161711514Y-124910831D01*
X161482124Y-124874500D01*
X161482122Y-124874500D01*
X161477235Y-124873726D01*
X161477433Y-124872473D01*
X161416572Y-124849271D01*
X161374437Y-124792130D01*
X161369883Y-124721280D01*
X161382053Y-124691332D01*
X161381095Y-124690844D01*
X161383341Y-124686435D01*
X161383343Y-124686433D01*
X161490568Y-124475992D01*
X161563553Y-124251368D01*
X161600500Y-124018092D01*
X161600500Y-121943717D01*
X161620502Y-121875596D01*
X161637405Y-121854622D01*
X167579622Y-115912405D01*
X167641934Y-115878379D01*
X167668717Y-115875500D01*
X170266228Y-115875500D01*
X170266229Y-115875500D01*
X170435374Y-115841855D01*
X170594705Y-115775858D01*
X170738099Y-115680045D01*
X171439595Y-114978547D01*
X171462409Y-114960486D01*
X171466830Y-114957751D01*
X171562125Y-114909197D01*
X171658237Y-114839367D01*
X171662222Y-114836903D01*
X171692115Y-114828684D01*
X171721307Y-114818269D01*
X171726016Y-114819364D01*
X171730679Y-114818082D01*
X171760266Y-114827328D01*
G37*
%TD.AperFunction*%
%TA.AperFunction,Conductor*%
G36*
X98946404Y-58165502D02*
G01*
X98992897Y-58219158D01*
X99003001Y-58289432D01*
X98973507Y-58354012D01*
X98967378Y-58360595D01*
X97280487Y-60047484D01*
X97280484Y-60047487D01*
X97141659Y-60238562D01*
X97141657Y-60238566D01*
X97057699Y-60403343D01*
X97050039Y-60418376D01*
X97034433Y-60449004D01*
X97026770Y-60472590D01*
X96961447Y-60673632D01*
X96924500Y-60906908D01*
X96924500Y-112341908D01*
X96924500Y-112578092D01*
X96961447Y-112811368D01*
X97034432Y-113035992D01*
X97141657Y-113246434D01*
X97141659Y-113246437D01*
X97280484Y-113437512D01*
X97280487Y-113437515D01*
X98550483Y-114707510D01*
X102602595Y-118759622D01*
X102636621Y-118821934D01*
X102639500Y-118848717D01*
X102639500Y-123081908D01*
X102639500Y-123418092D01*
X102667340Y-123593868D01*
X102668518Y-123601306D01*
X102659418Y-123671717D01*
X102633164Y-123710111D01*
X101294347Y-125048928D01*
X101232035Y-125082954D01*
X101161220Y-125077889D01*
X101148049Y-125072100D01*
X100972396Y-124982600D01*
X100972393Y-124982599D01*
X100972391Y-124982598D01*
X100751518Y-124910832D01*
X100751516Y-124910831D01*
X100751514Y-124910831D01*
X100522124Y-124874500D01*
X100289876Y-124874500D01*
X100060486Y-124910831D01*
X100060484Y-124910831D01*
X100060481Y-124910832D01*
X99839608Y-124982598D01*
X99839602Y-124982601D01*
X99632665Y-125088041D01*
X99444773Y-125224553D01*
X99444770Y-125224555D01*
X99280556Y-125388769D01*
X99237936Y-125447431D01*
X99181713Y-125490784D01*
X99110977Y-125496859D01*
X99048185Y-125463727D01*
X99034064Y-125447431D01*
X98991449Y-125388776D01*
X98991445Y-125388772D01*
X98991443Y-125388769D01*
X98827229Y-125224555D01*
X98827226Y-125224553D01*
X98827225Y-125224552D01*
X98827224Y-125224551D01*
X98639331Y-125088039D01*
X98432396Y-124982600D01*
X98432393Y-124982599D01*
X98432391Y-124982598D01*
X98211518Y-124910832D01*
X98211516Y-124910831D01*
X98211514Y-124910831D01*
X97982124Y-124874500D01*
X97749876Y-124874500D01*
X97520486Y-124910831D01*
X97520484Y-124910831D01*
X97520481Y-124910832D01*
X97299608Y-124982598D01*
X97299602Y-124982601D01*
X97092665Y-125088041D01*
X96904773Y-125224553D01*
X96904770Y-125224555D01*
X96836595Y-125292731D01*
X96774283Y-125326757D01*
X96703468Y-125321692D01*
X96646632Y-125279145D01*
X96621821Y-125212625D01*
X96621500Y-125203636D01*
X96621500Y-59394956D01*
X96621888Y-59385070D01*
X96636044Y-59205202D01*
X96636044Y-59205201D01*
X96639137Y-59185674D01*
X96680095Y-59015069D01*
X96686205Y-58996265D01*
X96729103Y-58892701D01*
X96753348Y-58834166D01*
X96762319Y-58816560D01*
X96853999Y-58666951D01*
X96865615Y-58650963D01*
X96979567Y-58517544D01*
X96993546Y-58503566D01*
X97112641Y-58401848D01*
X97126963Y-58389615D01*
X97142951Y-58377999D01*
X97292560Y-58286319D01*
X97310166Y-58277348D01*
X97472269Y-58210203D01*
X97491064Y-58204096D01*
X97661674Y-58163136D01*
X97681202Y-58160044D01*
X97861070Y-58145888D01*
X97870956Y-58145500D01*
X97874285Y-58145500D01*
X98878283Y-58145500D01*
X98946404Y-58165502D01*
G37*
%TD.AperFunction*%
%TA.AperFunction,Conductor*%
G36*
X131474404Y-61910502D02*
G01*
X131495378Y-61927405D01*
X131812595Y-62244622D01*
X131846621Y-62306934D01*
X131849500Y-62333717D01*
X131849500Y-63263650D01*
X131829498Y-63331771D01*
X131775842Y-63378264D01*
X131771719Y-63380058D01*
X131665300Y-63424139D01*
X131665295Y-63424141D01*
X131521905Y-63519952D01*
X131521898Y-63519957D01*
X131034261Y-64007595D01*
X130971949Y-64041621D01*
X130945166Y-64044500D01*
X130347811Y-64044500D01*
X130126195Y-64079600D01*
X130126189Y-64079601D01*
X129912802Y-64148935D01*
X129912796Y-64148938D01*
X129712871Y-64250805D01*
X129531346Y-64382691D01*
X129531343Y-64382693D01*
X129372693Y-64541343D01*
X129372691Y-64541346D01*
X129372689Y-64541349D01*
X129314935Y-64620842D01*
X129299155Y-64642561D01*
X129242933Y-64685915D01*
X129197219Y-64694500D01*
X125088872Y-64694500D01*
X125020751Y-64674498D01*
X124974258Y-64620842D01*
X124963260Y-64578378D01*
X124962709Y-64571376D01*
X124962709Y-64571373D01*
X124918618Y-64419610D01*
X124918616Y-64419608D01*
X124918616Y-64419605D01*
X124838172Y-64283583D01*
X124838167Y-64283576D01*
X124726423Y-64171832D01*
X124726416Y-64171827D01*
X124590394Y-64091383D01*
X124438625Y-64047290D01*
X124403171Y-64044500D01*
X121976838Y-64044500D01*
X121941375Y-64047290D01*
X121789605Y-64091383D01*
X121653583Y-64171827D01*
X121653576Y-64171832D01*
X121541832Y-64283576D01*
X121541827Y-64283583D01*
X121461383Y-64419605D01*
X121417290Y-64571374D01*
X121414500Y-64606828D01*
X121414500Y-66333161D01*
X121417290Y-66368624D01*
X121461383Y-66520394D01*
X121541827Y-66656416D01*
X121541832Y-66656423D01*
X121653576Y-66768167D01*
X121653583Y-66768172D01*
X121789605Y-66848616D01*
X121789608Y-66848616D01*
X121789610Y-66848618D01*
X121941373Y-66892709D01*
X121976837Y-66895500D01*
X124403162Y-66895499D01*
X124438627Y-66892709D01*
X124590390Y-66848618D01*
X124590392Y-66848616D01*
X124590394Y-66848616D01*
X124687713Y-66791061D01*
X124726420Y-66768170D01*
X124838170Y-66656420D01*
X124918618Y-66520390D01*
X124962709Y-66368627D01*
X124963261Y-66361612D01*
X124988545Y-66295273D01*
X125045683Y-66253133D01*
X125088872Y-66245500D01*
X129197219Y-66245500D01*
X129265340Y-66265502D01*
X129299153Y-66297437D01*
X129372689Y-66398651D01*
X129372691Y-66398653D01*
X129372693Y-66398656D01*
X129531343Y-66557306D01*
X129531346Y-66557308D01*
X129531349Y-66557311D01*
X129712875Y-66689197D01*
X129912798Y-66791063D01*
X130126195Y-66860400D01*
X130347811Y-66895500D01*
X130945166Y-66895500D01*
X131013287Y-66915502D01*
X131034261Y-66932405D01*
X131399955Y-67298099D01*
X131521901Y-67420045D01*
X131614279Y-67481770D01*
X131665295Y-67515858D01*
X131665297Y-67515859D01*
X131697528Y-67529209D01*
X131771718Y-67559939D01*
X131826999Y-67604487D01*
X131849420Y-67671850D01*
X131849500Y-67676348D01*
X131849500Y-70883650D01*
X131829498Y-70951771D01*
X131775842Y-70998264D01*
X131771719Y-71000058D01*
X131665300Y-71044139D01*
X131665295Y-71044141D01*
X131521905Y-71139952D01*
X131521898Y-71139957D01*
X131034261Y-71627595D01*
X130971949Y-71661621D01*
X130945166Y-71664500D01*
X130347811Y-71664500D01*
X130126195Y-71699600D01*
X130126189Y-71699601D01*
X129912802Y-71768935D01*
X129912796Y-71768938D01*
X129712871Y-71870805D01*
X129531346Y-72002691D01*
X129531343Y-72002693D01*
X129372693Y-72161343D01*
X129372691Y-72161346D01*
X129354012Y-72187056D01*
X129330501Y-72219417D01*
X129299155Y-72262561D01*
X129242933Y-72305915D01*
X129197219Y-72314500D01*
X124802781Y-72314500D01*
X124734660Y-72294498D01*
X124700845Y-72262561D01*
X124688311Y-72245309D01*
X124627311Y-72161349D01*
X124627308Y-72161346D01*
X124627306Y-72161343D01*
X124468656Y-72002693D01*
X124468653Y-72002691D01*
X124468651Y-72002689D01*
X124326348Y-71899300D01*
X124287128Y-71870805D01*
X124287127Y-71870804D01*
X124287125Y-71870803D01*
X124087202Y-71768937D01*
X124087199Y-71768936D01*
X124087197Y-71768935D01*
X123873810Y-71699601D01*
X123873806Y-71699600D01*
X123873805Y-71699600D01*
X123652189Y-71664500D01*
X122727811Y-71664500D01*
X122506195Y-71699600D01*
X122506189Y-71699601D01*
X122292802Y-71768935D01*
X122292796Y-71768938D01*
X122092871Y-71870805D01*
X121911346Y-72002691D01*
X121911343Y-72002693D01*
X121752693Y-72161343D01*
X121752691Y-72161346D01*
X121620805Y-72342871D01*
X121518938Y-72542796D01*
X121518935Y-72542802D01*
X121449601Y-72756189D01*
X121449600Y-72756194D01*
X121449600Y-72756195D01*
X121414500Y-72977811D01*
X121414500Y-73202189D01*
X121444151Y-73389402D01*
X121449601Y-73423810D01*
X121512772Y-73618228D01*
X121518937Y-73637202D01*
X121620803Y-73837125D01*
X121752689Y-74018651D01*
X121752691Y-74018653D01*
X121752693Y-74018656D01*
X121911343Y-74177306D01*
X121911346Y-74177308D01*
X121911349Y-74177311D01*
X122092875Y-74309197D01*
X122292798Y-74411063D01*
X122506195Y-74480400D01*
X122727811Y-74515500D01*
X122727814Y-74515500D01*
X123652186Y-74515500D01*
X123652189Y-74515500D01*
X123873805Y-74480400D01*
X124087202Y-74411063D01*
X124287125Y-74309197D01*
X124468651Y-74177311D01*
X124627311Y-74018651D01*
X124700845Y-73917438D01*
X124757067Y-73874085D01*
X124802781Y-73865500D01*
X129197219Y-73865500D01*
X129265340Y-73885502D01*
X129299153Y-73917437D01*
X129372689Y-74018651D01*
X129372691Y-74018653D01*
X129372693Y-74018656D01*
X129531343Y-74177306D01*
X129531346Y-74177308D01*
X129531349Y-74177311D01*
X129712875Y-74309197D01*
X129912798Y-74411063D01*
X130126195Y-74480400D01*
X130347811Y-74515500D01*
X130945166Y-74515500D01*
X131013287Y-74535502D01*
X131034261Y-74552405D01*
X131399955Y-74918099D01*
X131521901Y-75040045D01*
X131665295Y-75135858D01*
X131824626Y-75201855D01*
X131993771Y-75235500D01*
X132067168Y-75235500D01*
X132135289Y-75255502D01*
X132169101Y-75287436D01*
X132205483Y-75337510D01*
X132205485Y-75337512D01*
X132205488Y-75337516D01*
X132372487Y-75504515D01*
X132396146Y-75521704D01*
X132563567Y-75643343D01*
X132774008Y-75750568D01*
X132998632Y-75823553D01*
X133231908Y-75860500D01*
X133231911Y-75860500D01*
X133468089Y-75860500D01*
X133468092Y-75860500D01*
X133701368Y-75823553D01*
X133925992Y-75750568D01*
X134136433Y-75643343D01*
X134327510Y-75504517D01*
X134494517Y-75337510D01*
X134633343Y-75146433D01*
X134740568Y-74935992D01*
X134813553Y-74711368D01*
X134850500Y-74478092D01*
X134850500Y-71701908D01*
X134850500Y-67827061D01*
X135217000Y-67827061D01*
X135217000Y-68032938D01*
X135249208Y-68236296D01*
X135312826Y-68432093D01*
X135312829Y-68432099D01*
X135406297Y-68615540D01*
X135406298Y-68615541D01*
X135437416Y-68658372D01*
X136125000Y-67970788D01*
X136125000Y-67982661D01*
X136152259Y-68084394D01*
X136204920Y-68175606D01*
X136279394Y-68250080D01*
X136370606Y-68302741D01*
X136472339Y-68330000D01*
X136484210Y-68330000D01*
X135796626Y-69017582D01*
X135796626Y-69017583D01*
X135839454Y-69048699D01*
X136022900Y-69142170D01*
X136022906Y-69142173D01*
X136218705Y-69205791D01*
X136218701Y-69205791D01*
X136422061Y-69238000D01*
X136627939Y-69238000D01*
X136831296Y-69205791D01*
X137027093Y-69142173D01*
X137027099Y-69142170D01*
X137210541Y-69048701D01*
X137253372Y-69017582D01*
X137253372Y-69017581D01*
X136565791Y-68330000D01*
X136577661Y-68330000D01*
X136679394Y-68302741D01*
X136770606Y-68250080D01*
X136845080Y-68175606D01*
X136897741Y-68084394D01*
X136925000Y-67982661D01*
X136925000Y-67970791D01*
X137612581Y-68658372D01*
X137612582Y-68658372D01*
X137643701Y-68615541D01*
X137737170Y-68432099D01*
X137737173Y-68432093D01*
X137800791Y-68236296D01*
X137833000Y-68032938D01*
X137833000Y-67827061D01*
X137800791Y-67623703D01*
X137737173Y-67427906D01*
X137737170Y-67427900D01*
X137643699Y-67244454D01*
X137612583Y-67201626D01*
X137612582Y-67201626D01*
X136925000Y-67889208D01*
X136925000Y-67877339D01*
X136897741Y-67775606D01*
X136845080Y-67684394D01*
X136770606Y-67609920D01*
X136679394Y-67557259D01*
X136577661Y-67530000D01*
X136565790Y-67530000D01*
X137253372Y-66842416D01*
X137210541Y-66811298D01*
X137210540Y-66811297D01*
X137027099Y-66717829D01*
X137027093Y-66717826D01*
X136831294Y-66654208D01*
X136831298Y-66654208D01*
X136627939Y-66622000D01*
X136422061Y-66622000D01*
X136218703Y-66654208D01*
X136022906Y-66717826D01*
X136022900Y-66717829D01*
X135839452Y-66811301D01*
X135796625Y-66842416D01*
X136484209Y-67530000D01*
X136472339Y-67530000D01*
X136370606Y-67557259D01*
X136279394Y-67609920D01*
X136204920Y-67684394D01*
X136152259Y-67775606D01*
X136125000Y-67877339D01*
X136125000Y-67889209D01*
X135437416Y-67201625D01*
X135406301Y-67244452D01*
X135312829Y-67427900D01*
X135312826Y-67427906D01*
X135249208Y-67623703D01*
X135217000Y-67827061D01*
X134850500Y-67827061D01*
X134850500Y-66621908D01*
X134850500Y-64716908D01*
X134850500Y-64081908D01*
X134850500Y-63931500D01*
X134870502Y-63863379D01*
X134924158Y-63816886D01*
X134976500Y-63805500D01*
X135334872Y-63805500D01*
X135402993Y-63825502D01*
X135434274Y-63855047D01*
X135434469Y-63854882D01*
X135436011Y-63856688D01*
X135436812Y-63857444D01*
X135437691Y-63858654D01*
X135596343Y-64017306D01*
X135596346Y-64017308D01*
X135596349Y-64017311D01*
X135777875Y-64149197D01*
X135977798Y-64251063D01*
X136191195Y-64320400D01*
X136412811Y-64355500D01*
X136412814Y-64355500D01*
X136637186Y-64355500D01*
X136637189Y-64355500D01*
X136858805Y-64320400D01*
X137072202Y-64251063D01*
X137272125Y-64149197D01*
X137453651Y-64017311D01*
X137612311Y-63858651D01*
X137613188Y-63857444D01*
X137613641Y-63857094D01*
X137615531Y-63854882D01*
X137615995Y-63855278D01*
X137669409Y-63814087D01*
X137715128Y-63805500D01*
X137881228Y-63805500D01*
X137881229Y-63805500D01*
X138050374Y-63771855D01*
X138209705Y-63705858D01*
X138353099Y-63610045D01*
X138709405Y-63253739D01*
X138771717Y-63219713D01*
X138842532Y-63224778D01*
X138899368Y-63267325D01*
X138924179Y-63333845D01*
X138924500Y-63342834D01*
X138924500Y-89041382D01*
X138939429Y-89116434D01*
X138954302Y-89191205D01*
X139012761Y-89332337D01*
X139030911Y-89359500D01*
X139097629Y-89459351D01*
X139097634Y-89459357D01*
X140163716Y-90525438D01*
X140197741Y-90587750D01*
X140199070Y-90634242D01*
X140179500Y-90757811D01*
X140179500Y-90982189D01*
X140193929Y-91073291D01*
X140214601Y-91203810D01*
X140251752Y-91318148D01*
X140283937Y-91417202D01*
X140385803Y-91617125D01*
X140517689Y-91798651D01*
X140517691Y-91798653D01*
X140517693Y-91798656D01*
X140676343Y-91957306D01*
X140676346Y-91957308D01*
X140676349Y-91957311D01*
X140777561Y-92030845D01*
X140780956Y-92035248D01*
X140786012Y-92037557D01*
X140802398Y-92063054D01*
X140820915Y-92087067D01*
X140822188Y-92093848D01*
X140824396Y-92097283D01*
X140829500Y-92132781D01*
X140829500Y-92147218D01*
X140809498Y-92215339D01*
X140777561Y-92249154D01*
X140676346Y-92322690D01*
X140517693Y-92481343D01*
X140517691Y-92481346D01*
X140385805Y-92662871D01*
X140283938Y-92862796D01*
X140283935Y-92862802D01*
X140214601Y-93076189D01*
X140214600Y-93076194D01*
X140214600Y-93076195D01*
X140179500Y-93297811D01*
X140179500Y-93522189D01*
X140206698Y-93693910D01*
X140214601Y-93743810D01*
X140259972Y-93883446D01*
X140283937Y-93957202D01*
X140385803Y-94157125D01*
X140517689Y-94338651D01*
X140517691Y-94338653D01*
X140517693Y-94338656D01*
X140676343Y-94497306D01*
X140676346Y-94497308D01*
X140676349Y-94497311D01*
X140713355Y-94524197D01*
X140787496Y-94578064D01*
X140830850Y-94634286D01*
X140836925Y-94705023D01*
X140803794Y-94767814D01*
X140787496Y-94781936D01*
X140676346Y-94862691D01*
X140676343Y-94862693D01*
X140517693Y-95021343D01*
X140517691Y-95021346D01*
X140385805Y-95202871D01*
X140283938Y-95402796D01*
X140283935Y-95402802D01*
X140214601Y-95616189D01*
X140214600Y-95616194D01*
X140214600Y-95616195D01*
X140179500Y-95837811D01*
X140179500Y-96062189D01*
X140206698Y-96233910D01*
X140214601Y-96283810D01*
X140259972Y-96423446D01*
X140283937Y-96497202D01*
X140385803Y-96697125D01*
X140517689Y-96878651D01*
X140517691Y-96878653D01*
X140517693Y-96878656D01*
X140676343Y-97037306D01*
X140676346Y-97037308D01*
X140676349Y-97037311D01*
X140765936Y-97102400D01*
X140787496Y-97118064D01*
X140830850Y-97174286D01*
X140836925Y-97245023D01*
X140803794Y-97307814D01*
X140787496Y-97321936D01*
X140676346Y-97402691D01*
X140676343Y-97402693D01*
X140517693Y-97561343D01*
X140517691Y-97561346D01*
X140385805Y-97742871D01*
X140283938Y-97942796D01*
X140283935Y-97942802D01*
X140214601Y-98156189D01*
X140214600Y-98156194D01*
X140214600Y-98156195D01*
X140179500Y-98377811D01*
X140179500Y-98602189D01*
X140211533Y-98804442D01*
X140214601Y-98823810D01*
X140283935Y-99037197D01*
X140283937Y-99037202D01*
X140385803Y-99237125D01*
X140517689Y-99418651D01*
X140517691Y-99418653D01*
X140517693Y-99418656D01*
X140676343Y-99577306D01*
X140676346Y-99577308D01*
X140676349Y-99577311D01*
X140765259Y-99641908D01*
X140787496Y-99658064D01*
X140830850Y-99714286D01*
X140836925Y-99785023D01*
X140803794Y-99847814D01*
X140787496Y-99861936D01*
X140676346Y-99942691D01*
X140676343Y-99942693D01*
X140517693Y-100101343D01*
X140517691Y-100101346D01*
X140385805Y-100282871D01*
X140283938Y-100482796D01*
X140283935Y-100482802D01*
X140214601Y-100696189D01*
X140214600Y-100696194D01*
X140214600Y-100696195D01*
X140179500Y-100917811D01*
X140179500Y-101142189D01*
X140211533Y-101344442D01*
X140214601Y-101363810D01*
X140283935Y-101577197D01*
X140283937Y-101577202D01*
X140385803Y-101777125D01*
X140517689Y-101958651D01*
X140517691Y-101958653D01*
X140517693Y-101958656D01*
X140676343Y-102117306D01*
X140676346Y-102117308D01*
X140676349Y-102117311D01*
X140713772Y-102144500D01*
X140787496Y-102198064D01*
X140830850Y-102254286D01*
X140836925Y-102325023D01*
X140803794Y-102387814D01*
X140787496Y-102401936D01*
X140676346Y-102482691D01*
X140676343Y-102482693D01*
X140517693Y-102641343D01*
X140517691Y-102641346D01*
X140385805Y-102822871D01*
X140283938Y-103022796D01*
X140283935Y-103022802D01*
X140214601Y-103236189D01*
X140214600Y-103236194D01*
X140214600Y-103236195D01*
X140179500Y-103457811D01*
X140179500Y-103682189D01*
X140205274Y-103844920D01*
X140214601Y-103903810D01*
X140274733Y-104088876D01*
X140283937Y-104117202D01*
X140372492Y-104291000D01*
X140385805Y-104317128D01*
X140388706Y-104321121D01*
X140517689Y-104498651D01*
X140517691Y-104498653D01*
X140517693Y-104498656D01*
X140676343Y-104657306D01*
X140676346Y-104657308D01*
X140676349Y-104657311D01*
X140765936Y-104722400D01*
X140787496Y-104738064D01*
X140830850Y-104794286D01*
X140836925Y-104865023D01*
X140803794Y-104927814D01*
X140787496Y-104941936D01*
X140676346Y-105022691D01*
X140676343Y-105022693D01*
X140517693Y-105181343D01*
X140517691Y-105181346D01*
X140385805Y-105362871D01*
X140283938Y-105562796D01*
X140283935Y-105562802D01*
X140214601Y-105776189D01*
X140214600Y-105776194D01*
X140214600Y-105776195D01*
X140179500Y-105997811D01*
X140179500Y-106222189D01*
X140205094Y-106383784D01*
X140214601Y-106443810D01*
X140283935Y-106657197D01*
X140283937Y-106657202D01*
X140385803Y-106857125D01*
X140517689Y-107038651D01*
X140517691Y-107038653D01*
X140517693Y-107038656D01*
X140676343Y-107197306D01*
X140676346Y-107197308D01*
X140676349Y-107197311D01*
X140793287Y-107282271D01*
X140857873Y-107329196D01*
X140857875Y-107329197D01*
X140874371Y-107337602D01*
X140925986Y-107386348D01*
X140943055Y-107455262D01*
X140920155Y-107522464D01*
X140891232Y-107551805D01*
X140752888Y-107652318D01*
X140607317Y-107797889D01*
X140607315Y-107797892D01*
X140486300Y-107964454D01*
X140392829Y-108147900D01*
X140392826Y-108147906D01*
X140329208Y-108343704D01*
X140320926Y-108396000D01*
X141293314Y-108396000D01*
X141284920Y-108404394D01*
X141232259Y-108495606D01*
X141205000Y-108597339D01*
X141205000Y-108702661D01*
X141232259Y-108804394D01*
X141284920Y-108895606D01*
X141293314Y-108904000D01*
X140320926Y-108904000D01*
X140329208Y-108956295D01*
X140392826Y-109152093D01*
X140392829Y-109152099D01*
X140486300Y-109335545D01*
X140607315Y-109502107D01*
X140607317Y-109502110D01*
X140752889Y-109647682D01*
X140752892Y-109647684D01*
X140919454Y-109768699D01*
X140996061Y-109807733D01*
X141047676Y-109856482D01*
X141064742Y-109925397D01*
X141041841Y-109992598D01*
X140996061Y-110032267D01*
X140919454Y-110071300D01*
X140752892Y-110192315D01*
X140752889Y-110192317D01*
X140607317Y-110337889D01*
X140607315Y-110337892D01*
X140486300Y-110504454D01*
X140392829Y-110687900D01*
X140392826Y-110687906D01*
X140329208Y-110883704D01*
X140320926Y-110936000D01*
X141293314Y-110936000D01*
X141284920Y-110944394D01*
X141232259Y-111035606D01*
X141205000Y-111137339D01*
X141205000Y-111242661D01*
X141232259Y-111344394D01*
X141284920Y-111435606D01*
X141293314Y-111444000D01*
X140320926Y-111444000D01*
X140329208Y-111496295D01*
X140392826Y-111692093D01*
X140392829Y-111692099D01*
X140486300Y-111875545D01*
X140607315Y-112042107D01*
X140607317Y-112042110D01*
X140752889Y-112187682D01*
X140752892Y-112187684D01*
X140919454Y-112308699D01*
X141102900Y-112402170D01*
X141102906Y-112402173D01*
X141298705Y-112465791D01*
X141298717Y-112465794D01*
X141350999Y-112474074D01*
X141351000Y-112474074D01*
X141351000Y-111501686D01*
X141359394Y-111510080D01*
X141450606Y-111562741D01*
X141552339Y-111590000D01*
X141657661Y-111590000D01*
X141759394Y-111562741D01*
X141850606Y-111510080D01*
X141859000Y-111501686D01*
X141859000Y-112474074D01*
X141911282Y-112465794D01*
X141911294Y-112465791D01*
X142107093Y-112402173D01*
X142107099Y-112402170D01*
X142290545Y-112308699D01*
X142457107Y-112187684D01*
X142457110Y-112187682D01*
X142602682Y-112042110D01*
X142602684Y-112042107D01*
X142723699Y-111875545D01*
X142817170Y-111692099D01*
X142817173Y-111692093D01*
X142880791Y-111496295D01*
X142889074Y-111444000D01*
X141916686Y-111444000D01*
X141925080Y-111435606D01*
X141977741Y-111344394D01*
X142005000Y-111242661D01*
X142005000Y-111137339D01*
X141977741Y-111035606D01*
X141925080Y-110944394D01*
X141916686Y-110936000D01*
X142889074Y-110936000D01*
X142880791Y-110883704D01*
X142817173Y-110687906D01*
X142817170Y-110687900D01*
X142723699Y-110504454D01*
X142602684Y-110337892D01*
X142602682Y-110337889D01*
X142457110Y-110192317D01*
X142457107Y-110192315D01*
X142290545Y-110071300D01*
X142213938Y-110032267D01*
X142162323Y-109983519D01*
X142145257Y-109914604D01*
X142168158Y-109847402D01*
X142213938Y-109807733D01*
X142290545Y-109768699D01*
X142457107Y-109647684D01*
X142457110Y-109647682D01*
X142602682Y-109502110D01*
X142602684Y-109502107D01*
X142723699Y-109335545D01*
X142817170Y-109152099D01*
X142817173Y-109152093D01*
X142880791Y-108956295D01*
X142889074Y-108904000D01*
X141916686Y-108904000D01*
X141925080Y-108895606D01*
X141977741Y-108804394D01*
X142005000Y-108702661D01*
X142005000Y-108597339D01*
X141977741Y-108495606D01*
X141925080Y-108404394D01*
X141916686Y-108396000D01*
X142889074Y-108396000D01*
X142880791Y-108343704D01*
X142817173Y-108147906D01*
X142817168Y-108147895D01*
X142800188Y-108114570D01*
X142787083Y-108044793D01*
X142813782Y-107979008D01*
X142871809Y-107938101D01*
X142942741Y-107935060D01*
X143001549Y-107968271D01*
X144983381Y-109950103D01*
X145017407Y-110012415D01*
X145012342Y-110083230D01*
X144969795Y-110140066D01*
X144903275Y-110164877D01*
X144881946Y-110164592D01*
X144881011Y-110164500D01*
X144881003Y-110164500D01*
X144678997Y-110164500D01*
X144678994Y-110164500D01*
X144563020Y-110187569D01*
X144480873Y-110203909D01*
X144480872Y-110203909D01*
X144480869Y-110203910D01*
X144294242Y-110281215D01*
X144126283Y-110393441D01*
X144126277Y-110393446D01*
X143983446Y-110536277D01*
X143983441Y-110536283D01*
X143871215Y-110704242D01*
X143793910Y-110890869D01*
X143754500Y-111088994D01*
X143754500Y-111291005D01*
X143765120Y-111344394D01*
X143793768Y-111488419D01*
X143793910Y-111489130D01*
X143800159Y-111504216D01*
X143871214Y-111675756D01*
X143983265Y-111843454D01*
X144004480Y-111911205D01*
X144004500Y-111913454D01*
X144004500Y-119071587D01*
X143984498Y-119139708D01*
X143967595Y-119160682D01*
X142835794Y-120292484D01*
X141812648Y-121315630D01*
X141776110Y-121352168D01*
X141704629Y-121423648D01*
X141619761Y-121550663D01*
X141561304Y-121691789D01*
X141561302Y-121691794D01*
X141531500Y-121841617D01*
X141531500Y-124785475D01*
X141511498Y-124853596D01*
X141457842Y-124900089D01*
X141387568Y-124910193D01*
X141385790Y-124909924D01*
X141257304Y-124889574D01*
X141162124Y-124874500D01*
X140929876Y-124874500D01*
X140700486Y-124910831D01*
X140700484Y-124910831D01*
X140700481Y-124910832D01*
X140479608Y-124982598D01*
X140479602Y-124982601D01*
X140272665Y-125088041D01*
X140084773Y-125224553D01*
X140084770Y-125224555D01*
X139920556Y-125388769D01*
X139877936Y-125447431D01*
X139821713Y-125490784D01*
X139750977Y-125496859D01*
X139688185Y-125463727D01*
X139674064Y-125447431D01*
X139631449Y-125388776D01*
X139631445Y-125388772D01*
X139631443Y-125388769D01*
X139467229Y-125224555D01*
X139467226Y-125224553D01*
X139467225Y-125224552D01*
X139467224Y-125224551D01*
X139279331Y-125088039D01*
X139072396Y-124982600D01*
X139072393Y-124982599D01*
X139072391Y-124982598D01*
X138851518Y-124910832D01*
X138851516Y-124910831D01*
X138851514Y-124910831D01*
X138622124Y-124874500D01*
X138389876Y-124874500D01*
X138160486Y-124910831D01*
X138160484Y-124910831D01*
X138160481Y-124910832D01*
X137939608Y-124982598D01*
X137939602Y-124982601D01*
X137732665Y-125088041D01*
X137544773Y-125224553D01*
X137544770Y-125224555D01*
X137380556Y-125388769D01*
X137337936Y-125447431D01*
X137281713Y-125490784D01*
X137210977Y-125496859D01*
X137148185Y-125463727D01*
X137134064Y-125447431D01*
X137091449Y-125388776D01*
X137091445Y-125388772D01*
X137091443Y-125388769D01*
X136927229Y-125224555D01*
X136927226Y-125224553D01*
X136927225Y-125224552D01*
X136927224Y-125224551D01*
X136739331Y-125088039D01*
X136532396Y-124982600D01*
X136532393Y-124982599D01*
X136532391Y-124982598D01*
X136311518Y-124910832D01*
X136311516Y-124910831D01*
X136311514Y-124910831D01*
X136082124Y-124874500D01*
X135849876Y-124874500D01*
X135620486Y-124910831D01*
X135620484Y-124910831D01*
X135620481Y-124910832D01*
X135399608Y-124982598D01*
X135399602Y-124982601D01*
X135192665Y-125088041D01*
X135004773Y-125224553D01*
X135004770Y-125224555D01*
X134840556Y-125388769D01*
X134797936Y-125447431D01*
X134741713Y-125490784D01*
X134670977Y-125496859D01*
X134608185Y-125463727D01*
X134594064Y-125447431D01*
X134551449Y-125388776D01*
X134551445Y-125388772D01*
X134551443Y-125388769D01*
X134387229Y-125224555D01*
X134387226Y-125224553D01*
X134387225Y-125224552D01*
X134387224Y-125224551D01*
X134199331Y-125088039D01*
X133992396Y-124982600D01*
X133992393Y-124982599D01*
X133992391Y-124982598D01*
X133771518Y-124910832D01*
X133771516Y-124910831D01*
X133771514Y-124910831D01*
X133542124Y-124874500D01*
X133309876Y-124874500D01*
X133080486Y-124910831D01*
X133080484Y-124910831D01*
X133080481Y-124910832D01*
X132859608Y-124982598D01*
X132859602Y-124982601D01*
X132652665Y-125088041D01*
X132464773Y-125224553D01*
X132464770Y-125224555D01*
X132300556Y-125388769D01*
X132257936Y-125447431D01*
X132201713Y-125490784D01*
X132130977Y-125496859D01*
X132068185Y-125463727D01*
X132054064Y-125447431D01*
X132011449Y-125388776D01*
X132011445Y-125388772D01*
X132011443Y-125388769D01*
X131847229Y-125224555D01*
X131847226Y-125224553D01*
X131847225Y-125224552D01*
X131847224Y-125224551D01*
X131659331Y-125088039D01*
X131452396Y-124982600D01*
X131452393Y-124982599D01*
X131452391Y-124982598D01*
X131231518Y-124910832D01*
X131231516Y-124910831D01*
X131231514Y-124910831D01*
X131002124Y-124874500D01*
X130769876Y-124874500D01*
X130540486Y-124910831D01*
X130540484Y-124910831D01*
X130540481Y-124910832D01*
X130319608Y-124982598D01*
X130319602Y-124982601D01*
X130112665Y-125088041D01*
X129924773Y-125224553D01*
X129924770Y-125224555D01*
X129760556Y-125388769D01*
X129717936Y-125447431D01*
X129661713Y-125490784D01*
X129590977Y-125496859D01*
X129528185Y-125463727D01*
X129514064Y-125447431D01*
X129471449Y-125388776D01*
X129471445Y-125388772D01*
X129471443Y-125388769D01*
X129307229Y-125224555D01*
X129307226Y-125224553D01*
X129307225Y-125224552D01*
X129307224Y-125224551D01*
X129119331Y-125088039D01*
X128912396Y-124982600D01*
X128912393Y-124982599D01*
X128912391Y-124982598D01*
X128691518Y-124910832D01*
X128691516Y-124910831D01*
X128691514Y-124910831D01*
X128462124Y-124874500D01*
X128229876Y-124874500D01*
X128000486Y-124910831D01*
X128000484Y-124910831D01*
X128000481Y-124910832D01*
X127779608Y-124982598D01*
X127779602Y-124982601D01*
X127572665Y-125088041D01*
X127384773Y-125224553D01*
X127384770Y-125224555D01*
X127220556Y-125388769D01*
X127177936Y-125447431D01*
X127121713Y-125490784D01*
X127050977Y-125496859D01*
X126988185Y-125463727D01*
X126974064Y-125447431D01*
X126931449Y-125388776D01*
X126931445Y-125388772D01*
X126931443Y-125388769D01*
X126767229Y-125224555D01*
X126767226Y-125224553D01*
X126767225Y-125224552D01*
X126767224Y-125224551D01*
X126579331Y-125088039D01*
X126372396Y-124982600D01*
X126372393Y-124982599D01*
X126372391Y-124982598D01*
X126151518Y-124910832D01*
X126151516Y-124910831D01*
X126151514Y-124910831D01*
X125922124Y-124874500D01*
X125689876Y-124874500D01*
X125576908Y-124892392D01*
X125460478Y-124910832D01*
X125457911Y-124911449D01*
X125456905Y-124911398D01*
X125455596Y-124911606D01*
X125455552Y-124911330D01*
X125387003Y-124907901D01*
X125329270Y-124866579D01*
X125303042Y-124800605D01*
X125302500Y-124788930D01*
X125302500Y-114355621D01*
X125302499Y-114355617D01*
X125272698Y-114205795D01*
X125214239Y-114064663D01*
X125129370Y-113937648D01*
X125021352Y-113829630D01*
X124678553Y-113486831D01*
X124644527Y-113424519D01*
X124649592Y-113353704D01*
X124692139Y-113296868D01*
X124747936Y-113273288D01*
X124805514Y-113264169D01*
X125026396Y-113192400D01*
X125233331Y-113086961D01*
X125421224Y-112950449D01*
X125585449Y-112786224D01*
X125721961Y-112598331D01*
X125757390Y-112528796D01*
X125768009Y-112517552D01*
X125774433Y-112503488D01*
X125791887Y-112492270D01*
X125806138Y-112477182D01*
X125822072Y-112472871D01*
X125834159Y-112465104D01*
X125869657Y-112460000D01*
X126098500Y-112460000D01*
X126166621Y-112480002D01*
X126213114Y-112533658D01*
X126224500Y-112586000D01*
X126224500Y-113006545D01*
X126204498Y-113074666D01*
X126203268Y-113076541D01*
X126091214Y-113244244D01*
X126086113Y-113256558D01*
X126013910Y-113430869D01*
X126013909Y-113430872D01*
X126013909Y-113430873D01*
X126010882Y-113446091D01*
X125974500Y-113628994D01*
X125974500Y-113628997D01*
X125974500Y-113831003D01*
X126013909Y-114029127D01*
X126091214Y-114215756D01*
X126203442Y-114383718D01*
X126346282Y-114526558D01*
X126514244Y-114638786D01*
X126700873Y-114716091D01*
X126898997Y-114755500D01*
X126898998Y-114755500D01*
X127101003Y-114755500D01*
X127107169Y-114754893D01*
X127107456Y-114757816D01*
X127165590Y-114762867D01*
X127221770Y-114806275D01*
X127245563Y-114873166D01*
X127244215Y-114892745D01*
X127245107Y-114892833D01*
X127244500Y-114898998D01*
X127244500Y-115101005D01*
X127264071Y-115199394D01*
X127283909Y-115299127D01*
X127361214Y-115485756D01*
X127473442Y-115653718D01*
X127616282Y-115796558D01*
X127784244Y-115908786D01*
X127970873Y-115986091D01*
X128168997Y-116025500D01*
X128168998Y-116025500D01*
X128371003Y-116025500D01*
X128377169Y-116024893D01*
X128377456Y-116027816D01*
X128435590Y-116032867D01*
X128491770Y-116076275D01*
X128515563Y-116143166D01*
X128514215Y-116162745D01*
X128515107Y-116162833D01*
X128514500Y-116168996D01*
X128514500Y-116168997D01*
X128514500Y-116371003D01*
X128553909Y-116569127D01*
X128631214Y-116755756D01*
X128743442Y-116923718D01*
X128886282Y-117066558D01*
X129054244Y-117178786D01*
X129240873Y-117256091D01*
X129438997Y-117295500D01*
X129438998Y-117295500D01*
X129641002Y-117295500D01*
X129641003Y-117295500D01*
X129839127Y-117256091D01*
X130025756Y-117178786D01*
X130193718Y-117066558D01*
X130336558Y-116923718D01*
X130448786Y-116755756D01*
X130526091Y-116569127D01*
X130565500Y-116371003D01*
X130565500Y-116168997D01*
X130526091Y-115970873D01*
X130448786Y-115784244D01*
X130336734Y-115616546D01*
X130315520Y-115548794D01*
X130315500Y-115546545D01*
X130315500Y-102123737D01*
X130335502Y-102055616D01*
X130389158Y-102009123D01*
X130459432Y-101999019D01*
X130489717Y-102007328D01*
X130510873Y-102016091D01*
X130708997Y-102055500D01*
X130708998Y-102055500D01*
X130911002Y-102055500D01*
X130911003Y-102055500D01*
X131109127Y-102016091D01*
X131295756Y-101938786D01*
X131463718Y-101826558D01*
X131606558Y-101683718D01*
X131718786Y-101515756D01*
X131796091Y-101329127D01*
X131835500Y-101131003D01*
X131835500Y-100928997D01*
X131796091Y-100730873D01*
X131718786Y-100544244D01*
X131606734Y-100376546D01*
X131585520Y-100308794D01*
X131585500Y-100306545D01*
X131585500Y-82162150D01*
X131605502Y-82094029D01*
X131659158Y-82047536D01*
X131672565Y-82042317D01*
X131707202Y-82031063D01*
X131907125Y-81929197D01*
X132088651Y-81797311D01*
X132247311Y-81638651D01*
X132379197Y-81457125D01*
X132481063Y-81257202D01*
X132550400Y-81043805D01*
X132585500Y-80822189D01*
X132585500Y-80597811D01*
X132550400Y-80376195D01*
X132481063Y-80162798D01*
X132379197Y-79962875D01*
X132247311Y-79781349D01*
X132247308Y-79781346D01*
X132247306Y-79781343D01*
X132088656Y-79622693D01*
X132088653Y-79622691D01*
X132088651Y-79622689D01*
X131952006Y-79523411D01*
X131907128Y-79490805D01*
X131907127Y-79490804D01*
X131907125Y-79490803D01*
X131707202Y-79388937D01*
X131707199Y-79388936D01*
X131707197Y-79388935D01*
X131493810Y-79319601D01*
X131493806Y-79319600D01*
X131493805Y-79319600D01*
X131272189Y-79284500D01*
X130347811Y-79284500D01*
X130126195Y-79319600D01*
X130126189Y-79319601D01*
X129912802Y-79388935D01*
X129912796Y-79388938D01*
X129712871Y-79490805D01*
X129531346Y-79622691D01*
X129531343Y-79622693D01*
X129372693Y-79781343D01*
X129372691Y-79781346D01*
X129240805Y-79962871D01*
X129138938Y-80162796D01*
X129138935Y-80162802D01*
X129069601Y-80376189D01*
X129069600Y-80376194D01*
X129069600Y-80376195D01*
X129034500Y-80597811D01*
X129034500Y-80822189D01*
X129065243Y-81016295D01*
X129069601Y-81043810D01*
X129132772Y-81238228D01*
X129138937Y-81257202D01*
X129240803Y-81457125D01*
X129372689Y-81638651D01*
X129372691Y-81638653D01*
X129372693Y-81638656D01*
X129531343Y-81797306D01*
X129531346Y-81797308D01*
X129531349Y-81797311D01*
X129712875Y-81929197D01*
X129912798Y-82031063D01*
X129947435Y-82042317D01*
X130006041Y-82082390D01*
X130033679Y-82147786D01*
X130034500Y-82162150D01*
X130034500Y-98666262D01*
X130014498Y-98734383D01*
X129960842Y-98780876D01*
X129890568Y-98790980D01*
X129860282Y-98782671D01*
X129839132Y-98773910D01*
X129641005Y-98734500D01*
X129641003Y-98734500D01*
X129438997Y-98734500D01*
X129438994Y-98734500D01*
X129240867Y-98773910D01*
X129219718Y-98782671D01*
X129149128Y-98790260D01*
X129085641Y-98758480D01*
X129049414Y-98697422D01*
X129045500Y-98666262D01*
X129045500Y-97943454D01*
X129065502Y-97875333D01*
X129066697Y-97873509D01*
X129178786Y-97705756D01*
X129256091Y-97519127D01*
X129295500Y-97321003D01*
X129295500Y-97118997D01*
X129256091Y-96920873D01*
X129178786Y-96734244D01*
X129066558Y-96566282D01*
X128923718Y-96423442D01*
X128755756Y-96311214D01*
X128623793Y-96256553D01*
X128569130Y-96233910D01*
X128569128Y-96233909D01*
X128569127Y-96233909D01*
X128469394Y-96214071D01*
X128371005Y-96194500D01*
X128371003Y-96194500D01*
X128168997Y-96194500D01*
X128168994Y-96194500D01*
X127970867Y-96233910D01*
X127949718Y-96242671D01*
X127879128Y-96250260D01*
X127815641Y-96218480D01*
X127779414Y-96157422D01*
X127775500Y-96126262D01*
X127775500Y-95403454D01*
X127795502Y-95335333D01*
X127796697Y-95333509D01*
X127908786Y-95165756D01*
X127986091Y-94979127D01*
X128025500Y-94781003D01*
X128025500Y-94578997D01*
X127986091Y-94380873D01*
X127908786Y-94194244D01*
X127796558Y-94026282D01*
X127653718Y-93883442D01*
X127485756Y-93771214D01*
X127353793Y-93716553D01*
X127299130Y-93693910D01*
X127299128Y-93693909D01*
X127299127Y-93693909D01*
X127199394Y-93674071D01*
X127101005Y-93654500D01*
X127101003Y-93654500D01*
X126898997Y-93654500D01*
X126898994Y-93654500D01*
X126751410Y-93683856D01*
X126700873Y-93693909D01*
X126700872Y-93693909D01*
X126700869Y-93693910D01*
X126514242Y-93771215D01*
X126346283Y-93883441D01*
X126346277Y-93883446D01*
X126203446Y-94026277D01*
X126203441Y-94026283D01*
X126091215Y-94194242D01*
X126013910Y-94380869D01*
X125974500Y-94578994D01*
X125974500Y-94781005D01*
X125990748Y-94862689D01*
X126010882Y-94963910D01*
X126013910Y-94979130D01*
X126082279Y-95144185D01*
X126089868Y-95214775D01*
X126058089Y-95278262D01*
X125997031Y-95314490D01*
X125926080Y-95311956D01*
X125876775Y-95281499D01*
X125748722Y-95153446D01*
X125748718Y-95153442D01*
X125580756Y-95041214D01*
X125448793Y-94986553D01*
X125394130Y-94963910D01*
X125394128Y-94963909D01*
X125394127Y-94963909D01*
X125302087Y-94945601D01*
X125196312Y-94924561D01*
X125133403Y-94891653D01*
X125131799Y-94890077D01*
X120192405Y-89950683D01*
X120158379Y-89888371D01*
X120155500Y-89861588D01*
X120155500Y-80456000D01*
X121555926Y-80456000D01*
X122878314Y-80456000D01*
X122869920Y-80464394D01*
X122817259Y-80555606D01*
X122790000Y-80657339D01*
X122790000Y-80762661D01*
X122817259Y-80864394D01*
X122869920Y-80955606D01*
X122878314Y-80964000D01*
X121555926Y-80964000D01*
X121564208Y-81016295D01*
X121627826Y-81212093D01*
X121627829Y-81212099D01*
X121721300Y-81395545D01*
X121842315Y-81562107D01*
X121842317Y-81562110D01*
X121987889Y-81707682D01*
X121987892Y-81707684D01*
X122154454Y-81828699D01*
X122337900Y-81922170D01*
X122337906Y-81922173D01*
X122533705Y-81985791D01*
X122533701Y-81985791D01*
X122737061Y-82018000D01*
X122936000Y-82018000D01*
X122936000Y-81021686D01*
X122944394Y-81030080D01*
X123035606Y-81082741D01*
X123137339Y-81110000D01*
X123242661Y-81110000D01*
X123344394Y-81082741D01*
X123435606Y-81030080D01*
X123444000Y-81021686D01*
X123444000Y-82018000D01*
X123642939Y-82018000D01*
X123846296Y-81985791D01*
X124042093Y-81922173D01*
X124042099Y-81922170D01*
X124225545Y-81828699D01*
X124392107Y-81707684D01*
X124392110Y-81707682D01*
X124537682Y-81562110D01*
X124537684Y-81562107D01*
X124658699Y-81395545D01*
X124752170Y-81212099D01*
X124752173Y-81212093D01*
X124815791Y-81016295D01*
X124824074Y-80964000D01*
X123501686Y-80964000D01*
X123510080Y-80955606D01*
X123562741Y-80864394D01*
X123590000Y-80762661D01*
X123590000Y-80657339D01*
X123562741Y-80555606D01*
X123510080Y-80464394D01*
X123501686Y-80456000D01*
X124824074Y-80456000D01*
X124815791Y-80403704D01*
X124752173Y-80207906D01*
X124752170Y-80207900D01*
X124658699Y-80024454D01*
X124537684Y-79857892D01*
X124537682Y-79857889D01*
X124392110Y-79712317D01*
X124392107Y-79712315D01*
X124225545Y-79591300D01*
X124042099Y-79497829D01*
X124042093Y-79497826D01*
X123846294Y-79434208D01*
X123846298Y-79434208D01*
X123642939Y-79402000D01*
X123444000Y-79402000D01*
X123444000Y-80398314D01*
X123435606Y-80389920D01*
X123344394Y-80337259D01*
X123242661Y-80310000D01*
X123137339Y-80310000D01*
X123035606Y-80337259D01*
X122944394Y-80389920D01*
X122936000Y-80398314D01*
X122936000Y-79402000D01*
X122737061Y-79402000D01*
X122533703Y-79434208D01*
X122337906Y-79497826D01*
X122337900Y-79497829D01*
X122154454Y-79591300D01*
X121987892Y-79712315D01*
X121987889Y-79712317D01*
X121842317Y-79857889D01*
X121842315Y-79857892D01*
X121721300Y-80024454D01*
X121627829Y-80207900D01*
X121627826Y-80207906D01*
X121564208Y-80403704D01*
X121555926Y-80456000D01*
X120155500Y-80456000D01*
X120155500Y-74918621D01*
X120155499Y-74918617D01*
X120153543Y-74908782D01*
X120125698Y-74768795D01*
X120118336Y-74751021D01*
X120067240Y-74627663D01*
X119982370Y-74500648D01*
X119982369Y-74500647D01*
X119982367Y-74500644D01*
X114477405Y-68995682D01*
X114443379Y-68933370D01*
X114440500Y-68906587D01*
X114440500Y-67827061D01*
X114897000Y-67827061D01*
X114897000Y-68032938D01*
X114929208Y-68236296D01*
X114992826Y-68432093D01*
X114992829Y-68432099D01*
X115086297Y-68615540D01*
X115086298Y-68615541D01*
X115117416Y-68658372D01*
X115805000Y-67970788D01*
X115805000Y-67982661D01*
X115832259Y-68084394D01*
X115884920Y-68175606D01*
X115959394Y-68250080D01*
X116050606Y-68302741D01*
X116152339Y-68330000D01*
X116164210Y-68330000D01*
X115476626Y-69017582D01*
X115476626Y-69017583D01*
X115519454Y-69048699D01*
X115702900Y-69142170D01*
X115702906Y-69142173D01*
X115898705Y-69205791D01*
X115898701Y-69205791D01*
X116102061Y-69238000D01*
X116307939Y-69238000D01*
X116511296Y-69205791D01*
X116707093Y-69142173D01*
X116707099Y-69142170D01*
X116890541Y-69048701D01*
X116933372Y-69017582D01*
X116933372Y-69017581D01*
X116245791Y-68330000D01*
X116257661Y-68330000D01*
X116359394Y-68302741D01*
X116450606Y-68250080D01*
X116525080Y-68175606D01*
X116577741Y-68084394D01*
X116605000Y-67982661D01*
X116605000Y-67970791D01*
X117292581Y-68658372D01*
X117292582Y-68658372D01*
X117323701Y-68615541D01*
X117417170Y-68432099D01*
X117417173Y-68432093D01*
X117480791Y-68236296D01*
X117513000Y-68032938D01*
X117513000Y-67827061D01*
X117480791Y-67623703D01*
X117417173Y-67427906D01*
X117417170Y-67427900D01*
X117323699Y-67244454D01*
X117292583Y-67201626D01*
X117292582Y-67201626D01*
X116605000Y-67889208D01*
X116605000Y-67877339D01*
X116577741Y-67775606D01*
X116525080Y-67684394D01*
X116450606Y-67609920D01*
X116359394Y-67557259D01*
X116257661Y-67530000D01*
X116245790Y-67530000D01*
X116933372Y-66842416D01*
X116890541Y-66811298D01*
X116890540Y-66811297D01*
X116707099Y-66717829D01*
X116707093Y-66717826D01*
X116511294Y-66654208D01*
X116511298Y-66654208D01*
X116307939Y-66622000D01*
X116102061Y-66622000D01*
X115898703Y-66654208D01*
X115702906Y-66717826D01*
X115702900Y-66717829D01*
X115519452Y-66811301D01*
X115476625Y-66842416D01*
X116164209Y-67530000D01*
X116152339Y-67530000D01*
X116050606Y-67557259D01*
X115959394Y-67609920D01*
X115884920Y-67684394D01*
X115832259Y-67775606D01*
X115805000Y-67877339D01*
X115805000Y-67889209D01*
X115117416Y-67201625D01*
X115086301Y-67244452D01*
X114992829Y-67427900D01*
X114992826Y-67427906D01*
X114929208Y-67623703D01*
X114897000Y-67827061D01*
X114440500Y-67827061D01*
X114440500Y-66663621D01*
X114440499Y-66663617D01*
X114439068Y-66656423D01*
X114410698Y-66513795D01*
X114352239Y-66372663D01*
X114334089Y-66345500D01*
X114267370Y-66245647D01*
X113836280Y-65814557D01*
X113802257Y-65752247D01*
X113800928Y-65705759D01*
X113820500Y-65582189D01*
X113820500Y-65357811D01*
X113785400Y-65136195D01*
X113716063Y-64922798D01*
X113614197Y-64722875D01*
X113482311Y-64541349D01*
X113482308Y-64541346D01*
X113482306Y-64541343D01*
X113323656Y-64382693D01*
X113323653Y-64382691D01*
X113323651Y-64382689D01*
X113212502Y-64301934D01*
X113169149Y-64245714D01*
X113163074Y-64174978D01*
X113196205Y-64112186D01*
X113212499Y-64098067D01*
X113323651Y-64017311D01*
X113482311Y-63858651D01*
X113483188Y-63857444D01*
X113483641Y-63857094D01*
X113485531Y-63854882D01*
X113485995Y-63855278D01*
X113539409Y-63814087D01*
X113585128Y-63805500D01*
X114213771Y-63805500D01*
X115014872Y-63805500D01*
X115082993Y-63825502D01*
X115114274Y-63855047D01*
X115114469Y-63854882D01*
X115116011Y-63856688D01*
X115116812Y-63857444D01*
X115117691Y-63858654D01*
X115276343Y-64017306D01*
X115276346Y-64017308D01*
X115276349Y-64017311D01*
X115457875Y-64149197D01*
X115657798Y-64251063D01*
X115871195Y-64320400D01*
X116092811Y-64355500D01*
X116092814Y-64355500D01*
X116317186Y-64355500D01*
X116317189Y-64355500D01*
X116538805Y-64320400D01*
X116752202Y-64251063D01*
X116952125Y-64149197D01*
X117133651Y-64017311D01*
X117292311Y-63858651D01*
X117293188Y-63857444D01*
X117293641Y-63857094D01*
X117295531Y-63854882D01*
X117295995Y-63855278D01*
X117349409Y-63814087D01*
X117395128Y-63805500D01*
X117561228Y-63805500D01*
X117561229Y-63805500D01*
X117730374Y-63771855D01*
X117889705Y-63705858D01*
X118033099Y-63610045D01*
X118790045Y-62853099D01*
X118806149Y-62828997D01*
X118885858Y-62709705D01*
X118951855Y-62550374D01*
X118985500Y-62381229D01*
X118985500Y-62016500D01*
X119005502Y-61948379D01*
X119059158Y-61901886D01*
X119111500Y-61890500D01*
X131406283Y-61890500D01*
X131474404Y-61910502D01*
G37*
%TD.AperFunction*%
%TA.AperFunction,Conductor*%
G36*
X166956402Y-61910502D02*
G01*
X167002895Y-61964158D01*
X167012999Y-62034432D01*
X166983505Y-62099012D01*
X166977377Y-62105595D01*
X166495483Y-62587489D01*
X166356659Y-62778562D01*
X166249433Y-62989006D01*
X166249432Y-62989008D01*
X166185629Y-63185374D01*
X166176447Y-63213632D01*
X166143107Y-63424139D01*
X166139500Y-63446911D01*
X166139500Y-81941282D01*
X166119498Y-82009403D01*
X166102595Y-82030377D01*
X163955487Y-84177484D01*
X163955484Y-84177487D01*
X163839369Y-84337306D01*
X163816657Y-84368566D01*
X163742175Y-84514746D01*
X163742174Y-84514745D01*
X163709435Y-84579000D01*
X163709432Y-84579008D01*
X163645911Y-84774506D01*
X163636447Y-84803632D01*
X163610083Y-84970094D01*
X163599500Y-85036911D01*
X163599500Y-110036282D01*
X163579498Y-110104403D01*
X163562595Y-110125377D01*
X153885535Y-119802436D01*
X153885532Y-119802439D01*
X153746707Y-119993514D01*
X153669701Y-120144648D01*
X153669700Y-120144647D01*
X153639483Y-120203952D01*
X153639480Y-120203960D01*
X153566495Y-120428584D01*
X153538109Y-120607807D01*
X153529548Y-120661861D01*
X153529548Y-123136667D01*
X153509546Y-123204788D01*
X153455890Y-123251281D01*
X153403548Y-123262667D01*
X153285450Y-123262667D01*
X153180056Y-123283631D01*
X153144924Y-123290620D01*
X153144919Y-123290621D01*
X153135629Y-123292468D01*
X152994496Y-123350928D01*
X152867481Y-123435796D01*
X152867475Y-123435801D01*
X151882634Y-124420642D01*
X151882629Y-124420648D01*
X151797761Y-124547663D01*
X151773263Y-124606807D01*
X151739302Y-124688795D01*
X151732562Y-124722681D01*
X151714079Y-124815597D01*
X151681171Y-124878506D01*
X151619475Y-124913637D01*
X151556554Y-124911053D01*
X151556330Y-124911987D01*
X151551593Y-124910849D01*
X151551571Y-124910849D01*
X151551518Y-124910832D01*
X151551521Y-124910832D01*
X151445516Y-124894043D01*
X151322124Y-124874500D01*
X151089876Y-124874500D01*
X150860486Y-124910831D01*
X150860484Y-124910831D01*
X150860481Y-124910832D01*
X150639608Y-124982598D01*
X150639602Y-124982601D01*
X150432665Y-125088041D01*
X150244773Y-125224553D01*
X150244770Y-125224555D01*
X150080556Y-125388769D01*
X150037936Y-125447431D01*
X149981713Y-125490784D01*
X149910977Y-125496859D01*
X149848185Y-125463727D01*
X149834064Y-125447431D01*
X149791449Y-125388776D01*
X149791445Y-125388772D01*
X149791443Y-125388769D01*
X149627229Y-125224555D01*
X149627226Y-125224553D01*
X149627225Y-125224552D01*
X149627224Y-125224551D01*
X149439331Y-125088039D01*
X149232396Y-124982600D01*
X149232393Y-124982599D01*
X149232391Y-124982598D01*
X149011518Y-124910832D01*
X149011516Y-124910831D01*
X149011514Y-124910831D01*
X148782124Y-124874500D01*
X148549876Y-124874500D01*
X148320486Y-124910831D01*
X148320484Y-124910831D01*
X148320481Y-124910832D01*
X148099608Y-124982598D01*
X148099602Y-124982601D01*
X147892665Y-125088041D01*
X147704773Y-125224553D01*
X147704770Y-125224555D01*
X147540556Y-125388769D01*
X147497936Y-125447431D01*
X147441713Y-125490784D01*
X147370977Y-125496859D01*
X147308185Y-125463727D01*
X147294064Y-125447431D01*
X147251449Y-125388776D01*
X147251445Y-125388772D01*
X147251443Y-125388769D01*
X147087229Y-125224555D01*
X147087226Y-125224553D01*
X147087225Y-125224552D01*
X147087224Y-125224551D01*
X146899331Y-125088039D01*
X146692396Y-124982600D01*
X146692393Y-124982599D01*
X146692391Y-124982598D01*
X146471518Y-124910832D01*
X146471516Y-124910831D01*
X146471514Y-124910831D01*
X146242124Y-124874500D01*
X146009876Y-124874500D01*
X145896908Y-124892392D01*
X145780478Y-124910832D01*
X145777911Y-124911449D01*
X145776905Y-124911398D01*
X145775596Y-124911606D01*
X145775552Y-124911330D01*
X145707003Y-124907901D01*
X145649270Y-124866579D01*
X145623042Y-124800605D01*
X145622500Y-124788930D01*
X145622500Y-122291412D01*
X145642502Y-122223291D01*
X145659400Y-122202321D01*
X146612370Y-121249353D01*
X146697239Y-121122337D01*
X146755698Y-120981205D01*
X146785500Y-120831380D01*
X146785500Y-113537168D01*
X146805502Y-113469047D01*
X146859158Y-113422554D01*
X146929432Y-113412450D01*
X146959717Y-113420759D01*
X146984124Y-113430869D01*
X147020867Y-113446089D01*
X147020869Y-113446089D01*
X147020873Y-113446091D01*
X147218997Y-113485500D01*
X147218998Y-113485500D01*
X147421002Y-113485500D01*
X147421003Y-113485500D01*
X147619127Y-113446091D01*
X147805756Y-113368786D01*
X147973718Y-113256558D01*
X148116558Y-113113718D01*
X148167736Y-113037124D01*
X148222212Y-112991597D01*
X148292655Y-112982749D01*
X148356699Y-113013390D01*
X148377262Y-113037122D01*
X148428442Y-113113718D01*
X148571282Y-113256558D01*
X148739244Y-113368786D01*
X148925873Y-113446091D01*
X149123997Y-113485500D01*
X149123998Y-113485500D01*
X149326002Y-113485500D01*
X149326003Y-113485500D01*
X149524127Y-113446091D01*
X149710756Y-113368786D01*
X149878718Y-113256558D01*
X150021558Y-113113718D01*
X150072736Y-113037124D01*
X150127212Y-112991597D01*
X150197655Y-112982749D01*
X150261699Y-113013390D01*
X150282262Y-113037122D01*
X150333442Y-113113718D01*
X150476282Y-113256558D01*
X150644244Y-113368786D01*
X150830873Y-113446091D01*
X151028997Y-113485500D01*
X151028998Y-113485500D01*
X151231002Y-113485500D01*
X151231003Y-113485500D01*
X151429127Y-113446091D01*
X151615756Y-113368786D01*
X151783718Y-113256558D01*
X151926558Y-113113718D01*
X151977731Y-113037130D01*
X152032206Y-112991605D01*
X152102649Y-112982756D01*
X152166694Y-113013397D01*
X152187254Y-113037125D01*
X152238432Y-113113718D01*
X152381272Y-113256558D01*
X152549234Y-113368786D01*
X152735863Y-113446091D01*
X152933987Y-113485500D01*
X152933988Y-113485500D01*
X153135992Y-113485500D01*
X153135993Y-113485500D01*
X153334117Y-113446091D01*
X153520746Y-113368786D01*
X153688708Y-113256558D01*
X153831548Y-113113718D01*
X153882731Y-113037115D01*
X153937206Y-112991590D01*
X154007649Y-112982741D01*
X154071693Y-113013382D01*
X154092255Y-113037111D01*
X154143442Y-113113718D01*
X154286282Y-113256558D01*
X154454244Y-113368786D01*
X154640873Y-113446091D01*
X154838997Y-113485500D01*
X154838998Y-113485500D01*
X155041002Y-113485500D01*
X155041003Y-113485500D01*
X155239127Y-113446091D01*
X155425756Y-113368786D01*
X155593718Y-113256558D01*
X155736558Y-113113718D01*
X155848786Y-112945756D01*
X155926091Y-112759127D01*
X155965500Y-112561003D01*
X155965500Y-112547361D01*
X155985502Y-112479240D01*
X156039158Y-112432747D01*
X156109432Y-112422643D01*
X156148696Y-112435092D01*
X156297798Y-112511063D01*
X156511195Y-112580400D01*
X156732811Y-112615500D01*
X156732814Y-112615500D01*
X156957186Y-112615500D01*
X156957189Y-112615500D01*
X157178805Y-112580400D01*
X157392202Y-112511063D01*
X157592125Y-112409197D01*
X157773651Y-112277311D01*
X157932311Y-112118651D01*
X158064197Y-111937125D01*
X158166063Y-111737202D01*
X158235400Y-111523805D01*
X158270500Y-111302189D01*
X158270500Y-111077811D01*
X158235400Y-110856195D01*
X158166063Y-110642798D01*
X158064197Y-110442875D01*
X157932311Y-110261349D01*
X157932308Y-110261346D01*
X157932306Y-110261343D01*
X157773656Y-110102693D01*
X157773653Y-110102691D01*
X157773651Y-110102689D01*
X157592125Y-109970803D01*
X157575626Y-109962396D01*
X157524011Y-109913649D01*
X157506945Y-109844735D01*
X157529845Y-109777533D01*
X157558768Y-109748194D01*
X157697107Y-109647684D01*
X157697110Y-109647682D01*
X157842682Y-109502110D01*
X157842684Y-109502107D01*
X157963699Y-109335545D01*
X158057170Y-109152099D01*
X158057173Y-109152093D01*
X158120791Y-108956295D01*
X158129074Y-108904000D01*
X157156686Y-108904000D01*
X157165080Y-108895606D01*
X157217741Y-108804394D01*
X157245000Y-108702661D01*
X157245000Y-108597339D01*
X157217741Y-108495606D01*
X157165080Y-108404394D01*
X157156686Y-108396000D01*
X158129074Y-108396000D01*
X158120791Y-108343704D01*
X158057173Y-108147906D01*
X158057170Y-108147900D01*
X157963699Y-107964454D01*
X157842684Y-107797892D01*
X157842682Y-107797889D01*
X157697107Y-107652314D01*
X157558768Y-107551805D01*
X157515414Y-107495583D01*
X157509339Y-107424846D01*
X157542471Y-107362055D01*
X157575626Y-107337603D01*
X157592125Y-107329197D01*
X157773651Y-107197311D01*
X157932311Y-107038651D01*
X158064197Y-106857125D01*
X158166063Y-106657202D01*
X158235400Y-106443805D01*
X158270500Y-106222189D01*
X158270500Y-105997811D01*
X158235400Y-105776195D01*
X158166063Y-105562798D01*
X158064197Y-105362875D01*
X157932311Y-105181349D01*
X157932308Y-105181346D01*
X157932306Y-105181343D01*
X157773656Y-105022693D01*
X157773653Y-105022691D01*
X157773651Y-105022689D01*
X157662502Y-104941934D01*
X157619149Y-104885714D01*
X157613074Y-104814978D01*
X157646205Y-104752186D01*
X157662499Y-104738067D01*
X157773651Y-104657311D01*
X157932311Y-104498651D01*
X158064197Y-104317125D01*
X158166063Y-104117202D01*
X158235400Y-103903805D01*
X158270500Y-103682189D01*
X158270500Y-103457811D01*
X158235400Y-103236195D01*
X158166063Y-103022798D01*
X158064197Y-102822875D01*
X157932311Y-102641349D01*
X157932308Y-102641346D01*
X157932306Y-102641343D01*
X157773656Y-102482693D01*
X157773653Y-102482691D01*
X157773651Y-102482689D01*
X157592125Y-102350803D01*
X157575626Y-102342396D01*
X157524011Y-102293649D01*
X157506945Y-102224735D01*
X157529845Y-102157533D01*
X157558768Y-102128194D01*
X157697107Y-102027684D01*
X157697110Y-102027682D01*
X157842682Y-101882110D01*
X157842684Y-101882107D01*
X157963699Y-101715545D01*
X158057170Y-101532099D01*
X158057173Y-101532093D01*
X158120791Y-101336295D01*
X158129074Y-101284000D01*
X157156686Y-101284000D01*
X157165080Y-101275606D01*
X157217741Y-101184394D01*
X157245000Y-101082661D01*
X157245000Y-100977339D01*
X157217741Y-100875606D01*
X157165080Y-100784394D01*
X157156686Y-100776000D01*
X158129074Y-100776000D01*
X158120791Y-100723704D01*
X158057173Y-100527906D01*
X158057170Y-100527900D01*
X157963699Y-100344454D01*
X157842684Y-100177892D01*
X157842682Y-100177889D01*
X157697107Y-100032314D01*
X157558768Y-99931805D01*
X157515414Y-99875583D01*
X157509339Y-99804846D01*
X157542471Y-99742055D01*
X157575626Y-99717603D01*
X157592125Y-99709197D01*
X157773651Y-99577311D01*
X157932311Y-99418651D01*
X158064197Y-99237125D01*
X158166063Y-99037202D01*
X158235400Y-98823805D01*
X158270500Y-98602189D01*
X158270500Y-98377811D01*
X158235400Y-98156195D01*
X158166063Y-97942798D01*
X158064197Y-97742875D01*
X157932311Y-97561349D01*
X157932308Y-97561346D01*
X157932306Y-97561343D01*
X157773656Y-97402693D01*
X157773653Y-97402691D01*
X157773651Y-97402689D01*
X157662502Y-97321934D01*
X157619149Y-97265714D01*
X157613074Y-97194978D01*
X157646205Y-97132186D01*
X157662499Y-97118067D01*
X157773651Y-97037311D01*
X157932311Y-96878651D01*
X158064197Y-96697125D01*
X158166063Y-96497202D01*
X158235400Y-96283805D01*
X158270500Y-96062189D01*
X158270500Y-95837811D01*
X158235400Y-95616195D01*
X158166063Y-95402798D01*
X158064197Y-95202875D01*
X157932311Y-95021349D01*
X157932308Y-95021346D01*
X157932306Y-95021343D01*
X157773656Y-94862693D01*
X157773653Y-94862691D01*
X157773651Y-94862689D01*
X157662502Y-94781934D01*
X157619149Y-94725714D01*
X157613074Y-94654978D01*
X157646205Y-94592186D01*
X157662499Y-94578067D01*
X157773651Y-94497311D01*
X157932311Y-94338651D01*
X158064197Y-94157125D01*
X158166063Y-93957202D01*
X158235400Y-93743805D01*
X158270500Y-93522189D01*
X158270500Y-93297811D01*
X158235400Y-93076195D01*
X158166063Y-92862798D01*
X158064197Y-92662875D01*
X157932311Y-92481349D01*
X157932308Y-92481346D01*
X157932306Y-92481343D01*
X157773656Y-92322693D01*
X157773653Y-92322691D01*
X157773652Y-92322690D01*
X157773651Y-92322689D01*
X157662502Y-92241934D01*
X157619149Y-92185714D01*
X157613074Y-92114978D01*
X157646205Y-92052186D01*
X157662499Y-92038067D01*
X157773651Y-91957311D01*
X157932311Y-91798651D01*
X158064197Y-91617125D01*
X158166063Y-91417202D01*
X158235400Y-91203805D01*
X158270500Y-90982189D01*
X158270500Y-90757811D01*
X158235400Y-90536195D01*
X158166063Y-90322798D01*
X158064197Y-90122875D01*
X157932311Y-89941349D01*
X157932308Y-89941346D01*
X157932306Y-89941343D01*
X157773656Y-89782693D01*
X157773653Y-89782691D01*
X157773651Y-89782689D01*
X157662502Y-89701934D01*
X157619149Y-89645714D01*
X157613074Y-89574978D01*
X157646205Y-89512186D01*
X157662499Y-89498067D01*
X157773651Y-89417311D01*
X157932311Y-89258651D01*
X158064197Y-89077125D01*
X158166063Y-88877202D01*
X158235400Y-88663805D01*
X158270500Y-88442189D01*
X158270500Y-88217811D01*
X158235400Y-87996195D01*
X158166063Y-87782798D01*
X158064197Y-87582875D01*
X157932311Y-87401349D01*
X157932308Y-87401346D01*
X157932306Y-87401343D01*
X157773656Y-87242693D01*
X157773653Y-87242691D01*
X157773651Y-87242689D01*
X157662502Y-87161934D01*
X157619149Y-87105714D01*
X157613074Y-87034978D01*
X157646205Y-86972186D01*
X157662499Y-86958067D01*
X157773651Y-86877311D01*
X157932311Y-86718651D01*
X158064197Y-86537125D01*
X158166063Y-86337202D01*
X158235400Y-86123805D01*
X158270500Y-85902189D01*
X158270500Y-85677811D01*
X158235400Y-85456195D01*
X158166063Y-85242798D01*
X158064197Y-85042875D01*
X157932311Y-84861349D01*
X157932308Y-84861346D01*
X157932306Y-84861343D01*
X157773656Y-84702693D01*
X157773653Y-84702691D01*
X157773651Y-84702689D01*
X157662502Y-84621934D01*
X157619149Y-84565714D01*
X157613074Y-84494978D01*
X157646205Y-84432186D01*
X157662499Y-84418067D01*
X157773651Y-84337311D01*
X157932311Y-84178651D01*
X158064197Y-83997125D01*
X158166063Y-83797202D01*
X158235400Y-83583805D01*
X158270500Y-83362189D01*
X158270500Y-83137811D01*
X158250928Y-83014240D01*
X158260027Y-82943833D01*
X158286277Y-82905443D01*
X160622370Y-80569353D01*
X160707239Y-80442337D01*
X160765698Y-80301205D01*
X160795500Y-80151380D01*
X160795500Y-79998620D01*
X160795500Y-75083454D01*
X160815502Y-75015333D01*
X160816697Y-75013509D01*
X160928786Y-74845756D01*
X161006091Y-74659127D01*
X161045500Y-74461003D01*
X161045500Y-74258997D01*
X161006091Y-74060873D01*
X160928786Y-73874244D01*
X160816558Y-73706282D01*
X160673718Y-73563442D01*
X160505756Y-73451214D01*
X160356530Y-73389402D01*
X160319130Y-73373910D01*
X160319128Y-73373909D01*
X160319127Y-73373909D01*
X160219394Y-73354071D01*
X160121005Y-73334500D01*
X160121003Y-73334500D01*
X159918997Y-73334500D01*
X159918994Y-73334500D01*
X159771410Y-73363856D01*
X159720873Y-73373909D01*
X159720872Y-73373909D01*
X159720869Y-73373910D01*
X159534242Y-73451215D01*
X159366283Y-73563441D01*
X159366277Y-73563446D01*
X159223446Y-73706277D01*
X159223441Y-73706283D01*
X159111213Y-73874244D01*
X159111211Y-73874249D01*
X159070539Y-73972438D01*
X159025991Y-74027719D01*
X158958627Y-74050139D01*
X158889836Y-74032580D01*
X158865036Y-74013314D01*
X158286282Y-73434560D01*
X158252256Y-73372248D01*
X158250928Y-73325760D01*
X158270500Y-73202189D01*
X158270500Y-72977811D01*
X158235400Y-72756195D01*
X158166063Y-72542798D01*
X158064197Y-72342875D01*
X157932311Y-72161349D01*
X157932308Y-72161346D01*
X157932306Y-72161343D01*
X157773656Y-72002693D01*
X157773653Y-72002691D01*
X157773651Y-72002689D01*
X157662502Y-71921934D01*
X157619149Y-71865714D01*
X157613074Y-71794978D01*
X157646205Y-71732186D01*
X157662499Y-71718067D01*
X157773651Y-71637311D01*
X157932311Y-71478651D01*
X158064197Y-71297125D01*
X158166063Y-71097202D01*
X158235400Y-70883805D01*
X158270500Y-70662189D01*
X158270500Y-70437811D01*
X158235400Y-70216195D01*
X158166063Y-70002798D01*
X158064197Y-69802875D01*
X157932311Y-69621349D01*
X157932308Y-69621346D01*
X157932306Y-69621343D01*
X157773656Y-69462693D01*
X157773653Y-69462691D01*
X157773651Y-69462689D01*
X157662502Y-69381934D01*
X157619149Y-69325714D01*
X157613074Y-69254978D01*
X157646205Y-69192186D01*
X157662499Y-69178067D01*
X157773651Y-69097311D01*
X157932311Y-68938651D01*
X157974501Y-68880582D01*
X158042027Y-68787639D01*
X158064197Y-68757125D01*
X158166063Y-68557202D01*
X158235400Y-68343805D01*
X158270500Y-68122189D01*
X158270500Y-67897811D01*
X158259294Y-67827061D01*
X159347000Y-67827061D01*
X159347000Y-68032938D01*
X159379208Y-68236296D01*
X159442826Y-68432093D01*
X159442829Y-68432099D01*
X159536297Y-68615540D01*
X159536298Y-68615541D01*
X159567416Y-68658372D01*
X160255000Y-67970788D01*
X160255000Y-67982661D01*
X160282259Y-68084394D01*
X160334920Y-68175606D01*
X160409394Y-68250080D01*
X160500606Y-68302741D01*
X160602339Y-68330000D01*
X160614210Y-68330000D01*
X159926626Y-69017582D01*
X159926626Y-69017583D01*
X159969454Y-69048699D01*
X160152900Y-69142170D01*
X160152906Y-69142173D01*
X160348705Y-69205791D01*
X160348701Y-69205791D01*
X160552061Y-69238000D01*
X160757939Y-69238000D01*
X160961296Y-69205791D01*
X161157093Y-69142173D01*
X161157099Y-69142170D01*
X161340541Y-69048701D01*
X161383372Y-69017582D01*
X161383372Y-69017581D01*
X160695791Y-68330000D01*
X160707661Y-68330000D01*
X160809394Y-68302741D01*
X160900606Y-68250080D01*
X160975080Y-68175606D01*
X161027741Y-68084394D01*
X161055000Y-67982661D01*
X161055000Y-67970791D01*
X161742581Y-68658372D01*
X161742582Y-68658372D01*
X161773701Y-68615541D01*
X161867170Y-68432099D01*
X161867173Y-68432093D01*
X161930791Y-68236296D01*
X161963000Y-68032938D01*
X161963000Y-67827061D01*
X161930791Y-67623703D01*
X161867173Y-67427906D01*
X161867170Y-67427900D01*
X161773699Y-67244454D01*
X161742583Y-67201626D01*
X161742582Y-67201626D01*
X161055000Y-67889208D01*
X161055000Y-67877339D01*
X161027741Y-67775606D01*
X160975080Y-67684394D01*
X160900606Y-67609920D01*
X160809394Y-67557259D01*
X160707661Y-67530000D01*
X160695790Y-67530000D01*
X161383372Y-66842416D01*
X161340541Y-66811298D01*
X161340540Y-66811297D01*
X161157099Y-66717829D01*
X161157093Y-66717826D01*
X160961294Y-66654208D01*
X160961298Y-66654208D01*
X160757939Y-66622000D01*
X160552061Y-66622000D01*
X160348703Y-66654208D01*
X160152906Y-66717826D01*
X160152900Y-66717829D01*
X159969452Y-66811301D01*
X159926625Y-66842416D01*
X160614209Y-67530000D01*
X160602339Y-67530000D01*
X160500606Y-67557259D01*
X160409394Y-67609920D01*
X160334920Y-67684394D01*
X160282259Y-67775606D01*
X160255000Y-67877339D01*
X160255000Y-67889209D01*
X159567416Y-67201625D01*
X159536301Y-67244452D01*
X159442829Y-67427900D01*
X159442826Y-67427906D01*
X159379208Y-67623703D01*
X159347000Y-67827061D01*
X158259294Y-67827061D01*
X158235400Y-67676195D01*
X158166063Y-67462798D01*
X158064197Y-67262875D01*
X157932311Y-67081349D01*
X157932308Y-67081346D01*
X157932306Y-67081343D01*
X157834842Y-66983879D01*
X157834836Y-66983874D01*
X157773651Y-66922689D01*
X157659454Y-66839720D01*
X157656557Y-66837339D01*
X157638622Y-66810967D01*
X157619149Y-66785714D01*
X157618816Y-66781844D01*
X157616632Y-66778632D01*
X157615802Y-66746743D01*
X157613074Y-66714978D01*
X157614886Y-66711543D01*
X157614785Y-66707659D01*
X157631323Y-66680389D01*
X157646205Y-66652186D01*
X157650893Y-66648123D01*
X157651602Y-66646955D01*
X157653069Y-66646238D01*
X157662499Y-66638067D01*
X157773651Y-66557311D01*
X157932311Y-66398651D01*
X158064197Y-66217125D01*
X158166063Y-66017202D01*
X158235400Y-65803805D01*
X158270500Y-65582189D01*
X158270500Y-65357811D01*
X158235400Y-65136195D01*
X158166063Y-64922798D01*
X158064197Y-64722875D01*
X157932311Y-64541349D01*
X157932308Y-64541346D01*
X157932306Y-64541343D01*
X157773656Y-64382693D01*
X157773653Y-64382691D01*
X157773651Y-64382689D01*
X157662502Y-64301934D01*
X157619149Y-64245714D01*
X157613074Y-64174978D01*
X157646205Y-64112186D01*
X157662499Y-64098067D01*
X157773651Y-64017311D01*
X157932311Y-63858651D01*
X157933188Y-63857444D01*
X157933641Y-63857094D01*
X157935531Y-63854882D01*
X157935995Y-63855278D01*
X157989409Y-63814087D01*
X158035128Y-63805500D01*
X158663771Y-63805500D01*
X158836229Y-63805500D01*
X159464872Y-63805500D01*
X159532993Y-63825502D01*
X159564274Y-63855047D01*
X159564469Y-63854882D01*
X159566011Y-63856688D01*
X159566812Y-63857444D01*
X159567691Y-63858654D01*
X159726343Y-64017306D01*
X159726346Y-64017308D01*
X159726349Y-64017311D01*
X159907875Y-64149197D01*
X160107798Y-64251063D01*
X160321195Y-64320400D01*
X160542811Y-64355500D01*
X160542814Y-64355500D01*
X160767186Y-64355500D01*
X160767189Y-64355500D01*
X160988805Y-64320400D01*
X161202202Y-64251063D01*
X161402125Y-64149197D01*
X161583651Y-64017311D01*
X161742311Y-63858651D01*
X161743188Y-63857444D01*
X161743641Y-63857094D01*
X161745531Y-63854882D01*
X161745995Y-63855278D01*
X161799409Y-63814087D01*
X161845128Y-63805500D01*
X162011228Y-63805500D01*
X162011229Y-63805500D01*
X162180374Y-63771855D01*
X162339705Y-63705858D01*
X162483099Y-63610045D01*
X163240045Y-62853099D01*
X163256149Y-62828997D01*
X163335858Y-62709705D01*
X163401855Y-62550374D01*
X163435500Y-62381229D01*
X163435500Y-62016500D01*
X163455502Y-61948379D01*
X163509158Y-61901886D01*
X163561500Y-61890500D01*
X166888281Y-61890500D01*
X166956402Y-61910502D01*
G37*
%TD.AperFunction*%
%TA.AperFunction,Conductor*%
G36*
X155905651Y-94495236D02*
G01*
X155935680Y-94511356D01*
X156027496Y-94578064D01*
X156070850Y-94634286D01*
X156076925Y-94705022D01*
X156043794Y-94767814D01*
X156027496Y-94781936D01*
X155916346Y-94862691D01*
X155916343Y-94862693D01*
X155757693Y-95021343D01*
X155757691Y-95021346D01*
X155625805Y-95202871D01*
X155523938Y-95402796D01*
X155523935Y-95402802D01*
X155454601Y-95616189D01*
X155454600Y-95616194D01*
X155454600Y-95616195D01*
X155419500Y-95837811D01*
X155419500Y-96062189D01*
X155446698Y-96233910D01*
X155454601Y-96283810D01*
X155499972Y-96423446D01*
X155523937Y-96497202D01*
X155625803Y-96697125D01*
X155757689Y-96878651D01*
X155757691Y-96878653D01*
X155757693Y-96878656D01*
X155916343Y-97037306D01*
X155916346Y-97037308D01*
X155916349Y-97037311D01*
X156005936Y-97102400D01*
X156027496Y-97118064D01*
X156070850Y-97174286D01*
X156076925Y-97245023D01*
X156043794Y-97307814D01*
X156027496Y-97321936D01*
X155916346Y-97402691D01*
X155916343Y-97402693D01*
X155757693Y-97561343D01*
X155757691Y-97561346D01*
X155625805Y-97742871D01*
X155523938Y-97942796D01*
X155523935Y-97942802D01*
X155454601Y-98156189D01*
X155454600Y-98156194D01*
X155454600Y-98156195D01*
X155419500Y-98377811D01*
X155419500Y-98602189D01*
X155451533Y-98804442D01*
X155454601Y-98823810D01*
X155523935Y-99037197D01*
X155523937Y-99037202D01*
X155625803Y-99237125D01*
X155757689Y-99418651D01*
X155757691Y-99418653D01*
X155757693Y-99418656D01*
X155916343Y-99577306D01*
X155916346Y-99577308D01*
X155916349Y-99577311D01*
X156027496Y-99658064D01*
X156097873Y-99709196D01*
X156097875Y-99709197D01*
X156114371Y-99717602D01*
X156165986Y-99766348D01*
X156183055Y-99835262D01*
X156160155Y-99902464D01*
X156131232Y-99931805D01*
X155992888Y-100032318D01*
X155847317Y-100177889D01*
X155847315Y-100177892D01*
X155726300Y-100344454D01*
X155632829Y-100527900D01*
X155632826Y-100527906D01*
X155569208Y-100723704D01*
X155560926Y-100776000D01*
X156533314Y-100776000D01*
X156524920Y-100784394D01*
X156472259Y-100875606D01*
X156445000Y-100977339D01*
X156445000Y-101082661D01*
X156472259Y-101184394D01*
X156524920Y-101275606D01*
X156533314Y-101284000D01*
X155560926Y-101284000D01*
X155569208Y-101336295D01*
X155632826Y-101532093D01*
X155632829Y-101532099D01*
X155726300Y-101715545D01*
X155847315Y-101882107D01*
X155847317Y-101882110D01*
X155992889Y-102027682D01*
X155992892Y-102027684D01*
X156131231Y-102128194D01*
X156174585Y-102184416D01*
X156180660Y-102255153D01*
X156147529Y-102317944D01*
X156114374Y-102342396D01*
X156097874Y-102350803D01*
X155916346Y-102482691D01*
X155916343Y-102482693D01*
X155757693Y-102641343D01*
X155757691Y-102641346D01*
X155625805Y-102822871D01*
X155523938Y-103022796D01*
X155523935Y-103022802D01*
X155454601Y-103236189D01*
X155454600Y-103236194D01*
X155454600Y-103236195D01*
X155419500Y-103457811D01*
X155419500Y-103682189D01*
X155445274Y-103844920D01*
X155454601Y-103903810D01*
X155514733Y-104088876D01*
X155523937Y-104117202D01*
X155612492Y-104291000D01*
X155625805Y-104317128D01*
X155628706Y-104321121D01*
X155757689Y-104498651D01*
X155757691Y-104498653D01*
X155757693Y-104498656D01*
X155916343Y-104657306D01*
X155916346Y-104657308D01*
X155916349Y-104657311D01*
X156005936Y-104722400D01*
X156027496Y-104738064D01*
X156070850Y-104794286D01*
X156076925Y-104865023D01*
X156043794Y-104927814D01*
X156027496Y-104941936D01*
X155916346Y-105022691D01*
X155916343Y-105022693D01*
X155757693Y-105181343D01*
X155757691Y-105181346D01*
X155625805Y-105362871D01*
X155523938Y-105562796D01*
X155523935Y-105562802D01*
X155454601Y-105776189D01*
X155454600Y-105776194D01*
X155454600Y-105776195D01*
X155419500Y-105997811D01*
X155419500Y-106222189D01*
X155445094Y-106383784D01*
X155454601Y-106443810D01*
X155523935Y-106657197D01*
X155523937Y-106657202D01*
X155625803Y-106857125D01*
X155757689Y-107038651D01*
X155757691Y-107038653D01*
X155757693Y-107038656D01*
X155916343Y-107197306D01*
X155916346Y-107197308D01*
X155916349Y-107197311D01*
X156033287Y-107282271D01*
X156097873Y-107329196D01*
X156097875Y-107329197D01*
X156114371Y-107337602D01*
X156165986Y-107386348D01*
X156183055Y-107455262D01*
X156160155Y-107522464D01*
X156131232Y-107551805D01*
X155992888Y-107652318D01*
X155847317Y-107797889D01*
X155847315Y-107797892D01*
X155726300Y-107964454D01*
X155632829Y-108147900D01*
X155632826Y-108147906D01*
X155569208Y-108343704D01*
X155560926Y-108396000D01*
X156533314Y-108396000D01*
X156524920Y-108404394D01*
X156472259Y-108495606D01*
X156445000Y-108597339D01*
X156445000Y-108702661D01*
X156472259Y-108804394D01*
X156524920Y-108895606D01*
X156533314Y-108904000D01*
X155560926Y-108904000D01*
X155569208Y-108956295D01*
X155632826Y-109152093D01*
X155632829Y-109152099D01*
X155726300Y-109335545D01*
X155847315Y-109502107D01*
X155847317Y-109502110D01*
X155992889Y-109647682D01*
X155992892Y-109647684D01*
X156131231Y-109748194D01*
X156174585Y-109804416D01*
X156180660Y-109875153D01*
X156147529Y-109937944D01*
X156114374Y-109962396D01*
X156097874Y-109970803D01*
X155916346Y-110102691D01*
X155916343Y-110102693D01*
X155757693Y-110261343D01*
X155757691Y-110261346D01*
X155625805Y-110442871D01*
X155523938Y-110642796D01*
X155523935Y-110642802D01*
X155454601Y-110856189D01*
X155454600Y-110856194D01*
X155454600Y-110856195D01*
X155421688Y-111064000D01*
X155419500Y-111077814D01*
X155419500Y-111302189D01*
X155426075Y-111343708D01*
X155416974Y-111414119D01*
X155371251Y-111468432D01*
X155303423Y-111489403D01*
X155272385Y-111485976D01*
X155262654Y-111483654D01*
X155239127Y-111473909D01*
X155134950Y-111453186D01*
X155132617Y-111452630D01*
X155103790Y-111436132D01*
X155074366Y-111420741D01*
X155072763Y-111419165D01*
X153847405Y-110193807D01*
X153813379Y-110131495D01*
X153810500Y-110104712D01*
X153810500Y-103393737D01*
X153830502Y-103325616D01*
X153884158Y-103279123D01*
X153954432Y-103269019D01*
X153984717Y-103277328D01*
X154005873Y-103286091D01*
X154203997Y-103325500D01*
X154203998Y-103325500D01*
X154406002Y-103325500D01*
X154406003Y-103325500D01*
X154604127Y-103286091D01*
X154790756Y-103208786D01*
X154958718Y-103096558D01*
X155101558Y-102953718D01*
X155213786Y-102785756D01*
X155291091Y-102599127D01*
X155330500Y-102401003D01*
X155330500Y-102198997D01*
X155291091Y-102000873D01*
X155213786Y-101814244D01*
X155101734Y-101646546D01*
X155080520Y-101578794D01*
X155080500Y-101576545D01*
X155080500Y-95268412D01*
X155100502Y-95200291D01*
X155117399Y-95179322D01*
X155772527Y-94524194D01*
X155834836Y-94490172D01*
X155905651Y-94495236D01*
G37*
%TD.AperFunction*%
%TA.AperFunction,Conductor*%
G36*
X141859000Y-110878314D02*
G01*
X141850606Y-110869920D01*
X141759394Y-110817259D01*
X141657661Y-110790000D01*
X141552339Y-110790000D01*
X141450606Y-110817259D01*
X141359394Y-110869920D01*
X141351000Y-110878314D01*
X141351000Y-108961686D01*
X141359394Y-108970080D01*
X141450606Y-109022741D01*
X141552339Y-109050000D01*
X141657661Y-109050000D01*
X141759394Y-109022741D01*
X141850606Y-108970080D01*
X141859000Y-108961686D01*
X141859000Y-110878314D01*
G37*
%TD.AperFunction*%
%TA.AperFunction,Conductor*%
G36*
X171069000Y-105449074D02*
G01*
X171121282Y-105440794D01*
X171121294Y-105440791D01*
X171317093Y-105377173D01*
X171317099Y-105377170D01*
X171500545Y-105283699D01*
X171654439Y-105171889D01*
X171721307Y-105148031D01*
X171790458Y-105164111D01*
X171839938Y-105215025D01*
X171854500Y-105273825D01*
X171854500Y-109762252D01*
X171834498Y-109830373D01*
X171780842Y-109876866D01*
X171715032Y-109887530D01*
X171663602Y-109882000D01*
X171069000Y-109882000D01*
X171069000Y-110878314D01*
X171060606Y-110869920D01*
X170969394Y-110817259D01*
X170867661Y-110790000D01*
X170762339Y-110790000D01*
X170660606Y-110817259D01*
X170569394Y-110869920D01*
X170561000Y-110878314D01*
X170561000Y-109882000D01*
X169966397Y-109882000D01*
X169914968Y-109887530D01*
X169845100Y-109874924D01*
X169793138Y-109826546D01*
X169775500Y-109762252D01*
X169775500Y-109433913D01*
X169777921Y-109409331D01*
X169778147Y-109408191D01*
X169785500Y-109371229D01*
X169785500Y-109198771D01*
X169777921Y-109160668D01*
X169775500Y-109136086D01*
X169775500Y-105273825D01*
X169795502Y-105205704D01*
X169849158Y-105159211D01*
X169919432Y-105149107D01*
X169975561Y-105171889D01*
X170129454Y-105283699D01*
X170312900Y-105377170D01*
X170312906Y-105377173D01*
X170508705Y-105440791D01*
X170508717Y-105440794D01*
X170560999Y-105449074D01*
X170561000Y-105449074D01*
X170561000Y-104476686D01*
X170569394Y-104485080D01*
X170660606Y-104537741D01*
X170762339Y-104565000D01*
X170867661Y-104565000D01*
X170969394Y-104537741D01*
X171060606Y-104485080D01*
X171069000Y-104476686D01*
X171069000Y-105449074D01*
G37*
%TD.AperFunction*%
%TA.AperFunction,Conductor*%
G36*
X105029000Y-87074074D02*
G01*
X105081285Y-87065794D01*
X105104563Y-87058231D01*
X105175531Y-87056203D01*
X105236329Y-87092866D01*
X105267655Y-87156578D01*
X105269500Y-87178064D01*
X105269500Y-89841120D01*
X105269500Y-89993880D01*
X105299302Y-90143705D01*
X105357761Y-90284837D01*
X105414468Y-90369705D01*
X105442629Y-90411851D01*
X105442634Y-90411857D01*
X107127596Y-92096818D01*
X107161621Y-92159130D01*
X107164501Y-92185913D01*
X107164501Y-105828589D01*
X107144499Y-105896710D01*
X107090843Y-105943203D01*
X107020569Y-105953307D01*
X106955989Y-105923813D01*
X106949406Y-105917684D01*
X103682405Y-102650683D01*
X103648379Y-102588371D01*
X103645500Y-102561588D01*
X103645500Y-86814483D01*
X103665502Y-86746362D01*
X103719158Y-86699869D01*
X103789432Y-86689765D01*
X103854012Y-86719259D01*
X103860595Y-86725388D01*
X103922889Y-86787682D01*
X103922892Y-86787684D01*
X104089454Y-86908699D01*
X104272900Y-87002170D01*
X104272906Y-87002173D01*
X104468705Y-87065791D01*
X104468717Y-87065794D01*
X104520999Y-87074074D01*
X104521000Y-87074074D01*
X104521000Y-86101686D01*
X104529394Y-86110080D01*
X104620606Y-86162741D01*
X104722339Y-86190000D01*
X104827661Y-86190000D01*
X104929394Y-86162741D01*
X105020606Y-86110080D01*
X105029000Y-86101686D01*
X105029000Y-87074074D01*
G37*
%TD.AperFunction*%
%TA.AperFunction,Conductor*%
G36*
X171069000Y-95924074D02*
G01*
X171121282Y-95915794D01*
X171121294Y-95915791D01*
X171317093Y-95852173D01*
X171317099Y-95852170D01*
X171500545Y-95758699D01*
X171654439Y-95646889D01*
X171721307Y-95623031D01*
X171790458Y-95639111D01*
X171839938Y-95690025D01*
X171854500Y-95748825D01*
X171854500Y-100117071D01*
X171834498Y-100185192D01*
X171780842Y-100231685D01*
X171718616Y-100242683D01*
X171678163Y-100239500D01*
X169951835Y-100239500D01*
X169911380Y-100242683D01*
X169841901Y-100228084D01*
X169791344Y-100178239D01*
X169775500Y-100117071D01*
X169775500Y-95748825D01*
X169795502Y-95680704D01*
X169849158Y-95634211D01*
X169919432Y-95624107D01*
X169975561Y-95646889D01*
X170129454Y-95758699D01*
X170312900Y-95852170D01*
X170312906Y-95852173D01*
X170508705Y-95915791D01*
X170508717Y-95915794D01*
X170560999Y-95924074D01*
X170561000Y-95924074D01*
X170561000Y-94951686D01*
X170569394Y-94960080D01*
X170660606Y-95012741D01*
X170762339Y-95040000D01*
X170867661Y-95040000D01*
X170969394Y-95012741D01*
X171060606Y-94960080D01*
X171069000Y-94951686D01*
X171069000Y-95924074D01*
G37*
%TD.AperFunction*%
%TA.AperFunction,Conductor*%
G36*
X106238555Y-65510870D02*
G01*
X106290430Y-65542152D01*
X107137595Y-66389317D01*
X107171621Y-66451629D01*
X107174500Y-66478412D01*
X107174500Y-78881382D01*
X107183494Y-78926595D01*
X107204302Y-79031205D01*
X107262761Y-79172337D01*
X107307191Y-79238831D01*
X107347629Y-79299351D01*
X107347634Y-79299357D01*
X107518380Y-79470103D01*
X107552406Y-79532415D01*
X107547341Y-79603230D01*
X107504794Y-79660066D01*
X107438274Y-79684877D01*
X107416944Y-79684592D01*
X107416009Y-79684500D01*
X107416003Y-79684500D01*
X107213997Y-79684500D01*
X107213994Y-79684500D01*
X107015867Y-79723910D01*
X106994718Y-79732671D01*
X106924128Y-79740260D01*
X106860641Y-79708480D01*
X106824414Y-79647422D01*
X106820500Y-79616262D01*
X106820500Y-76823621D01*
X106820499Y-76823617D01*
X106819237Y-76817272D01*
X106790698Y-76673795D01*
X106732239Y-76532663D01*
X106653114Y-76414244D01*
X106647370Y-76405647D01*
X106216280Y-75974557D01*
X106182257Y-75912247D01*
X106180928Y-75865759D01*
X106200500Y-75742189D01*
X106200500Y-75517811D01*
X106165400Y-75296195D01*
X106096063Y-75082798D01*
X105994197Y-74882875D01*
X105862311Y-74701349D01*
X105862308Y-74701346D01*
X105862306Y-74701343D01*
X105703656Y-74542693D01*
X105703653Y-74542691D01*
X105703651Y-74542689D01*
X105592502Y-74461934D01*
X105549149Y-74405714D01*
X105543074Y-74334978D01*
X105576205Y-74272186D01*
X105592499Y-74258067D01*
X105703651Y-74177311D01*
X105862311Y-74018651D01*
X105994197Y-73837125D01*
X106096063Y-73637202D01*
X106165400Y-73423805D01*
X106200500Y-73202189D01*
X106200500Y-72977811D01*
X106165400Y-72756195D01*
X106096063Y-72542798D01*
X105994197Y-72342875D01*
X105862311Y-72161349D01*
X105862308Y-72161346D01*
X105862306Y-72161343D01*
X105703656Y-72002693D01*
X105703653Y-72002691D01*
X105703651Y-72002689D01*
X105592502Y-71921934D01*
X105549149Y-71865714D01*
X105543074Y-71794978D01*
X105576205Y-71732186D01*
X105592499Y-71718067D01*
X105703651Y-71637311D01*
X105862311Y-71478651D01*
X105994197Y-71297125D01*
X106096063Y-71097202D01*
X106165400Y-70883805D01*
X106200500Y-70662189D01*
X106200500Y-70437811D01*
X106165400Y-70216195D01*
X106096063Y-70002798D01*
X105994197Y-69802875D01*
X105862311Y-69621349D01*
X105862308Y-69621346D01*
X105862306Y-69621343D01*
X105703656Y-69462693D01*
X105703653Y-69462691D01*
X105703651Y-69462689D01*
X105522125Y-69330803D01*
X105505626Y-69322396D01*
X105454011Y-69273649D01*
X105436945Y-69204735D01*
X105459845Y-69137533D01*
X105488768Y-69108194D01*
X105627107Y-69007684D01*
X105627110Y-69007682D01*
X105772682Y-68862110D01*
X105772684Y-68862107D01*
X105893699Y-68695545D01*
X105987170Y-68512099D01*
X105987173Y-68512093D01*
X106050791Y-68316295D01*
X106059074Y-68264000D01*
X105086686Y-68264000D01*
X105095080Y-68255606D01*
X105147741Y-68164394D01*
X105175000Y-68062661D01*
X105175000Y-67957339D01*
X105147741Y-67855606D01*
X105095080Y-67764394D01*
X105086686Y-67756000D01*
X106059074Y-67756000D01*
X106050791Y-67703704D01*
X105987173Y-67507906D01*
X105987170Y-67507900D01*
X105893699Y-67324454D01*
X105772684Y-67157892D01*
X105772682Y-67157889D01*
X105627110Y-67012317D01*
X105627107Y-67012315D01*
X105460545Y-66891300D01*
X105383938Y-66852267D01*
X105332323Y-66803519D01*
X105315257Y-66734604D01*
X105338158Y-66667402D01*
X105383938Y-66627733D01*
X105460545Y-66588699D01*
X105627107Y-66467684D01*
X105627110Y-66467682D01*
X105772682Y-66322110D01*
X105772684Y-66322107D01*
X105893699Y-66155545D01*
X105987170Y-65972099D01*
X105987173Y-65972093D01*
X106050791Y-65776295D01*
X106076886Y-65611537D01*
X106107298Y-65547384D01*
X106167566Y-65509857D01*
X106238555Y-65510870D01*
G37*
%TD.AperFunction*%
%TA.AperFunction,Conductor*%
G36*
X103295192Y-61910502D02*
G01*
X103341685Y-61964158D01*
X103352683Y-62026384D01*
X103349500Y-62066836D01*
X103349500Y-63793161D01*
X103352290Y-63828624D01*
X103396383Y-63980394D01*
X103476827Y-64116416D01*
X103476832Y-64116423D01*
X103588576Y-64228167D01*
X103588583Y-64228172D01*
X103724605Y-64308616D01*
X103724608Y-64308616D01*
X103724610Y-64308618D01*
X103800506Y-64330667D01*
X103860340Y-64368880D01*
X103890018Y-64433376D01*
X103880115Y-64503679D01*
X103854448Y-64540759D01*
X103777313Y-64617894D01*
X103656300Y-64784454D01*
X103562829Y-64967900D01*
X103562826Y-64967906D01*
X103499208Y-65163704D01*
X103490926Y-65216000D01*
X104463314Y-65216000D01*
X104454920Y-65224394D01*
X104402259Y-65315606D01*
X104375000Y-65417339D01*
X104375000Y-65522661D01*
X104402259Y-65624394D01*
X104454920Y-65715606D01*
X104463314Y-65724000D01*
X103490926Y-65724000D01*
X103499208Y-65776295D01*
X103562826Y-65972093D01*
X103562829Y-65972099D01*
X103656300Y-66155545D01*
X103777315Y-66322107D01*
X103777317Y-66322110D01*
X103922889Y-66467682D01*
X103922892Y-66467684D01*
X104089454Y-66588699D01*
X104166061Y-66627733D01*
X104217676Y-66676482D01*
X104234742Y-66745397D01*
X104211841Y-66812598D01*
X104166061Y-66852267D01*
X104089454Y-66891300D01*
X103922892Y-67012315D01*
X103922889Y-67012317D01*
X103777317Y-67157889D01*
X103777315Y-67157892D01*
X103656300Y-67324454D01*
X103562829Y-67507900D01*
X103562826Y-67507906D01*
X103499208Y-67703704D01*
X103490926Y-67756000D01*
X104463314Y-67756000D01*
X104454920Y-67764394D01*
X104402259Y-67855606D01*
X104375000Y-67957339D01*
X104375000Y-68062661D01*
X104402259Y-68164394D01*
X104454920Y-68255606D01*
X104463314Y-68264000D01*
X103490926Y-68264000D01*
X103499208Y-68316295D01*
X103562826Y-68512093D01*
X103562829Y-68512099D01*
X103656300Y-68695545D01*
X103777315Y-68862107D01*
X103777317Y-68862110D01*
X103922889Y-69007682D01*
X103922892Y-69007684D01*
X104061231Y-69108194D01*
X104104585Y-69164416D01*
X104110660Y-69235153D01*
X104077529Y-69297944D01*
X104044374Y-69322396D01*
X104027874Y-69330803D01*
X103846346Y-69462691D01*
X103846343Y-69462693D01*
X103687693Y-69621343D01*
X103687691Y-69621346D01*
X103555805Y-69802871D01*
X103453938Y-70002796D01*
X103453935Y-70002802D01*
X103384601Y-70216189D01*
X103384600Y-70216194D01*
X103384600Y-70216195D01*
X103349500Y-70437811D01*
X103349500Y-70662189D01*
X103384600Y-70883805D01*
X103384601Y-70883810D01*
X103447772Y-71078228D01*
X103453937Y-71097202D01*
X103555803Y-71297125D01*
X103687689Y-71478651D01*
X103687691Y-71478653D01*
X103687693Y-71478656D01*
X103846343Y-71637306D01*
X103846346Y-71637308D01*
X103846349Y-71637311D01*
X103913492Y-71686093D01*
X103957496Y-71718064D01*
X104000850Y-71774286D01*
X104006925Y-71845023D01*
X103973794Y-71907814D01*
X103957496Y-71921936D01*
X103846346Y-72002691D01*
X103846343Y-72002693D01*
X103687693Y-72161343D01*
X103687691Y-72161346D01*
X103555805Y-72342871D01*
X103453938Y-72542796D01*
X103453935Y-72542802D01*
X103384601Y-72756189D01*
X103384600Y-72756194D01*
X103384600Y-72756195D01*
X103350333Y-72972555D01*
X103349500Y-72977814D01*
X103349500Y-73202188D01*
X103356075Y-73243706D01*
X103346974Y-73314117D01*
X103301252Y-73368431D01*
X103233423Y-73389402D01*
X103183407Y-73379824D01*
X103169130Y-73373910D01*
X103169128Y-73373909D01*
X103169127Y-73373909D01*
X103069394Y-73354071D01*
X102971005Y-73334500D01*
X102971003Y-73334500D01*
X102768997Y-73334500D01*
X102768994Y-73334500D01*
X102621410Y-73363856D01*
X102570873Y-73373909D01*
X102570872Y-73373909D01*
X102570869Y-73373910D01*
X102384242Y-73451215D01*
X102216283Y-73563441D01*
X102216277Y-73563446D01*
X102073446Y-73706277D01*
X102073441Y-73706283D01*
X101961215Y-73874242D01*
X101883910Y-74060870D01*
X101844561Y-74258686D01*
X101811653Y-74321595D01*
X101810078Y-74323199D01*
X101410593Y-74722683D01*
X101348283Y-74756707D01*
X101277468Y-74751643D01*
X101220632Y-74709096D01*
X101195821Y-74642576D01*
X101195500Y-74633587D01*
X101195500Y-62333717D01*
X101215502Y-62265596D01*
X101232405Y-62244622D01*
X101549622Y-61927405D01*
X101611934Y-61893379D01*
X101638717Y-61890500D01*
X103227071Y-61890500D01*
X103295192Y-61910502D01*
G37*
%TD.AperFunction*%
%TA.AperFunction,Conductor*%
G36*
X105029000Y-67698314D02*
G01*
X105020606Y-67689920D01*
X104929394Y-67637259D01*
X104827661Y-67610000D01*
X104722339Y-67610000D01*
X104620606Y-67637259D01*
X104529394Y-67689920D01*
X104521000Y-67698314D01*
X104521000Y-65781686D01*
X104529394Y-65790080D01*
X104620606Y-65842741D01*
X104722339Y-65870000D01*
X104827661Y-65870000D01*
X104929394Y-65842741D01*
X105020606Y-65790080D01*
X105029000Y-65781686D01*
X105029000Y-67698314D01*
G37*
%TD.AperFunction*%
%TD*%
M02*
