%TF.GenerationSoftware,KiCad,Pcbnew,9.0.4*%
%TF.CreationDate,2026-04-02T10:33:09-04:00*%
%TF.ProjectId,BasicSerialPlus,42617369-6353-4657-9269-616c506c7573,rev?*%
%TF.SameCoordinates,Original*%
%TF.FileFunction,Legend,Top*%
%TF.FilePolarity,Positive*%
%FSLAX46Y46*%
G04 Gerber Fmt 4.6, Leading zero omitted, Abs format (unit mm)*
G04 Created by KiCad (PCBNEW 9.0.4) date 2026-04-02 10:33:09*
%MOMM*%
%LPD*%
G01*
G04 APERTURE LIST*
%ADD10C,0.120000*%
%ADD11C,0.100000*%
%ADD12C,0.150000*%
%ADD13C,0.450000*%
%ADD14C,0.304800*%
%ADD15C,0.381000*%
%ADD16R,2.300000X1.600000*%
%ADD17O,2.300000X1.600000*%
G04 APERTURE END LIST*
D10*
X106680000Y-92775000D02*
X106680000Y-94045000D01*
X106680000Y-94045000D02*
X106680000Y-95315000D01*
X110490000Y-94045000D02*
X110490000Y-92775000D01*
X106680000Y-95315000D02*
X110490000Y-95315000D01*
X110490000Y-95315000D02*
X110490000Y-94045000D01*
X110490000Y-92775000D02*
X106680000Y-92775000D01*
X106680000Y-94045000D02*
X110490000Y-94045000D01*
X110490000Y-97855000D02*
X110490000Y-96585000D01*
X110490000Y-96585000D02*
X106680000Y-96585000D01*
X106680000Y-97855000D02*
X110490000Y-97855000D01*
X106680000Y-97855000D02*
X106680000Y-99125000D01*
X106680000Y-99125000D02*
X110490000Y-99125000D01*
X110490000Y-99125000D02*
X110490000Y-97855000D01*
X106680000Y-96585000D02*
X106680000Y-97855000D01*
X106680000Y-105475000D02*
X110490000Y-105475000D01*
X110490000Y-104205000D02*
X106680000Y-104205000D01*
X110490000Y-106745000D02*
X110490000Y-105475000D01*
X106680000Y-106745000D02*
X110490000Y-106745000D01*
X110490000Y-105475000D02*
X110490000Y-104205000D01*
X106680000Y-105475000D02*
X106680000Y-106745000D01*
X106680000Y-104205000D02*
X106680000Y-105475000D01*
X110490000Y-101665000D02*
X110490000Y-100395000D01*
X110490000Y-100395000D02*
X106680000Y-100395000D01*
X106680000Y-101665000D02*
X110490000Y-101665000D01*
X106680000Y-101665000D02*
X106680000Y-102935000D01*
X106680000Y-102935000D02*
X110490000Y-102935000D01*
X110490000Y-102935000D02*
X110490000Y-101665000D01*
X106680000Y-100395000D02*
X106680000Y-101665000D01*
D11*
X110490000Y-99125000D02*
X107950000Y-99125000D01*
X107950000Y-97855000D01*
X110490000Y-97855000D01*
X110490000Y-99125000D01*
G36*
X110490000Y-99125000D02*
G01*
X107950000Y-99125000D01*
X107950000Y-97855000D01*
X110490000Y-97855000D01*
X110490000Y-99125000D01*
G37*
D12*
X71066000Y-48120000D02*
X65066000Y-48120000D01*
X192516000Y-33240000D02*
X198196000Y-33240000D01*
X156766000Y-48120000D02*
X156766000Y-42320000D01*
X192516000Y-45940000D02*
X198196000Y-45940000D01*
D11*
X109220000Y-95315000D02*
X106680000Y-95315000D01*
X106680000Y-92775000D01*
X109220000Y-92775000D01*
X109220000Y-95315000D01*
G36*
X109220000Y-95315000D02*
G01*
X106680000Y-95315000D01*
X106680000Y-92775000D01*
X109220000Y-92775000D01*
X109220000Y-95315000D01*
G37*
X109220000Y-102935000D02*
X106680000Y-102935000D01*
X106680000Y-101665000D01*
X109220000Y-101665000D01*
X109220000Y-102935000D01*
G36*
X109220000Y-102935000D02*
G01*
X106680000Y-102935000D01*
X106680000Y-101665000D01*
X109220000Y-101665000D01*
X109220000Y-102935000D01*
G37*
D12*
X166466000Y-48120000D02*
X172466000Y-48120000D01*
D11*
X110490000Y-106745000D02*
X107950000Y-106745000D01*
X107950000Y-104205000D01*
X110490000Y-104205000D01*
X110490000Y-106745000D01*
G36*
X110490000Y-106745000D02*
G01*
X107950000Y-106745000D01*
X107950000Y-104205000D01*
X110490000Y-104205000D01*
X110490000Y-106745000D01*
G37*
D12*
X80766000Y-48120000D02*
X80766000Y-42320000D01*
X150766000Y-48120000D02*
X156766000Y-48120000D01*
D11*
X110490000Y-101665000D02*
X107950000Y-101665000D01*
X107950000Y-100395000D01*
X110490000Y-100395000D01*
X110490000Y-101665000D01*
G36*
X110490000Y-101665000D02*
G01*
X107950000Y-101665000D01*
X107950000Y-100395000D01*
X110490000Y-100395000D01*
X110490000Y-101665000D01*
G37*
D12*
X150766000Y-35620000D02*
X150766000Y-48120000D01*
X71066000Y-48120000D02*
X71066000Y-42320000D01*
X192516000Y-39590000D02*
X198196000Y-39590000D01*
X80766000Y-48120000D02*
X86766000Y-48120000D01*
X192516000Y-142350000D02*
X198196000Y-142350000D01*
X156766000Y-42320000D02*
X166466000Y-42320000D01*
X80766000Y-42320000D02*
X71066000Y-42320000D01*
D11*
X109220000Y-97855000D02*
X106680000Y-97855000D01*
X106680000Y-96585000D01*
X109220000Y-96585000D01*
X109220000Y-97855000D01*
G36*
X109220000Y-97855000D02*
G01*
X106680000Y-97855000D01*
X106680000Y-96585000D01*
X109220000Y-96585000D01*
X109220000Y-97855000D01*
G37*
D12*
X192516000Y-129650000D02*
X198196000Y-129650000D01*
X86766000Y-35620000D02*
X86766000Y-48120000D01*
X65066000Y-35620000D02*
X65066000Y-48120000D01*
X166466000Y-48120000D02*
X166466000Y-42320000D01*
X192516000Y-136000000D02*
X198196000Y-136000000D01*
X172466000Y-35620000D02*
X172466000Y-48120000D01*
X126701779Y-104659819D02*
X126701779Y-103659819D01*
X127749397Y-104659819D02*
X127416064Y-104183628D01*
X127177969Y-104659819D02*
X127177969Y-103659819D01*
X127177969Y-103659819D02*
X127558921Y-103659819D01*
X127558921Y-103659819D02*
X127654159Y-103707438D01*
X127654159Y-103707438D02*
X127701778Y-103755057D01*
X127701778Y-103755057D02*
X127749397Y-103850295D01*
X127749397Y-103850295D02*
X127749397Y-103993152D01*
X127749397Y-103993152D02*
X127701778Y-104088390D01*
X127701778Y-104088390D02*
X127654159Y-104136009D01*
X127654159Y-104136009D02*
X127558921Y-104183628D01*
X127558921Y-104183628D02*
X127177969Y-104183628D01*
X128844635Y-104755057D02*
X128749397Y-104707438D01*
X128749397Y-104707438D02*
X128654159Y-104612200D01*
X128654159Y-104612200D02*
X128511302Y-104469342D01*
X128511302Y-104469342D02*
X128416064Y-104421723D01*
X128416064Y-104421723D02*
X128320826Y-104421723D01*
X128368445Y-104659819D02*
X128273207Y-104612200D01*
X128273207Y-104612200D02*
X128177969Y-104516961D01*
X128177969Y-104516961D02*
X128130350Y-104326485D01*
X128130350Y-104326485D02*
X128130350Y-103993152D01*
X128130350Y-103993152D02*
X128177969Y-103802676D01*
X128177969Y-103802676D02*
X128273207Y-103707438D01*
X128273207Y-103707438D02*
X128368445Y-103659819D01*
X128368445Y-103659819D02*
X128558921Y-103659819D01*
X128558921Y-103659819D02*
X128654159Y-103707438D01*
X128654159Y-103707438D02*
X128749397Y-103802676D01*
X128749397Y-103802676D02*
X128797016Y-103993152D01*
X128797016Y-103993152D02*
X128797016Y-104326485D01*
X128797016Y-104326485D02*
X128749397Y-104516961D01*
X128749397Y-104516961D02*
X128654159Y-104612200D01*
X128654159Y-104612200D02*
X128558921Y-104659819D01*
X128558921Y-104659819D02*
X128368445Y-104659819D01*
X129130350Y-103659819D02*
X129749397Y-103659819D01*
X129749397Y-103659819D02*
X129416064Y-104040771D01*
X129416064Y-104040771D02*
X129558921Y-104040771D01*
X129558921Y-104040771D02*
X129654159Y-104088390D01*
X129654159Y-104088390D02*
X129701778Y-104136009D01*
X129701778Y-104136009D02*
X129749397Y-104231247D01*
X129749397Y-104231247D02*
X129749397Y-104469342D01*
X129749397Y-104469342D02*
X129701778Y-104564580D01*
X129701778Y-104564580D02*
X129654159Y-104612200D01*
X129654159Y-104612200D02*
X129558921Y-104659819D01*
X129558921Y-104659819D02*
X129273207Y-104659819D01*
X129273207Y-104659819D02*
X129177969Y-104612200D01*
X129177969Y-104612200D02*
X129130350Y-104564580D01*
X126701779Y-107199819D02*
X126701779Y-106199819D01*
X127749397Y-107199819D02*
X127416064Y-106723628D01*
X127177969Y-107199819D02*
X127177969Y-106199819D01*
X127177969Y-106199819D02*
X127558921Y-106199819D01*
X127558921Y-106199819D02*
X127654159Y-106247438D01*
X127654159Y-106247438D02*
X127701778Y-106295057D01*
X127701778Y-106295057D02*
X127749397Y-106390295D01*
X127749397Y-106390295D02*
X127749397Y-106533152D01*
X127749397Y-106533152D02*
X127701778Y-106628390D01*
X127701778Y-106628390D02*
X127654159Y-106676009D01*
X127654159Y-106676009D02*
X127558921Y-106723628D01*
X127558921Y-106723628D02*
X127177969Y-106723628D01*
X128844635Y-107295057D02*
X128749397Y-107247438D01*
X128749397Y-107247438D02*
X128654159Y-107152200D01*
X128654159Y-107152200D02*
X128511302Y-107009342D01*
X128511302Y-107009342D02*
X128416064Y-106961723D01*
X128416064Y-106961723D02*
X128320826Y-106961723D01*
X128368445Y-107199819D02*
X128273207Y-107152200D01*
X128273207Y-107152200D02*
X128177969Y-107056961D01*
X128177969Y-107056961D02*
X128130350Y-106866485D01*
X128130350Y-106866485D02*
X128130350Y-106533152D01*
X128130350Y-106533152D02*
X128177969Y-106342676D01*
X128177969Y-106342676D02*
X128273207Y-106247438D01*
X128273207Y-106247438D02*
X128368445Y-106199819D01*
X128368445Y-106199819D02*
X128558921Y-106199819D01*
X128558921Y-106199819D02*
X128654159Y-106247438D01*
X128654159Y-106247438D02*
X128749397Y-106342676D01*
X128749397Y-106342676D02*
X128797016Y-106533152D01*
X128797016Y-106533152D02*
X128797016Y-106866485D01*
X128797016Y-106866485D02*
X128749397Y-107056961D01*
X128749397Y-107056961D02*
X128654159Y-107152200D01*
X128654159Y-107152200D02*
X128558921Y-107199819D01*
X128558921Y-107199819D02*
X128368445Y-107199819D01*
X129654159Y-106533152D02*
X129654159Y-107199819D01*
X129416064Y-106152200D02*
X129177969Y-106866485D01*
X129177969Y-106866485D02*
X129797016Y-106866485D01*
X126701779Y-112279819D02*
X126701779Y-111279819D01*
X127749397Y-112279819D02*
X127416064Y-111803628D01*
X127177969Y-112279819D02*
X127177969Y-111279819D01*
X127177969Y-111279819D02*
X127558921Y-111279819D01*
X127558921Y-111279819D02*
X127654159Y-111327438D01*
X127654159Y-111327438D02*
X127701778Y-111375057D01*
X127701778Y-111375057D02*
X127749397Y-111470295D01*
X127749397Y-111470295D02*
X127749397Y-111613152D01*
X127749397Y-111613152D02*
X127701778Y-111708390D01*
X127701778Y-111708390D02*
X127654159Y-111756009D01*
X127654159Y-111756009D02*
X127558921Y-111803628D01*
X127558921Y-111803628D02*
X127177969Y-111803628D01*
X128844635Y-112375057D02*
X128749397Y-112327438D01*
X128749397Y-112327438D02*
X128654159Y-112232200D01*
X128654159Y-112232200D02*
X128511302Y-112089342D01*
X128511302Y-112089342D02*
X128416064Y-112041723D01*
X128416064Y-112041723D02*
X128320826Y-112041723D01*
X128368445Y-112279819D02*
X128273207Y-112232200D01*
X128273207Y-112232200D02*
X128177969Y-112136961D01*
X128177969Y-112136961D02*
X128130350Y-111946485D01*
X128130350Y-111946485D02*
X128130350Y-111613152D01*
X128130350Y-111613152D02*
X128177969Y-111422676D01*
X128177969Y-111422676D02*
X128273207Y-111327438D01*
X128273207Y-111327438D02*
X128368445Y-111279819D01*
X128368445Y-111279819D02*
X128558921Y-111279819D01*
X128558921Y-111279819D02*
X128654159Y-111327438D01*
X128654159Y-111327438D02*
X128749397Y-111422676D01*
X128749397Y-111422676D02*
X128797016Y-111613152D01*
X128797016Y-111613152D02*
X128797016Y-111946485D01*
X128797016Y-111946485D02*
X128749397Y-112136961D01*
X128749397Y-112136961D02*
X128654159Y-112232200D01*
X128654159Y-112232200D02*
X128558921Y-112279819D01*
X128558921Y-112279819D02*
X128368445Y-112279819D01*
X129130350Y-111279819D02*
X129797016Y-111279819D01*
X129797016Y-111279819D02*
X129368445Y-112279819D01*
X126701779Y-109739819D02*
X126701779Y-108739819D01*
X127749397Y-109739819D02*
X127416064Y-109263628D01*
X127177969Y-109739819D02*
X127177969Y-108739819D01*
X127177969Y-108739819D02*
X127558921Y-108739819D01*
X127558921Y-108739819D02*
X127654159Y-108787438D01*
X127654159Y-108787438D02*
X127701778Y-108835057D01*
X127701778Y-108835057D02*
X127749397Y-108930295D01*
X127749397Y-108930295D02*
X127749397Y-109073152D01*
X127749397Y-109073152D02*
X127701778Y-109168390D01*
X127701778Y-109168390D02*
X127654159Y-109216009D01*
X127654159Y-109216009D02*
X127558921Y-109263628D01*
X127558921Y-109263628D02*
X127177969Y-109263628D01*
X128844635Y-109835057D02*
X128749397Y-109787438D01*
X128749397Y-109787438D02*
X128654159Y-109692200D01*
X128654159Y-109692200D02*
X128511302Y-109549342D01*
X128511302Y-109549342D02*
X128416064Y-109501723D01*
X128416064Y-109501723D02*
X128320826Y-109501723D01*
X128368445Y-109739819D02*
X128273207Y-109692200D01*
X128273207Y-109692200D02*
X128177969Y-109596961D01*
X128177969Y-109596961D02*
X128130350Y-109406485D01*
X128130350Y-109406485D02*
X128130350Y-109073152D01*
X128130350Y-109073152D02*
X128177969Y-108882676D01*
X128177969Y-108882676D02*
X128273207Y-108787438D01*
X128273207Y-108787438D02*
X128368445Y-108739819D01*
X128368445Y-108739819D02*
X128558921Y-108739819D01*
X128558921Y-108739819D02*
X128654159Y-108787438D01*
X128654159Y-108787438D02*
X128749397Y-108882676D01*
X128749397Y-108882676D02*
X128797016Y-109073152D01*
X128797016Y-109073152D02*
X128797016Y-109406485D01*
X128797016Y-109406485D02*
X128749397Y-109596961D01*
X128749397Y-109596961D02*
X128654159Y-109692200D01*
X128654159Y-109692200D02*
X128558921Y-109739819D01*
X128558921Y-109739819D02*
X128368445Y-109739819D01*
X129701778Y-108739819D02*
X129225588Y-108739819D01*
X129225588Y-108739819D02*
X129177969Y-109216009D01*
X129177969Y-109216009D02*
X129225588Y-109168390D01*
X129225588Y-109168390D02*
X129320826Y-109120771D01*
X129320826Y-109120771D02*
X129558921Y-109120771D01*
X129558921Y-109120771D02*
X129654159Y-109168390D01*
X129654159Y-109168390D02*
X129701778Y-109216009D01*
X129701778Y-109216009D02*
X129749397Y-109311247D01*
X129749397Y-109311247D02*
X129749397Y-109549342D01*
X129749397Y-109549342D02*
X129701778Y-109644580D01*
X129701778Y-109644580D02*
X129654159Y-109692200D01*
X129654159Y-109692200D02*
X129558921Y-109739819D01*
X129558921Y-109739819D02*
X129320826Y-109739819D01*
X129320826Y-109739819D02*
X129225588Y-109692200D01*
X129225588Y-109692200D02*
X129177969Y-109644580D01*
X102136792Y-94404580D02*
X102089173Y-94452200D01*
X102089173Y-94452200D02*
X101946316Y-94499819D01*
X101946316Y-94499819D02*
X101851078Y-94499819D01*
X101851078Y-94499819D02*
X101708221Y-94452200D01*
X101708221Y-94452200D02*
X101612983Y-94356961D01*
X101612983Y-94356961D02*
X101565364Y-94261723D01*
X101565364Y-94261723D02*
X101517745Y-94071247D01*
X101517745Y-94071247D02*
X101517745Y-93928390D01*
X101517745Y-93928390D02*
X101565364Y-93737914D01*
X101565364Y-93737914D02*
X101612983Y-93642676D01*
X101612983Y-93642676D02*
X101708221Y-93547438D01*
X101708221Y-93547438D02*
X101851078Y-93499819D01*
X101851078Y-93499819D02*
X101946316Y-93499819D01*
X101946316Y-93499819D02*
X102089173Y-93547438D01*
X102089173Y-93547438D02*
X102136792Y-93595057D01*
X102755840Y-93499819D02*
X102946316Y-93499819D01*
X102946316Y-93499819D02*
X103041554Y-93547438D01*
X103041554Y-93547438D02*
X103136792Y-93642676D01*
X103136792Y-93642676D02*
X103184411Y-93833152D01*
X103184411Y-93833152D02*
X103184411Y-94166485D01*
X103184411Y-94166485D02*
X103136792Y-94356961D01*
X103136792Y-94356961D02*
X103041554Y-94452200D01*
X103041554Y-94452200D02*
X102946316Y-94499819D01*
X102946316Y-94499819D02*
X102755840Y-94499819D01*
X102755840Y-94499819D02*
X102660602Y-94452200D01*
X102660602Y-94452200D02*
X102565364Y-94356961D01*
X102565364Y-94356961D02*
X102517745Y-94166485D01*
X102517745Y-94166485D02*
X102517745Y-93833152D01*
X102517745Y-93833152D02*
X102565364Y-93642676D01*
X102565364Y-93642676D02*
X102660602Y-93547438D01*
X102660602Y-93547438D02*
X102755840Y-93499819D01*
X103612983Y-94499819D02*
X103612983Y-93499819D01*
X103612983Y-93499819D02*
X103946316Y-94214104D01*
X103946316Y-94214104D02*
X104279649Y-93499819D01*
X104279649Y-93499819D02*
X104279649Y-94499819D01*
X105279649Y-94499819D02*
X104708221Y-94499819D01*
X104993935Y-94499819D02*
X104993935Y-93499819D01*
X104993935Y-93499819D02*
X104898697Y-93642676D01*
X104898697Y-93642676D02*
X104803459Y-93737914D01*
X104803459Y-93737914D02*
X104708221Y-93785533D01*
X105708221Y-94404580D02*
X105755840Y-94452200D01*
X105755840Y-94452200D02*
X105708221Y-94499819D01*
X105708221Y-94499819D02*
X105660602Y-94452200D01*
X105660602Y-94452200D02*
X105708221Y-94404580D01*
X105708221Y-94404580D02*
X105708221Y-94499819D01*
X105708221Y-93880771D02*
X105755840Y-93928390D01*
X105755840Y-93928390D02*
X105708221Y-93976009D01*
X105708221Y-93976009D02*
X105660602Y-93928390D01*
X105660602Y-93928390D02*
X105708221Y-93880771D01*
X105708221Y-93880771D02*
X105708221Y-93976009D01*
X102136792Y-98214580D02*
X102089173Y-98262200D01*
X102089173Y-98262200D02*
X101946316Y-98309819D01*
X101946316Y-98309819D02*
X101851078Y-98309819D01*
X101851078Y-98309819D02*
X101708221Y-98262200D01*
X101708221Y-98262200D02*
X101612983Y-98166961D01*
X101612983Y-98166961D02*
X101565364Y-98071723D01*
X101565364Y-98071723D02*
X101517745Y-97881247D01*
X101517745Y-97881247D02*
X101517745Y-97738390D01*
X101517745Y-97738390D02*
X101565364Y-97547914D01*
X101565364Y-97547914D02*
X101612983Y-97452676D01*
X101612983Y-97452676D02*
X101708221Y-97357438D01*
X101708221Y-97357438D02*
X101851078Y-97309819D01*
X101851078Y-97309819D02*
X101946316Y-97309819D01*
X101946316Y-97309819D02*
X102089173Y-97357438D01*
X102089173Y-97357438D02*
X102136792Y-97405057D01*
X102755840Y-97309819D02*
X102946316Y-97309819D01*
X102946316Y-97309819D02*
X103041554Y-97357438D01*
X103041554Y-97357438D02*
X103136792Y-97452676D01*
X103136792Y-97452676D02*
X103184411Y-97643152D01*
X103184411Y-97643152D02*
X103184411Y-97976485D01*
X103184411Y-97976485D02*
X103136792Y-98166961D01*
X103136792Y-98166961D02*
X103041554Y-98262200D01*
X103041554Y-98262200D02*
X102946316Y-98309819D01*
X102946316Y-98309819D02*
X102755840Y-98309819D01*
X102755840Y-98309819D02*
X102660602Y-98262200D01*
X102660602Y-98262200D02*
X102565364Y-98166961D01*
X102565364Y-98166961D02*
X102517745Y-97976485D01*
X102517745Y-97976485D02*
X102517745Y-97643152D01*
X102517745Y-97643152D02*
X102565364Y-97452676D01*
X102565364Y-97452676D02*
X102660602Y-97357438D01*
X102660602Y-97357438D02*
X102755840Y-97309819D01*
X103612983Y-98309819D02*
X103612983Y-97309819D01*
X103612983Y-97309819D02*
X103946316Y-98024104D01*
X103946316Y-98024104D02*
X104279649Y-97309819D01*
X104279649Y-97309819D02*
X104279649Y-98309819D01*
X104708221Y-97405057D02*
X104755840Y-97357438D01*
X104755840Y-97357438D02*
X104851078Y-97309819D01*
X104851078Y-97309819D02*
X105089173Y-97309819D01*
X105089173Y-97309819D02*
X105184411Y-97357438D01*
X105184411Y-97357438D02*
X105232030Y-97405057D01*
X105232030Y-97405057D02*
X105279649Y-97500295D01*
X105279649Y-97500295D02*
X105279649Y-97595533D01*
X105279649Y-97595533D02*
X105232030Y-97738390D01*
X105232030Y-97738390D02*
X104660602Y-98309819D01*
X104660602Y-98309819D02*
X105279649Y-98309819D01*
X105708221Y-98214580D02*
X105755840Y-98262200D01*
X105755840Y-98262200D02*
X105708221Y-98309819D01*
X105708221Y-98309819D02*
X105660602Y-98262200D01*
X105660602Y-98262200D02*
X105708221Y-98214580D01*
X105708221Y-98214580D02*
X105708221Y-98309819D01*
X105708221Y-97690771D02*
X105755840Y-97738390D01*
X105755840Y-97738390D02*
X105708221Y-97786009D01*
X105708221Y-97786009D02*
X105660602Y-97738390D01*
X105660602Y-97738390D02*
X105708221Y-97690771D01*
X105708221Y-97690771D02*
X105708221Y-97786009D01*
X102136792Y-102024580D02*
X102089173Y-102072200D01*
X102089173Y-102072200D02*
X101946316Y-102119819D01*
X101946316Y-102119819D02*
X101851078Y-102119819D01*
X101851078Y-102119819D02*
X101708221Y-102072200D01*
X101708221Y-102072200D02*
X101612983Y-101976961D01*
X101612983Y-101976961D02*
X101565364Y-101881723D01*
X101565364Y-101881723D02*
X101517745Y-101691247D01*
X101517745Y-101691247D02*
X101517745Y-101548390D01*
X101517745Y-101548390D02*
X101565364Y-101357914D01*
X101565364Y-101357914D02*
X101612983Y-101262676D01*
X101612983Y-101262676D02*
X101708221Y-101167438D01*
X101708221Y-101167438D02*
X101851078Y-101119819D01*
X101851078Y-101119819D02*
X101946316Y-101119819D01*
X101946316Y-101119819D02*
X102089173Y-101167438D01*
X102089173Y-101167438D02*
X102136792Y-101215057D01*
X102755840Y-101119819D02*
X102946316Y-101119819D01*
X102946316Y-101119819D02*
X103041554Y-101167438D01*
X103041554Y-101167438D02*
X103136792Y-101262676D01*
X103136792Y-101262676D02*
X103184411Y-101453152D01*
X103184411Y-101453152D02*
X103184411Y-101786485D01*
X103184411Y-101786485D02*
X103136792Y-101976961D01*
X103136792Y-101976961D02*
X103041554Y-102072200D01*
X103041554Y-102072200D02*
X102946316Y-102119819D01*
X102946316Y-102119819D02*
X102755840Y-102119819D01*
X102755840Y-102119819D02*
X102660602Y-102072200D01*
X102660602Y-102072200D02*
X102565364Y-101976961D01*
X102565364Y-101976961D02*
X102517745Y-101786485D01*
X102517745Y-101786485D02*
X102517745Y-101453152D01*
X102517745Y-101453152D02*
X102565364Y-101262676D01*
X102565364Y-101262676D02*
X102660602Y-101167438D01*
X102660602Y-101167438D02*
X102755840Y-101119819D01*
X103612983Y-102119819D02*
X103612983Y-101119819D01*
X103612983Y-101119819D02*
X103946316Y-101834104D01*
X103946316Y-101834104D02*
X104279649Y-101119819D01*
X104279649Y-101119819D02*
X104279649Y-102119819D01*
X104660602Y-101119819D02*
X105279649Y-101119819D01*
X105279649Y-101119819D02*
X104946316Y-101500771D01*
X104946316Y-101500771D02*
X105089173Y-101500771D01*
X105089173Y-101500771D02*
X105184411Y-101548390D01*
X105184411Y-101548390D02*
X105232030Y-101596009D01*
X105232030Y-101596009D02*
X105279649Y-101691247D01*
X105279649Y-101691247D02*
X105279649Y-101929342D01*
X105279649Y-101929342D02*
X105232030Y-102024580D01*
X105232030Y-102024580D02*
X105184411Y-102072200D01*
X105184411Y-102072200D02*
X105089173Y-102119819D01*
X105089173Y-102119819D02*
X104803459Y-102119819D01*
X104803459Y-102119819D02*
X104708221Y-102072200D01*
X104708221Y-102072200D02*
X104660602Y-102024580D01*
X105708221Y-102024580D02*
X105755840Y-102072200D01*
X105755840Y-102072200D02*
X105708221Y-102119819D01*
X105708221Y-102119819D02*
X105660602Y-102072200D01*
X105660602Y-102072200D02*
X105708221Y-102024580D01*
X105708221Y-102024580D02*
X105708221Y-102119819D01*
X105708221Y-101500771D02*
X105755840Y-101548390D01*
X105755840Y-101548390D02*
X105708221Y-101596009D01*
X105708221Y-101596009D02*
X105660602Y-101548390D01*
X105660602Y-101548390D02*
X105708221Y-101500771D01*
X105708221Y-101500771D02*
X105708221Y-101596009D01*
D13*
X181340714Y-93328112D02*
X181769286Y-93470969D01*
X181769286Y-93470969D02*
X181912143Y-93613826D01*
X181912143Y-93613826D02*
X182055000Y-93899541D01*
X182055000Y-93899541D02*
X182055000Y-94328112D01*
X182055000Y-94328112D02*
X181912143Y-94613826D01*
X181912143Y-94613826D02*
X181769286Y-94756684D01*
X181769286Y-94756684D02*
X181483571Y-94899541D01*
X181483571Y-94899541D02*
X180340714Y-94899541D01*
X180340714Y-94899541D02*
X180340714Y-91899541D01*
X180340714Y-91899541D02*
X181340714Y-91899541D01*
X181340714Y-91899541D02*
X181626429Y-92042398D01*
X181626429Y-92042398D02*
X181769286Y-92185255D01*
X181769286Y-92185255D02*
X181912143Y-92470969D01*
X181912143Y-92470969D02*
X181912143Y-92756684D01*
X181912143Y-92756684D02*
X181769286Y-93042398D01*
X181769286Y-93042398D02*
X181626429Y-93185255D01*
X181626429Y-93185255D02*
X181340714Y-93328112D01*
X181340714Y-93328112D02*
X180340714Y-93328112D01*
X183197857Y-94042398D02*
X184626429Y-94042398D01*
X182912143Y-94899541D02*
X183912143Y-91899541D01*
X183912143Y-91899541D02*
X184912143Y-94899541D01*
X185769286Y-94756684D02*
X186197858Y-94899541D01*
X186197858Y-94899541D02*
X186912143Y-94899541D01*
X186912143Y-94899541D02*
X187197858Y-94756684D01*
X187197858Y-94756684D02*
X187340715Y-94613826D01*
X187340715Y-94613826D02*
X187483572Y-94328112D01*
X187483572Y-94328112D02*
X187483572Y-94042398D01*
X187483572Y-94042398D02*
X187340715Y-93756684D01*
X187340715Y-93756684D02*
X187197858Y-93613826D01*
X187197858Y-93613826D02*
X186912143Y-93470969D01*
X186912143Y-93470969D02*
X186340715Y-93328112D01*
X186340715Y-93328112D02*
X186055000Y-93185255D01*
X186055000Y-93185255D02*
X185912143Y-93042398D01*
X185912143Y-93042398D02*
X185769286Y-92756684D01*
X185769286Y-92756684D02*
X185769286Y-92470969D01*
X185769286Y-92470969D02*
X185912143Y-92185255D01*
X185912143Y-92185255D02*
X186055000Y-92042398D01*
X186055000Y-92042398D02*
X186340715Y-91899541D01*
X186340715Y-91899541D02*
X187055000Y-91899541D01*
X187055000Y-91899541D02*
X187483572Y-92042398D01*
X188769286Y-94899541D02*
X188769286Y-91899541D01*
X191912143Y-94613826D02*
X191769286Y-94756684D01*
X191769286Y-94756684D02*
X191340714Y-94899541D01*
X191340714Y-94899541D02*
X191055000Y-94899541D01*
X191055000Y-94899541D02*
X190626429Y-94756684D01*
X190626429Y-94756684D02*
X190340714Y-94470969D01*
X190340714Y-94470969D02*
X190197857Y-94185255D01*
X190197857Y-94185255D02*
X190055000Y-93613826D01*
X190055000Y-93613826D02*
X190055000Y-93185255D01*
X190055000Y-93185255D02*
X190197857Y-92613826D01*
X190197857Y-92613826D02*
X190340714Y-92328112D01*
X190340714Y-92328112D02*
X190626429Y-92042398D01*
X190626429Y-92042398D02*
X191055000Y-91899541D01*
X191055000Y-91899541D02*
X191340714Y-91899541D01*
X191340714Y-91899541D02*
X191769286Y-92042398D01*
X191769286Y-92042398D02*
X191912143Y-92185255D01*
X179126428Y-99586516D02*
X179555000Y-99729373D01*
X179555000Y-99729373D02*
X180269285Y-99729373D01*
X180269285Y-99729373D02*
X180555000Y-99586516D01*
X180555000Y-99586516D02*
X180697857Y-99443658D01*
X180697857Y-99443658D02*
X180840714Y-99157944D01*
X180840714Y-99157944D02*
X180840714Y-98872230D01*
X180840714Y-98872230D02*
X180697857Y-98586516D01*
X180697857Y-98586516D02*
X180555000Y-98443658D01*
X180555000Y-98443658D02*
X180269285Y-98300801D01*
X180269285Y-98300801D02*
X179697857Y-98157944D01*
X179697857Y-98157944D02*
X179412142Y-98015087D01*
X179412142Y-98015087D02*
X179269285Y-97872230D01*
X179269285Y-97872230D02*
X179126428Y-97586516D01*
X179126428Y-97586516D02*
X179126428Y-97300801D01*
X179126428Y-97300801D02*
X179269285Y-97015087D01*
X179269285Y-97015087D02*
X179412142Y-96872230D01*
X179412142Y-96872230D02*
X179697857Y-96729373D01*
X179697857Y-96729373D02*
X180412142Y-96729373D01*
X180412142Y-96729373D02*
X180840714Y-96872230D01*
X182126428Y-98157944D02*
X183126428Y-98157944D01*
X183555000Y-99729373D02*
X182126428Y-99729373D01*
X182126428Y-99729373D02*
X182126428Y-96729373D01*
X182126428Y-96729373D02*
X183555000Y-96729373D01*
X186555000Y-99729373D02*
X185555000Y-98300801D01*
X184840714Y-99729373D02*
X184840714Y-96729373D01*
X184840714Y-96729373D02*
X185983571Y-96729373D01*
X185983571Y-96729373D02*
X186269286Y-96872230D01*
X186269286Y-96872230D02*
X186412143Y-97015087D01*
X186412143Y-97015087D02*
X186555000Y-97300801D01*
X186555000Y-97300801D02*
X186555000Y-97729373D01*
X186555000Y-97729373D02*
X186412143Y-98015087D01*
X186412143Y-98015087D02*
X186269286Y-98157944D01*
X186269286Y-98157944D02*
X185983571Y-98300801D01*
X185983571Y-98300801D02*
X184840714Y-98300801D01*
X187840714Y-99729373D02*
X187840714Y-96729373D01*
X189126428Y-98872230D02*
X190555000Y-98872230D01*
X188840714Y-99729373D02*
X189840714Y-96729373D01*
X189840714Y-96729373D02*
X190840714Y-99729373D01*
X193269286Y-99729373D02*
X191840714Y-99729373D01*
X191840714Y-99729373D02*
X191840714Y-96729373D01*
D12*
X180609524Y-103739903D02*
X180942857Y-104739903D01*
X180942857Y-104739903D02*
X181276190Y-103739903D01*
X181990476Y-104692284D02*
X181895238Y-104739903D01*
X181895238Y-104739903D02*
X181704762Y-104739903D01*
X181704762Y-104739903D02*
X181609524Y-104692284D01*
X181609524Y-104692284D02*
X181561905Y-104597045D01*
X181561905Y-104597045D02*
X181561905Y-104216093D01*
X181561905Y-104216093D02*
X181609524Y-104120855D01*
X181609524Y-104120855D02*
X181704762Y-104073236D01*
X181704762Y-104073236D02*
X181895238Y-104073236D01*
X181895238Y-104073236D02*
X181990476Y-104120855D01*
X181990476Y-104120855D02*
X182038095Y-104216093D01*
X182038095Y-104216093D02*
X182038095Y-104311331D01*
X182038095Y-104311331D02*
X181561905Y-104406569D01*
X182466667Y-104739903D02*
X182466667Y-104073236D01*
X182466667Y-104263712D02*
X182514286Y-104168474D01*
X182514286Y-104168474D02*
X182561905Y-104120855D01*
X182561905Y-104120855D02*
X182657143Y-104073236D01*
X182657143Y-104073236D02*
X182752381Y-104073236D01*
X183038096Y-104692284D02*
X183133334Y-104739903D01*
X183133334Y-104739903D02*
X183323810Y-104739903D01*
X183323810Y-104739903D02*
X183419048Y-104692284D01*
X183419048Y-104692284D02*
X183466667Y-104597045D01*
X183466667Y-104597045D02*
X183466667Y-104549426D01*
X183466667Y-104549426D02*
X183419048Y-104454188D01*
X183419048Y-104454188D02*
X183323810Y-104406569D01*
X183323810Y-104406569D02*
X183180953Y-104406569D01*
X183180953Y-104406569D02*
X183085715Y-104358950D01*
X183085715Y-104358950D02*
X183038096Y-104263712D01*
X183038096Y-104263712D02*
X183038096Y-104216093D01*
X183038096Y-104216093D02*
X183085715Y-104120855D01*
X183085715Y-104120855D02*
X183180953Y-104073236D01*
X183180953Y-104073236D02*
X183323810Y-104073236D01*
X183323810Y-104073236D02*
X183419048Y-104120855D01*
X183895239Y-104739903D02*
X183895239Y-104073236D01*
X183895239Y-103739903D02*
X183847620Y-103787522D01*
X183847620Y-103787522D02*
X183895239Y-103835141D01*
X183895239Y-103835141D02*
X183942858Y-103787522D01*
X183942858Y-103787522D02*
X183895239Y-103739903D01*
X183895239Y-103739903D02*
X183895239Y-103835141D01*
X184514286Y-104739903D02*
X184419048Y-104692284D01*
X184419048Y-104692284D02*
X184371429Y-104644664D01*
X184371429Y-104644664D02*
X184323810Y-104549426D01*
X184323810Y-104549426D02*
X184323810Y-104263712D01*
X184323810Y-104263712D02*
X184371429Y-104168474D01*
X184371429Y-104168474D02*
X184419048Y-104120855D01*
X184419048Y-104120855D02*
X184514286Y-104073236D01*
X184514286Y-104073236D02*
X184657143Y-104073236D01*
X184657143Y-104073236D02*
X184752381Y-104120855D01*
X184752381Y-104120855D02*
X184800000Y-104168474D01*
X184800000Y-104168474D02*
X184847619Y-104263712D01*
X184847619Y-104263712D02*
X184847619Y-104549426D01*
X184847619Y-104549426D02*
X184800000Y-104644664D01*
X184800000Y-104644664D02*
X184752381Y-104692284D01*
X184752381Y-104692284D02*
X184657143Y-104739903D01*
X184657143Y-104739903D02*
X184514286Y-104739903D01*
X185276191Y-104073236D02*
X185276191Y-104739903D01*
X185276191Y-104168474D02*
X185323810Y-104120855D01*
X185323810Y-104120855D02*
X185419048Y-104073236D01*
X185419048Y-104073236D02*
X185561905Y-104073236D01*
X185561905Y-104073236D02*
X185657143Y-104120855D01*
X185657143Y-104120855D02*
X185704762Y-104216093D01*
X185704762Y-104216093D02*
X185704762Y-104739903D01*
X187466667Y-104739903D02*
X186895239Y-104739903D01*
X187180953Y-104739903D02*
X187180953Y-103739903D01*
X187180953Y-103739903D02*
X187085715Y-103882760D01*
X187085715Y-103882760D02*
X186990477Y-103977998D01*
X186990477Y-103977998D02*
X186895239Y-104025617D01*
X187895239Y-104644664D02*
X187942858Y-104692284D01*
X187942858Y-104692284D02*
X187895239Y-104739903D01*
X187895239Y-104739903D02*
X187847620Y-104692284D01*
X187847620Y-104692284D02*
X187895239Y-104644664D01*
X187895239Y-104644664D02*
X187895239Y-104739903D01*
X188561905Y-103739903D02*
X188657143Y-103739903D01*
X188657143Y-103739903D02*
X188752381Y-103787522D01*
X188752381Y-103787522D02*
X188800000Y-103835141D01*
X188800000Y-103835141D02*
X188847619Y-103930379D01*
X188847619Y-103930379D02*
X188895238Y-104120855D01*
X188895238Y-104120855D02*
X188895238Y-104358950D01*
X188895238Y-104358950D02*
X188847619Y-104549426D01*
X188847619Y-104549426D02*
X188800000Y-104644664D01*
X188800000Y-104644664D02*
X188752381Y-104692284D01*
X188752381Y-104692284D02*
X188657143Y-104739903D01*
X188657143Y-104739903D02*
X188561905Y-104739903D01*
X188561905Y-104739903D02*
X188466667Y-104692284D01*
X188466667Y-104692284D02*
X188419048Y-104644664D01*
X188419048Y-104644664D02*
X188371429Y-104549426D01*
X188371429Y-104549426D02*
X188323810Y-104358950D01*
X188323810Y-104358950D02*
X188323810Y-104120855D01*
X188323810Y-104120855D02*
X188371429Y-103930379D01*
X188371429Y-103930379D02*
X188419048Y-103835141D01*
X188419048Y-103835141D02*
X188466667Y-103787522D01*
X188466667Y-103787522D02*
X188561905Y-103739903D01*
X173514285Y-107959791D02*
X173514285Y-106959791D01*
X173942856Y-107959791D02*
X173942856Y-107435981D01*
X173942856Y-107435981D02*
X173895237Y-107340743D01*
X173895237Y-107340743D02*
X173799999Y-107293124D01*
X173799999Y-107293124D02*
X173657142Y-107293124D01*
X173657142Y-107293124D02*
X173561904Y-107340743D01*
X173561904Y-107340743D02*
X173514285Y-107388362D01*
X174276190Y-107293124D02*
X174657142Y-107293124D01*
X174419047Y-106959791D02*
X174419047Y-107816933D01*
X174419047Y-107816933D02*
X174466666Y-107912172D01*
X174466666Y-107912172D02*
X174561904Y-107959791D01*
X174561904Y-107959791D02*
X174657142Y-107959791D01*
X174847619Y-107293124D02*
X175228571Y-107293124D01*
X174990476Y-106959791D02*
X174990476Y-107816933D01*
X174990476Y-107816933D02*
X175038095Y-107912172D01*
X175038095Y-107912172D02*
X175133333Y-107959791D01*
X175133333Y-107959791D02*
X175228571Y-107959791D01*
X175561905Y-107293124D02*
X175561905Y-108293124D01*
X175561905Y-107340743D02*
X175657143Y-107293124D01*
X175657143Y-107293124D02*
X175847619Y-107293124D01*
X175847619Y-107293124D02*
X175942857Y-107340743D01*
X175942857Y-107340743D02*
X175990476Y-107388362D01*
X175990476Y-107388362D02*
X176038095Y-107483600D01*
X176038095Y-107483600D02*
X176038095Y-107769314D01*
X176038095Y-107769314D02*
X175990476Y-107864552D01*
X175990476Y-107864552D02*
X175942857Y-107912172D01*
X175942857Y-107912172D02*
X175847619Y-107959791D01*
X175847619Y-107959791D02*
X175657143Y-107959791D01*
X175657143Y-107959791D02*
X175561905Y-107912172D01*
X176419048Y-107912172D02*
X176514286Y-107959791D01*
X176514286Y-107959791D02*
X176704762Y-107959791D01*
X176704762Y-107959791D02*
X176800000Y-107912172D01*
X176800000Y-107912172D02*
X176847619Y-107816933D01*
X176847619Y-107816933D02*
X176847619Y-107769314D01*
X176847619Y-107769314D02*
X176800000Y-107674076D01*
X176800000Y-107674076D02*
X176704762Y-107626457D01*
X176704762Y-107626457D02*
X176561905Y-107626457D01*
X176561905Y-107626457D02*
X176466667Y-107578838D01*
X176466667Y-107578838D02*
X176419048Y-107483600D01*
X176419048Y-107483600D02*
X176419048Y-107435981D01*
X176419048Y-107435981D02*
X176466667Y-107340743D01*
X176466667Y-107340743D02*
X176561905Y-107293124D01*
X176561905Y-107293124D02*
X176704762Y-107293124D01*
X176704762Y-107293124D02*
X176800000Y-107340743D01*
X177276191Y-107864552D02*
X177323810Y-107912172D01*
X177323810Y-107912172D02*
X177276191Y-107959791D01*
X177276191Y-107959791D02*
X177228572Y-107912172D01*
X177228572Y-107912172D02*
X177276191Y-107864552D01*
X177276191Y-107864552D02*
X177276191Y-107959791D01*
X177276191Y-107340743D02*
X177323810Y-107388362D01*
X177323810Y-107388362D02*
X177276191Y-107435981D01*
X177276191Y-107435981D02*
X177228572Y-107388362D01*
X177228572Y-107388362D02*
X177276191Y-107340743D01*
X177276191Y-107340743D02*
X177276191Y-107435981D01*
X178466666Y-106912172D02*
X177609524Y-108197886D01*
X179514285Y-106912172D02*
X178657143Y-108197886D01*
X180276190Y-107293124D02*
X180276190Y-108102648D01*
X180276190Y-108102648D02*
X180228571Y-108197886D01*
X180228571Y-108197886D02*
X180180952Y-108245505D01*
X180180952Y-108245505D02*
X180085714Y-108293124D01*
X180085714Y-108293124D02*
X179942857Y-108293124D01*
X179942857Y-108293124D02*
X179847619Y-108245505D01*
X180276190Y-107912172D02*
X180180952Y-107959791D01*
X180180952Y-107959791D02*
X179990476Y-107959791D01*
X179990476Y-107959791D02*
X179895238Y-107912172D01*
X179895238Y-107912172D02*
X179847619Y-107864552D01*
X179847619Y-107864552D02*
X179800000Y-107769314D01*
X179800000Y-107769314D02*
X179800000Y-107483600D01*
X179800000Y-107483600D02*
X179847619Y-107388362D01*
X179847619Y-107388362D02*
X179895238Y-107340743D01*
X179895238Y-107340743D02*
X179990476Y-107293124D01*
X179990476Y-107293124D02*
X180180952Y-107293124D01*
X180180952Y-107293124D02*
X180276190Y-107340743D01*
X180752381Y-107959791D02*
X180752381Y-107293124D01*
X180752381Y-106959791D02*
X180704762Y-107007410D01*
X180704762Y-107007410D02*
X180752381Y-107055029D01*
X180752381Y-107055029D02*
X180800000Y-107007410D01*
X180800000Y-107007410D02*
X180752381Y-106959791D01*
X180752381Y-106959791D02*
X180752381Y-107055029D01*
X181085714Y-107293124D02*
X181466666Y-107293124D01*
X181228571Y-106959791D02*
X181228571Y-107816933D01*
X181228571Y-107816933D02*
X181276190Y-107912172D01*
X181276190Y-107912172D02*
X181371428Y-107959791D01*
X181371428Y-107959791D02*
X181466666Y-107959791D01*
X181800000Y-107959791D02*
X181800000Y-106959791D01*
X182228571Y-107959791D02*
X182228571Y-107435981D01*
X182228571Y-107435981D02*
X182180952Y-107340743D01*
X182180952Y-107340743D02*
X182085714Y-107293124D01*
X182085714Y-107293124D02*
X181942857Y-107293124D01*
X181942857Y-107293124D02*
X181847619Y-107340743D01*
X181847619Y-107340743D02*
X181800000Y-107388362D01*
X183133333Y-107293124D02*
X183133333Y-107959791D01*
X182704762Y-107293124D02*
X182704762Y-107816933D01*
X182704762Y-107816933D02*
X182752381Y-107912172D01*
X182752381Y-107912172D02*
X182847619Y-107959791D01*
X182847619Y-107959791D02*
X182990476Y-107959791D01*
X182990476Y-107959791D02*
X183085714Y-107912172D01*
X183085714Y-107912172D02*
X183133333Y-107864552D01*
X183609524Y-107959791D02*
X183609524Y-106959791D01*
X183609524Y-107340743D02*
X183704762Y-107293124D01*
X183704762Y-107293124D02*
X183895238Y-107293124D01*
X183895238Y-107293124D02*
X183990476Y-107340743D01*
X183990476Y-107340743D02*
X184038095Y-107388362D01*
X184038095Y-107388362D02*
X184085714Y-107483600D01*
X184085714Y-107483600D02*
X184085714Y-107769314D01*
X184085714Y-107769314D02*
X184038095Y-107864552D01*
X184038095Y-107864552D02*
X183990476Y-107912172D01*
X183990476Y-107912172D02*
X183895238Y-107959791D01*
X183895238Y-107959791D02*
X183704762Y-107959791D01*
X183704762Y-107959791D02*
X183609524Y-107912172D01*
X184514286Y-107864552D02*
X184561905Y-107912172D01*
X184561905Y-107912172D02*
X184514286Y-107959791D01*
X184514286Y-107959791D02*
X184466667Y-107912172D01*
X184466667Y-107912172D02*
X184514286Y-107864552D01*
X184514286Y-107864552D02*
X184514286Y-107959791D01*
X185419047Y-107912172D02*
X185323809Y-107959791D01*
X185323809Y-107959791D02*
X185133333Y-107959791D01*
X185133333Y-107959791D02*
X185038095Y-107912172D01*
X185038095Y-107912172D02*
X184990476Y-107864552D01*
X184990476Y-107864552D02*
X184942857Y-107769314D01*
X184942857Y-107769314D02*
X184942857Y-107483600D01*
X184942857Y-107483600D02*
X184990476Y-107388362D01*
X184990476Y-107388362D02*
X185038095Y-107340743D01*
X185038095Y-107340743D02*
X185133333Y-107293124D01*
X185133333Y-107293124D02*
X185323809Y-107293124D01*
X185323809Y-107293124D02*
X185419047Y-107340743D01*
X185990476Y-107959791D02*
X185895238Y-107912172D01*
X185895238Y-107912172D02*
X185847619Y-107864552D01*
X185847619Y-107864552D02*
X185800000Y-107769314D01*
X185800000Y-107769314D02*
X185800000Y-107483600D01*
X185800000Y-107483600D02*
X185847619Y-107388362D01*
X185847619Y-107388362D02*
X185895238Y-107340743D01*
X185895238Y-107340743D02*
X185990476Y-107293124D01*
X185990476Y-107293124D02*
X186133333Y-107293124D01*
X186133333Y-107293124D02*
X186228571Y-107340743D01*
X186228571Y-107340743D02*
X186276190Y-107388362D01*
X186276190Y-107388362D02*
X186323809Y-107483600D01*
X186323809Y-107483600D02*
X186323809Y-107769314D01*
X186323809Y-107769314D02*
X186276190Y-107864552D01*
X186276190Y-107864552D02*
X186228571Y-107912172D01*
X186228571Y-107912172D02*
X186133333Y-107959791D01*
X186133333Y-107959791D02*
X185990476Y-107959791D01*
X186752381Y-107959791D02*
X186752381Y-107293124D01*
X186752381Y-107388362D02*
X186800000Y-107340743D01*
X186800000Y-107340743D02*
X186895238Y-107293124D01*
X186895238Y-107293124D02*
X187038095Y-107293124D01*
X187038095Y-107293124D02*
X187133333Y-107340743D01*
X187133333Y-107340743D02*
X187180952Y-107435981D01*
X187180952Y-107435981D02*
X187180952Y-107959791D01*
X187180952Y-107435981D02*
X187228571Y-107340743D01*
X187228571Y-107340743D02*
X187323809Y-107293124D01*
X187323809Y-107293124D02*
X187466666Y-107293124D01*
X187466666Y-107293124D02*
X187561905Y-107340743D01*
X187561905Y-107340743D02*
X187609524Y-107435981D01*
X187609524Y-107435981D02*
X187609524Y-107959791D01*
X188799999Y-106912172D02*
X187942857Y-108197886D01*
X189133333Y-107959791D02*
X189133333Y-106959791D01*
X189228571Y-107578838D02*
X189514285Y-107959791D01*
X189514285Y-107293124D02*
X189133333Y-107674076D01*
X190323809Y-107912172D02*
X190228571Y-107959791D01*
X190228571Y-107959791D02*
X190038095Y-107959791D01*
X190038095Y-107959791D02*
X189942857Y-107912172D01*
X189942857Y-107912172D02*
X189895238Y-107816933D01*
X189895238Y-107816933D02*
X189895238Y-107435981D01*
X189895238Y-107435981D02*
X189942857Y-107340743D01*
X189942857Y-107340743D02*
X190038095Y-107293124D01*
X190038095Y-107293124D02*
X190228571Y-107293124D01*
X190228571Y-107293124D02*
X190323809Y-107340743D01*
X190323809Y-107340743D02*
X190371428Y-107435981D01*
X190371428Y-107435981D02*
X190371428Y-107531219D01*
X190371428Y-107531219D02*
X189895238Y-107626457D01*
X190800000Y-107959791D02*
X190800000Y-107293124D01*
X190800000Y-107483600D02*
X190847619Y-107388362D01*
X190847619Y-107388362D02*
X190895238Y-107340743D01*
X190895238Y-107340743D02*
X190990476Y-107293124D01*
X190990476Y-107293124D02*
X191085714Y-107293124D01*
X191561905Y-107959791D02*
X191466667Y-107912172D01*
X191466667Y-107912172D02*
X191419048Y-107864552D01*
X191419048Y-107864552D02*
X191371429Y-107769314D01*
X191371429Y-107769314D02*
X191371429Y-107483600D01*
X191371429Y-107483600D02*
X191419048Y-107388362D01*
X191419048Y-107388362D02*
X191466667Y-107340743D01*
X191466667Y-107340743D02*
X191561905Y-107293124D01*
X191561905Y-107293124D02*
X191704762Y-107293124D01*
X191704762Y-107293124D02*
X191800000Y-107340743D01*
X191800000Y-107340743D02*
X191847619Y-107388362D01*
X191847619Y-107388362D02*
X191895238Y-107483600D01*
X191895238Y-107483600D02*
X191895238Y-107769314D01*
X191895238Y-107769314D02*
X191847619Y-107864552D01*
X191847619Y-107864552D02*
X191800000Y-107912172D01*
X191800000Y-107912172D02*
X191704762Y-107959791D01*
X191704762Y-107959791D02*
X191561905Y-107959791D01*
X192323810Y-107293124D02*
X192323810Y-107959791D01*
X192323810Y-107388362D02*
X192371429Y-107340743D01*
X192371429Y-107340743D02*
X192466667Y-107293124D01*
X192466667Y-107293124D02*
X192609524Y-107293124D01*
X192609524Y-107293124D02*
X192704762Y-107340743D01*
X192704762Y-107340743D02*
X192752381Y-107435981D01*
X192752381Y-107435981D02*
X192752381Y-107959791D01*
X193228572Y-107959791D02*
X193228572Y-107293124D01*
X193228572Y-106959791D02*
X193180953Y-107007410D01*
X193180953Y-107007410D02*
X193228572Y-107055029D01*
X193228572Y-107055029D02*
X193276191Y-107007410D01*
X193276191Y-107007410D02*
X193228572Y-106959791D01*
X193228572Y-106959791D02*
X193228572Y-107055029D01*
X194133333Y-107959791D02*
X194133333Y-107435981D01*
X194133333Y-107435981D02*
X194085714Y-107340743D01*
X194085714Y-107340743D02*
X193990476Y-107293124D01*
X193990476Y-107293124D02*
X193800000Y-107293124D01*
X193800000Y-107293124D02*
X193704762Y-107340743D01*
X194133333Y-107912172D02*
X194038095Y-107959791D01*
X194038095Y-107959791D02*
X193800000Y-107959791D01*
X193800000Y-107959791D02*
X193704762Y-107912172D01*
X193704762Y-107912172D02*
X193657143Y-107816933D01*
X193657143Y-107816933D02*
X193657143Y-107721695D01*
X193657143Y-107721695D02*
X193704762Y-107626457D01*
X193704762Y-107626457D02*
X193800000Y-107578838D01*
X193800000Y-107578838D02*
X194038095Y-107578838D01*
X194038095Y-107578838D02*
X194133333Y-107531219D01*
X194609524Y-107293124D02*
X194609524Y-107959791D01*
X194609524Y-107388362D02*
X194657143Y-107340743D01*
X194657143Y-107340743D02*
X194752381Y-107293124D01*
X194752381Y-107293124D02*
X194895238Y-107293124D01*
X194895238Y-107293124D02*
X194990476Y-107340743D01*
X194990476Y-107340743D02*
X195038095Y-107435981D01*
X195038095Y-107435981D02*
X195038095Y-107959791D01*
X196228571Y-106912172D02*
X195371429Y-108197886D01*
X176990476Y-108569735D02*
X177561904Y-108569735D01*
X177276190Y-109569735D02*
X177276190Y-108569735D01*
X178323809Y-109569735D02*
X178323809Y-109045925D01*
X178323809Y-109045925D02*
X178276190Y-108950687D01*
X178276190Y-108950687D02*
X178180952Y-108903068D01*
X178180952Y-108903068D02*
X177990476Y-108903068D01*
X177990476Y-108903068D02*
X177895238Y-108950687D01*
X178323809Y-109522116D02*
X178228571Y-109569735D01*
X178228571Y-109569735D02*
X177990476Y-109569735D01*
X177990476Y-109569735D02*
X177895238Y-109522116D01*
X177895238Y-109522116D02*
X177847619Y-109426877D01*
X177847619Y-109426877D02*
X177847619Y-109331639D01*
X177847619Y-109331639D02*
X177895238Y-109236401D01*
X177895238Y-109236401D02*
X177990476Y-109188782D01*
X177990476Y-109188782D02*
X178228571Y-109188782D01*
X178228571Y-109188782D02*
X178323809Y-109141163D01*
X178800000Y-108903068D02*
X178800000Y-109569735D01*
X178800000Y-108998306D02*
X178847619Y-108950687D01*
X178847619Y-108950687D02*
X178942857Y-108903068D01*
X178942857Y-108903068D02*
X179085714Y-108903068D01*
X179085714Y-108903068D02*
X179180952Y-108950687D01*
X179180952Y-108950687D02*
X179228571Y-109045925D01*
X179228571Y-109045925D02*
X179228571Y-109569735D01*
X180133333Y-109569735D02*
X180133333Y-108569735D01*
X180133333Y-109522116D02*
X180038095Y-109569735D01*
X180038095Y-109569735D02*
X179847619Y-109569735D01*
X179847619Y-109569735D02*
X179752381Y-109522116D01*
X179752381Y-109522116D02*
X179704762Y-109474496D01*
X179704762Y-109474496D02*
X179657143Y-109379258D01*
X179657143Y-109379258D02*
X179657143Y-109093544D01*
X179657143Y-109093544D02*
X179704762Y-108998306D01*
X179704762Y-108998306D02*
X179752381Y-108950687D01*
X179752381Y-108950687D02*
X179847619Y-108903068D01*
X179847619Y-108903068D02*
X180038095Y-108903068D01*
X180038095Y-108903068D02*
X180133333Y-108950687D01*
X180514286Y-108903068D02*
X180752381Y-109569735D01*
X180990476Y-108903068D02*
X180752381Y-109569735D01*
X180752381Y-109569735D02*
X180657143Y-109807830D01*
X180657143Y-109807830D02*
X180609524Y-109855449D01*
X180609524Y-109855449D02*
X180514286Y-109903068D01*
X181371429Y-109188782D02*
X182133334Y-109188782D01*
X182609524Y-109569735D02*
X182609524Y-108569735D01*
X182609524Y-108569735D02*
X182990476Y-108569735D01*
X182990476Y-108569735D02*
X183085714Y-108617354D01*
X183085714Y-108617354D02*
X183133333Y-108664973D01*
X183133333Y-108664973D02*
X183180952Y-108760211D01*
X183180952Y-108760211D02*
X183180952Y-108903068D01*
X183180952Y-108903068D02*
X183133333Y-108998306D01*
X183133333Y-108998306D02*
X183085714Y-109045925D01*
X183085714Y-109045925D02*
X182990476Y-109093544D01*
X182990476Y-109093544D02*
X182609524Y-109093544D01*
X184085714Y-109569735D02*
X183609524Y-109569735D01*
X183609524Y-109569735D02*
X183609524Y-108569735D01*
X184419048Y-108569735D02*
X184419048Y-109379258D01*
X184419048Y-109379258D02*
X184466667Y-109474496D01*
X184466667Y-109474496D02*
X184514286Y-109522116D01*
X184514286Y-109522116D02*
X184609524Y-109569735D01*
X184609524Y-109569735D02*
X184800000Y-109569735D01*
X184800000Y-109569735D02*
X184895238Y-109522116D01*
X184895238Y-109522116D02*
X184942857Y-109474496D01*
X184942857Y-109474496D02*
X184990476Y-109379258D01*
X184990476Y-109379258D02*
X184990476Y-108569735D01*
X185419048Y-109522116D02*
X185561905Y-109569735D01*
X185561905Y-109569735D02*
X185800000Y-109569735D01*
X185800000Y-109569735D02*
X185895238Y-109522116D01*
X185895238Y-109522116D02*
X185942857Y-109474496D01*
X185942857Y-109474496D02*
X185990476Y-109379258D01*
X185990476Y-109379258D02*
X185990476Y-109284020D01*
X185990476Y-109284020D02*
X185942857Y-109188782D01*
X185942857Y-109188782D02*
X185895238Y-109141163D01*
X185895238Y-109141163D02*
X185800000Y-109093544D01*
X185800000Y-109093544D02*
X185609524Y-109045925D01*
X185609524Y-109045925D02*
X185514286Y-108998306D01*
X185514286Y-108998306D02*
X185466667Y-108950687D01*
X185466667Y-108950687D02*
X185419048Y-108855449D01*
X185419048Y-108855449D02*
X185419048Y-108760211D01*
X185419048Y-108760211D02*
X185466667Y-108664973D01*
X185466667Y-108664973D02*
X185514286Y-108617354D01*
X185514286Y-108617354D02*
X185609524Y-108569735D01*
X185609524Y-108569735D02*
X185847619Y-108569735D01*
X185847619Y-108569735D02*
X185990476Y-108617354D01*
X186419048Y-109188782D02*
X187180953Y-109188782D01*
X188228571Y-109474496D02*
X188180952Y-109522116D01*
X188180952Y-109522116D02*
X188038095Y-109569735D01*
X188038095Y-109569735D02*
X187942857Y-109569735D01*
X187942857Y-109569735D02*
X187800000Y-109522116D01*
X187800000Y-109522116D02*
X187704762Y-109426877D01*
X187704762Y-109426877D02*
X187657143Y-109331639D01*
X187657143Y-109331639D02*
X187609524Y-109141163D01*
X187609524Y-109141163D02*
X187609524Y-108998306D01*
X187609524Y-108998306D02*
X187657143Y-108807830D01*
X187657143Y-108807830D02*
X187704762Y-108712592D01*
X187704762Y-108712592D02*
X187800000Y-108617354D01*
X187800000Y-108617354D02*
X187942857Y-108569735D01*
X187942857Y-108569735D02*
X188038095Y-108569735D01*
X188038095Y-108569735D02*
X188180952Y-108617354D01*
X188180952Y-108617354D02*
X188228571Y-108664973D01*
X189085714Y-109569735D02*
X189085714Y-109045925D01*
X189085714Y-109045925D02*
X189038095Y-108950687D01*
X189038095Y-108950687D02*
X188942857Y-108903068D01*
X188942857Y-108903068D02*
X188752381Y-108903068D01*
X188752381Y-108903068D02*
X188657143Y-108950687D01*
X189085714Y-109522116D02*
X188990476Y-109569735D01*
X188990476Y-109569735D02*
X188752381Y-109569735D01*
X188752381Y-109569735D02*
X188657143Y-109522116D01*
X188657143Y-109522116D02*
X188609524Y-109426877D01*
X188609524Y-109426877D02*
X188609524Y-109331639D01*
X188609524Y-109331639D02*
X188657143Y-109236401D01*
X188657143Y-109236401D02*
X188752381Y-109188782D01*
X188752381Y-109188782D02*
X188990476Y-109188782D01*
X188990476Y-109188782D02*
X189085714Y-109141163D01*
X189561905Y-109569735D02*
X189561905Y-108903068D01*
X189561905Y-109093544D02*
X189609524Y-108998306D01*
X189609524Y-108998306D02*
X189657143Y-108950687D01*
X189657143Y-108950687D02*
X189752381Y-108903068D01*
X189752381Y-108903068D02*
X189847619Y-108903068D01*
X190609524Y-109569735D02*
X190609524Y-108569735D01*
X190609524Y-109522116D02*
X190514286Y-109569735D01*
X190514286Y-109569735D02*
X190323810Y-109569735D01*
X190323810Y-109569735D02*
X190228572Y-109522116D01*
X190228572Y-109522116D02*
X190180953Y-109474496D01*
X190180953Y-109474496D02*
X190133334Y-109379258D01*
X190133334Y-109379258D02*
X190133334Y-109093544D01*
X190133334Y-109093544D02*
X190180953Y-108998306D01*
X190180953Y-108998306D02*
X190228572Y-108950687D01*
X190228572Y-108950687D02*
X190323810Y-108903068D01*
X190323810Y-108903068D02*
X190514286Y-108903068D01*
X190514286Y-108903068D02*
X190609524Y-108950687D01*
X191038096Y-109522116D02*
X191133334Y-109569735D01*
X191133334Y-109569735D02*
X191323810Y-109569735D01*
X191323810Y-109569735D02*
X191419048Y-109522116D01*
X191419048Y-109522116D02*
X191466667Y-109426877D01*
X191466667Y-109426877D02*
X191466667Y-109379258D01*
X191466667Y-109379258D02*
X191419048Y-109284020D01*
X191419048Y-109284020D02*
X191323810Y-109236401D01*
X191323810Y-109236401D02*
X191180953Y-109236401D01*
X191180953Y-109236401D02*
X191085715Y-109188782D01*
X191085715Y-109188782D02*
X191038096Y-109093544D01*
X191038096Y-109093544D02*
X191038096Y-109045925D01*
X191038096Y-109045925D02*
X191085715Y-108950687D01*
X191085715Y-108950687D02*
X191180953Y-108903068D01*
X191180953Y-108903068D02*
X191323810Y-108903068D01*
X191323810Y-108903068D02*
X191419048Y-108950687D01*
X192609524Y-108522116D02*
X191752382Y-109807830D01*
X119034160Y-93137312D02*
X119177017Y-93184931D01*
X119177017Y-93184931D02*
X119415112Y-93184931D01*
X119415112Y-93184931D02*
X119510350Y-93137312D01*
X119510350Y-93137312D02*
X119557969Y-93089692D01*
X119557969Y-93089692D02*
X119605588Y-92994454D01*
X119605588Y-92994454D02*
X119605588Y-92899216D01*
X119605588Y-92899216D02*
X119557969Y-92803978D01*
X119557969Y-92803978D02*
X119510350Y-92756359D01*
X119510350Y-92756359D02*
X119415112Y-92708740D01*
X119415112Y-92708740D02*
X119224636Y-92661121D01*
X119224636Y-92661121D02*
X119129398Y-92613502D01*
X119129398Y-92613502D02*
X119081779Y-92565883D01*
X119081779Y-92565883D02*
X119034160Y-92470645D01*
X119034160Y-92470645D02*
X119034160Y-92375407D01*
X119034160Y-92375407D02*
X119081779Y-92280169D01*
X119081779Y-92280169D02*
X119129398Y-92232550D01*
X119129398Y-92232550D02*
X119224636Y-92184931D01*
X119224636Y-92184931D02*
X119462731Y-92184931D01*
X119462731Y-92184931D02*
X119605588Y-92232550D01*
X120034160Y-92184931D02*
X120034160Y-92994454D01*
X120034160Y-92994454D02*
X120081779Y-93089692D01*
X120081779Y-93089692D02*
X120129398Y-93137312D01*
X120129398Y-93137312D02*
X120224636Y-93184931D01*
X120224636Y-93184931D02*
X120415112Y-93184931D01*
X120415112Y-93184931D02*
X120510350Y-93137312D01*
X120510350Y-93137312D02*
X120557969Y-93089692D01*
X120557969Y-93089692D02*
X120605588Y-92994454D01*
X120605588Y-92994454D02*
X120605588Y-92184931D01*
X121605588Y-92232550D02*
X121510350Y-92184931D01*
X121510350Y-92184931D02*
X121367493Y-92184931D01*
X121367493Y-92184931D02*
X121224636Y-92232550D01*
X121224636Y-92232550D02*
X121129398Y-92327788D01*
X121129398Y-92327788D02*
X121081779Y-92423026D01*
X121081779Y-92423026D02*
X121034160Y-92613502D01*
X121034160Y-92613502D02*
X121034160Y-92756359D01*
X121034160Y-92756359D02*
X121081779Y-92946835D01*
X121081779Y-92946835D02*
X121129398Y-93042073D01*
X121129398Y-93042073D02*
X121224636Y-93137312D01*
X121224636Y-93137312D02*
X121367493Y-93184931D01*
X121367493Y-93184931D02*
X121462731Y-93184931D01*
X121462731Y-93184931D02*
X121605588Y-93137312D01*
X121605588Y-93137312D02*
X121653207Y-93089692D01*
X121653207Y-93089692D02*
X121653207Y-92756359D01*
X121653207Y-92756359D02*
X121462731Y-92756359D01*
X122605588Y-92232550D02*
X122510350Y-92184931D01*
X122510350Y-92184931D02*
X122367493Y-92184931D01*
X122367493Y-92184931D02*
X122224636Y-92232550D01*
X122224636Y-92232550D02*
X122129398Y-92327788D01*
X122129398Y-92327788D02*
X122081779Y-92423026D01*
X122081779Y-92423026D02*
X122034160Y-92613502D01*
X122034160Y-92613502D02*
X122034160Y-92756359D01*
X122034160Y-92756359D02*
X122081779Y-92946835D01*
X122081779Y-92946835D02*
X122129398Y-93042073D01*
X122129398Y-93042073D02*
X122224636Y-93137312D01*
X122224636Y-93137312D02*
X122367493Y-93184931D01*
X122367493Y-93184931D02*
X122462731Y-93184931D01*
X122462731Y-93184931D02*
X122605588Y-93137312D01*
X122605588Y-93137312D02*
X122653207Y-93089692D01*
X122653207Y-93089692D02*
X122653207Y-92756359D01*
X122653207Y-92756359D02*
X122462731Y-92756359D01*
X123081779Y-92661121D02*
X123415112Y-92661121D01*
X123557969Y-93184931D02*
X123081779Y-93184931D01*
X123081779Y-93184931D02*
X123081779Y-92184931D01*
X123081779Y-92184931D02*
X123557969Y-92184931D01*
X123938922Y-93137312D02*
X124081779Y-93184931D01*
X124081779Y-93184931D02*
X124319874Y-93184931D01*
X124319874Y-93184931D02*
X124415112Y-93137312D01*
X124415112Y-93137312D02*
X124462731Y-93089692D01*
X124462731Y-93089692D02*
X124510350Y-92994454D01*
X124510350Y-92994454D02*
X124510350Y-92899216D01*
X124510350Y-92899216D02*
X124462731Y-92803978D01*
X124462731Y-92803978D02*
X124415112Y-92756359D01*
X124415112Y-92756359D02*
X124319874Y-92708740D01*
X124319874Y-92708740D02*
X124129398Y-92661121D01*
X124129398Y-92661121D02*
X124034160Y-92613502D01*
X124034160Y-92613502D02*
X123986541Y-92565883D01*
X123986541Y-92565883D02*
X123938922Y-92470645D01*
X123938922Y-92470645D02*
X123938922Y-92375407D01*
X123938922Y-92375407D02*
X123986541Y-92280169D01*
X123986541Y-92280169D02*
X124034160Y-92232550D01*
X124034160Y-92232550D02*
X124129398Y-92184931D01*
X124129398Y-92184931D02*
X124367493Y-92184931D01*
X124367493Y-92184931D02*
X124510350Y-92232550D01*
X124796065Y-92184931D02*
X125367493Y-92184931D01*
X125081779Y-93184931D02*
X125081779Y-92184931D01*
X125700827Y-92661121D02*
X126034160Y-92661121D01*
X126177017Y-93184931D02*
X125700827Y-93184931D01*
X125700827Y-93184931D02*
X125700827Y-92184931D01*
X125700827Y-92184931D02*
X126177017Y-92184931D01*
X126605589Y-93184931D02*
X126605589Y-92184931D01*
X126605589Y-92184931D02*
X126843684Y-92184931D01*
X126843684Y-92184931D02*
X126986541Y-92232550D01*
X126986541Y-92232550D02*
X127081779Y-92327788D01*
X127081779Y-92327788D02*
X127129398Y-92423026D01*
X127129398Y-92423026D02*
X127177017Y-92613502D01*
X127177017Y-92613502D02*
X127177017Y-92756359D01*
X127177017Y-92756359D02*
X127129398Y-92946835D01*
X127129398Y-92946835D02*
X127081779Y-93042073D01*
X127081779Y-93042073D02*
X126986541Y-93137312D01*
X126986541Y-93137312D02*
X126843684Y-93184931D01*
X126843684Y-93184931D02*
X126605589Y-93184931D01*
X127605589Y-93089692D02*
X127653208Y-93137312D01*
X127653208Y-93137312D02*
X127605589Y-93184931D01*
X127605589Y-93184931D02*
X127557970Y-93137312D01*
X127557970Y-93137312D02*
X127605589Y-93089692D01*
X127605589Y-93089692D02*
X127605589Y-93184931D01*
X127605589Y-92565883D02*
X127653208Y-92613502D01*
X127653208Y-92613502D02*
X127605589Y-92661121D01*
X127605589Y-92661121D02*
X127557970Y-92613502D01*
X127557970Y-92613502D02*
X127605589Y-92565883D01*
X127605589Y-92565883D02*
X127605589Y-92661121D01*
X119653207Y-94699636D02*
X119605588Y-94747256D01*
X119605588Y-94747256D02*
X119462731Y-94794875D01*
X119462731Y-94794875D02*
X119367493Y-94794875D01*
X119367493Y-94794875D02*
X119224636Y-94747256D01*
X119224636Y-94747256D02*
X119129398Y-94652017D01*
X119129398Y-94652017D02*
X119081779Y-94556779D01*
X119081779Y-94556779D02*
X119034160Y-94366303D01*
X119034160Y-94366303D02*
X119034160Y-94223446D01*
X119034160Y-94223446D02*
X119081779Y-94032970D01*
X119081779Y-94032970D02*
X119129398Y-93937732D01*
X119129398Y-93937732D02*
X119224636Y-93842494D01*
X119224636Y-93842494D02*
X119367493Y-93794875D01*
X119367493Y-93794875D02*
X119462731Y-93794875D01*
X119462731Y-93794875D02*
X119605588Y-93842494D01*
X119605588Y-93842494D02*
X119653207Y-93890113D01*
X120272255Y-93794875D02*
X120462731Y-93794875D01*
X120462731Y-93794875D02*
X120557969Y-93842494D01*
X120557969Y-93842494D02*
X120653207Y-93937732D01*
X120653207Y-93937732D02*
X120700826Y-94128208D01*
X120700826Y-94128208D02*
X120700826Y-94461541D01*
X120700826Y-94461541D02*
X120653207Y-94652017D01*
X120653207Y-94652017D02*
X120557969Y-94747256D01*
X120557969Y-94747256D02*
X120462731Y-94794875D01*
X120462731Y-94794875D02*
X120272255Y-94794875D01*
X120272255Y-94794875D02*
X120177017Y-94747256D01*
X120177017Y-94747256D02*
X120081779Y-94652017D01*
X120081779Y-94652017D02*
X120034160Y-94461541D01*
X120034160Y-94461541D02*
X120034160Y-94128208D01*
X120034160Y-94128208D02*
X120081779Y-93937732D01*
X120081779Y-93937732D02*
X120177017Y-93842494D01*
X120177017Y-93842494D02*
X120272255Y-93794875D01*
X121129398Y-94794875D02*
X121129398Y-93794875D01*
X121129398Y-93794875D02*
X121462731Y-94509160D01*
X121462731Y-94509160D02*
X121796064Y-93794875D01*
X121796064Y-93794875D02*
X121796064Y-94794875D01*
X122796064Y-94794875D02*
X122224636Y-94794875D01*
X122510350Y-94794875D02*
X122510350Y-93794875D01*
X122510350Y-93794875D02*
X122415112Y-93937732D01*
X122415112Y-93937732D02*
X122319874Y-94032970D01*
X122319874Y-94032970D02*
X122224636Y-94080589D01*
X123224636Y-94271065D02*
X123986541Y-94271065D01*
X123986541Y-94556779D02*
X123224636Y-94556779D01*
X124462731Y-94794875D02*
X124462731Y-93794875D01*
X125510349Y-94794875D02*
X125177016Y-94318684D01*
X124938921Y-94794875D02*
X124938921Y-93794875D01*
X124938921Y-93794875D02*
X125319873Y-93794875D01*
X125319873Y-93794875D02*
X125415111Y-93842494D01*
X125415111Y-93842494D02*
X125462730Y-93890113D01*
X125462730Y-93890113D02*
X125510349Y-93985351D01*
X125510349Y-93985351D02*
X125510349Y-94128208D01*
X125510349Y-94128208D02*
X125462730Y-94223446D01*
X125462730Y-94223446D02*
X125415111Y-94271065D01*
X125415111Y-94271065D02*
X125319873Y-94318684D01*
X125319873Y-94318684D02*
X124938921Y-94318684D01*
X126605587Y-94890113D02*
X126510349Y-94842494D01*
X126510349Y-94842494D02*
X126415111Y-94747256D01*
X126415111Y-94747256D02*
X126272254Y-94604398D01*
X126272254Y-94604398D02*
X126177016Y-94556779D01*
X126177016Y-94556779D02*
X126081778Y-94556779D01*
X126129397Y-94794875D02*
X126034159Y-94747256D01*
X126034159Y-94747256D02*
X125938921Y-94652017D01*
X125938921Y-94652017D02*
X125891302Y-94461541D01*
X125891302Y-94461541D02*
X125891302Y-94128208D01*
X125891302Y-94128208D02*
X125938921Y-93937732D01*
X125938921Y-93937732D02*
X126034159Y-93842494D01*
X126034159Y-93842494D02*
X126129397Y-93794875D01*
X126129397Y-93794875D02*
X126319873Y-93794875D01*
X126319873Y-93794875D02*
X126415111Y-93842494D01*
X126415111Y-93842494D02*
X126510349Y-93937732D01*
X126510349Y-93937732D02*
X126557968Y-94128208D01*
X126557968Y-94128208D02*
X126557968Y-94461541D01*
X126557968Y-94461541D02*
X126510349Y-94652017D01*
X126510349Y-94652017D02*
X126415111Y-94747256D01*
X126415111Y-94747256D02*
X126319873Y-94794875D01*
X126319873Y-94794875D02*
X126129397Y-94794875D01*
X127415111Y-94128208D02*
X127415111Y-94794875D01*
X127177016Y-93747256D02*
X126938921Y-94461541D01*
X126938921Y-94461541D02*
X127557968Y-94461541D01*
X119653207Y-96309580D02*
X119605588Y-96357200D01*
X119605588Y-96357200D02*
X119462731Y-96404819D01*
X119462731Y-96404819D02*
X119367493Y-96404819D01*
X119367493Y-96404819D02*
X119224636Y-96357200D01*
X119224636Y-96357200D02*
X119129398Y-96261961D01*
X119129398Y-96261961D02*
X119081779Y-96166723D01*
X119081779Y-96166723D02*
X119034160Y-95976247D01*
X119034160Y-95976247D02*
X119034160Y-95833390D01*
X119034160Y-95833390D02*
X119081779Y-95642914D01*
X119081779Y-95642914D02*
X119129398Y-95547676D01*
X119129398Y-95547676D02*
X119224636Y-95452438D01*
X119224636Y-95452438D02*
X119367493Y-95404819D01*
X119367493Y-95404819D02*
X119462731Y-95404819D01*
X119462731Y-95404819D02*
X119605588Y-95452438D01*
X119605588Y-95452438D02*
X119653207Y-95500057D01*
X120272255Y-95404819D02*
X120462731Y-95404819D01*
X120462731Y-95404819D02*
X120557969Y-95452438D01*
X120557969Y-95452438D02*
X120653207Y-95547676D01*
X120653207Y-95547676D02*
X120700826Y-95738152D01*
X120700826Y-95738152D02*
X120700826Y-96071485D01*
X120700826Y-96071485D02*
X120653207Y-96261961D01*
X120653207Y-96261961D02*
X120557969Y-96357200D01*
X120557969Y-96357200D02*
X120462731Y-96404819D01*
X120462731Y-96404819D02*
X120272255Y-96404819D01*
X120272255Y-96404819D02*
X120177017Y-96357200D01*
X120177017Y-96357200D02*
X120081779Y-96261961D01*
X120081779Y-96261961D02*
X120034160Y-96071485D01*
X120034160Y-96071485D02*
X120034160Y-95738152D01*
X120034160Y-95738152D02*
X120081779Y-95547676D01*
X120081779Y-95547676D02*
X120177017Y-95452438D01*
X120177017Y-95452438D02*
X120272255Y-95404819D01*
X121129398Y-96404819D02*
X121129398Y-95404819D01*
X121129398Y-95404819D02*
X121462731Y-96119104D01*
X121462731Y-96119104D02*
X121796064Y-95404819D01*
X121796064Y-95404819D02*
X121796064Y-96404819D01*
X122224636Y-95500057D02*
X122272255Y-95452438D01*
X122272255Y-95452438D02*
X122367493Y-95404819D01*
X122367493Y-95404819D02*
X122605588Y-95404819D01*
X122605588Y-95404819D02*
X122700826Y-95452438D01*
X122700826Y-95452438D02*
X122748445Y-95500057D01*
X122748445Y-95500057D02*
X122796064Y-95595295D01*
X122796064Y-95595295D02*
X122796064Y-95690533D01*
X122796064Y-95690533D02*
X122748445Y-95833390D01*
X122748445Y-95833390D02*
X122177017Y-96404819D01*
X122177017Y-96404819D02*
X122796064Y-96404819D01*
X123224636Y-95881009D02*
X123986541Y-95881009D01*
X123986541Y-96166723D02*
X123224636Y-96166723D01*
X124462731Y-96404819D02*
X124462731Y-95404819D01*
X125510349Y-96404819D02*
X125177016Y-95928628D01*
X124938921Y-96404819D02*
X124938921Y-95404819D01*
X124938921Y-95404819D02*
X125319873Y-95404819D01*
X125319873Y-95404819D02*
X125415111Y-95452438D01*
X125415111Y-95452438D02*
X125462730Y-95500057D01*
X125462730Y-95500057D02*
X125510349Y-95595295D01*
X125510349Y-95595295D02*
X125510349Y-95738152D01*
X125510349Y-95738152D02*
X125462730Y-95833390D01*
X125462730Y-95833390D02*
X125415111Y-95881009D01*
X125415111Y-95881009D02*
X125319873Y-95928628D01*
X125319873Y-95928628D02*
X124938921Y-95928628D01*
X126605587Y-96500057D02*
X126510349Y-96452438D01*
X126510349Y-96452438D02*
X126415111Y-96357200D01*
X126415111Y-96357200D02*
X126272254Y-96214342D01*
X126272254Y-96214342D02*
X126177016Y-96166723D01*
X126177016Y-96166723D02*
X126081778Y-96166723D01*
X126129397Y-96404819D02*
X126034159Y-96357200D01*
X126034159Y-96357200D02*
X125938921Y-96261961D01*
X125938921Y-96261961D02*
X125891302Y-96071485D01*
X125891302Y-96071485D02*
X125891302Y-95738152D01*
X125891302Y-95738152D02*
X125938921Y-95547676D01*
X125938921Y-95547676D02*
X126034159Y-95452438D01*
X126034159Y-95452438D02*
X126129397Y-95404819D01*
X126129397Y-95404819D02*
X126319873Y-95404819D01*
X126319873Y-95404819D02*
X126415111Y-95452438D01*
X126415111Y-95452438D02*
X126510349Y-95547676D01*
X126510349Y-95547676D02*
X126557968Y-95738152D01*
X126557968Y-95738152D02*
X126557968Y-96071485D01*
X126557968Y-96071485D02*
X126510349Y-96261961D01*
X126510349Y-96261961D02*
X126415111Y-96357200D01*
X126415111Y-96357200D02*
X126319873Y-96404819D01*
X126319873Y-96404819D02*
X126129397Y-96404819D01*
X126891302Y-95404819D02*
X127510349Y-95404819D01*
X127510349Y-95404819D02*
X127177016Y-95785771D01*
X127177016Y-95785771D02*
X127319873Y-95785771D01*
X127319873Y-95785771D02*
X127415111Y-95833390D01*
X127415111Y-95833390D02*
X127462730Y-95881009D01*
X127462730Y-95881009D02*
X127510349Y-95976247D01*
X127510349Y-95976247D02*
X127510349Y-96214342D01*
X127510349Y-96214342D02*
X127462730Y-96309580D01*
X127462730Y-96309580D02*
X127415111Y-96357200D01*
X127415111Y-96357200D02*
X127319873Y-96404819D01*
X127319873Y-96404819D02*
X127034159Y-96404819D01*
X127034159Y-96404819D02*
X126938921Y-96357200D01*
X126938921Y-96357200D02*
X126891302Y-96309580D01*
X119653207Y-97919524D02*
X119605588Y-97967144D01*
X119605588Y-97967144D02*
X119462731Y-98014763D01*
X119462731Y-98014763D02*
X119367493Y-98014763D01*
X119367493Y-98014763D02*
X119224636Y-97967144D01*
X119224636Y-97967144D02*
X119129398Y-97871905D01*
X119129398Y-97871905D02*
X119081779Y-97776667D01*
X119081779Y-97776667D02*
X119034160Y-97586191D01*
X119034160Y-97586191D02*
X119034160Y-97443334D01*
X119034160Y-97443334D02*
X119081779Y-97252858D01*
X119081779Y-97252858D02*
X119129398Y-97157620D01*
X119129398Y-97157620D02*
X119224636Y-97062382D01*
X119224636Y-97062382D02*
X119367493Y-97014763D01*
X119367493Y-97014763D02*
X119462731Y-97014763D01*
X119462731Y-97014763D02*
X119605588Y-97062382D01*
X119605588Y-97062382D02*
X119653207Y-97110001D01*
X120272255Y-97014763D02*
X120462731Y-97014763D01*
X120462731Y-97014763D02*
X120557969Y-97062382D01*
X120557969Y-97062382D02*
X120653207Y-97157620D01*
X120653207Y-97157620D02*
X120700826Y-97348096D01*
X120700826Y-97348096D02*
X120700826Y-97681429D01*
X120700826Y-97681429D02*
X120653207Y-97871905D01*
X120653207Y-97871905D02*
X120557969Y-97967144D01*
X120557969Y-97967144D02*
X120462731Y-98014763D01*
X120462731Y-98014763D02*
X120272255Y-98014763D01*
X120272255Y-98014763D02*
X120177017Y-97967144D01*
X120177017Y-97967144D02*
X120081779Y-97871905D01*
X120081779Y-97871905D02*
X120034160Y-97681429D01*
X120034160Y-97681429D02*
X120034160Y-97348096D01*
X120034160Y-97348096D02*
X120081779Y-97157620D01*
X120081779Y-97157620D02*
X120177017Y-97062382D01*
X120177017Y-97062382D02*
X120272255Y-97014763D01*
X121129398Y-98014763D02*
X121129398Y-97014763D01*
X121129398Y-97014763D02*
X121462731Y-97729048D01*
X121462731Y-97729048D02*
X121796064Y-97014763D01*
X121796064Y-97014763D02*
X121796064Y-98014763D01*
X122177017Y-97014763D02*
X122796064Y-97014763D01*
X122796064Y-97014763D02*
X122462731Y-97395715D01*
X122462731Y-97395715D02*
X122605588Y-97395715D01*
X122605588Y-97395715D02*
X122700826Y-97443334D01*
X122700826Y-97443334D02*
X122748445Y-97490953D01*
X122748445Y-97490953D02*
X122796064Y-97586191D01*
X122796064Y-97586191D02*
X122796064Y-97824286D01*
X122796064Y-97824286D02*
X122748445Y-97919524D01*
X122748445Y-97919524D02*
X122700826Y-97967144D01*
X122700826Y-97967144D02*
X122605588Y-98014763D01*
X122605588Y-98014763D02*
X122319874Y-98014763D01*
X122319874Y-98014763D02*
X122224636Y-97967144D01*
X122224636Y-97967144D02*
X122177017Y-97919524D01*
X123224636Y-97490953D02*
X123986541Y-97490953D01*
X123986541Y-97776667D02*
X123224636Y-97776667D01*
X124462731Y-98014763D02*
X124462731Y-97014763D01*
X125510349Y-98014763D02*
X125177016Y-97538572D01*
X124938921Y-98014763D02*
X124938921Y-97014763D01*
X124938921Y-97014763D02*
X125319873Y-97014763D01*
X125319873Y-97014763D02*
X125415111Y-97062382D01*
X125415111Y-97062382D02*
X125462730Y-97110001D01*
X125462730Y-97110001D02*
X125510349Y-97205239D01*
X125510349Y-97205239D02*
X125510349Y-97348096D01*
X125510349Y-97348096D02*
X125462730Y-97443334D01*
X125462730Y-97443334D02*
X125415111Y-97490953D01*
X125415111Y-97490953D02*
X125319873Y-97538572D01*
X125319873Y-97538572D02*
X124938921Y-97538572D01*
X126605587Y-98110001D02*
X126510349Y-98062382D01*
X126510349Y-98062382D02*
X126415111Y-97967144D01*
X126415111Y-97967144D02*
X126272254Y-97824286D01*
X126272254Y-97824286D02*
X126177016Y-97776667D01*
X126177016Y-97776667D02*
X126081778Y-97776667D01*
X126129397Y-98014763D02*
X126034159Y-97967144D01*
X126034159Y-97967144D02*
X125938921Y-97871905D01*
X125938921Y-97871905D02*
X125891302Y-97681429D01*
X125891302Y-97681429D02*
X125891302Y-97348096D01*
X125891302Y-97348096D02*
X125938921Y-97157620D01*
X125938921Y-97157620D02*
X126034159Y-97062382D01*
X126034159Y-97062382D02*
X126129397Y-97014763D01*
X126129397Y-97014763D02*
X126319873Y-97014763D01*
X126319873Y-97014763D02*
X126415111Y-97062382D01*
X126415111Y-97062382D02*
X126510349Y-97157620D01*
X126510349Y-97157620D02*
X126557968Y-97348096D01*
X126557968Y-97348096D02*
X126557968Y-97681429D01*
X126557968Y-97681429D02*
X126510349Y-97871905D01*
X126510349Y-97871905D02*
X126415111Y-97967144D01*
X126415111Y-97967144D02*
X126319873Y-98014763D01*
X126319873Y-98014763D02*
X126129397Y-98014763D01*
X127415111Y-97348096D02*
X127415111Y-98014763D01*
X127177016Y-96967144D02*
X126938921Y-97681429D01*
X126938921Y-97681429D02*
X127557968Y-97681429D01*
X119653207Y-99529468D02*
X119605588Y-99577088D01*
X119605588Y-99577088D02*
X119462731Y-99624707D01*
X119462731Y-99624707D02*
X119367493Y-99624707D01*
X119367493Y-99624707D02*
X119224636Y-99577088D01*
X119224636Y-99577088D02*
X119129398Y-99481849D01*
X119129398Y-99481849D02*
X119081779Y-99386611D01*
X119081779Y-99386611D02*
X119034160Y-99196135D01*
X119034160Y-99196135D02*
X119034160Y-99053278D01*
X119034160Y-99053278D02*
X119081779Y-98862802D01*
X119081779Y-98862802D02*
X119129398Y-98767564D01*
X119129398Y-98767564D02*
X119224636Y-98672326D01*
X119224636Y-98672326D02*
X119367493Y-98624707D01*
X119367493Y-98624707D02*
X119462731Y-98624707D01*
X119462731Y-98624707D02*
X119605588Y-98672326D01*
X119605588Y-98672326D02*
X119653207Y-98719945D01*
X120272255Y-98624707D02*
X120462731Y-98624707D01*
X120462731Y-98624707D02*
X120557969Y-98672326D01*
X120557969Y-98672326D02*
X120653207Y-98767564D01*
X120653207Y-98767564D02*
X120700826Y-98958040D01*
X120700826Y-98958040D02*
X120700826Y-99291373D01*
X120700826Y-99291373D02*
X120653207Y-99481849D01*
X120653207Y-99481849D02*
X120557969Y-99577088D01*
X120557969Y-99577088D02*
X120462731Y-99624707D01*
X120462731Y-99624707D02*
X120272255Y-99624707D01*
X120272255Y-99624707D02*
X120177017Y-99577088D01*
X120177017Y-99577088D02*
X120081779Y-99481849D01*
X120081779Y-99481849D02*
X120034160Y-99291373D01*
X120034160Y-99291373D02*
X120034160Y-98958040D01*
X120034160Y-98958040D02*
X120081779Y-98767564D01*
X120081779Y-98767564D02*
X120177017Y-98672326D01*
X120177017Y-98672326D02*
X120272255Y-98624707D01*
X121129398Y-99624707D02*
X121129398Y-98624707D01*
X121129398Y-98624707D02*
X121462731Y-99338992D01*
X121462731Y-99338992D02*
X121796064Y-98624707D01*
X121796064Y-98624707D02*
X121796064Y-99624707D01*
X122700826Y-98958040D02*
X122700826Y-99624707D01*
X122462731Y-98577088D02*
X122224636Y-99291373D01*
X122224636Y-99291373D02*
X122843683Y-99291373D01*
X123224636Y-99100897D02*
X123986541Y-99100897D01*
X123986541Y-99386611D02*
X123224636Y-99386611D01*
X124462731Y-99624707D02*
X124462731Y-98624707D01*
X125510349Y-99624707D02*
X125177016Y-99148516D01*
X124938921Y-99624707D02*
X124938921Y-98624707D01*
X124938921Y-98624707D02*
X125319873Y-98624707D01*
X125319873Y-98624707D02*
X125415111Y-98672326D01*
X125415111Y-98672326D02*
X125462730Y-98719945D01*
X125462730Y-98719945D02*
X125510349Y-98815183D01*
X125510349Y-98815183D02*
X125510349Y-98958040D01*
X125510349Y-98958040D02*
X125462730Y-99053278D01*
X125462730Y-99053278D02*
X125415111Y-99100897D01*
X125415111Y-99100897D02*
X125319873Y-99148516D01*
X125319873Y-99148516D02*
X124938921Y-99148516D01*
X126605587Y-99719945D02*
X126510349Y-99672326D01*
X126510349Y-99672326D02*
X126415111Y-99577088D01*
X126415111Y-99577088D02*
X126272254Y-99434230D01*
X126272254Y-99434230D02*
X126177016Y-99386611D01*
X126177016Y-99386611D02*
X126081778Y-99386611D01*
X126129397Y-99624707D02*
X126034159Y-99577088D01*
X126034159Y-99577088D02*
X125938921Y-99481849D01*
X125938921Y-99481849D02*
X125891302Y-99291373D01*
X125891302Y-99291373D02*
X125891302Y-98958040D01*
X125891302Y-98958040D02*
X125938921Y-98767564D01*
X125938921Y-98767564D02*
X126034159Y-98672326D01*
X126034159Y-98672326D02*
X126129397Y-98624707D01*
X126129397Y-98624707D02*
X126319873Y-98624707D01*
X126319873Y-98624707D02*
X126415111Y-98672326D01*
X126415111Y-98672326D02*
X126510349Y-98767564D01*
X126510349Y-98767564D02*
X126557968Y-98958040D01*
X126557968Y-98958040D02*
X126557968Y-99291373D01*
X126557968Y-99291373D02*
X126510349Y-99481849D01*
X126510349Y-99481849D02*
X126415111Y-99577088D01*
X126415111Y-99577088D02*
X126319873Y-99624707D01*
X126319873Y-99624707D02*
X126129397Y-99624707D01*
X126891302Y-98624707D02*
X127510349Y-98624707D01*
X127510349Y-98624707D02*
X127177016Y-99005659D01*
X127177016Y-99005659D02*
X127319873Y-99005659D01*
X127319873Y-99005659D02*
X127415111Y-99053278D01*
X127415111Y-99053278D02*
X127462730Y-99100897D01*
X127462730Y-99100897D02*
X127510349Y-99196135D01*
X127510349Y-99196135D02*
X127510349Y-99434230D01*
X127510349Y-99434230D02*
X127462730Y-99529468D01*
X127462730Y-99529468D02*
X127415111Y-99577088D01*
X127415111Y-99577088D02*
X127319873Y-99624707D01*
X127319873Y-99624707D02*
X127034159Y-99624707D01*
X127034159Y-99624707D02*
X126938921Y-99577088D01*
X126938921Y-99577088D02*
X126891302Y-99529468D01*
X104378333Y-114649847D02*
X104378333Y-113649847D01*
X104378333Y-113649847D02*
X104759285Y-113649847D01*
X104759285Y-113649847D02*
X104854523Y-113697466D01*
X104854523Y-113697466D02*
X104902142Y-113745085D01*
X104902142Y-113745085D02*
X104949761Y-113840323D01*
X104949761Y-113840323D02*
X104949761Y-113983180D01*
X104949761Y-113983180D02*
X104902142Y-114078418D01*
X104902142Y-114078418D02*
X104854523Y-114126037D01*
X104854523Y-114126037D02*
X104759285Y-114173656D01*
X104759285Y-114173656D02*
X104378333Y-114173656D01*
X105568809Y-113649847D02*
X105759285Y-113649847D01*
X105759285Y-113649847D02*
X105854523Y-113697466D01*
X105854523Y-113697466D02*
X105949761Y-113792704D01*
X105949761Y-113792704D02*
X105997380Y-113983180D01*
X105997380Y-113983180D02*
X105997380Y-114316513D01*
X105997380Y-114316513D02*
X105949761Y-114506989D01*
X105949761Y-114506989D02*
X105854523Y-114602228D01*
X105854523Y-114602228D02*
X105759285Y-114649847D01*
X105759285Y-114649847D02*
X105568809Y-114649847D01*
X105568809Y-114649847D02*
X105473571Y-114602228D01*
X105473571Y-114602228D02*
X105378333Y-114506989D01*
X105378333Y-114506989D02*
X105330714Y-114316513D01*
X105330714Y-114316513D02*
X105330714Y-113983180D01*
X105330714Y-113983180D02*
X105378333Y-113792704D01*
X105378333Y-113792704D02*
X105473571Y-113697466D01*
X105473571Y-113697466D02*
X105568809Y-113649847D01*
X106997380Y-114649847D02*
X106664047Y-114173656D01*
X106425952Y-114649847D02*
X106425952Y-113649847D01*
X106425952Y-113649847D02*
X106806904Y-113649847D01*
X106806904Y-113649847D02*
X106902142Y-113697466D01*
X106902142Y-113697466D02*
X106949761Y-113745085D01*
X106949761Y-113745085D02*
X106997380Y-113840323D01*
X106997380Y-113840323D02*
X106997380Y-113983180D01*
X106997380Y-113983180D02*
X106949761Y-114078418D01*
X106949761Y-114078418D02*
X106902142Y-114126037D01*
X106902142Y-114126037D02*
X106806904Y-114173656D01*
X106806904Y-114173656D02*
X106425952Y-114173656D01*
X107283095Y-113649847D02*
X107854523Y-113649847D01*
X107568809Y-114649847D02*
X107568809Y-113649847D01*
X102283095Y-116212172D02*
X102425952Y-116259791D01*
X102425952Y-116259791D02*
X102664047Y-116259791D01*
X102664047Y-116259791D02*
X102759285Y-116212172D01*
X102759285Y-116212172D02*
X102806904Y-116164552D01*
X102806904Y-116164552D02*
X102854523Y-116069314D01*
X102854523Y-116069314D02*
X102854523Y-115974076D01*
X102854523Y-115974076D02*
X102806904Y-115878838D01*
X102806904Y-115878838D02*
X102759285Y-115831219D01*
X102759285Y-115831219D02*
X102664047Y-115783600D01*
X102664047Y-115783600D02*
X102473571Y-115735981D01*
X102473571Y-115735981D02*
X102378333Y-115688362D01*
X102378333Y-115688362D02*
X102330714Y-115640743D01*
X102330714Y-115640743D02*
X102283095Y-115545505D01*
X102283095Y-115545505D02*
X102283095Y-115450267D01*
X102283095Y-115450267D02*
X102330714Y-115355029D01*
X102330714Y-115355029D02*
X102378333Y-115307410D01*
X102378333Y-115307410D02*
X102473571Y-115259791D01*
X102473571Y-115259791D02*
X102711666Y-115259791D01*
X102711666Y-115259791D02*
X102854523Y-115307410D01*
X103283095Y-115735981D02*
X103616428Y-115735981D01*
X103759285Y-116259791D02*
X103283095Y-116259791D01*
X103283095Y-116259791D02*
X103283095Y-115259791D01*
X103283095Y-115259791D02*
X103759285Y-115259791D01*
X104664047Y-116259791D02*
X104187857Y-116259791D01*
X104187857Y-116259791D02*
X104187857Y-115259791D01*
X104997381Y-115735981D02*
X105330714Y-115735981D01*
X105473571Y-116259791D02*
X104997381Y-116259791D01*
X104997381Y-116259791D02*
X104997381Y-115259791D01*
X104997381Y-115259791D02*
X105473571Y-115259791D01*
X106473571Y-116164552D02*
X106425952Y-116212172D01*
X106425952Y-116212172D02*
X106283095Y-116259791D01*
X106283095Y-116259791D02*
X106187857Y-116259791D01*
X106187857Y-116259791D02*
X106045000Y-116212172D01*
X106045000Y-116212172D02*
X105949762Y-116116933D01*
X105949762Y-116116933D02*
X105902143Y-116021695D01*
X105902143Y-116021695D02*
X105854524Y-115831219D01*
X105854524Y-115831219D02*
X105854524Y-115688362D01*
X105854524Y-115688362D02*
X105902143Y-115497886D01*
X105902143Y-115497886D02*
X105949762Y-115402648D01*
X105949762Y-115402648D02*
X106045000Y-115307410D01*
X106045000Y-115307410D02*
X106187857Y-115259791D01*
X106187857Y-115259791D02*
X106283095Y-115259791D01*
X106283095Y-115259791D02*
X106425952Y-115307410D01*
X106425952Y-115307410D02*
X106473571Y-115355029D01*
X106759286Y-115259791D02*
X107330714Y-115259791D01*
X107045000Y-116259791D02*
X107045000Y-115259791D01*
X107664048Y-116259791D02*
X107664048Y-115259791D01*
X108330714Y-115259791D02*
X108521190Y-115259791D01*
X108521190Y-115259791D02*
X108616428Y-115307410D01*
X108616428Y-115307410D02*
X108711666Y-115402648D01*
X108711666Y-115402648D02*
X108759285Y-115593124D01*
X108759285Y-115593124D02*
X108759285Y-115926457D01*
X108759285Y-115926457D02*
X108711666Y-116116933D01*
X108711666Y-116116933D02*
X108616428Y-116212172D01*
X108616428Y-116212172D02*
X108521190Y-116259791D01*
X108521190Y-116259791D02*
X108330714Y-116259791D01*
X108330714Y-116259791D02*
X108235476Y-116212172D01*
X108235476Y-116212172D02*
X108140238Y-116116933D01*
X108140238Y-116116933D02*
X108092619Y-115926457D01*
X108092619Y-115926457D02*
X108092619Y-115593124D01*
X108092619Y-115593124D02*
X108140238Y-115402648D01*
X108140238Y-115402648D02*
X108235476Y-115307410D01*
X108235476Y-115307410D02*
X108330714Y-115259791D01*
X109187857Y-116259791D02*
X109187857Y-115259791D01*
X109187857Y-115259791D02*
X109759285Y-116259791D01*
X109759285Y-116259791D02*
X109759285Y-115259791D01*
X126701779Y-102119819D02*
X126701779Y-101119819D01*
X127749397Y-102119819D02*
X127416064Y-101643628D01*
X127177969Y-102119819D02*
X127177969Y-101119819D01*
X127177969Y-101119819D02*
X127558921Y-101119819D01*
X127558921Y-101119819D02*
X127654159Y-101167438D01*
X127654159Y-101167438D02*
X127701778Y-101215057D01*
X127701778Y-101215057D02*
X127749397Y-101310295D01*
X127749397Y-101310295D02*
X127749397Y-101453152D01*
X127749397Y-101453152D02*
X127701778Y-101548390D01*
X127701778Y-101548390D02*
X127654159Y-101596009D01*
X127654159Y-101596009D02*
X127558921Y-101643628D01*
X127558921Y-101643628D02*
X127177969Y-101643628D01*
X128844635Y-102215057D02*
X128749397Y-102167438D01*
X128749397Y-102167438D02*
X128654159Y-102072200D01*
X128654159Y-102072200D02*
X128511302Y-101929342D01*
X128511302Y-101929342D02*
X128416064Y-101881723D01*
X128416064Y-101881723D02*
X128320826Y-101881723D01*
X128368445Y-102119819D02*
X128273207Y-102072200D01*
X128273207Y-102072200D02*
X128177969Y-101976961D01*
X128177969Y-101976961D02*
X128130350Y-101786485D01*
X128130350Y-101786485D02*
X128130350Y-101453152D01*
X128130350Y-101453152D02*
X128177969Y-101262676D01*
X128177969Y-101262676D02*
X128273207Y-101167438D01*
X128273207Y-101167438D02*
X128368445Y-101119819D01*
X128368445Y-101119819D02*
X128558921Y-101119819D01*
X128558921Y-101119819D02*
X128654159Y-101167438D01*
X128654159Y-101167438D02*
X128749397Y-101262676D01*
X128749397Y-101262676D02*
X128797016Y-101453152D01*
X128797016Y-101453152D02*
X128797016Y-101786485D01*
X128797016Y-101786485D02*
X128749397Y-101976961D01*
X128749397Y-101976961D02*
X128654159Y-102072200D01*
X128654159Y-102072200D02*
X128558921Y-102119819D01*
X128558921Y-102119819D02*
X128368445Y-102119819D01*
X129177969Y-101215057D02*
X129225588Y-101167438D01*
X129225588Y-101167438D02*
X129320826Y-101119819D01*
X129320826Y-101119819D02*
X129558921Y-101119819D01*
X129558921Y-101119819D02*
X129654159Y-101167438D01*
X129654159Y-101167438D02*
X129701778Y-101215057D01*
X129701778Y-101215057D02*
X129749397Y-101310295D01*
X129749397Y-101310295D02*
X129749397Y-101405533D01*
X129749397Y-101405533D02*
X129701778Y-101548390D01*
X129701778Y-101548390D02*
X129130350Y-102119819D01*
X129130350Y-102119819D02*
X129749397Y-102119819D01*
X102136792Y-105834580D02*
X102089173Y-105882200D01*
X102089173Y-105882200D02*
X101946316Y-105929819D01*
X101946316Y-105929819D02*
X101851078Y-105929819D01*
X101851078Y-105929819D02*
X101708221Y-105882200D01*
X101708221Y-105882200D02*
X101612983Y-105786961D01*
X101612983Y-105786961D02*
X101565364Y-105691723D01*
X101565364Y-105691723D02*
X101517745Y-105501247D01*
X101517745Y-105501247D02*
X101517745Y-105358390D01*
X101517745Y-105358390D02*
X101565364Y-105167914D01*
X101565364Y-105167914D02*
X101612983Y-105072676D01*
X101612983Y-105072676D02*
X101708221Y-104977438D01*
X101708221Y-104977438D02*
X101851078Y-104929819D01*
X101851078Y-104929819D02*
X101946316Y-104929819D01*
X101946316Y-104929819D02*
X102089173Y-104977438D01*
X102089173Y-104977438D02*
X102136792Y-105025057D01*
X102755840Y-104929819D02*
X102946316Y-104929819D01*
X102946316Y-104929819D02*
X103041554Y-104977438D01*
X103041554Y-104977438D02*
X103136792Y-105072676D01*
X103136792Y-105072676D02*
X103184411Y-105263152D01*
X103184411Y-105263152D02*
X103184411Y-105596485D01*
X103184411Y-105596485D02*
X103136792Y-105786961D01*
X103136792Y-105786961D02*
X103041554Y-105882200D01*
X103041554Y-105882200D02*
X102946316Y-105929819D01*
X102946316Y-105929819D02*
X102755840Y-105929819D01*
X102755840Y-105929819D02*
X102660602Y-105882200D01*
X102660602Y-105882200D02*
X102565364Y-105786961D01*
X102565364Y-105786961D02*
X102517745Y-105596485D01*
X102517745Y-105596485D02*
X102517745Y-105263152D01*
X102517745Y-105263152D02*
X102565364Y-105072676D01*
X102565364Y-105072676D02*
X102660602Y-104977438D01*
X102660602Y-104977438D02*
X102755840Y-104929819D01*
X103612983Y-105929819D02*
X103612983Y-104929819D01*
X103612983Y-104929819D02*
X103946316Y-105644104D01*
X103946316Y-105644104D02*
X104279649Y-104929819D01*
X104279649Y-104929819D02*
X104279649Y-105929819D01*
X105184411Y-105263152D02*
X105184411Y-105929819D01*
X104946316Y-104882200D02*
X104708221Y-105596485D01*
X104708221Y-105596485D02*
X105327268Y-105596485D01*
X105708221Y-105834580D02*
X105755840Y-105882200D01*
X105755840Y-105882200D02*
X105708221Y-105929819D01*
X105708221Y-105929819D02*
X105660602Y-105882200D01*
X105660602Y-105882200D02*
X105708221Y-105834580D01*
X105708221Y-105834580D02*
X105708221Y-105929819D01*
X105708221Y-105310771D02*
X105755840Y-105358390D01*
X105755840Y-105358390D02*
X105708221Y-105406009D01*
X105708221Y-105406009D02*
X105660602Y-105358390D01*
X105660602Y-105358390D02*
X105708221Y-105310771D01*
X105708221Y-105310771D02*
X105708221Y-105406009D01*
X122166191Y-114649847D02*
X122166191Y-113649847D01*
X123213809Y-114649847D02*
X122880476Y-114173656D01*
X122642381Y-114649847D02*
X122642381Y-113649847D01*
X122642381Y-113649847D02*
X123023333Y-113649847D01*
X123023333Y-113649847D02*
X123118571Y-113697466D01*
X123118571Y-113697466D02*
X123166190Y-113745085D01*
X123166190Y-113745085D02*
X123213809Y-113840323D01*
X123213809Y-113840323D02*
X123213809Y-113983180D01*
X123213809Y-113983180D02*
X123166190Y-114078418D01*
X123166190Y-114078418D02*
X123118571Y-114126037D01*
X123118571Y-114126037D02*
X123023333Y-114173656D01*
X123023333Y-114173656D02*
X122642381Y-114173656D01*
X124309047Y-114745085D02*
X124213809Y-114697466D01*
X124213809Y-114697466D02*
X124118571Y-114602228D01*
X124118571Y-114602228D02*
X123975714Y-114459370D01*
X123975714Y-114459370D02*
X123880476Y-114411751D01*
X123880476Y-114411751D02*
X123785238Y-114411751D01*
X123832857Y-114649847D02*
X123737619Y-114602228D01*
X123737619Y-114602228D02*
X123642381Y-114506989D01*
X123642381Y-114506989D02*
X123594762Y-114316513D01*
X123594762Y-114316513D02*
X123594762Y-113983180D01*
X123594762Y-113983180D02*
X123642381Y-113792704D01*
X123642381Y-113792704D02*
X123737619Y-113697466D01*
X123737619Y-113697466D02*
X123832857Y-113649847D01*
X123832857Y-113649847D02*
X124023333Y-113649847D01*
X124023333Y-113649847D02*
X124118571Y-113697466D01*
X124118571Y-113697466D02*
X124213809Y-113792704D01*
X124213809Y-113792704D02*
X124261428Y-113983180D01*
X124261428Y-113983180D02*
X124261428Y-114316513D01*
X124261428Y-114316513D02*
X124213809Y-114506989D01*
X124213809Y-114506989D02*
X124118571Y-114602228D01*
X124118571Y-114602228D02*
X124023333Y-114649847D01*
X124023333Y-114649847D02*
X123832857Y-114649847D01*
X119428095Y-116212172D02*
X119570952Y-116259791D01*
X119570952Y-116259791D02*
X119809047Y-116259791D01*
X119809047Y-116259791D02*
X119904285Y-116212172D01*
X119904285Y-116212172D02*
X119951904Y-116164552D01*
X119951904Y-116164552D02*
X119999523Y-116069314D01*
X119999523Y-116069314D02*
X119999523Y-115974076D01*
X119999523Y-115974076D02*
X119951904Y-115878838D01*
X119951904Y-115878838D02*
X119904285Y-115831219D01*
X119904285Y-115831219D02*
X119809047Y-115783600D01*
X119809047Y-115783600D02*
X119618571Y-115735981D01*
X119618571Y-115735981D02*
X119523333Y-115688362D01*
X119523333Y-115688362D02*
X119475714Y-115640743D01*
X119475714Y-115640743D02*
X119428095Y-115545505D01*
X119428095Y-115545505D02*
X119428095Y-115450267D01*
X119428095Y-115450267D02*
X119475714Y-115355029D01*
X119475714Y-115355029D02*
X119523333Y-115307410D01*
X119523333Y-115307410D02*
X119618571Y-115259791D01*
X119618571Y-115259791D02*
X119856666Y-115259791D01*
X119856666Y-115259791D02*
X119999523Y-115307410D01*
X120428095Y-115735981D02*
X120761428Y-115735981D01*
X120904285Y-116259791D02*
X120428095Y-116259791D01*
X120428095Y-116259791D02*
X120428095Y-115259791D01*
X120428095Y-115259791D02*
X120904285Y-115259791D01*
X121809047Y-116259791D02*
X121332857Y-116259791D01*
X121332857Y-116259791D02*
X121332857Y-115259791D01*
X122142381Y-115735981D02*
X122475714Y-115735981D01*
X122618571Y-116259791D02*
X122142381Y-116259791D01*
X122142381Y-116259791D02*
X122142381Y-115259791D01*
X122142381Y-115259791D02*
X122618571Y-115259791D01*
X123618571Y-116164552D02*
X123570952Y-116212172D01*
X123570952Y-116212172D02*
X123428095Y-116259791D01*
X123428095Y-116259791D02*
X123332857Y-116259791D01*
X123332857Y-116259791D02*
X123190000Y-116212172D01*
X123190000Y-116212172D02*
X123094762Y-116116933D01*
X123094762Y-116116933D02*
X123047143Y-116021695D01*
X123047143Y-116021695D02*
X122999524Y-115831219D01*
X122999524Y-115831219D02*
X122999524Y-115688362D01*
X122999524Y-115688362D02*
X123047143Y-115497886D01*
X123047143Y-115497886D02*
X123094762Y-115402648D01*
X123094762Y-115402648D02*
X123190000Y-115307410D01*
X123190000Y-115307410D02*
X123332857Y-115259791D01*
X123332857Y-115259791D02*
X123428095Y-115259791D01*
X123428095Y-115259791D02*
X123570952Y-115307410D01*
X123570952Y-115307410D02*
X123618571Y-115355029D01*
X123904286Y-115259791D02*
X124475714Y-115259791D01*
X124190000Y-116259791D02*
X124190000Y-115259791D01*
X124809048Y-116259791D02*
X124809048Y-115259791D01*
X125475714Y-115259791D02*
X125666190Y-115259791D01*
X125666190Y-115259791D02*
X125761428Y-115307410D01*
X125761428Y-115307410D02*
X125856666Y-115402648D01*
X125856666Y-115402648D02*
X125904285Y-115593124D01*
X125904285Y-115593124D02*
X125904285Y-115926457D01*
X125904285Y-115926457D02*
X125856666Y-116116933D01*
X125856666Y-116116933D02*
X125761428Y-116212172D01*
X125761428Y-116212172D02*
X125666190Y-116259791D01*
X125666190Y-116259791D02*
X125475714Y-116259791D01*
X125475714Y-116259791D02*
X125380476Y-116212172D01*
X125380476Y-116212172D02*
X125285238Y-116116933D01*
X125285238Y-116116933D02*
X125237619Y-115926457D01*
X125237619Y-115926457D02*
X125237619Y-115593124D01*
X125237619Y-115593124D02*
X125285238Y-115402648D01*
X125285238Y-115402648D02*
X125380476Y-115307410D01*
X125380476Y-115307410D02*
X125475714Y-115259791D01*
X126332857Y-116259791D02*
X126332857Y-115259791D01*
X126332857Y-115259791D02*
X126904285Y-116259791D01*
X126904285Y-116259791D02*
X126904285Y-115259791D01*
X101266666Y-110009819D02*
X101266666Y-110724104D01*
X101266666Y-110724104D02*
X101219047Y-110866961D01*
X101219047Y-110866961D02*
X101123809Y-110962200D01*
X101123809Y-110962200D02*
X100980952Y-111009819D01*
X100980952Y-111009819D02*
X100885714Y-111009819D01*
X102266666Y-111009819D02*
X101695238Y-111009819D01*
X101980952Y-111009819D02*
X101980952Y-110009819D01*
X101980952Y-110009819D02*
X101885714Y-110152676D01*
X101885714Y-110152676D02*
X101790476Y-110247914D01*
X101790476Y-110247914D02*
X101695238Y-110295533D01*
X165441333Y-93134580D02*
X165393714Y-93182200D01*
X165393714Y-93182200D02*
X165250857Y-93229819D01*
X165250857Y-93229819D02*
X165155619Y-93229819D01*
X165155619Y-93229819D02*
X165012762Y-93182200D01*
X165012762Y-93182200D02*
X164917524Y-93086961D01*
X164917524Y-93086961D02*
X164869905Y-92991723D01*
X164869905Y-92991723D02*
X164822286Y-92801247D01*
X164822286Y-92801247D02*
X164822286Y-92658390D01*
X164822286Y-92658390D02*
X164869905Y-92467914D01*
X164869905Y-92467914D02*
X164917524Y-92372676D01*
X164917524Y-92372676D02*
X165012762Y-92277438D01*
X165012762Y-92277438D02*
X165155619Y-92229819D01*
X165155619Y-92229819D02*
X165250857Y-92229819D01*
X165250857Y-92229819D02*
X165393714Y-92277438D01*
X165393714Y-92277438D02*
X165441333Y-92325057D01*
X166346095Y-92229819D02*
X165869905Y-92229819D01*
X165869905Y-92229819D02*
X165822286Y-92706009D01*
X165822286Y-92706009D02*
X165869905Y-92658390D01*
X165869905Y-92658390D02*
X165965143Y-92610771D01*
X165965143Y-92610771D02*
X166203238Y-92610771D01*
X166203238Y-92610771D02*
X166298476Y-92658390D01*
X166298476Y-92658390D02*
X166346095Y-92706009D01*
X166346095Y-92706009D02*
X166393714Y-92801247D01*
X166393714Y-92801247D02*
X166393714Y-93039342D01*
X166393714Y-93039342D02*
X166346095Y-93134580D01*
X166346095Y-93134580D02*
X166298476Y-93182200D01*
X166298476Y-93182200D02*
X166203238Y-93229819D01*
X166203238Y-93229819D02*
X165965143Y-93229819D01*
X165965143Y-93229819D02*
X165869905Y-93182200D01*
X165869905Y-93182200D02*
X165822286Y-93134580D01*
X163457143Y-93595057D02*
X163504762Y-93547438D01*
X163504762Y-93547438D02*
X163600000Y-93499819D01*
X163600000Y-93499819D02*
X163838095Y-93499819D01*
X163838095Y-93499819D02*
X163933333Y-93547438D01*
X163933333Y-93547438D02*
X163980952Y-93595057D01*
X163980952Y-93595057D02*
X164028571Y-93690295D01*
X164028571Y-93690295D02*
X164028571Y-93785533D01*
X164028571Y-93785533D02*
X163980952Y-93928390D01*
X163980952Y-93928390D02*
X163409524Y-94499819D01*
X163409524Y-94499819D02*
X164028571Y-94499819D01*
X164409524Y-93595057D02*
X164457143Y-93547438D01*
X164457143Y-93547438D02*
X164552381Y-93499819D01*
X164552381Y-93499819D02*
X164790476Y-93499819D01*
X164790476Y-93499819D02*
X164885714Y-93547438D01*
X164885714Y-93547438D02*
X164933333Y-93595057D01*
X164933333Y-93595057D02*
X164980952Y-93690295D01*
X164980952Y-93690295D02*
X164980952Y-93785533D01*
X164980952Y-93785533D02*
X164933333Y-93928390D01*
X164933333Y-93928390D02*
X164361905Y-94499819D01*
X164361905Y-94499819D02*
X164980952Y-94499819D01*
X165838095Y-93833152D02*
X165838095Y-94499819D01*
X165409524Y-93833152D02*
X165409524Y-94356961D01*
X165409524Y-94356961D02*
X165457143Y-94452200D01*
X165457143Y-94452200D02*
X165552381Y-94499819D01*
X165552381Y-94499819D02*
X165695238Y-94499819D01*
X165695238Y-94499819D02*
X165790476Y-94452200D01*
X165790476Y-94452200D02*
X165838095Y-94404580D01*
X166647619Y-93976009D02*
X166314286Y-93976009D01*
X166314286Y-94499819D02*
X166314286Y-93499819D01*
X166314286Y-93499819D02*
X166790476Y-93499819D01*
X185779580Y-87115476D02*
X185827200Y-87163095D01*
X185827200Y-87163095D02*
X185874819Y-87305952D01*
X185874819Y-87305952D02*
X185874819Y-87401190D01*
X185874819Y-87401190D02*
X185827200Y-87544047D01*
X185827200Y-87544047D02*
X185731961Y-87639285D01*
X185731961Y-87639285D02*
X185636723Y-87686904D01*
X185636723Y-87686904D02*
X185446247Y-87734523D01*
X185446247Y-87734523D02*
X185303390Y-87734523D01*
X185303390Y-87734523D02*
X185112914Y-87686904D01*
X185112914Y-87686904D02*
X185017676Y-87639285D01*
X185017676Y-87639285D02*
X184922438Y-87544047D01*
X184922438Y-87544047D02*
X184874819Y-87401190D01*
X184874819Y-87401190D02*
X184874819Y-87305952D01*
X184874819Y-87305952D02*
X184922438Y-87163095D01*
X184922438Y-87163095D02*
X184970057Y-87115476D01*
X185874819Y-86686904D02*
X184874819Y-86686904D01*
X184874819Y-86686904D02*
X185874819Y-86115476D01*
X185874819Y-86115476D02*
X184874819Y-86115476D01*
X185874819Y-85115476D02*
X185874819Y-85686904D01*
X185874819Y-85401190D02*
X184874819Y-85401190D01*
X184874819Y-85401190D02*
X185017676Y-85496428D01*
X185017676Y-85496428D02*
X185112914Y-85591666D01*
X185112914Y-85591666D02*
X185160533Y-85686904D01*
D14*
X204524181Y-78804999D02*
X203000181Y-78804999D01*
X203000181Y-78804999D02*
X203000181Y-78442142D01*
X203000181Y-78442142D02*
X203072752Y-78224428D01*
X203072752Y-78224428D02*
X203217895Y-78079285D01*
X203217895Y-78079285D02*
X203363038Y-78006714D01*
X203363038Y-78006714D02*
X203653324Y-77934142D01*
X203653324Y-77934142D02*
X203871038Y-77934142D01*
X203871038Y-77934142D02*
X204161324Y-78006714D01*
X204161324Y-78006714D02*
X204306467Y-78079285D01*
X204306467Y-78079285D02*
X204451610Y-78224428D01*
X204451610Y-78224428D02*
X204524181Y-78442142D01*
X204524181Y-78442142D02*
X204524181Y-78804999D01*
X203725895Y-76772999D02*
X203798467Y-76555285D01*
X203798467Y-76555285D02*
X203871038Y-76482714D01*
X203871038Y-76482714D02*
X204016181Y-76410142D01*
X204016181Y-76410142D02*
X204233895Y-76410142D01*
X204233895Y-76410142D02*
X204379038Y-76482714D01*
X204379038Y-76482714D02*
X204451610Y-76555285D01*
X204451610Y-76555285D02*
X204524181Y-76700428D01*
X204524181Y-76700428D02*
X204524181Y-77280999D01*
X204524181Y-77280999D02*
X203000181Y-77280999D01*
X203000181Y-77280999D02*
X203000181Y-76772999D01*
X203000181Y-76772999D02*
X203072752Y-76627857D01*
X203072752Y-76627857D02*
X203145324Y-76555285D01*
X203145324Y-76555285D02*
X203290467Y-76482714D01*
X203290467Y-76482714D02*
X203435610Y-76482714D01*
X203435610Y-76482714D02*
X203580752Y-76555285D01*
X203580752Y-76555285D02*
X203653324Y-76627857D01*
X203653324Y-76627857D02*
X203725895Y-76772999D01*
X203725895Y-76772999D02*
X203725895Y-77280999D01*
X204524181Y-75684428D02*
X204524181Y-75394142D01*
X204524181Y-75394142D02*
X204451610Y-75248999D01*
X204451610Y-75248999D02*
X204379038Y-75176428D01*
X204379038Y-75176428D02*
X204161324Y-75031285D01*
X204161324Y-75031285D02*
X203871038Y-74958714D01*
X203871038Y-74958714D02*
X203290467Y-74958714D01*
X203290467Y-74958714D02*
X203145324Y-75031285D01*
X203145324Y-75031285D02*
X203072752Y-75103857D01*
X203072752Y-75103857D02*
X203000181Y-75248999D01*
X203000181Y-75248999D02*
X203000181Y-75539285D01*
X203000181Y-75539285D02*
X203072752Y-75684428D01*
X203072752Y-75684428D02*
X203145324Y-75756999D01*
X203145324Y-75756999D02*
X203290467Y-75829571D01*
X203290467Y-75829571D02*
X203653324Y-75829571D01*
X203653324Y-75829571D02*
X203798467Y-75756999D01*
X203798467Y-75756999D02*
X203871038Y-75684428D01*
X203871038Y-75684428D02*
X203943610Y-75539285D01*
X203943610Y-75539285D02*
X203943610Y-75248999D01*
X203943610Y-75248999D02*
X203871038Y-75103857D01*
X203871038Y-75103857D02*
X203798467Y-75031285D01*
X203798467Y-75031285D02*
X203653324Y-74958714D01*
X204524181Y-73144427D02*
X203000181Y-73144427D01*
X203000181Y-73144427D02*
X204088752Y-72636427D01*
X204088752Y-72636427D02*
X203000181Y-72128427D01*
X203000181Y-72128427D02*
X204524181Y-72128427D01*
X204524181Y-70749571D02*
X203725895Y-70749571D01*
X203725895Y-70749571D02*
X203580752Y-70822142D01*
X203580752Y-70822142D02*
X203508181Y-70967285D01*
X203508181Y-70967285D02*
X203508181Y-71257571D01*
X203508181Y-71257571D02*
X203580752Y-71402713D01*
X204451610Y-70749571D02*
X204524181Y-70894713D01*
X204524181Y-70894713D02*
X204524181Y-71257571D01*
X204524181Y-71257571D02*
X204451610Y-71402713D01*
X204451610Y-71402713D02*
X204306467Y-71475285D01*
X204306467Y-71475285D02*
X204161324Y-71475285D01*
X204161324Y-71475285D02*
X204016181Y-71402713D01*
X204016181Y-71402713D02*
X203943610Y-71257571D01*
X203943610Y-71257571D02*
X203943610Y-70894713D01*
X203943610Y-70894713D02*
X203871038Y-70749571D01*
X204524181Y-69806142D02*
X204451610Y-69951285D01*
X204451610Y-69951285D02*
X204306467Y-70023856D01*
X204306467Y-70023856D02*
X203000181Y-70023856D01*
X204451610Y-68644999D02*
X204524181Y-68790142D01*
X204524181Y-68790142D02*
X204524181Y-69080428D01*
X204524181Y-69080428D02*
X204451610Y-69225570D01*
X204451610Y-69225570D02*
X204306467Y-69298142D01*
X204306467Y-69298142D02*
X203725895Y-69298142D01*
X203725895Y-69298142D02*
X203580752Y-69225570D01*
X203580752Y-69225570D02*
X203508181Y-69080428D01*
X203508181Y-69080428D02*
X203508181Y-68790142D01*
X203508181Y-68790142D02*
X203580752Y-68644999D01*
X203580752Y-68644999D02*
X203725895Y-68572428D01*
X203725895Y-68572428D02*
X203871038Y-68572428D01*
X203871038Y-68572428D02*
X204016181Y-69298142D01*
D12*
X185874819Y-77693333D02*
X184874819Y-77693333D01*
X184874819Y-77693333D02*
X184874819Y-77455238D01*
X184874819Y-77455238D02*
X184922438Y-77312381D01*
X184922438Y-77312381D02*
X185017676Y-77217143D01*
X185017676Y-77217143D02*
X185112914Y-77169524D01*
X185112914Y-77169524D02*
X185303390Y-77121905D01*
X185303390Y-77121905D02*
X185446247Y-77121905D01*
X185446247Y-77121905D02*
X185636723Y-77169524D01*
X185636723Y-77169524D02*
X185731961Y-77217143D01*
X185731961Y-77217143D02*
X185827200Y-77312381D01*
X185827200Y-77312381D02*
X185874819Y-77455238D01*
X185874819Y-77455238D02*
X185874819Y-77693333D01*
X185351009Y-76360000D02*
X185398628Y-76217143D01*
X185398628Y-76217143D02*
X185446247Y-76169524D01*
X185446247Y-76169524D02*
X185541485Y-76121905D01*
X185541485Y-76121905D02*
X185684342Y-76121905D01*
X185684342Y-76121905D02*
X185779580Y-76169524D01*
X185779580Y-76169524D02*
X185827200Y-76217143D01*
X185827200Y-76217143D02*
X185874819Y-76312381D01*
X185874819Y-76312381D02*
X185874819Y-76693333D01*
X185874819Y-76693333D02*
X184874819Y-76693333D01*
X184874819Y-76693333D02*
X184874819Y-76360000D01*
X184874819Y-76360000D02*
X184922438Y-76264762D01*
X184922438Y-76264762D02*
X184970057Y-76217143D01*
X184970057Y-76217143D02*
X185065295Y-76169524D01*
X185065295Y-76169524D02*
X185160533Y-76169524D01*
X185160533Y-76169524D02*
X185255771Y-76217143D01*
X185255771Y-76217143D02*
X185303390Y-76264762D01*
X185303390Y-76264762D02*
X185351009Y-76360000D01*
X185351009Y-76360000D02*
X185351009Y-76693333D01*
X185874819Y-75645714D02*
X185874819Y-75455238D01*
X185874819Y-75455238D02*
X185827200Y-75360000D01*
X185827200Y-75360000D02*
X185779580Y-75312381D01*
X185779580Y-75312381D02*
X185636723Y-75217143D01*
X185636723Y-75217143D02*
X185446247Y-75169524D01*
X185446247Y-75169524D02*
X185065295Y-75169524D01*
X185065295Y-75169524D02*
X184970057Y-75217143D01*
X184970057Y-75217143D02*
X184922438Y-75264762D01*
X184922438Y-75264762D02*
X184874819Y-75360000D01*
X184874819Y-75360000D02*
X184874819Y-75550476D01*
X184874819Y-75550476D02*
X184922438Y-75645714D01*
X184922438Y-75645714D02*
X184970057Y-75693333D01*
X184970057Y-75693333D02*
X185065295Y-75740952D01*
X185065295Y-75740952D02*
X185303390Y-75740952D01*
X185303390Y-75740952D02*
X185398628Y-75693333D01*
X185398628Y-75693333D02*
X185446247Y-75645714D01*
X185446247Y-75645714D02*
X185493866Y-75550476D01*
X185493866Y-75550476D02*
X185493866Y-75360000D01*
X185493866Y-75360000D02*
X185446247Y-75264762D01*
X185446247Y-75264762D02*
X185398628Y-75217143D01*
X185398628Y-75217143D02*
X185303390Y-75169524D01*
X185874819Y-73979047D02*
X184874819Y-73979047D01*
X184874819Y-73979047D02*
X185589104Y-73645714D01*
X185589104Y-73645714D02*
X184874819Y-73312381D01*
X184874819Y-73312381D02*
X185874819Y-73312381D01*
X185874819Y-72407619D02*
X185351009Y-72407619D01*
X185351009Y-72407619D02*
X185255771Y-72455238D01*
X185255771Y-72455238D02*
X185208152Y-72550476D01*
X185208152Y-72550476D02*
X185208152Y-72740952D01*
X185208152Y-72740952D02*
X185255771Y-72836190D01*
X185827200Y-72407619D02*
X185874819Y-72502857D01*
X185874819Y-72502857D02*
X185874819Y-72740952D01*
X185874819Y-72740952D02*
X185827200Y-72836190D01*
X185827200Y-72836190D02*
X185731961Y-72883809D01*
X185731961Y-72883809D02*
X185636723Y-72883809D01*
X185636723Y-72883809D02*
X185541485Y-72836190D01*
X185541485Y-72836190D02*
X185493866Y-72740952D01*
X185493866Y-72740952D02*
X185493866Y-72502857D01*
X185493866Y-72502857D02*
X185446247Y-72407619D01*
X185874819Y-71788571D02*
X185827200Y-71883809D01*
X185827200Y-71883809D02*
X185731961Y-71931428D01*
X185731961Y-71931428D02*
X184874819Y-71931428D01*
X185827200Y-71026666D02*
X185874819Y-71121904D01*
X185874819Y-71121904D02*
X185874819Y-71312380D01*
X185874819Y-71312380D02*
X185827200Y-71407618D01*
X185827200Y-71407618D02*
X185731961Y-71455237D01*
X185731961Y-71455237D02*
X185351009Y-71455237D01*
X185351009Y-71455237D02*
X185255771Y-71407618D01*
X185255771Y-71407618D02*
X185208152Y-71312380D01*
X185208152Y-71312380D02*
X185208152Y-71121904D01*
X185208152Y-71121904D02*
X185255771Y-71026666D01*
X185255771Y-71026666D02*
X185351009Y-70979047D01*
X185351009Y-70979047D02*
X185446247Y-70979047D01*
X185446247Y-70979047D02*
X185541485Y-71455237D01*
X119300666Y-106199819D02*
X119300666Y-106914104D01*
X119300666Y-106914104D02*
X119253047Y-107056961D01*
X119253047Y-107056961D02*
X119157809Y-107152200D01*
X119157809Y-107152200D02*
X119014952Y-107199819D01*
X119014952Y-107199819D02*
X118919714Y-107199819D01*
X119729238Y-106295057D02*
X119776857Y-106247438D01*
X119776857Y-106247438D02*
X119872095Y-106199819D01*
X119872095Y-106199819D02*
X120110190Y-106199819D01*
X120110190Y-106199819D02*
X120205428Y-106247438D01*
X120205428Y-106247438D02*
X120253047Y-106295057D01*
X120253047Y-106295057D02*
X120300666Y-106390295D01*
X120300666Y-106390295D02*
X120300666Y-106485533D01*
X120300666Y-106485533D02*
X120253047Y-106628390D01*
X120253047Y-106628390D02*
X119681619Y-107199819D01*
X119681619Y-107199819D02*
X120300666Y-107199819D01*
X173863095Y-60054819D02*
X173863095Y-60864342D01*
X173863095Y-60864342D02*
X173910714Y-60959580D01*
X173910714Y-60959580D02*
X173958333Y-61007200D01*
X173958333Y-61007200D02*
X174053571Y-61054819D01*
X174053571Y-61054819D02*
X174244047Y-61054819D01*
X174244047Y-61054819D02*
X174339285Y-61007200D01*
X174339285Y-61007200D02*
X174386904Y-60959580D01*
X174386904Y-60959580D02*
X174434523Y-60864342D01*
X174434523Y-60864342D02*
X174434523Y-60054819D01*
X174815476Y-60054819D02*
X175434523Y-60054819D01*
X175434523Y-60054819D02*
X175101190Y-60435771D01*
X175101190Y-60435771D02*
X175244047Y-60435771D01*
X175244047Y-60435771D02*
X175339285Y-60483390D01*
X175339285Y-60483390D02*
X175386904Y-60531009D01*
X175386904Y-60531009D02*
X175434523Y-60626247D01*
X175434523Y-60626247D02*
X175434523Y-60864342D01*
X175434523Y-60864342D02*
X175386904Y-60959580D01*
X175386904Y-60959580D02*
X175339285Y-61007200D01*
X175339285Y-61007200D02*
X175244047Y-61054819D01*
X175244047Y-61054819D02*
X174958333Y-61054819D01*
X174958333Y-61054819D02*
X174863095Y-61007200D01*
X174863095Y-61007200D02*
X174815476Y-60959580D01*
X167777438Y-77502857D02*
X167729819Y-77598095D01*
X167729819Y-77598095D02*
X167729819Y-77740952D01*
X167729819Y-77740952D02*
X167777438Y-77883809D01*
X167777438Y-77883809D02*
X167872676Y-77979047D01*
X167872676Y-77979047D02*
X167967914Y-78026666D01*
X167967914Y-78026666D02*
X168158390Y-78074285D01*
X168158390Y-78074285D02*
X168301247Y-78074285D01*
X168301247Y-78074285D02*
X168491723Y-78026666D01*
X168491723Y-78026666D02*
X168586961Y-77979047D01*
X168586961Y-77979047D02*
X168682200Y-77883809D01*
X168682200Y-77883809D02*
X168729819Y-77740952D01*
X168729819Y-77740952D02*
X168729819Y-77645714D01*
X168729819Y-77645714D02*
X168682200Y-77502857D01*
X168682200Y-77502857D02*
X168634580Y-77455238D01*
X168634580Y-77455238D02*
X168301247Y-77455238D01*
X168301247Y-77455238D02*
X168301247Y-77645714D01*
X168729819Y-77026666D02*
X167729819Y-77026666D01*
X167729819Y-77026666D02*
X167729819Y-76788571D01*
X167729819Y-76788571D02*
X167777438Y-76645714D01*
X167777438Y-76645714D02*
X167872676Y-76550476D01*
X167872676Y-76550476D02*
X167967914Y-76502857D01*
X167967914Y-76502857D02*
X168158390Y-76455238D01*
X168158390Y-76455238D02*
X168301247Y-76455238D01*
X168301247Y-76455238D02*
X168491723Y-76502857D01*
X168491723Y-76502857D02*
X168586961Y-76550476D01*
X168586961Y-76550476D02*
X168682200Y-76645714D01*
X168682200Y-76645714D02*
X168729819Y-76788571D01*
X168729819Y-76788571D02*
X168729819Y-77026666D01*
X167729819Y-76121904D02*
X167729819Y-75455238D01*
X167729819Y-75455238D02*
X168729819Y-75883809D01*
X167729819Y-74598095D02*
X167729819Y-75074285D01*
X167729819Y-75074285D02*
X168206009Y-75121904D01*
X168206009Y-75121904D02*
X168158390Y-75074285D01*
X168158390Y-75074285D02*
X168110771Y-74979047D01*
X168110771Y-74979047D02*
X168110771Y-74740952D01*
X168110771Y-74740952D02*
X168158390Y-74645714D01*
X168158390Y-74645714D02*
X168206009Y-74598095D01*
X168206009Y-74598095D02*
X168301247Y-74550476D01*
X168301247Y-74550476D02*
X168539342Y-74550476D01*
X168539342Y-74550476D02*
X168634580Y-74598095D01*
X168634580Y-74598095D02*
X168682200Y-74645714D01*
X168682200Y-74645714D02*
X168729819Y-74740952D01*
X168729819Y-74740952D02*
X168729819Y-74979047D01*
X168729819Y-74979047D02*
X168682200Y-75074285D01*
X168682200Y-75074285D02*
X168634580Y-75121904D01*
X167825057Y-74169523D02*
X167777438Y-74121904D01*
X167777438Y-74121904D02*
X167729819Y-74026666D01*
X167729819Y-74026666D02*
X167729819Y-73788571D01*
X167729819Y-73788571D02*
X167777438Y-73693333D01*
X167777438Y-73693333D02*
X167825057Y-73645714D01*
X167825057Y-73645714D02*
X167920295Y-73598095D01*
X167920295Y-73598095D02*
X168015533Y-73598095D01*
X168015533Y-73598095D02*
X168158390Y-73645714D01*
X168158390Y-73645714D02*
X168729819Y-74217142D01*
X168729819Y-74217142D02*
X168729819Y-73598095D01*
X167729819Y-73264761D02*
X167729819Y-72645714D01*
X167729819Y-72645714D02*
X168110771Y-72979047D01*
X168110771Y-72979047D02*
X168110771Y-72836190D01*
X168110771Y-72836190D02*
X168158390Y-72740952D01*
X168158390Y-72740952D02*
X168206009Y-72693333D01*
X168206009Y-72693333D02*
X168301247Y-72645714D01*
X168301247Y-72645714D02*
X168539342Y-72645714D01*
X168539342Y-72645714D02*
X168634580Y-72693333D01*
X168634580Y-72693333D02*
X168682200Y-72740952D01*
X168682200Y-72740952D02*
X168729819Y-72836190D01*
X168729819Y-72836190D02*
X168729819Y-73121904D01*
X168729819Y-73121904D02*
X168682200Y-73217142D01*
X168682200Y-73217142D02*
X168634580Y-73264761D01*
X167825057Y-72264761D02*
X167777438Y-72217142D01*
X167777438Y-72217142D02*
X167729819Y-72121904D01*
X167729819Y-72121904D02*
X167729819Y-71883809D01*
X167729819Y-71883809D02*
X167777438Y-71788571D01*
X167777438Y-71788571D02*
X167825057Y-71740952D01*
X167825057Y-71740952D02*
X167920295Y-71693333D01*
X167920295Y-71693333D02*
X168015533Y-71693333D01*
X168015533Y-71693333D02*
X168158390Y-71740952D01*
X168158390Y-71740952D02*
X168729819Y-72312380D01*
X168729819Y-72312380D02*
X168729819Y-71693333D01*
X168729819Y-71264761D02*
X167729819Y-71264761D01*
X167729819Y-71264761D02*
X168729819Y-70693333D01*
X168729819Y-70693333D02*
X167729819Y-70693333D01*
X165441333Y-102659580D02*
X165393714Y-102707200D01*
X165393714Y-102707200D02*
X165250857Y-102754819D01*
X165250857Y-102754819D02*
X165155619Y-102754819D01*
X165155619Y-102754819D02*
X165012762Y-102707200D01*
X165012762Y-102707200D02*
X164917524Y-102611961D01*
X164917524Y-102611961D02*
X164869905Y-102516723D01*
X164869905Y-102516723D02*
X164822286Y-102326247D01*
X164822286Y-102326247D02*
X164822286Y-102183390D01*
X164822286Y-102183390D02*
X164869905Y-101992914D01*
X164869905Y-101992914D02*
X164917524Y-101897676D01*
X164917524Y-101897676D02*
X165012762Y-101802438D01*
X165012762Y-101802438D02*
X165155619Y-101754819D01*
X165155619Y-101754819D02*
X165250857Y-101754819D01*
X165250857Y-101754819D02*
X165393714Y-101802438D01*
X165393714Y-101802438D02*
X165441333Y-101850057D01*
X166298476Y-101754819D02*
X166108000Y-101754819D01*
X166108000Y-101754819D02*
X166012762Y-101802438D01*
X166012762Y-101802438D02*
X165965143Y-101850057D01*
X165965143Y-101850057D02*
X165869905Y-101992914D01*
X165869905Y-101992914D02*
X165822286Y-102183390D01*
X165822286Y-102183390D02*
X165822286Y-102564342D01*
X165822286Y-102564342D02*
X165869905Y-102659580D01*
X165869905Y-102659580D02*
X165917524Y-102707200D01*
X165917524Y-102707200D02*
X166012762Y-102754819D01*
X166012762Y-102754819D02*
X166203238Y-102754819D01*
X166203238Y-102754819D02*
X166298476Y-102707200D01*
X166298476Y-102707200D02*
X166346095Y-102659580D01*
X166346095Y-102659580D02*
X166393714Y-102564342D01*
X166393714Y-102564342D02*
X166393714Y-102326247D01*
X166393714Y-102326247D02*
X166346095Y-102231009D01*
X166346095Y-102231009D02*
X166298476Y-102183390D01*
X166298476Y-102183390D02*
X166203238Y-102135771D01*
X166203238Y-102135771D02*
X166012762Y-102135771D01*
X166012762Y-102135771D02*
X165917524Y-102183390D01*
X165917524Y-102183390D02*
X165869905Y-102231009D01*
X165869905Y-102231009D02*
X165822286Y-102326247D01*
X163060238Y-103358152D02*
X163060238Y-104024819D01*
X162822143Y-102977200D02*
X162584048Y-103691485D01*
X162584048Y-103691485D02*
X163203095Y-103691485D01*
X163584048Y-103929580D02*
X163631667Y-103977200D01*
X163631667Y-103977200D02*
X163584048Y-104024819D01*
X163584048Y-104024819D02*
X163536429Y-103977200D01*
X163536429Y-103977200D02*
X163584048Y-103929580D01*
X163584048Y-103929580D02*
X163584048Y-104024819D01*
X163965000Y-103024819D02*
X164631666Y-103024819D01*
X164631666Y-103024819D02*
X164203095Y-104024819D01*
X165441190Y-103358152D02*
X165441190Y-104024819D01*
X165012619Y-103358152D02*
X165012619Y-103881961D01*
X165012619Y-103881961D02*
X165060238Y-103977200D01*
X165060238Y-103977200D02*
X165155476Y-104024819D01*
X165155476Y-104024819D02*
X165298333Y-104024819D01*
X165298333Y-104024819D02*
X165393571Y-103977200D01*
X165393571Y-103977200D02*
X165441190Y-103929580D01*
X166250714Y-103501009D02*
X165917381Y-103501009D01*
X165917381Y-104024819D02*
X165917381Y-103024819D01*
X165917381Y-103024819D02*
X166393571Y-103024819D01*
X107823095Y-60054819D02*
X107823095Y-60864342D01*
X107823095Y-60864342D02*
X107870714Y-60959580D01*
X107870714Y-60959580D02*
X107918333Y-61007200D01*
X107918333Y-61007200D02*
X108013571Y-61054819D01*
X108013571Y-61054819D02*
X108204047Y-61054819D01*
X108204047Y-61054819D02*
X108299285Y-61007200D01*
X108299285Y-61007200D02*
X108346904Y-60959580D01*
X108346904Y-60959580D02*
X108394523Y-60864342D01*
X108394523Y-60864342D02*
X108394523Y-60054819D01*
X108823095Y-60150057D02*
X108870714Y-60102438D01*
X108870714Y-60102438D02*
X108965952Y-60054819D01*
X108965952Y-60054819D02*
X109204047Y-60054819D01*
X109204047Y-60054819D02*
X109299285Y-60102438D01*
X109299285Y-60102438D02*
X109346904Y-60150057D01*
X109346904Y-60150057D02*
X109394523Y-60245295D01*
X109394523Y-60245295D02*
X109394523Y-60340533D01*
X109394523Y-60340533D02*
X109346904Y-60483390D01*
X109346904Y-60483390D02*
X108775476Y-61054819D01*
X108775476Y-61054819D02*
X109394523Y-61054819D01*
X101689819Y-86598095D02*
X101689819Y-85931429D01*
X101689819Y-85931429D02*
X102689819Y-86360000D01*
X102023152Y-85121905D02*
X102689819Y-85121905D01*
X101642200Y-85360000D02*
X102356485Y-85598095D01*
X102356485Y-85598095D02*
X102356485Y-84979048D01*
X102689819Y-84121905D02*
X102689819Y-84598095D01*
X102689819Y-84598095D02*
X101689819Y-84598095D01*
X102642200Y-83836190D02*
X102689819Y-83693333D01*
X102689819Y-83693333D02*
X102689819Y-83455238D01*
X102689819Y-83455238D02*
X102642200Y-83360000D01*
X102642200Y-83360000D02*
X102594580Y-83312381D01*
X102594580Y-83312381D02*
X102499342Y-83264762D01*
X102499342Y-83264762D02*
X102404104Y-83264762D01*
X102404104Y-83264762D02*
X102308866Y-83312381D01*
X102308866Y-83312381D02*
X102261247Y-83360000D01*
X102261247Y-83360000D02*
X102213628Y-83455238D01*
X102213628Y-83455238D02*
X102166009Y-83645714D01*
X102166009Y-83645714D02*
X102118390Y-83740952D01*
X102118390Y-83740952D02*
X102070771Y-83788571D01*
X102070771Y-83788571D02*
X101975533Y-83836190D01*
X101975533Y-83836190D02*
X101880295Y-83836190D01*
X101880295Y-83836190D02*
X101785057Y-83788571D01*
X101785057Y-83788571D02*
X101737438Y-83740952D01*
X101737438Y-83740952D02*
X101689819Y-83645714D01*
X101689819Y-83645714D02*
X101689819Y-83407619D01*
X101689819Y-83407619D02*
X101737438Y-83264762D01*
X101689819Y-82407619D02*
X101689819Y-82598095D01*
X101689819Y-82598095D02*
X101737438Y-82693333D01*
X101737438Y-82693333D02*
X101785057Y-82740952D01*
X101785057Y-82740952D02*
X101927914Y-82836190D01*
X101927914Y-82836190D02*
X102118390Y-82883809D01*
X102118390Y-82883809D02*
X102499342Y-82883809D01*
X102499342Y-82883809D02*
X102594580Y-82836190D01*
X102594580Y-82836190D02*
X102642200Y-82788571D01*
X102642200Y-82788571D02*
X102689819Y-82693333D01*
X102689819Y-82693333D02*
X102689819Y-82502857D01*
X102689819Y-82502857D02*
X102642200Y-82407619D01*
X102642200Y-82407619D02*
X102594580Y-82360000D01*
X102594580Y-82360000D02*
X102499342Y-82312381D01*
X102499342Y-82312381D02*
X102261247Y-82312381D01*
X102261247Y-82312381D02*
X102166009Y-82360000D01*
X102166009Y-82360000D02*
X102118390Y-82407619D01*
X102118390Y-82407619D02*
X102070771Y-82502857D01*
X102070771Y-82502857D02*
X102070771Y-82693333D01*
X102070771Y-82693333D02*
X102118390Y-82788571D01*
X102118390Y-82788571D02*
X102166009Y-82836190D01*
X102166009Y-82836190D02*
X102261247Y-82883809D01*
X102118390Y-81740952D02*
X102070771Y-81836190D01*
X102070771Y-81836190D02*
X102023152Y-81883809D01*
X102023152Y-81883809D02*
X101927914Y-81931428D01*
X101927914Y-81931428D02*
X101880295Y-81931428D01*
X101880295Y-81931428D02*
X101785057Y-81883809D01*
X101785057Y-81883809D02*
X101737438Y-81836190D01*
X101737438Y-81836190D02*
X101689819Y-81740952D01*
X101689819Y-81740952D02*
X101689819Y-81550476D01*
X101689819Y-81550476D02*
X101737438Y-81455238D01*
X101737438Y-81455238D02*
X101785057Y-81407619D01*
X101785057Y-81407619D02*
X101880295Y-81360000D01*
X101880295Y-81360000D02*
X101927914Y-81360000D01*
X101927914Y-81360000D02*
X102023152Y-81407619D01*
X102023152Y-81407619D02*
X102070771Y-81455238D01*
X102070771Y-81455238D02*
X102118390Y-81550476D01*
X102118390Y-81550476D02*
X102118390Y-81740952D01*
X102118390Y-81740952D02*
X102166009Y-81836190D01*
X102166009Y-81836190D02*
X102213628Y-81883809D01*
X102213628Y-81883809D02*
X102308866Y-81931428D01*
X102308866Y-81931428D02*
X102499342Y-81931428D01*
X102499342Y-81931428D02*
X102594580Y-81883809D01*
X102594580Y-81883809D02*
X102642200Y-81836190D01*
X102642200Y-81836190D02*
X102689819Y-81740952D01*
X102689819Y-81740952D02*
X102689819Y-81550476D01*
X102689819Y-81550476D02*
X102642200Y-81455238D01*
X102642200Y-81455238D02*
X102594580Y-81407619D01*
X102594580Y-81407619D02*
X102499342Y-81360000D01*
X102499342Y-81360000D02*
X102308866Y-81360000D01*
X102308866Y-81360000D02*
X102213628Y-81407619D01*
X102213628Y-81407619D02*
X102166009Y-81455238D01*
X102166009Y-81455238D02*
X102118390Y-81550476D01*
X102118390Y-80788571D02*
X102070771Y-80883809D01*
X102070771Y-80883809D02*
X102023152Y-80931428D01*
X102023152Y-80931428D02*
X101927914Y-80979047D01*
X101927914Y-80979047D02*
X101880295Y-80979047D01*
X101880295Y-80979047D02*
X101785057Y-80931428D01*
X101785057Y-80931428D02*
X101737438Y-80883809D01*
X101737438Y-80883809D02*
X101689819Y-80788571D01*
X101689819Y-80788571D02*
X101689819Y-80598095D01*
X101689819Y-80598095D02*
X101737438Y-80502857D01*
X101737438Y-80502857D02*
X101785057Y-80455238D01*
X101785057Y-80455238D02*
X101880295Y-80407619D01*
X101880295Y-80407619D02*
X101927914Y-80407619D01*
X101927914Y-80407619D02*
X102023152Y-80455238D01*
X102023152Y-80455238D02*
X102070771Y-80502857D01*
X102070771Y-80502857D02*
X102118390Y-80598095D01*
X102118390Y-80598095D02*
X102118390Y-80788571D01*
X102118390Y-80788571D02*
X102166009Y-80883809D01*
X102166009Y-80883809D02*
X102213628Y-80931428D01*
X102213628Y-80931428D02*
X102308866Y-80979047D01*
X102308866Y-80979047D02*
X102499342Y-80979047D01*
X102499342Y-80979047D02*
X102594580Y-80931428D01*
X102594580Y-80931428D02*
X102642200Y-80883809D01*
X102642200Y-80883809D02*
X102689819Y-80788571D01*
X102689819Y-80788571D02*
X102689819Y-80598095D01*
X102689819Y-80598095D02*
X102642200Y-80502857D01*
X102642200Y-80502857D02*
X102594580Y-80455238D01*
X102594580Y-80455238D02*
X102499342Y-80407619D01*
X102499342Y-80407619D02*
X102308866Y-80407619D01*
X102308866Y-80407619D02*
X102213628Y-80455238D01*
X102213628Y-80455238D02*
X102166009Y-80502857D01*
X102166009Y-80502857D02*
X102118390Y-80598095D01*
X102642200Y-79931428D02*
X102689819Y-79931428D01*
X102689819Y-79931428D02*
X102785057Y-79979047D01*
X102785057Y-79979047D02*
X102832676Y-80026666D01*
X101689819Y-78836190D02*
X101689819Y-78169524D01*
X101689819Y-78169524D02*
X102689819Y-78598095D01*
X102023152Y-77360000D02*
X102689819Y-77360000D01*
X101642200Y-77598095D02*
X102356485Y-77836190D01*
X102356485Y-77836190D02*
X102356485Y-77217143D01*
X102689819Y-76836190D02*
X101689819Y-76836190D01*
X102166009Y-76836190D02*
X102166009Y-76264762D01*
X102689819Y-76264762D02*
X101689819Y-76264762D01*
X102594580Y-75217143D02*
X102642200Y-75264762D01*
X102642200Y-75264762D02*
X102689819Y-75407619D01*
X102689819Y-75407619D02*
X102689819Y-75502857D01*
X102689819Y-75502857D02*
X102642200Y-75645714D01*
X102642200Y-75645714D02*
X102546961Y-75740952D01*
X102546961Y-75740952D02*
X102451723Y-75788571D01*
X102451723Y-75788571D02*
X102261247Y-75836190D01*
X102261247Y-75836190D02*
X102118390Y-75836190D01*
X102118390Y-75836190D02*
X101927914Y-75788571D01*
X101927914Y-75788571D02*
X101832676Y-75740952D01*
X101832676Y-75740952D02*
X101737438Y-75645714D01*
X101737438Y-75645714D02*
X101689819Y-75502857D01*
X101689819Y-75502857D02*
X101689819Y-75407619D01*
X101689819Y-75407619D02*
X101737438Y-75264762D01*
X101737438Y-75264762D02*
X101785057Y-75217143D01*
X101689819Y-74931428D02*
X101689819Y-74360000D01*
X102689819Y-74645714D02*
X101689819Y-74645714D01*
X101689819Y-73598095D02*
X101689819Y-73788571D01*
X101689819Y-73788571D02*
X101737438Y-73883809D01*
X101737438Y-73883809D02*
X101785057Y-73931428D01*
X101785057Y-73931428D02*
X101927914Y-74026666D01*
X101927914Y-74026666D02*
X102118390Y-74074285D01*
X102118390Y-74074285D02*
X102499342Y-74074285D01*
X102499342Y-74074285D02*
X102594580Y-74026666D01*
X102594580Y-74026666D02*
X102642200Y-73979047D01*
X102642200Y-73979047D02*
X102689819Y-73883809D01*
X102689819Y-73883809D02*
X102689819Y-73693333D01*
X102689819Y-73693333D02*
X102642200Y-73598095D01*
X102642200Y-73598095D02*
X102594580Y-73550476D01*
X102594580Y-73550476D02*
X102499342Y-73502857D01*
X102499342Y-73502857D02*
X102261247Y-73502857D01*
X102261247Y-73502857D02*
X102166009Y-73550476D01*
X102166009Y-73550476D02*
X102118390Y-73598095D01*
X102118390Y-73598095D02*
X102070771Y-73693333D01*
X102070771Y-73693333D02*
X102070771Y-73883809D01*
X102070771Y-73883809D02*
X102118390Y-73979047D01*
X102118390Y-73979047D02*
X102166009Y-74026666D01*
X102166009Y-74026666D02*
X102261247Y-74074285D01*
X102118390Y-72931428D02*
X102070771Y-73026666D01*
X102070771Y-73026666D02*
X102023152Y-73074285D01*
X102023152Y-73074285D02*
X101927914Y-73121904D01*
X101927914Y-73121904D02*
X101880295Y-73121904D01*
X101880295Y-73121904D02*
X101785057Y-73074285D01*
X101785057Y-73074285D02*
X101737438Y-73026666D01*
X101737438Y-73026666D02*
X101689819Y-72931428D01*
X101689819Y-72931428D02*
X101689819Y-72740952D01*
X101689819Y-72740952D02*
X101737438Y-72645714D01*
X101737438Y-72645714D02*
X101785057Y-72598095D01*
X101785057Y-72598095D02*
X101880295Y-72550476D01*
X101880295Y-72550476D02*
X101927914Y-72550476D01*
X101927914Y-72550476D02*
X102023152Y-72598095D01*
X102023152Y-72598095D02*
X102070771Y-72645714D01*
X102070771Y-72645714D02*
X102118390Y-72740952D01*
X102118390Y-72740952D02*
X102118390Y-72931428D01*
X102118390Y-72931428D02*
X102166009Y-73026666D01*
X102166009Y-73026666D02*
X102213628Y-73074285D01*
X102213628Y-73074285D02*
X102308866Y-73121904D01*
X102308866Y-73121904D02*
X102499342Y-73121904D01*
X102499342Y-73121904D02*
X102594580Y-73074285D01*
X102594580Y-73074285D02*
X102642200Y-73026666D01*
X102642200Y-73026666D02*
X102689819Y-72931428D01*
X102689819Y-72931428D02*
X102689819Y-72740952D01*
X102689819Y-72740952D02*
X102642200Y-72645714D01*
X102642200Y-72645714D02*
X102594580Y-72598095D01*
X102594580Y-72598095D02*
X102499342Y-72550476D01*
X102499342Y-72550476D02*
X102308866Y-72550476D01*
X102308866Y-72550476D02*
X102213628Y-72598095D01*
X102213628Y-72598095D02*
X102166009Y-72645714D01*
X102166009Y-72645714D02*
X102118390Y-72740952D01*
X102118390Y-71979047D02*
X102070771Y-72074285D01*
X102070771Y-72074285D02*
X102023152Y-72121904D01*
X102023152Y-72121904D02*
X101927914Y-72169523D01*
X101927914Y-72169523D02*
X101880295Y-72169523D01*
X101880295Y-72169523D02*
X101785057Y-72121904D01*
X101785057Y-72121904D02*
X101737438Y-72074285D01*
X101737438Y-72074285D02*
X101689819Y-71979047D01*
X101689819Y-71979047D02*
X101689819Y-71788571D01*
X101689819Y-71788571D02*
X101737438Y-71693333D01*
X101737438Y-71693333D02*
X101785057Y-71645714D01*
X101785057Y-71645714D02*
X101880295Y-71598095D01*
X101880295Y-71598095D02*
X101927914Y-71598095D01*
X101927914Y-71598095D02*
X102023152Y-71645714D01*
X102023152Y-71645714D02*
X102070771Y-71693333D01*
X102070771Y-71693333D02*
X102118390Y-71788571D01*
X102118390Y-71788571D02*
X102118390Y-71979047D01*
X102118390Y-71979047D02*
X102166009Y-72074285D01*
X102166009Y-72074285D02*
X102213628Y-72121904D01*
X102213628Y-72121904D02*
X102308866Y-72169523D01*
X102308866Y-72169523D02*
X102499342Y-72169523D01*
X102499342Y-72169523D02*
X102594580Y-72121904D01*
X102594580Y-72121904D02*
X102642200Y-72074285D01*
X102642200Y-72074285D02*
X102689819Y-71979047D01*
X102689819Y-71979047D02*
X102689819Y-71788571D01*
X102689819Y-71788571D02*
X102642200Y-71693333D01*
X102642200Y-71693333D02*
X102594580Y-71645714D01*
X102594580Y-71645714D02*
X102499342Y-71598095D01*
X102499342Y-71598095D02*
X102308866Y-71598095D01*
X102308866Y-71598095D02*
X102213628Y-71645714D01*
X102213628Y-71645714D02*
X102166009Y-71693333D01*
X102166009Y-71693333D02*
X102118390Y-71788571D01*
X102689819Y-70264761D02*
X102642200Y-70359999D01*
X102642200Y-70359999D02*
X102594580Y-70407618D01*
X102594580Y-70407618D02*
X102499342Y-70455237D01*
X102499342Y-70455237D02*
X102213628Y-70455237D01*
X102213628Y-70455237D02*
X102118390Y-70407618D01*
X102118390Y-70407618D02*
X102070771Y-70359999D01*
X102070771Y-70359999D02*
X102023152Y-70264761D01*
X102023152Y-70264761D02*
X102023152Y-70121904D01*
X102023152Y-70121904D02*
X102070771Y-70026666D01*
X102070771Y-70026666D02*
X102118390Y-69979047D01*
X102118390Y-69979047D02*
X102213628Y-69931428D01*
X102213628Y-69931428D02*
X102499342Y-69931428D01*
X102499342Y-69931428D02*
X102594580Y-69979047D01*
X102594580Y-69979047D02*
X102642200Y-70026666D01*
X102642200Y-70026666D02*
X102689819Y-70121904D01*
X102689819Y-70121904D02*
X102689819Y-70264761D01*
X102689819Y-69502856D02*
X102023152Y-69502856D01*
X102213628Y-69502856D02*
X102118390Y-69455237D01*
X102118390Y-69455237D02*
X102070771Y-69407618D01*
X102070771Y-69407618D02*
X102023152Y-69312380D01*
X102023152Y-69312380D02*
X102023152Y-69217142D01*
X101737438Y-67598094D02*
X101689819Y-67693332D01*
X101689819Y-67693332D02*
X101689819Y-67836189D01*
X101689819Y-67836189D02*
X101737438Y-67979046D01*
X101737438Y-67979046D02*
X101832676Y-68074284D01*
X101832676Y-68074284D02*
X101927914Y-68121903D01*
X101927914Y-68121903D02*
X102118390Y-68169522D01*
X102118390Y-68169522D02*
X102261247Y-68169522D01*
X102261247Y-68169522D02*
X102451723Y-68121903D01*
X102451723Y-68121903D02*
X102546961Y-68074284D01*
X102546961Y-68074284D02*
X102642200Y-67979046D01*
X102642200Y-67979046D02*
X102689819Y-67836189D01*
X102689819Y-67836189D02*
X102689819Y-67740951D01*
X102689819Y-67740951D02*
X102642200Y-67598094D01*
X102642200Y-67598094D02*
X102594580Y-67550475D01*
X102594580Y-67550475D02*
X102261247Y-67550475D01*
X102261247Y-67550475D02*
X102261247Y-67740951D01*
X102404104Y-67169522D02*
X102404104Y-66693332D01*
X102689819Y-67264760D02*
X101689819Y-66931427D01*
X101689819Y-66931427D02*
X102689819Y-66598094D01*
X102689819Y-65788570D02*
X102689819Y-66264760D01*
X102689819Y-66264760D02*
X101689819Y-66264760D01*
X102689819Y-64931427D02*
X102689819Y-65502855D01*
X102689819Y-65217141D02*
X101689819Y-65217141D01*
X101689819Y-65217141D02*
X101832676Y-65312379D01*
X101832676Y-65312379D02*
X101927914Y-65407617D01*
X101927914Y-65407617D02*
X101975533Y-65502855D01*
X101689819Y-64074284D02*
X101689819Y-64264760D01*
X101689819Y-64264760D02*
X101737438Y-64359998D01*
X101737438Y-64359998D02*
X101785057Y-64407617D01*
X101785057Y-64407617D02*
X101927914Y-64502855D01*
X101927914Y-64502855D02*
X102118390Y-64550474D01*
X102118390Y-64550474D02*
X102499342Y-64550474D01*
X102499342Y-64550474D02*
X102594580Y-64502855D01*
X102594580Y-64502855D02*
X102642200Y-64455236D01*
X102642200Y-64455236D02*
X102689819Y-64359998D01*
X102689819Y-64359998D02*
X102689819Y-64169522D01*
X102689819Y-64169522D02*
X102642200Y-64074284D01*
X102642200Y-64074284D02*
X102594580Y-64026665D01*
X102594580Y-64026665D02*
X102499342Y-63979046D01*
X102499342Y-63979046D02*
X102261247Y-63979046D01*
X102261247Y-63979046D02*
X102166009Y-64026665D01*
X102166009Y-64026665D02*
X102118390Y-64074284D01*
X102118390Y-64074284D02*
X102070771Y-64169522D01*
X102070771Y-64169522D02*
X102070771Y-64359998D01*
X102070771Y-64359998D02*
X102118390Y-64455236D01*
X102118390Y-64455236D02*
X102166009Y-64502855D01*
X102166009Y-64502855D02*
X102261247Y-64550474D01*
X101689819Y-63693331D02*
X102689819Y-63359998D01*
X102689819Y-63359998D02*
X101689819Y-63026665D01*
X102118390Y-62550474D02*
X102070771Y-62645712D01*
X102070771Y-62645712D02*
X102023152Y-62693331D01*
X102023152Y-62693331D02*
X101927914Y-62740950D01*
X101927914Y-62740950D02*
X101880295Y-62740950D01*
X101880295Y-62740950D02*
X101785057Y-62693331D01*
X101785057Y-62693331D02*
X101737438Y-62645712D01*
X101737438Y-62645712D02*
X101689819Y-62550474D01*
X101689819Y-62550474D02*
X101689819Y-62359998D01*
X101689819Y-62359998D02*
X101737438Y-62264760D01*
X101737438Y-62264760D02*
X101785057Y-62217141D01*
X101785057Y-62217141D02*
X101880295Y-62169522D01*
X101880295Y-62169522D02*
X101927914Y-62169522D01*
X101927914Y-62169522D02*
X102023152Y-62217141D01*
X102023152Y-62217141D02*
X102070771Y-62264760D01*
X102070771Y-62264760D02*
X102118390Y-62359998D01*
X102118390Y-62359998D02*
X102118390Y-62550474D01*
X102118390Y-62550474D02*
X102166009Y-62645712D01*
X102166009Y-62645712D02*
X102213628Y-62693331D01*
X102213628Y-62693331D02*
X102308866Y-62740950D01*
X102308866Y-62740950D02*
X102499342Y-62740950D01*
X102499342Y-62740950D02*
X102594580Y-62693331D01*
X102594580Y-62693331D02*
X102642200Y-62645712D01*
X102642200Y-62645712D02*
X102689819Y-62550474D01*
X102689819Y-62550474D02*
X102689819Y-62359998D01*
X102689819Y-62359998D02*
X102642200Y-62264760D01*
X102642200Y-62264760D02*
X102594580Y-62217141D01*
X102594580Y-62217141D02*
X102499342Y-62169522D01*
X102499342Y-62169522D02*
X102308866Y-62169522D01*
X102308866Y-62169522D02*
X102213628Y-62217141D01*
X102213628Y-62217141D02*
X102166009Y-62264760D01*
X102166009Y-62264760D02*
X102118390Y-62359998D01*
X116038333Y-61384580D02*
X115990714Y-61432200D01*
X115990714Y-61432200D02*
X115847857Y-61479819D01*
X115847857Y-61479819D02*
X115752619Y-61479819D01*
X115752619Y-61479819D02*
X115609762Y-61432200D01*
X115609762Y-61432200D02*
X115514524Y-61336961D01*
X115514524Y-61336961D02*
X115466905Y-61241723D01*
X115466905Y-61241723D02*
X115419286Y-61051247D01*
X115419286Y-61051247D02*
X115419286Y-60908390D01*
X115419286Y-60908390D02*
X115466905Y-60717914D01*
X115466905Y-60717914D02*
X115514524Y-60622676D01*
X115514524Y-60622676D02*
X115609762Y-60527438D01*
X115609762Y-60527438D02*
X115752619Y-60479819D01*
X115752619Y-60479819D02*
X115847857Y-60479819D01*
X115847857Y-60479819D02*
X115990714Y-60527438D01*
X115990714Y-60527438D02*
X116038333Y-60575057D01*
X116419286Y-60575057D02*
X116466905Y-60527438D01*
X116466905Y-60527438D02*
X116562143Y-60479819D01*
X116562143Y-60479819D02*
X116800238Y-60479819D01*
X116800238Y-60479819D02*
X116895476Y-60527438D01*
X116895476Y-60527438D02*
X116943095Y-60575057D01*
X116943095Y-60575057D02*
X116990714Y-60670295D01*
X116990714Y-60670295D02*
X116990714Y-60765533D01*
X116990714Y-60765533D02*
X116943095Y-60908390D01*
X116943095Y-60908390D02*
X116371667Y-61479819D01*
X116371667Y-61479819D02*
X116990714Y-61479819D01*
X114562143Y-69369819D02*
X114657381Y-69369819D01*
X114657381Y-69369819D02*
X114752619Y-69417438D01*
X114752619Y-69417438D02*
X114800238Y-69465057D01*
X114800238Y-69465057D02*
X114847857Y-69560295D01*
X114847857Y-69560295D02*
X114895476Y-69750771D01*
X114895476Y-69750771D02*
X114895476Y-69988866D01*
X114895476Y-69988866D02*
X114847857Y-70179342D01*
X114847857Y-70179342D02*
X114800238Y-70274580D01*
X114800238Y-70274580D02*
X114752619Y-70322200D01*
X114752619Y-70322200D02*
X114657381Y-70369819D01*
X114657381Y-70369819D02*
X114562143Y-70369819D01*
X114562143Y-70369819D02*
X114466905Y-70322200D01*
X114466905Y-70322200D02*
X114419286Y-70274580D01*
X114419286Y-70274580D02*
X114371667Y-70179342D01*
X114371667Y-70179342D02*
X114324048Y-69988866D01*
X114324048Y-69988866D02*
X114324048Y-69750771D01*
X114324048Y-69750771D02*
X114371667Y-69560295D01*
X114371667Y-69560295D02*
X114419286Y-69465057D01*
X114419286Y-69465057D02*
X114466905Y-69417438D01*
X114466905Y-69417438D02*
X114562143Y-69369819D01*
X115324048Y-70274580D02*
X115371667Y-70322200D01*
X115371667Y-70322200D02*
X115324048Y-70369819D01*
X115324048Y-70369819D02*
X115276429Y-70322200D01*
X115276429Y-70322200D02*
X115324048Y-70274580D01*
X115324048Y-70274580D02*
X115324048Y-70369819D01*
X116324047Y-70369819D02*
X115752619Y-70369819D01*
X116038333Y-70369819D02*
X116038333Y-69369819D01*
X116038333Y-69369819D02*
X115943095Y-69512676D01*
X115943095Y-69512676D02*
X115847857Y-69607914D01*
X115847857Y-69607914D02*
X115752619Y-69655533D01*
X117181190Y-69703152D02*
X117181190Y-70369819D01*
X116752619Y-69703152D02*
X116752619Y-70226961D01*
X116752619Y-70226961D02*
X116800238Y-70322200D01*
X116800238Y-70322200D02*
X116895476Y-70369819D01*
X116895476Y-70369819D02*
X117038333Y-70369819D01*
X117038333Y-70369819D02*
X117133571Y-70322200D01*
X117133571Y-70322200D02*
X117181190Y-70274580D01*
X117990714Y-69846009D02*
X117657381Y-69846009D01*
X117657381Y-70369819D02*
X117657381Y-69369819D01*
X117657381Y-69369819D02*
X118133571Y-69369819D01*
X148463095Y-60054819D02*
X148463095Y-60864342D01*
X148463095Y-60864342D02*
X148510714Y-60959580D01*
X148510714Y-60959580D02*
X148558333Y-61007200D01*
X148558333Y-61007200D02*
X148653571Y-61054819D01*
X148653571Y-61054819D02*
X148844047Y-61054819D01*
X148844047Y-61054819D02*
X148939285Y-61007200D01*
X148939285Y-61007200D02*
X148986904Y-60959580D01*
X148986904Y-60959580D02*
X149034523Y-60864342D01*
X149034523Y-60864342D02*
X149034523Y-60054819D01*
X150034523Y-61054819D02*
X149463095Y-61054819D01*
X149748809Y-61054819D02*
X149748809Y-60054819D01*
X149748809Y-60054819D02*
X149653571Y-60197676D01*
X149653571Y-60197676D02*
X149558333Y-60292914D01*
X149558333Y-60292914D02*
X149463095Y-60340533D01*
X139519819Y-92083809D02*
X139519819Y-92655237D01*
X139519819Y-92369523D02*
X138519819Y-92369523D01*
X138519819Y-92369523D02*
X138662676Y-92464761D01*
X138662676Y-92464761D02*
X138757914Y-92559999D01*
X138757914Y-92559999D02*
X138805533Y-92655237D01*
X138519819Y-91226666D02*
X138519819Y-91417142D01*
X138519819Y-91417142D02*
X138567438Y-91512380D01*
X138567438Y-91512380D02*
X138615057Y-91559999D01*
X138615057Y-91559999D02*
X138757914Y-91655237D01*
X138757914Y-91655237D02*
X138948390Y-91702856D01*
X138948390Y-91702856D02*
X139329342Y-91702856D01*
X139329342Y-91702856D02*
X139424580Y-91655237D01*
X139424580Y-91655237D02*
X139472200Y-91607618D01*
X139472200Y-91607618D02*
X139519819Y-91512380D01*
X139519819Y-91512380D02*
X139519819Y-91321904D01*
X139519819Y-91321904D02*
X139472200Y-91226666D01*
X139472200Y-91226666D02*
X139424580Y-91179047D01*
X139424580Y-91179047D02*
X139329342Y-91131428D01*
X139329342Y-91131428D02*
X139091247Y-91131428D01*
X139091247Y-91131428D02*
X138996009Y-91179047D01*
X138996009Y-91179047D02*
X138948390Y-91226666D01*
X138948390Y-91226666D02*
X138900771Y-91321904D01*
X138900771Y-91321904D02*
X138900771Y-91512380D01*
X138900771Y-91512380D02*
X138948390Y-91607618D01*
X138948390Y-91607618D02*
X138996009Y-91655237D01*
X138996009Y-91655237D02*
X139091247Y-91702856D01*
X138519819Y-90226666D02*
X138519819Y-90702856D01*
X138519819Y-90702856D02*
X138996009Y-90750475D01*
X138996009Y-90750475D02*
X138948390Y-90702856D01*
X138948390Y-90702856D02*
X138900771Y-90607618D01*
X138900771Y-90607618D02*
X138900771Y-90369523D01*
X138900771Y-90369523D02*
X138948390Y-90274285D01*
X138948390Y-90274285D02*
X138996009Y-90226666D01*
X138996009Y-90226666D02*
X139091247Y-90179047D01*
X139091247Y-90179047D02*
X139329342Y-90179047D01*
X139329342Y-90179047D02*
X139424580Y-90226666D01*
X139424580Y-90226666D02*
X139472200Y-90274285D01*
X139472200Y-90274285D02*
X139519819Y-90369523D01*
X139519819Y-90369523D02*
X139519819Y-90607618D01*
X139519819Y-90607618D02*
X139472200Y-90702856D01*
X139472200Y-90702856D02*
X139424580Y-90750475D01*
X138519819Y-89274285D02*
X138519819Y-89750475D01*
X138519819Y-89750475D02*
X138996009Y-89798094D01*
X138996009Y-89798094D02*
X138948390Y-89750475D01*
X138948390Y-89750475D02*
X138900771Y-89655237D01*
X138900771Y-89655237D02*
X138900771Y-89417142D01*
X138900771Y-89417142D02*
X138948390Y-89321904D01*
X138948390Y-89321904D02*
X138996009Y-89274285D01*
X138996009Y-89274285D02*
X139091247Y-89226666D01*
X139091247Y-89226666D02*
X139329342Y-89226666D01*
X139329342Y-89226666D02*
X139424580Y-89274285D01*
X139424580Y-89274285D02*
X139472200Y-89321904D01*
X139472200Y-89321904D02*
X139519819Y-89417142D01*
X139519819Y-89417142D02*
X139519819Y-89655237D01*
X139519819Y-89655237D02*
X139472200Y-89750475D01*
X139472200Y-89750475D02*
X139424580Y-89798094D01*
X138519819Y-88607618D02*
X138519819Y-88512380D01*
X138519819Y-88512380D02*
X138567438Y-88417142D01*
X138567438Y-88417142D02*
X138615057Y-88369523D01*
X138615057Y-88369523D02*
X138710295Y-88321904D01*
X138710295Y-88321904D02*
X138900771Y-88274285D01*
X138900771Y-88274285D02*
X139138866Y-88274285D01*
X139138866Y-88274285D02*
X139329342Y-88321904D01*
X139329342Y-88321904D02*
X139424580Y-88369523D01*
X139424580Y-88369523D02*
X139472200Y-88417142D01*
X139472200Y-88417142D02*
X139519819Y-88512380D01*
X139519819Y-88512380D02*
X139519819Y-88607618D01*
X139519819Y-88607618D02*
X139472200Y-88702856D01*
X139472200Y-88702856D02*
X139424580Y-88750475D01*
X139424580Y-88750475D02*
X139329342Y-88798094D01*
X139329342Y-88798094D02*
X139138866Y-88845713D01*
X139138866Y-88845713D02*
X138900771Y-88845713D01*
X138900771Y-88845713D02*
X138710295Y-88798094D01*
X138710295Y-88798094D02*
X138615057Y-88750475D01*
X138615057Y-88750475D02*
X138567438Y-88702856D01*
X138567438Y-88702856D02*
X138519819Y-88607618D01*
X138472200Y-87131428D02*
X139757914Y-87988570D01*
X139519819Y-86274285D02*
X139519819Y-86845713D01*
X139519819Y-86559999D02*
X138519819Y-86559999D01*
X138519819Y-86559999D02*
X138662676Y-86655237D01*
X138662676Y-86655237D02*
X138757914Y-86750475D01*
X138757914Y-86750475D02*
X138805533Y-86845713D01*
X138519819Y-85417142D02*
X138519819Y-85607618D01*
X138519819Y-85607618D02*
X138567438Y-85702856D01*
X138567438Y-85702856D02*
X138615057Y-85750475D01*
X138615057Y-85750475D02*
X138757914Y-85845713D01*
X138757914Y-85845713D02*
X138948390Y-85893332D01*
X138948390Y-85893332D02*
X139329342Y-85893332D01*
X139329342Y-85893332D02*
X139424580Y-85845713D01*
X139424580Y-85845713D02*
X139472200Y-85798094D01*
X139472200Y-85798094D02*
X139519819Y-85702856D01*
X139519819Y-85702856D02*
X139519819Y-85512380D01*
X139519819Y-85512380D02*
X139472200Y-85417142D01*
X139472200Y-85417142D02*
X139424580Y-85369523D01*
X139424580Y-85369523D02*
X139329342Y-85321904D01*
X139329342Y-85321904D02*
X139091247Y-85321904D01*
X139091247Y-85321904D02*
X138996009Y-85369523D01*
X138996009Y-85369523D02*
X138948390Y-85417142D01*
X138948390Y-85417142D02*
X138900771Y-85512380D01*
X138900771Y-85512380D02*
X138900771Y-85702856D01*
X138900771Y-85702856D02*
X138948390Y-85798094D01*
X138948390Y-85798094D02*
X138996009Y-85845713D01*
X138996009Y-85845713D02*
X139091247Y-85893332D01*
X139424580Y-84321904D02*
X139472200Y-84369523D01*
X139472200Y-84369523D02*
X139519819Y-84512380D01*
X139519819Y-84512380D02*
X139519819Y-84607618D01*
X139519819Y-84607618D02*
X139472200Y-84750475D01*
X139472200Y-84750475D02*
X139376961Y-84845713D01*
X139376961Y-84845713D02*
X139281723Y-84893332D01*
X139281723Y-84893332D02*
X139091247Y-84940951D01*
X139091247Y-84940951D02*
X138948390Y-84940951D01*
X138948390Y-84940951D02*
X138757914Y-84893332D01*
X138757914Y-84893332D02*
X138662676Y-84845713D01*
X138662676Y-84845713D02*
X138567438Y-84750475D01*
X138567438Y-84750475D02*
X138519819Y-84607618D01*
X138519819Y-84607618D02*
X138519819Y-84512380D01*
X138519819Y-84512380D02*
X138567438Y-84369523D01*
X138567438Y-84369523D02*
X138615057Y-84321904D01*
X138519819Y-83417142D02*
X138519819Y-83893332D01*
X138519819Y-83893332D02*
X138996009Y-83940951D01*
X138996009Y-83940951D02*
X138948390Y-83893332D01*
X138948390Y-83893332D02*
X138900771Y-83798094D01*
X138900771Y-83798094D02*
X138900771Y-83559999D01*
X138900771Y-83559999D02*
X138948390Y-83464761D01*
X138948390Y-83464761D02*
X138996009Y-83417142D01*
X138996009Y-83417142D02*
X139091247Y-83369523D01*
X139091247Y-83369523D02*
X139329342Y-83369523D01*
X139329342Y-83369523D02*
X139424580Y-83417142D01*
X139424580Y-83417142D02*
X139472200Y-83464761D01*
X139472200Y-83464761D02*
X139519819Y-83559999D01*
X139519819Y-83559999D02*
X139519819Y-83798094D01*
X139519819Y-83798094D02*
X139472200Y-83893332D01*
X139472200Y-83893332D02*
X139424580Y-83940951D01*
X138519819Y-82464761D02*
X138519819Y-82940951D01*
X138519819Y-82940951D02*
X138996009Y-82988570D01*
X138996009Y-82988570D02*
X138948390Y-82940951D01*
X138948390Y-82940951D02*
X138900771Y-82845713D01*
X138900771Y-82845713D02*
X138900771Y-82607618D01*
X138900771Y-82607618D02*
X138948390Y-82512380D01*
X138948390Y-82512380D02*
X138996009Y-82464761D01*
X138996009Y-82464761D02*
X139091247Y-82417142D01*
X139091247Y-82417142D02*
X139329342Y-82417142D01*
X139329342Y-82417142D02*
X139424580Y-82464761D01*
X139424580Y-82464761D02*
X139472200Y-82512380D01*
X139472200Y-82512380D02*
X139519819Y-82607618D01*
X139519819Y-82607618D02*
X139519819Y-82845713D01*
X139519819Y-82845713D02*
X139472200Y-82940951D01*
X139472200Y-82940951D02*
X139424580Y-82988570D01*
X138519819Y-81798094D02*
X138519819Y-81702856D01*
X138519819Y-81702856D02*
X138567438Y-81607618D01*
X138567438Y-81607618D02*
X138615057Y-81559999D01*
X138615057Y-81559999D02*
X138710295Y-81512380D01*
X138710295Y-81512380D02*
X138900771Y-81464761D01*
X138900771Y-81464761D02*
X139138866Y-81464761D01*
X139138866Y-81464761D02*
X139329342Y-81512380D01*
X139329342Y-81512380D02*
X139424580Y-81559999D01*
X139424580Y-81559999D02*
X139472200Y-81607618D01*
X139472200Y-81607618D02*
X139519819Y-81702856D01*
X139519819Y-81702856D02*
X139519819Y-81798094D01*
X139519819Y-81798094D02*
X139472200Y-81893332D01*
X139472200Y-81893332D02*
X139424580Y-81940951D01*
X139424580Y-81940951D02*
X139329342Y-81988570D01*
X139329342Y-81988570D02*
X139138866Y-82036189D01*
X139138866Y-82036189D02*
X138900771Y-82036189D01*
X138900771Y-82036189D02*
X138710295Y-81988570D01*
X138710295Y-81988570D02*
X138615057Y-81940951D01*
X138615057Y-81940951D02*
X138567438Y-81893332D01*
X138567438Y-81893332D02*
X138519819Y-81798094D01*
X160488333Y-61384580D02*
X160440714Y-61432200D01*
X160440714Y-61432200D02*
X160297857Y-61479819D01*
X160297857Y-61479819D02*
X160202619Y-61479819D01*
X160202619Y-61479819D02*
X160059762Y-61432200D01*
X160059762Y-61432200D02*
X159964524Y-61336961D01*
X159964524Y-61336961D02*
X159916905Y-61241723D01*
X159916905Y-61241723D02*
X159869286Y-61051247D01*
X159869286Y-61051247D02*
X159869286Y-60908390D01*
X159869286Y-60908390D02*
X159916905Y-60717914D01*
X159916905Y-60717914D02*
X159964524Y-60622676D01*
X159964524Y-60622676D02*
X160059762Y-60527438D01*
X160059762Y-60527438D02*
X160202619Y-60479819D01*
X160202619Y-60479819D02*
X160297857Y-60479819D01*
X160297857Y-60479819D02*
X160440714Y-60527438D01*
X160440714Y-60527438D02*
X160488333Y-60575057D01*
X161440714Y-61479819D02*
X160869286Y-61479819D01*
X161155000Y-61479819D02*
X161155000Y-60479819D01*
X161155000Y-60479819D02*
X161059762Y-60622676D01*
X161059762Y-60622676D02*
X160964524Y-60717914D01*
X160964524Y-60717914D02*
X160869286Y-60765533D01*
X159012143Y-69369819D02*
X159107381Y-69369819D01*
X159107381Y-69369819D02*
X159202619Y-69417438D01*
X159202619Y-69417438D02*
X159250238Y-69465057D01*
X159250238Y-69465057D02*
X159297857Y-69560295D01*
X159297857Y-69560295D02*
X159345476Y-69750771D01*
X159345476Y-69750771D02*
X159345476Y-69988866D01*
X159345476Y-69988866D02*
X159297857Y-70179342D01*
X159297857Y-70179342D02*
X159250238Y-70274580D01*
X159250238Y-70274580D02*
X159202619Y-70322200D01*
X159202619Y-70322200D02*
X159107381Y-70369819D01*
X159107381Y-70369819D02*
X159012143Y-70369819D01*
X159012143Y-70369819D02*
X158916905Y-70322200D01*
X158916905Y-70322200D02*
X158869286Y-70274580D01*
X158869286Y-70274580D02*
X158821667Y-70179342D01*
X158821667Y-70179342D02*
X158774048Y-69988866D01*
X158774048Y-69988866D02*
X158774048Y-69750771D01*
X158774048Y-69750771D02*
X158821667Y-69560295D01*
X158821667Y-69560295D02*
X158869286Y-69465057D01*
X158869286Y-69465057D02*
X158916905Y-69417438D01*
X158916905Y-69417438D02*
X159012143Y-69369819D01*
X159774048Y-70274580D02*
X159821667Y-70322200D01*
X159821667Y-70322200D02*
X159774048Y-70369819D01*
X159774048Y-70369819D02*
X159726429Y-70322200D01*
X159726429Y-70322200D02*
X159774048Y-70274580D01*
X159774048Y-70274580D02*
X159774048Y-70369819D01*
X160774047Y-70369819D02*
X160202619Y-70369819D01*
X160488333Y-70369819D02*
X160488333Y-69369819D01*
X160488333Y-69369819D02*
X160393095Y-69512676D01*
X160393095Y-69512676D02*
X160297857Y-69607914D01*
X160297857Y-69607914D02*
X160202619Y-69655533D01*
X161631190Y-69703152D02*
X161631190Y-70369819D01*
X161202619Y-69703152D02*
X161202619Y-70226961D01*
X161202619Y-70226961D02*
X161250238Y-70322200D01*
X161250238Y-70322200D02*
X161345476Y-70369819D01*
X161345476Y-70369819D02*
X161488333Y-70369819D01*
X161488333Y-70369819D02*
X161583571Y-70322200D01*
X161583571Y-70322200D02*
X161631190Y-70274580D01*
X162440714Y-69846009D02*
X162107381Y-69846009D01*
X162107381Y-70369819D02*
X162107381Y-69369819D01*
X162107381Y-69369819D02*
X162583571Y-69369819D01*
X136358333Y-61384580D02*
X136310714Y-61432200D01*
X136310714Y-61432200D02*
X136167857Y-61479819D01*
X136167857Y-61479819D02*
X136072619Y-61479819D01*
X136072619Y-61479819D02*
X135929762Y-61432200D01*
X135929762Y-61432200D02*
X135834524Y-61336961D01*
X135834524Y-61336961D02*
X135786905Y-61241723D01*
X135786905Y-61241723D02*
X135739286Y-61051247D01*
X135739286Y-61051247D02*
X135739286Y-60908390D01*
X135739286Y-60908390D02*
X135786905Y-60717914D01*
X135786905Y-60717914D02*
X135834524Y-60622676D01*
X135834524Y-60622676D02*
X135929762Y-60527438D01*
X135929762Y-60527438D02*
X136072619Y-60479819D01*
X136072619Y-60479819D02*
X136167857Y-60479819D01*
X136167857Y-60479819D02*
X136310714Y-60527438D01*
X136310714Y-60527438D02*
X136358333Y-60575057D01*
X137215476Y-60813152D02*
X137215476Y-61479819D01*
X136977381Y-60432200D02*
X136739286Y-61146485D01*
X136739286Y-61146485D02*
X137358333Y-61146485D01*
X134882143Y-69369819D02*
X134977381Y-69369819D01*
X134977381Y-69369819D02*
X135072619Y-69417438D01*
X135072619Y-69417438D02*
X135120238Y-69465057D01*
X135120238Y-69465057D02*
X135167857Y-69560295D01*
X135167857Y-69560295D02*
X135215476Y-69750771D01*
X135215476Y-69750771D02*
X135215476Y-69988866D01*
X135215476Y-69988866D02*
X135167857Y-70179342D01*
X135167857Y-70179342D02*
X135120238Y-70274580D01*
X135120238Y-70274580D02*
X135072619Y-70322200D01*
X135072619Y-70322200D02*
X134977381Y-70369819D01*
X134977381Y-70369819D02*
X134882143Y-70369819D01*
X134882143Y-70369819D02*
X134786905Y-70322200D01*
X134786905Y-70322200D02*
X134739286Y-70274580D01*
X134739286Y-70274580D02*
X134691667Y-70179342D01*
X134691667Y-70179342D02*
X134644048Y-69988866D01*
X134644048Y-69988866D02*
X134644048Y-69750771D01*
X134644048Y-69750771D02*
X134691667Y-69560295D01*
X134691667Y-69560295D02*
X134739286Y-69465057D01*
X134739286Y-69465057D02*
X134786905Y-69417438D01*
X134786905Y-69417438D02*
X134882143Y-69369819D01*
X135644048Y-70274580D02*
X135691667Y-70322200D01*
X135691667Y-70322200D02*
X135644048Y-70369819D01*
X135644048Y-70369819D02*
X135596429Y-70322200D01*
X135596429Y-70322200D02*
X135644048Y-70274580D01*
X135644048Y-70274580D02*
X135644048Y-70369819D01*
X136644047Y-70369819D02*
X136072619Y-70369819D01*
X136358333Y-70369819D02*
X136358333Y-69369819D01*
X136358333Y-69369819D02*
X136263095Y-69512676D01*
X136263095Y-69512676D02*
X136167857Y-69607914D01*
X136167857Y-69607914D02*
X136072619Y-69655533D01*
X137501190Y-69703152D02*
X137501190Y-70369819D01*
X137072619Y-69703152D02*
X137072619Y-70226961D01*
X137072619Y-70226961D02*
X137120238Y-70322200D01*
X137120238Y-70322200D02*
X137215476Y-70369819D01*
X137215476Y-70369819D02*
X137358333Y-70369819D01*
X137358333Y-70369819D02*
X137453571Y-70322200D01*
X137453571Y-70322200D02*
X137501190Y-70274580D01*
X138310714Y-69846009D02*
X137977381Y-69846009D01*
X137977381Y-70369819D02*
X137977381Y-69369819D01*
X137977381Y-69369819D02*
X138453571Y-69369819D01*
X126238095Y-60098819D02*
X126238095Y-60908342D01*
X126238095Y-60908342D02*
X126285714Y-61003580D01*
X126285714Y-61003580D02*
X126333333Y-61051200D01*
X126333333Y-61051200D02*
X126428571Y-61098819D01*
X126428571Y-61098819D02*
X126619047Y-61098819D01*
X126619047Y-61098819D02*
X126714285Y-61051200D01*
X126714285Y-61051200D02*
X126761904Y-61003580D01*
X126761904Y-61003580D02*
X126809523Y-60908342D01*
X126809523Y-60908342D02*
X126809523Y-60098819D01*
X127714285Y-60432152D02*
X127714285Y-61098819D01*
X127476190Y-60051200D02*
X127238095Y-60765485D01*
X127238095Y-60765485D02*
X127857142Y-60765485D01*
X123261904Y-84974819D02*
X122690476Y-84974819D01*
X122976190Y-84974819D02*
X122976190Y-83974819D01*
X122976190Y-83974819D02*
X122880952Y-84117676D01*
X122880952Y-84117676D02*
X122785714Y-84212914D01*
X122785714Y-84212914D02*
X122690476Y-84260533D01*
X123690476Y-84879580D02*
X123738095Y-84927200D01*
X123738095Y-84927200D02*
X123690476Y-84974819D01*
X123690476Y-84974819D02*
X123642857Y-84927200D01*
X123642857Y-84927200D02*
X123690476Y-84879580D01*
X123690476Y-84879580D02*
X123690476Y-84974819D01*
X124309523Y-84403390D02*
X124214285Y-84355771D01*
X124214285Y-84355771D02*
X124166666Y-84308152D01*
X124166666Y-84308152D02*
X124119047Y-84212914D01*
X124119047Y-84212914D02*
X124119047Y-84165295D01*
X124119047Y-84165295D02*
X124166666Y-84070057D01*
X124166666Y-84070057D02*
X124214285Y-84022438D01*
X124214285Y-84022438D02*
X124309523Y-83974819D01*
X124309523Y-83974819D02*
X124499999Y-83974819D01*
X124499999Y-83974819D02*
X124595237Y-84022438D01*
X124595237Y-84022438D02*
X124642856Y-84070057D01*
X124642856Y-84070057D02*
X124690475Y-84165295D01*
X124690475Y-84165295D02*
X124690475Y-84212914D01*
X124690475Y-84212914D02*
X124642856Y-84308152D01*
X124642856Y-84308152D02*
X124595237Y-84355771D01*
X124595237Y-84355771D02*
X124499999Y-84403390D01*
X124499999Y-84403390D02*
X124309523Y-84403390D01*
X124309523Y-84403390D02*
X124214285Y-84451009D01*
X124214285Y-84451009D02*
X124166666Y-84498628D01*
X124166666Y-84498628D02*
X124119047Y-84593866D01*
X124119047Y-84593866D02*
X124119047Y-84784342D01*
X124119047Y-84784342D02*
X124166666Y-84879580D01*
X124166666Y-84879580D02*
X124214285Y-84927200D01*
X124214285Y-84927200D02*
X124309523Y-84974819D01*
X124309523Y-84974819D02*
X124499999Y-84974819D01*
X124499999Y-84974819D02*
X124595237Y-84927200D01*
X124595237Y-84927200D02*
X124642856Y-84879580D01*
X124642856Y-84879580D02*
X124690475Y-84784342D01*
X124690475Y-84784342D02*
X124690475Y-84593866D01*
X124690475Y-84593866D02*
X124642856Y-84498628D01*
X124642856Y-84498628D02*
X124595237Y-84451009D01*
X124595237Y-84451009D02*
X124499999Y-84403390D01*
X125547618Y-84308152D02*
X125547618Y-84974819D01*
X125309523Y-83927200D02*
X125071428Y-84641485D01*
X125071428Y-84641485D02*
X125690475Y-84641485D01*
X125976190Y-83974819D02*
X126595237Y-83974819D01*
X126595237Y-83974819D02*
X126261904Y-84355771D01*
X126261904Y-84355771D02*
X126404761Y-84355771D01*
X126404761Y-84355771D02*
X126499999Y-84403390D01*
X126499999Y-84403390D02*
X126547618Y-84451009D01*
X126547618Y-84451009D02*
X126595237Y-84546247D01*
X126595237Y-84546247D02*
X126595237Y-84784342D01*
X126595237Y-84784342D02*
X126547618Y-84879580D01*
X126547618Y-84879580D02*
X126499999Y-84927200D01*
X126499999Y-84927200D02*
X126404761Y-84974819D01*
X126404761Y-84974819D02*
X126119047Y-84974819D01*
X126119047Y-84974819D02*
X126023809Y-84927200D01*
X126023809Y-84927200D02*
X125976190Y-84879580D01*
X126976190Y-84070057D02*
X127023809Y-84022438D01*
X127023809Y-84022438D02*
X127119047Y-83974819D01*
X127119047Y-83974819D02*
X127357142Y-83974819D01*
X127357142Y-83974819D02*
X127452380Y-84022438D01*
X127452380Y-84022438D02*
X127499999Y-84070057D01*
X127499999Y-84070057D02*
X127547618Y-84165295D01*
X127547618Y-84165295D02*
X127547618Y-84260533D01*
X127547618Y-84260533D02*
X127499999Y-84403390D01*
X127499999Y-84403390D02*
X126928571Y-84974819D01*
X126928571Y-84974819D02*
X127547618Y-84974819D01*
X128738095Y-84974819D02*
X128738095Y-83974819D01*
X128738095Y-83974819D02*
X129071428Y-84689104D01*
X129071428Y-84689104D02*
X129404761Y-83974819D01*
X129404761Y-83974819D02*
X129404761Y-84974819D01*
X129880952Y-84974819D02*
X129880952Y-83974819D01*
X129880952Y-84451009D02*
X130452380Y-84451009D01*
X130452380Y-84974819D02*
X130452380Y-83974819D01*
X130833333Y-84308152D02*
X131357142Y-84308152D01*
X131357142Y-84308152D02*
X130833333Y-84974819D01*
X130833333Y-84974819D02*
X131357142Y-84974819D01*
X182078333Y-61384580D02*
X182030714Y-61432200D01*
X182030714Y-61432200D02*
X181887857Y-61479819D01*
X181887857Y-61479819D02*
X181792619Y-61479819D01*
X181792619Y-61479819D02*
X181649762Y-61432200D01*
X181649762Y-61432200D02*
X181554524Y-61336961D01*
X181554524Y-61336961D02*
X181506905Y-61241723D01*
X181506905Y-61241723D02*
X181459286Y-61051247D01*
X181459286Y-61051247D02*
X181459286Y-60908390D01*
X181459286Y-60908390D02*
X181506905Y-60717914D01*
X181506905Y-60717914D02*
X181554524Y-60622676D01*
X181554524Y-60622676D02*
X181649762Y-60527438D01*
X181649762Y-60527438D02*
X181792619Y-60479819D01*
X181792619Y-60479819D02*
X181887857Y-60479819D01*
X181887857Y-60479819D02*
X182030714Y-60527438D01*
X182030714Y-60527438D02*
X182078333Y-60575057D01*
X182411667Y-60479819D02*
X183030714Y-60479819D01*
X183030714Y-60479819D02*
X182697381Y-60860771D01*
X182697381Y-60860771D02*
X182840238Y-60860771D01*
X182840238Y-60860771D02*
X182935476Y-60908390D01*
X182935476Y-60908390D02*
X182983095Y-60956009D01*
X182983095Y-60956009D02*
X183030714Y-61051247D01*
X183030714Y-61051247D02*
X183030714Y-61289342D01*
X183030714Y-61289342D02*
X182983095Y-61384580D01*
X182983095Y-61384580D02*
X182935476Y-61432200D01*
X182935476Y-61432200D02*
X182840238Y-61479819D01*
X182840238Y-61479819D02*
X182554524Y-61479819D01*
X182554524Y-61479819D02*
X182459286Y-61432200D01*
X182459286Y-61432200D02*
X182411667Y-61384580D01*
X180602143Y-69369819D02*
X180697381Y-69369819D01*
X180697381Y-69369819D02*
X180792619Y-69417438D01*
X180792619Y-69417438D02*
X180840238Y-69465057D01*
X180840238Y-69465057D02*
X180887857Y-69560295D01*
X180887857Y-69560295D02*
X180935476Y-69750771D01*
X180935476Y-69750771D02*
X180935476Y-69988866D01*
X180935476Y-69988866D02*
X180887857Y-70179342D01*
X180887857Y-70179342D02*
X180840238Y-70274580D01*
X180840238Y-70274580D02*
X180792619Y-70322200D01*
X180792619Y-70322200D02*
X180697381Y-70369819D01*
X180697381Y-70369819D02*
X180602143Y-70369819D01*
X180602143Y-70369819D02*
X180506905Y-70322200D01*
X180506905Y-70322200D02*
X180459286Y-70274580D01*
X180459286Y-70274580D02*
X180411667Y-70179342D01*
X180411667Y-70179342D02*
X180364048Y-69988866D01*
X180364048Y-69988866D02*
X180364048Y-69750771D01*
X180364048Y-69750771D02*
X180411667Y-69560295D01*
X180411667Y-69560295D02*
X180459286Y-69465057D01*
X180459286Y-69465057D02*
X180506905Y-69417438D01*
X180506905Y-69417438D02*
X180602143Y-69369819D01*
X181364048Y-70274580D02*
X181411667Y-70322200D01*
X181411667Y-70322200D02*
X181364048Y-70369819D01*
X181364048Y-70369819D02*
X181316429Y-70322200D01*
X181316429Y-70322200D02*
X181364048Y-70274580D01*
X181364048Y-70274580D02*
X181364048Y-70369819D01*
X182364047Y-70369819D02*
X181792619Y-70369819D01*
X182078333Y-70369819D02*
X182078333Y-69369819D01*
X182078333Y-69369819D02*
X181983095Y-69512676D01*
X181983095Y-69512676D02*
X181887857Y-69607914D01*
X181887857Y-69607914D02*
X181792619Y-69655533D01*
X183221190Y-69703152D02*
X183221190Y-70369819D01*
X182792619Y-69703152D02*
X182792619Y-70226961D01*
X182792619Y-70226961D02*
X182840238Y-70322200D01*
X182840238Y-70322200D02*
X182935476Y-70369819D01*
X182935476Y-70369819D02*
X183078333Y-70369819D01*
X183078333Y-70369819D02*
X183173571Y-70322200D01*
X183173571Y-70322200D02*
X183221190Y-70274580D01*
X184030714Y-69846009D02*
X183697381Y-69846009D01*
X183697381Y-70369819D02*
X183697381Y-69369819D01*
X183697381Y-69369819D02*
X184173571Y-69369819D01*
X165568333Y-112184580D02*
X165520714Y-112232200D01*
X165520714Y-112232200D02*
X165377857Y-112279819D01*
X165377857Y-112279819D02*
X165282619Y-112279819D01*
X165282619Y-112279819D02*
X165139762Y-112232200D01*
X165139762Y-112232200D02*
X165044524Y-112136961D01*
X165044524Y-112136961D02*
X164996905Y-112041723D01*
X164996905Y-112041723D02*
X164949286Y-111851247D01*
X164949286Y-111851247D02*
X164949286Y-111708390D01*
X164949286Y-111708390D02*
X164996905Y-111517914D01*
X164996905Y-111517914D02*
X165044524Y-111422676D01*
X165044524Y-111422676D02*
X165139762Y-111327438D01*
X165139762Y-111327438D02*
X165282619Y-111279819D01*
X165282619Y-111279819D02*
X165377857Y-111279819D01*
X165377857Y-111279819D02*
X165520714Y-111327438D01*
X165520714Y-111327438D02*
X165568333Y-111375057D01*
X165901667Y-111279819D02*
X166568333Y-111279819D01*
X166568333Y-111279819D02*
X166139762Y-112279819D01*
X163060238Y-112883152D02*
X163060238Y-113549819D01*
X162822143Y-112502200D02*
X162584048Y-113216485D01*
X162584048Y-113216485D02*
X163203095Y-113216485D01*
X163584048Y-113454580D02*
X163631667Y-113502200D01*
X163631667Y-113502200D02*
X163584048Y-113549819D01*
X163584048Y-113549819D02*
X163536429Y-113502200D01*
X163536429Y-113502200D02*
X163584048Y-113454580D01*
X163584048Y-113454580D02*
X163584048Y-113549819D01*
X163965000Y-112549819D02*
X164631666Y-112549819D01*
X164631666Y-112549819D02*
X164203095Y-113549819D01*
X165441190Y-112883152D02*
X165441190Y-113549819D01*
X165012619Y-112883152D02*
X165012619Y-113406961D01*
X165012619Y-113406961D02*
X165060238Y-113502200D01*
X165060238Y-113502200D02*
X165155476Y-113549819D01*
X165155476Y-113549819D02*
X165298333Y-113549819D01*
X165298333Y-113549819D02*
X165393571Y-113502200D01*
X165393571Y-113502200D02*
X165441190Y-113454580D01*
X166250714Y-113026009D02*
X165917381Y-113026009D01*
X165917381Y-113549819D02*
X165917381Y-112549819D01*
X165917381Y-112549819D02*
X166393571Y-112549819D01*
X173732666Y-130884819D02*
X173732666Y-131599104D01*
X173732666Y-131599104D02*
X173685047Y-131741961D01*
X173685047Y-131741961D02*
X173589809Y-131837200D01*
X173589809Y-131837200D02*
X173446952Y-131884819D01*
X173446952Y-131884819D02*
X173351714Y-131884819D01*
X174732666Y-131884819D02*
X174161238Y-131884819D01*
X174446952Y-131884819D02*
X174446952Y-130884819D01*
X174446952Y-130884819D02*
X174351714Y-131027676D01*
X174351714Y-131027676D02*
X174256476Y-131122914D01*
X174256476Y-131122914D02*
X174161238Y-131170533D01*
D10*
%TO.C,J1*%
X102810000Y-107955000D02*
X102810000Y-109285000D01*
X102810000Y-110555000D02*
X102810000Y-113155000D01*
X102810000Y-113155000D02*
X110550000Y-113155000D01*
X104140000Y-107955000D02*
X102810000Y-107955000D01*
X105410000Y-107955000D02*
X105410000Y-110555000D01*
X105410000Y-107955000D02*
X110550000Y-107955000D01*
X105410000Y-110555000D02*
X102810000Y-110555000D01*
X110550000Y-107955000D02*
X110550000Y-113155000D01*
%TO.C,C5*%
X169775000Y-93630000D02*
X166992000Y-93630000D01*
X169775000Y-93670000D02*
X166995000Y-93670000D01*
X169775000Y-93710000D02*
X166998000Y-93710000D01*
X169775000Y-93750000D02*
X167001000Y-93750000D01*
X169775000Y-93790000D02*
X167005000Y-93790000D01*
X169775000Y-93830000D02*
X167010000Y-93830000D01*
X169775000Y-93870000D02*
X167014000Y-93870000D01*
X169775000Y-93910000D02*
X167020000Y-93910000D01*
X169775000Y-93950000D02*
X167025000Y-93950000D01*
X169775000Y-93990000D02*
X167031000Y-93990000D01*
X169775000Y-94030000D02*
X167038000Y-94030000D01*
X169775000Y-94070000D02*
X167045000Y-94070000D01*
X169775000Y-94111000D02*
X167052000Y-94111000D01*
X169775000Y-94151000D02*
X167060000Y-94151000D01*
X169775000Y-94191000D02*
X167068000Y-94191000D01*
X169775000Y-94231000D02*
X167077000Y-94231000D01*
X169775000Y-94271000D02*
X167086000Y-94271000D01*
X169775000Y-94311000D02*
X167095000Y-94311000D01*
X169775000Y-94351000D02*
X167105000Y-94351000D01*
X169775000Y-94391000D02*
X167116000Y-94391000D01*
X169775000Y-94431000D02*
X167127000Y-94431000D01*
X169775000Y-94471000D02*
X167138000Y-94471000D01*
X169775000Y-94511000D02*
X167150000Y-94511000D01*
X169775000Y-94551000D02*
X167162000Y-94551000D01*
X169775000Y-94591000D02*
X167175000Y-94591000D01*
X169775000Y-94631000D02*
X167189000Y-94631000D01*
X169775000Y-94671000D02*
X167202000Y-94671000D01*
X169775000Y-94711000D02*
X167217000Y-94711000D01*
X169775000Y-94751000D02*
X167231000Y-94751000D01*
X169775000Y-94791000D02*
X167247000Y-94791000D01*
X169775000Y-94831000D02*
X167262000Y-94831000D01*
X169775000Y-94871000D02*
X167279000Y-94871000D01*
X169775000Y-94911000D02*
X167295000Y-94911000D01*
X169775000Y-94951000D02*
X167313000Y-94951000D01*
X169775000Y-94991000D02*
X167331000Y-94991000D01*
X169775000Y-95031000D02*
X167349000Y-95031000D01*
X169775000Y-95071000D02*
X167368000Y-95071000D01*
X169775000Y-95111000D02*
X167388000Y-95111000D01*
X169775000Y-95151000D02*
X167408000Y-95151000D01*
X169775000Y-95191000D02*
X167429000Y-95191000D01*
X169775000Y-95231000D02*
X167450000Y-95231000D01*
X169775000Y-95271000D02*
X167472000Y-95271000D01*
X169775000Y-95311000D02*
X167494000Y-95311000D01*
X169775000Y-95351000D02*
X167518000Y-95351000D01*
X169775000Y-95391000D02*
X167541000Y-95391000D01*
X169775000Y-95431000D02*
X167566000Y-95431000D01*
X169775000Y-95471000D02*
X167591000Y-95471000D01*
X169775000Y-95511000D02*
X167617000Y-95511000D01*
X169775000Y-95551000D02*
X167643000Y-95551000D01*
X169775000Y-95591000D02*
X167671000Y-95591000D01*
X169775000Y-95631000D02*
X167699000Y-95631000D01*
X169775000Y-95671000D02*
X167727000Y-95671000D01*
X171256000Y-97231000D02*
X170374000Y-97231000D01*
X171508000Y-97191000D02*
X170122000Y-97191000D01*
X171692000Y-97151000D02*
X169938000Y-97151000D01*
X171843000Y-97111000D02*
X169787000Y-97111000D01*
X171973000Y-97071000D02*
X169657000Y-97071000D01*
X172090000Y-97031000D02*
X169540000Y-97031000D01*
X172196000Y-96991000D02*
X169434000Y-96991000D01*
X172293000Y-96951000D02*
X169337000Y-96951000D01*
X172384000Y-96911000D02*
X169246000Y-96911000D01*
X172469000Y-96871000D02*
X169161000Y-96871000D01*
X172548000Y-96831000D02*
X169082000Y-96831000D01*
X172624000Y-96791000D02*
X169006000Y-96791000D01*
X172696000Y-96751000D02*
X168934000Y-96751000D01*
X172764000Y-96711000D02*
X168866000Y-96711000D01*
X172829000Y-96671000D02*
X168801000Y-96671000D01*
X172892000Y-96631000D02*
X168738000Y-96631000D01*
X172952000Y-96591000D02*
X168678000Y-96591000D01*
X172990000Y-89247789D02*
X172990000Y-89997789D01*
X173010000Y-96551000D02*
X168620000Y-96551000D01*
X173065000Y-96511000D02*
X168565000Y-96511000D01*
X173119000Y-96471000D02*
X168511000Y-96471000D01*
X173170000Y-96431000D02*
X168460000Y-96431000D01*
X173220000Y-96391000D02*
X168410000Y-96391000D01*
X173269000Y-96351000D02*
X168361000Y-96351000D01*
X173315000Y-96311000D02*
X168315000Y-96311000D01*
X173361000Y-96271000D02*
X168269000Y-96271000D01*
X173365000Y-89622789D02*
X172615000Y-89622789D01*
X173404000Y-96231000D02*
X168226000Y-96231000D01*
X173447000Y-96191000D02*
X168183000Y-96191000D01*
X173488000Y-96151000D02*
X168142000Y-96151000D01*
X173528000Y-96111000D02*
X168102000Y-96111000D01*
X173567000Y-96071000D02*
X168063000Y-96071000D01*
X173605000Y-96031000D02*
X168025000Y-96031000D01*
X173642000Y-95991000D02*
X167988000Y-95991000D01*
X173678000Y-95951000D02*
X167952000Y-95951000D01*
X173713000Y-95911000D02*
X167917000Y-95911000D01*
X173746000Y-95871000D02*
X167884000Y-95871000D01*
X173779000Y-95831000D02*
X167851000Y-95831000D01*
X173811000Y-95791000D02*
X167819000Y-95791000D01*
X173843000Y-95751000D02*
X167787000Y-95751000D01*
X173873000Y-95711000D02*
X167757000Y-95711000D01*
X173903000Y-95671000D02*
X171855000Y-95671000D01*
X173931000Y-95631000D02*
X171855000Y-95631000D01*
X173959000Y-95591000D02*
X171855000Y-95591000D01*
X173987000Y-95551000D02*
X171855000Y-95551000D01*
X174013000Y-95511000D02*
X171855000Y-95511000D01*
X174039000Y-95471000D02*
X171855000Y-95471000D01*
X174064000Y-95431000D02*
X171855000Y-95431000D01*
X174089000Y-95391000D02*
X171855000Y-95391000D01*
X174112000Y-95351000D02*
X171855000Y-95351000D01*
X174136000Y-95311000D02*
X171855000Y-95311000D01*
X174158000Y-95271000D02*
X171855000Y-95271000D01*
X174180000Y-95231000D02*
X171855000Y-95231000D01*
X174201000Y-95191000D02*
X171855000Y-95191000D01*
X174222000Y-95151000D02*
X171855000Y-95151000D01*
X174242000Y-95111000D02*
X171855000Y-95111000D01*
X174262000Y-95071000D02*
X171855000Y-95071000D01*
X174281000Y-95031000D02*
X171855000Y-95031000D01*
X174299000Y-94991000D02*
X171855000Y-94991000D01*
X174317000Y-94951000D02*
X171855000Y-94951000D01*
X174335000Y-94911000D02*
X171855000Y-94911000D01*
X174351000Y-94871000D02*
X171855000Y-94871000D01*
X174368000Y-94831000D02*
X171855000Y-94831000D01*
X174383000Y-94791000D02*
X171855000Y-94791000D01*
X174399000Y-94751000D02*
X171855000Y-94751000D01*
X174413000Y-94711000D02*
X171855000Y-94711000D01*
X174428000Y-94671000D02*
X171855000Y-94671000D01*
X174441000Y-94631000D02*
X171855000Y-94631000D01*
X174455000Y-94591000D02*
X171855000Y-94591000D01*
X174468000Y-94551000D02*
X171855000Y-94551000D01*
X174480000Y-94511000D02*
X171855000Y-94511000D01*
X174492000Y-94471000D02*
X171855000Y-94471000D01*
X174503000Y-94431000D02*
X171855000Y-94431000D01*
X174514000Y-94391000D02*
X171855000Y-94391000D01*
X174525000Y-94351000D02*
X171855000Y-94351000D01*
X174535000Y-94311000D02*
X171855000Y-94311000D01*
X174544000Y-94271000D02*
X171855000Y-94271000D01*
X174553000Y-94231000D02*
X171855000Y-94231000D01*
X174562000Y-94191000D02*
X171855000Y-94191000D01*
X174570000Y-94151000D02*
X171855000Y-94151000D01*
X174578000Y-94111000D02*
X171855000Y-94111000D01*
X174585000Y-94070000D02*
X171855000Y-94070000D01*
X174592000Y-94030000D02*
X171855000Y-94030000D01*
X174599000Y-93990000D02*
X171855000Y-93990000D01*
X174605000Y-93950000D02*
X171855000Y-93950000D01*
X174610000Y-93910000D02*
X171855000Y-93910000D01*
X174616000Y-93870000D02*
X171855000Y-93870000D01*
X174620000Y-93830000D02*
X171855000Y-93830000D01*
X174625000Y-93790000D02*
X171855000Y-93790000D01*
X174629000Y-93750000D02*
X171855000Y-93750000D01*
X174632000Y-93710000D02*
X171855000Y-93710000D01*
X174635000Y-93670000D02*
X171855000Y-93670000D01*
X174638000Y-93630000D02*
X171855000Y-93630000D01*
X174640000Y-93590000D02*
X166990000Y-93590000D01*
X174642000Y-93550000D02*
X166988000Y-93550000D01*
X174644000Y-93510000D02*
X166986000Y-93510000D01*
X174645000Y-93390000D02*
X166985000Y-93390000D01*
X174645000Y-93430000D02*
X166985000Y-93430000D01*
X174645000Y-93470000D02*
X166985000Y-93470000D01*
X174685000Y-93390000D02*
G75*
G02*
X166945000Y-93390000I-3870000J0D01*
G01*
X166945000Y-93390000D02*
G75*
G02*
X174685000Y-93390000I3870000J0D01*
G01*
%TO.C,CN1*%
X186287000Y-58626000D02*
X186287000Y-89614000D01*
X186287000Y-89614000D02*
X201273000Y-89614000D01*
D15*
X198225000Y-59261000D02*
X198225000Y-63833000D01*
X198225000Y-63833000D02*
X198479000Y-63833000D01*
X198225000Y-84280000D02*
X198225000Y-89106000D01*
X198225000Y-89106000D02*
X198479000Y-89106000D01*
X198479000Y-59261000D02*
X198225000Y-59261000D01*
X198479000Y-63833000D02*
X198479000Y-59261000D01*
X198479000Y-84280000D02*
X198225000Y-84280000D01*
X198479000Y-89106000D02*
X198479000Y-84280000D01*
D10*
X198606000Y-65103000D02*
X186287000Y-65103000D01*
X198606000Y-83137000D02*
X186287000Y-83137000D01*
D15*
X198606000Y-89614000D02*
X198606000Y-58626000D01*
D10*
X201273000Y-58626000D02*
X186287000Y-58626000D01*
D15*
X201273000Y-60023000D02*
X207115000Y-60023000D01*
X201273000Y-63071000D02*
X207115000Y-63071000D01*
X201273000Y-64087000D02*
X207115000Y-64087000D01*
X201273000Y-82248000D02*
X207115000Y-82248000D01*
X201273000Y-85169000D02*
X207115000Y-85169000D01*
X201273000Y-88217000D02*
X207115000Y-88217000D01*
X201273000Y-89233000D02*
X207115000Y-89233000D01*
X201273000Y-89614000D02*
X201273000Y-58626000D01*
X207115000Y-59007000D02*
X201400000Y-59007000D01*
X207115000Y-64087000D02*
X207115000Y-59007000D01*
X207115000Y-65992000D02*
X201273000Y-65992000D01*
X207115000Y-82248000D02*
X207115000Y-65992000D01*
X207115000Y-84153000D02*
X201400000Y-84153000D01*
X207115000Y-89233000D02*
X207115000Y-84153000D01*
D10*
%TO.C,J2*%
X120590000Y-100335000D02*
X121920000Y-100335000D01*
X120590000Y-101665000D02*
X120590000Y-100335000D01*
X120590000Y-102935000D02*
X120590000Y-113155000D01*
X120590000Y-102935000D02*
X123190000Y-102935000D01*
X120590000Y-113155000D02*
X125790000Y-113155000D01*
X123190000Y-100335000D02*
X125790000Y-100335000D01*
X123190000Y-102935000D02*
X123190000Y-100335000D01*
X125790000Y-100335000D02*
X125790000Y-113155000D01*
%TO.C,U3*%
X169485000Y-61540000D02*
X169485000Y-87180000D01*
X169485000Y-87180000D02*
X179765000Y-87180000D01*
X171975000Y-61600000D02*
X171975000Y-87120000D01*
X171975000Y-87120000D02*
X177275000Y-87120000D01*
X173625000Y-61600000D02*
X171975000Y-61600000D01*
X177275000Y-61600000D02*
X175625000Y-61600000D01*
X177275000Y-87120000D02*
X177275000Y-61600000D01*
X179765000Y-61540000D02*
X169485000Y-61540000D01*
X179765000Y-87180000D02*
X179765000Y-61540000D01*
X175625000Y-61600000D02*
G75*
G02*
X173625000Y-61600000I-1000000J0D01*
G01*
%TO.C,C6*%
X169775000Y-103155000D02*
X166992000Y-103155000D01*
X169775000Y-103195000D02*
X166995000Y-103195000D01*
X169775000Y-103235000D02*
X166998000Y-103235000D01*
X169775000Y-103275000D02*
X167001000Y-103275000D01*
X169775000Y-103315000D02*
X167005000Y-103315000D01*
X169775000Y-103355000D02*
X167010000Y-103355000D01*
X169775000Y-103395000D02*
X167014000Y-103395000D01*
X169775000Y-103435000D02*
X167020000Y-103435000D01*
X169775000Y-103475000D02*
X167025000Y-103475000D01*
X169775000Y-103515000D02*
X167031000Y-103515000D01*
X169775000Y-103555000D02*
X167038000Y-103555000D01*
X169775000Y-103595000D02*
X167045000Y-103595000D01*
X169775000Y-103636000D02*
X167052000Y-103636000D01*
X169775000Y-103676000D02*
X167060000Y-103676000D01*
X169775000Y-103716000D02*
X167068000Y-103716000D01*
X169775000Y-103756000D02*
X167077000Y-103756000D01*
X169775000Y-103796000D02*
X167086000Y-103796000D01*
X169775000Y-103836000D02*
X167095000Y-103836000D01*
X169775000Y-103876000D02*
X167105000Y-103876000D01*
X169775000Y-103916000D02*
X167116000Y-103916000D01*
X169775000Y-103956000D02*
X167127000Y-103956000D01*
X169775000Y-103996000D02*
X167138000Y-103996000D01*
X169775000Y-104036000D02*
X167150000Y-104036000D01*
X169775000Y-104076000D02*
X167162000Y-104076000D01*
X169775000Y-104116000D02*
X167175000Y-104116000D01*
X169775000Y-104156000D02*
X167189000Y-104156000D01*
X169775000Y-104196000D02*
X167202000Y-104196000D01*
X169775000Y-104236000D02*
X167217000Y-104236000D01*
X169775000Y-104276000D02*
X167231000Y-104276000D01*
X169775000Y-104316000D02*
X167247000Y-104316000D01*
X169775000Y-104356000D02*
X167262000Y-104356000D01*
X169775000Y-104396000D02*
X167279000Y-104396000D01*
X169775000Y-104436000D02*
X167295000Y-104436000D01*
X169775000Y-104476000D02*
X167313000Y-104476000D01*
X169775000Y-104516000D02*
X167331000Y-104516000D01*
X169775000Y-104556000D02*
X167349000Y-104556000D01*
X169775000Y-104596000D02*
X167368000Y-104596000D01*
X169775000Y-104636000D02*
X167388000Y-104636000D01*
X169775000Y-104676000D02*
X167408000Y-104676000D01*
X169775000Y-104716000D02*
X167429000Y-104716000D01*
X169775000Y-104756000D02*
X167450000Y-104756000D01*
X169775000Y-104796000D02*
X167472000Y-104796000D01*
X169775000Y-104836000D02*
X167494000Y-104836000D01*
X169775000Y-104876000D02*
X167518000Y-104876000D01*
X169775000Y-104916000D02*
X167541000Y-104916000D01*
X169775000Y-104956000D02*
X167566000Y-104956000D01*
X169775000Y-104996000D02*
X167591000Y-104996000D01*
X169775000Y-105036000D02*
X167617000Y-105036000D01*
X169775000Y-105076000D02*
X167643000Y-105076000D01*
X169775000Y-105116000D02*
X167671000Y-105116000D01*
X169775000Y-105156000D02*
X167699000Y-105156000D01*
X169775000Y-105196000D02*
X167727000Y-105196000D01*
X171256000Y-106756000D02*
X170374000Y-106756000D01*
X171508000Y-106716000D02*
X170122000Y-106716000D01*
X171692000Y-106676000D02*
X169938000Y-106676000D01*
X171843000Y-106636000D02*
X169787000Y-106636000D01*
X171973000Y-106596000D02*
X169657000Y-106596000D01*
X172090000Y-106556000D02*
X169540000Y-106556000D01*
X172196000Y-106516000D02*
X169434000Y-106516000D01*
X172293000Y-106476000D02*
X169337000Y-106476000D01*
X172384000Y-106436000D02*
X169246000Y-106436000D01*
X172469000Y-106396000D02*
X169161000Y-106396000D01*
X172548000Y-106356000D02*
X169082000Y-106356000D01*
X172624000Y-106316000D02*
X169006000Y-106316000D01*
X172696000Y-106276000D02*
X168934000Y-106276000D01*
X172764000Y-106236000D02*
X168866000Y-106236000D01*
X172829000Y-106196000D02*
X168801000Y-106196000D01*
X172892000Y-106156000D02*
X168738000Y-106156000D01*
X172952000Y-106116000D02*
X168678000Y-106116000D01*
X172990000Y-98772789D02*
X172990000Y-99522789D01*
X173010000Y-106076000D02*
X168620000Y-106076000D01*
X173065000Y-106036000D02*
X168565000Y-106036000D01*
X173119000Y-105996000D02*
X168511000Y-105996000D01*
X173170000Y-105956000D02*
X168460000Y-105956000D01*
X173220000Y-105916000D02*
X168410000Y-105916000D01*
X173269000Y-105876000D02*
X168361000Y-105876000D01*
X173315000Y-105836000D02*
X168315000Y-105836000D01*
X173361000Y-105796000D02*
X168269000Y-105796000D01*
X173365000Y-99147789D02*
X172615000Y-99147789D01*
X173404000Y-105756000D02*
X168226000Y-105756000D01*
X173447000Y-105716000D02*
X168183000Y-105716000D01*
X173488000Y-105676000D02*
X168142000Y-105676000D01*
X173528000Y-105636000D02*
X168102000Y-105636000D01*
X173567000Y-105596000D02*
X168063000Y-105596000D01*
X173605000Y-105556000D02*
X168025000Y-105556000D01*
X173642000Y-105516000D02*
X167988000Y-105516000D01*
X173678000Y-105476000D02*
X167952000Y-105476000D01*
X173713000Y-105436000D02*
X167917000Y-105436000D01*
X173746000Y-105396000D02*
X167884000Y-105396000D01*
X173779000Y-105356000D02*
X167851000Y-105356000D01*
X173811000Y-105316000D02*
X167819000Y-105316000D01*
X173843000Y-105276000D02*
X167787000Y-105276000D01*
X173873000Y-105236000D02*
X167757000Y-105236000D01*
X173903000Y-105196000D02*
X171855000Y-105196000D01*
X173931000Y-105156000D02*
X171855000Y-105156000D01*
X173959000Y-105116000D02*
X171855000Y-105116000D01*
X173987000Y-105076000D02*
X171855000Y-105076000D01*
X174013000Y-105036000D02*
X171855000Y-105036000D01*
X174039000Y-104996000D02*
X171855000Y-104996000D01*
X174064000Y-104956000D02*
X171855000Y-104956000D01*
X174089000Y-104916000D02*
X171855000Y-104916000D01*
X174112000Y-104876000D02*
X171855000Y-104876000D01*
X174136000Y-104836000D02*
X171855000Y-104836000D01*
X174158000Y-104796000D02*
X171855000Y-104796000D01*
X174180000Y-104756000D02*
X171855000Y-104756000D01*
X174201000Y-104716000D02*
X171855000Y-104716000D01*
X174222000Y-104676000D02*
X171855000Y-104676000D01*
X174242000Y-104636000D02*
X171855000Y-104636000D01*
X174262000Y-104596000D02*
X171855000Y-104596000D01*
X174281000Y-104556000D02*
X171855000Y-104556000D01*
X174299000Y-104516000D02*
X171855000Y-104516000D01*
X174317000Y-104476000D02*
X171855000Y-104476000D01*
X174335000Y-104436000D02*
X171855000Y-104436000D01*
X174351000Y-104396000D02*
X171855000Y-104396000D01*
X174368000Y-104356000D02*
X171855000Y-104356000D01*
X174383000Y-104316000D02*
X171855000Y-104316000D01*
X174399000Y-104276000D02*
X171855000Y-104276000D01*
X174413000Y-104236000D02*
X171855000Y-104236000D01*
X174428000Y-104196000D02*
X171855000Y-104196000D01*
X174441000Y-104156000D02*
X171855000Y-104156000D01*
X174455000Y-104116000D02*
X171855000Y-104116000D01*
X174468000Y-104076000D02*
X171855000Y-104076000D01*
X174480000Y-104036000D02*
X171855000Y-104036000D01*
X174492000Y-103996000D02*
X171855000Y-103996000D01*
X174503000Y-103956000D02*
X171855000Y-103956000D01*
X174514000Y-103916000D02*
X171855000Y-103916000D01*
X174525000Y-103876000D02*
X171855000Y-103876000D01*
X174535000Y-103836000D02*
X171855000Y-103836000D01*
X174544000Y-103796000D02*
X171855000Y-103796000D01*
X174553000Y-103756000D02*
X171855000Y-103756000D01*
X174562000Y-103716000D02*
X171855000Y-103716000D01*
X174570000Y-103676000D02*
X171855000Y-103676000D01*
X174578000Y-103636000D02*
X171855000Y-103636000D01*
X174585000Y-103595000D02*
X171855000Y-103595000D01*
X174592000Y-103555000D02*
X171855000Y-103555000D01*
X174599000Y-103515000D02*
X171855000Y-103515000D01*
X174605000Y-103475000D02*
X171855000Y-103475000D01*
X174610000Y-103435000D02*
X171855000Y-103435000D01*
X174616000Y-103395000D02*
X171855000Y-103395000D01*
X174620000Y-103355000D02*
X171855000Y-103355000D01*
X174625000Y-103315000D02*
X171855000Y-103315000D01*
X174629000Y-103275000D02*
X171855000Y-103275000D01*
X174632000Y-103235000D02*
X171855000Y-103235000D01*
X174635000Y-103195000D02*
X171855000Y-103195000D01*
X174638000Y-103155000D02*
X171855000Y-103155000D01*
X174640000Y-103115000D02*
X166990000Y-103115000D01*
X174642000Y-103075000D02*
X166988000Y-103075000D01*
X174644000Y-103035000D02*
X166986000Y-103035000D01*
X174645000Y-102915000D02*
X166985000Y-102915000D01*
X174645000Y-102955000D02*
X166985000Y-102955000D01*
X174645000Y-102995000D02*
X166985000Y-102995000D01*
X174685000Y-102915000D02*
G75*
G02*
X166945000Y-102915000I-3870000J0D01*
G01*
X166945000Y-102915000D02*
G75*
G02*
X174685000Y-102915000I3870000J0D01*
G01*
%TO.C,U2*%
X103445000Y-61540000D02*
X103445000Y-87180000D01*
X103445000Y-87180000D02*
X113725000Y-87180000D01*
X105935000Y-61600000D02*
X105935000Y-87120000D01*
X105935000Y-87120000D02*
X111235000Y-87120000D01*
X107585000Y-61600000D02*
X105935000Y-61600000D01*
X111235000Y-61600000D02*
X109585000Y-61600000D01*
X111235000Y-87120000D02*
X111235000Y-61600000D01*
X113725000Y-61540000D02*
X103445000Y-61540000D01*
X113725000Y-87180000D02*
X113725000Y-61540000D01*
X109585000Y-61600000D02*
G75*
G02*
X107585000Y-61600000I-1000000J0D01*
G01*
%TO.C,C2*%
X114484000Y-62760000D02*
X114484000Y-68100000D01*
X115150000Y-62760000D02*
X114484000Y-62760000D01*
X115150000Y-68100000D02*
X114484000Y-68100000D01*
X117926000Y-62760000D02*
X117260000Y-62760000D01*
X117926000Y-62760000D02*
X117926000Y-68100000D01*
X117926000Y-68100000D02*
X117260000Y-68100000D01*
%TO.C,U1*%
X140275000Y-61540000D02*
X140275000Y-112580000D01*
X140275000Y-112580000D02*
X158175000Y-112580000D01*
X142765000Y-61600000D02*
X142765000Y-112520000D01*
X142765000Y-112520000D02*
X155685000Y-112520000D01*
X148225000Y-61600000D02*
X142765000Y-61600000D01*
X155685000Y-61600000D02*
X150225000Y-61600000D01*
X155685000Y-112520000D02*
X155685000Y-61600000D01*
X158175000Y-61540000D02*
X140275000Y-61540000D01*
X158175000Y-112580000D02*
X158175000Y-61540000D01*
X150225000Y-61600000D02*
G75*
G02*
X148225000Y-61600000I-1000000J0D01*
G01*
%TO.C,C1*%
X158934000Y-62760000D02*
X158934000Y-68100000D01*
X159600000Y-62760000D02*
X158934000Y-62760000D01*
X159600000Y-68100000D02*
X158934000Y-68100000D01*
X162376000Y-62760000D02*
X161710000Y-62760000D01*
X162376000Y-62760000D02*
X162376000Y-68100000D01*
X162376000Y-68100000D02*
X161710000Y-68100000D01*
%TO.C,C4*%
X134804000Y-62760000D02*
X134804000Y-68100000D01*
X135470000Y-62760000D02*
X134804000Y-62760000D01*
X135470000Y-68100000D02*
X134804000Y-68100000D01*
X138246000Y-62760000D02*
X137580000Y-62760000D01*
X138246000Y-62760000D02*
X138246000Y-68100000D01*
X138246000Y-68100000D02*
X137580000Y-68100000D01*
D12*
%TO.C,U4*%
X120015000Y-62295000D02*
X120015000Y-65470000D01*
X120015000Y-62295000D02*
X123190000Y-62295000D01*
X120015000Y-69915000D02*
X120015000Y-73090000D01*
X120015000Y-69915000D02*
X123190000Y-69915000D01*
X120650000Y-81980000D02*
X120650000Y-73090000D01*
X123190000Y-62930000D02*
X132080000Y-62930000D01*
X123190000Y-70550000D02*
X132080000Y-70550000D01*
X132080000Y-83250000D02*
X121920000Y-83250000D01*
X133350000Y-64200000D02*
X133350000Y-69915000D01*
X133350000Y-71820000D02*
X133350000Y-81980000D01*
X121920000Y-83250000D02*
G75*
G02*
X120650000Y-81980000I-1J1269999D01*
G01*
X132080000Y-62930000D02*
G75*
G02*
X133350000Y-64200000I0J-1270000D01*
G01*
X132080000Y-70550000D02*
G75*
G02*
X133350000Y-71820000I0J-1270000D01*
G01*
X133350000Y-81980000D02*
G75*
G02*
X132080000Y-83250000I-1270000J0D01*
G01*
D10*
%TO.C,C3*%
X180524000Y-62760000D02*
X180524000Y-68100000D01*
X181190000Y-62760000D02*
X180524000Y-62760000D01*
X181190000Y-68100000D02*
X180524000Y-68100000D01*
X183966000Y-62760000D02*
X183300000Y-62760000D01*
X183966000Y-62760000D02*
X183966000Y-68100000D01*
X183966000Y-68100000D02*
X183300000Y-68100000D01*
%TO.C,C7*%
X169775000Y-112680000D02*
X166992000Y-112680000D01*
X169775000Y-112720000D02*
X166995000Y-112720000D01*
X169775000Y-112760000D02*
X166998000Y-112760000D01*
X169775000Y-112800000D02*
X167001000Y-112800000D01*
X169775000Y-112840000D02*
X167005000Y-112840000D01*
X169775000Y-112880000D02*
X167010000Y-112880000D01*
X169775000Y-112920000D02*
X167014000Y-112920000D01*
X169775000Y-112960000D02*
X167020000Y-112960000D01*
X169775000Y-113000000D02*
X167025000Y-113000000D01*
X169775000Y-113040000D02*
X167031000Y-113040000D01*
X169775000Y-113080000D02*
X167038000Y-113080000D01*
X169775000Y-113120000D02*
X167045000Y-113120000D01*
X169775000Y-113161000D02*
X167052000Y-113161000D01*
X169775000Y-113201000D02*
X167060000Y-113201000D01*
X169775000Y-113241000D02*
X167068000Y-113241000D01*
X169775000Y-113281000D02*
X167077000Y-113281000D01*
X169775000Y-113321000D02*
X167086000Y-113321000D01*
X169775000Y-113361000D02*
X167095000Y-113361000D01*
X169775000Y-113401000D02*
X167105000Y-113401000D01*
X169775000Y-113441000D02*
X167116000Y-113441000D01*
X169775000Y-113481000D02*
X167127000Y-113481000D01*
X169775000Y-113521000D02*
X167138000Y-113521000D01*
X169775000Y-113561000D02*
X167150000Y-113561000D01*
X169775000Y-113601000D02*
X167162000Y-113601000D01*
X169775000Y-113641000D02*
X167175000Y-113641000D01*
X169775000Y-113681000D02*
X167189000Y-113681000D01*
X169775000Y-113721000D02*
X167202000Y-113721000D01*
X169775000Y-113761000D02*
X167217000Y-113761000D01*
X169775000Y-113801000D02*
X167231000Y-113801000D01*
X169775000Y-113841000D02*
X167247000Y-113841000D01*
X169775000Y-113881000D02*
X167262000Y-113881000D01*
X169775000Y-113921000D02*
X167279000Y-113921000D01*
X169775000Y-113961000D02*
X167295000Y-113961000D01*
X169775000Y-114001000D02*
X167313000Y-114001000D01*
X169775000Y-114041000D02*
X167331000Y-114041000D01*
X169775000Y-114081000D02*
X167349000Y-114081000D01*
X169775000Y-114121000D02*
X167368000Y-114121000D01*
X169775000Y-114161000D02*
X167388000Y-114161000D01*
X169775000Y-114201000D02*
X167408000Y-114201000D01*
X169775000Y-114241000D02*
X167429000Y-114241000D01*
X169775000Y-114281000D02*
X167450000Y-114281000D01*
X169775000Y-114321000D02*
X167472000Y-114321000D01*
X169775000Y-114361000D02*
X167494000Y-114361000D01*
X169775000Y-114401000D02*
X167518000Y-114401000D01*
X169775000Y-114441000D02*
X167541000Y-114441000D01*
X169775000Y-114481000D02*
X167566000Y-114481000D01*
X169775000Y-114521000D02*
X167591000Y-114521000D01*
X169775000Y-114561000D02*
X167617000Y-114561000D01*
X169775000Y-114601000D02*
X167643000Y-114601000D01*
X169775000Y-114641000D02*
X167671000Y-114641000D01*
X169775000Y-114681000D02*
X167699000Y-114681000D01*
X169775000Y-114721000D02*
X167727000Y-114721000D01*
X171256000Y-116281000D02*
X170374000Y-116281000D01*
X171508000Y-116241000D02*
X170122000Y-116241000D01*
X171692000Y-116201000D02*
X169938000Y-116201000D01*
X171843000Y-116161000D02*
X169787000Y-116161000D01*
X171973000Y-116121000D02*
X169657000Y-116121000D01*
X172090000Y-116081000D02*
X169540000Y-116081000D01*
X172196000Y-116041000D02*
X169434000Y-116041000D01*
X172293000Y-116001000D02*
X169337000Y-116001000D01*
X172384000Y-115961000D02*
X169246000Y-115961000D01*
X172469000Y-115921000D02*
X169161000Y-115921000D01*
X172548000Y-115881000D02*
X169082000Y-115881000D01*
X172624000Y-115841000D02*
X169006000Y-115841000D01*
X172696000Y-115801000D02*
X168934000Y-115801000D01*
X172764000Y-115761000D02*
X168866000Y-115761000D01*
X172829000Y-115721000D02*
X168801000Y-115721000D01*
X172892000Y-115681000D02*
X168738000Y-115681000D01*
X172952000Y-115641000D02*
X168678000Y-115641000D01*
X172990000Y-108297789D02*
X172990000Y-109047789D01*
X173010000Y-115601000D02*
X168620000Y-115601000D01*
X173065000Y-115561000D02*
X168565000Y-115561000D01*
X173119000Y-115521000D02*
X168511000Y-115521000D01*
X173170000Y-115481000D02*
X168460000Y-115481000D01*
X173220000Y-115441000D02*
X168410000Y-115441000D01*
X173269000Y-115401000D02*
X168361000Y-115401000D01*
X173315000Y-115361000D02*
X168315000Y-115361000D01*
X173361000Y-115321000D02*
X168269000Y-115321000D01*
X173365000Y-108672789D02*
X172615000Y-108672789D01*
X173404000Y-115281000D02*
X168226000Y-115281000D01*
X173447000Y-115241000D02*
X168183000Y-115241000D01*
X173488000Y-115201000D02*
X168142000Y-115201000D01*
X173528000Y-115161000D02*
X168102000Y-115161000D01*
X173567000Y-115121000D02*
X168063000Y-115121000D01*
X173605000Y-115081000D02*
X168025000Y-115081000D01*
X173642000Y-115041000D02*
X167988000Y-115041000D01*
X173678000Y-115001000D02*
X167952000Y-115001000D01*
X173713000Y-114961000D02*
X167917000Y-114961000D01*
X173746000Y-114921000D02*
X167884000Y-114921000D01*
X173779000Y-114881000D02*
X167851000Y-114881000D01*
X173811000Y-114841000D02*
X167819000Y-114841000D01*
X173843000Y-114801000D02*
X167787000Y-114801000D01*
X173873000Y-114761000D02*
X167757000Y-114761000D01*
X173903000Y-114721000D02*
X171855000Y-114721000D01*
X173931000Y-114681000D02*
X171855000Y-114681000D01*
X173959000Y-114641000D02*
X171855000Y-114641000D01*
X173987000Y-114601000D02*
X171855000Y-114601000D01*
X174013000Y-114561000D02*
X171855000Y-114561000D01*
X174039000Y-114521000D02*
X171855000Y-114521000D01*
X174064000Y-114481000D02*
X171855000Y-114481000D01*
X174089000Y-114441000D02*
X171855000Y-114441000D01*
X174112000Y-114401000D02*
X171855000Y-114401000D01*
X174136000Y-114361000D02*
X171855000Y-114361000D01*
X174158000Y-114321000D02*
X171855000Y-114321000D01*
X174180000Y-114281000D02*
X171855000Y-114281000D01*
X174201000Y-114241000D02*
X171855000Y-114241000D01*
X174222000Y-114201000D02*
X171855000Y-114201000D01*
X174242000Y-114161000D02*
X171855000Y-114161000D01*
X174262000Y-114121000D02*
X171855000Y-114121000D01*
X174281000Y-114081000D02*
X171855000Y-114081000D01*
X174299000Y-114041000D02*
X171855000Y-114041000D01*
X174317000Y-114001000D02*
X171855000Y-114001000D01*
X174335000Y-113961000D02*
X171855000Y-113961000D01*
X174351000Y-113921000D02*
X171855000Y-113921000D01*
X174368000Y-113881000D02*
X171855000Y-113881000D01*
X174383000Y-113841000D02*
X171855000Y-113841000D01*
X174399000Y-113801000D02*
X171855000Y-113801000D01*
X174413000Y-113761000D02*
X171855000Y-113761000D01*
X174428000Y-113721000D02*
X171855000Y-113721000D01*
X174441000Y-113681000D02*
X171855000Y-113681000D01*
X174455000Y-113641000D02*
X171855000Y-113641000D01*
X174468000Y-113601000D02*
X171855000Y-113601000D01*
X174480000Y-113561000D02*
X171855000Y-113561000D01*
X174492000Y-113521000D02*
X171855000Y-113521000D01*
X174503000Y-113481000D02*
X171855000Y-113481000D01*
X174514000Y-113441000D02*
X171855000Y-113441000D01*
X174525000Y-113401000D02*
X171855000Y-113401000D01*
X174535000Y-113361000D02*
X171855000Y-113361000D01*
X174544000Y-113321000D02*
X171855000Y-113321000D01*
X174553000Y-113281000D02*
X171855000Y-113281000D01*
X174562000Y-113241000D02*
X171855000Y-113241000D01*
X174570000Y-113201000D02*
X171855000Y-113201000D01*
X174578000Y-113161000D02*
X171855000Y-113161000D01*
X174585000Y-113120000D02*
X171855000Y-113120000D01*
X174592000Y-113080000D02*
X171855000Y-113080000D01*
X174599000Y-113040000D02*
X171855000Y-113040000D01*
X174605000Y-113000000D02*
X171855000Y-113000000D01*
X174610000Y-112960000D02*
X171855000Y-112960000D01*
X174616000Y-112920000D02*
X171855000Y-112920000D01*
X174620000Y-112880000D02*
X171855000Y-112880000D01*
X174625000Y-112840000D02*
X171855000Y-112840000D01*
X174629000Y-112800000D02*
X171855000Y-112800000D01*
X174632000Y-112760000D02*
X171855000Y-112760000D01*
X174635000Y-112720000D02*
X171855000Y-112720000D01*
X174638000Y-112680000D02*
X171855000Y-112680000D01*
X174640000Y-112640000D02*
X166990000Y-112640000D01*
X174642000Y-112600000D02*
X166988000Y-112600000D01*
X174644000Y-112560000D02*
X166986000Y-112560000D01*
X174645000Y-112440000D02*
X166985000Y-112440000D01*
X174645000Y-112480000D02*
X166985000Y-112480000D01*
X174645000Y-112520000D02*
X166985000Y-112520000D01*
X174685000Y-112440000D02*
G75*
G02*
X166945000Y-112440000I-3870000J0D01*
G01*
X166945000Y-112440000D02*
G75*
G02*
X174685000Y-112440000I3870000J0D01*
G01*
%TO.C,J1*%
X96536000Y-130220000D02*
X96536000Y-125020000D01*
X172796000Y-127620000D02*
X175396000Y-127620000D01*
X172796000Y-130220000D02*
X96536000Y-130220000D01*
X172796000Y-130220000D02*
X172796000Y-127620000D01*
X174066000Y-130220000D02*
X175396000Y-130220000D01*
X175396000Y-125020000D02*
X96536000Y-125020000D01*
X175396000Y-127620000D02*
X175396000Y-125020000D01*
X175396000Y-130220000D02*
X175396000Y-128890000D01*
%TD*%
D16*
%TO.C,U4*%
X123190000Y-65470000D03*
D17*
X123190000Y-73090000D03*
X123190000Y-80710000D03*
X130810000Y-80710000D03*
X130810000Y-73090000D03*
X130810000Y-65470000D03*
%TD*%
M02*
