M48
; DRILL file {KiCad 9.0.4} date 2026-04-05T10:25:34-0400
; FORMAT={-:-/ absolute / metric / decimal}
; #@! TF.CreationDate,2026-04-05T10:25:34-04:00
; #@! TF.GenerationSoftware,Kicad,Pcbnew,9.0.4
; #@! TF.FileFunction,Plated,1,2,PTH
FMAT,2
METRIC
; #@! TA.AperFunction,Plated,PTH,ViaDrill
T1C0.400
; #@! TA.AperFunction,Plated,PTH,ViaDrill
T2C0.600
; #@! TA.AperFunction,Plated,PTH,ComponentDrill
T3C0.800
; #@! TA.AperFunction,Plated,PTH,ComponentDrill
T4C0.899
; #@! TA.AperFunction,Plated,PTH,ComponentDrill
T5C1.000
; #@! TA.AperFunction,Plated,PTH,ComponentDrill
T6C3.200
%
G90
G05
T1
X102.87Y-74.36
X107.315Y-80.71
X109.22Y-70.55
X109.22Y-120.715
X110.49Y-71.82
X111.76Y-117.54
X111.76Y-120.715
X113.03Y-118.81
X115.57Y-118.81
X116.84Y-119.445
X118.11Y-118.81
X125.095Y-95.95
X127.0Y-94.68
X127.0Y-113.73
X128.27Y-97.22
X128.27Y-115.0
X129.54Y-99.76
X129.54Y-116.27
X130.81Y-101.03
X144.025Y-103.738
X144.78Y-105.475
X144.78Y-111.19
X146.685Y-108.65
X147.32Y-112.46
X149.225Y-65.47
X149.225Y-112.46
X150.495Y-68.01
X151.13Y-112.46
X151.765Y-70.55
X153.035Y-112.46
X153.035Y-73.09
X154.3Y-92.2
X154.305Y-87.06
X154.305Y-102.3
X154.94Y-112.46
X158.75Y-79.44
X160.02Y-74.36
T2
X97.79Y-115.635
X97.79Y-118.175
X99.06Y-116.905
X99.06Y-119.445
X99.145Y-123.5
X100.33Y-118.175
X102.235Y-68.01
X104.14Y-123.2
X104.775Y-88.33
X120.65Y-62.93
X120.65Y-69.28
X123.19Y-76.9
X123.19Y-85.79
X123.19Y-90.87
X125.73Y-62.93
X125.73Y-69.28
X130.81Y-62.93
X130.81Y-69.28
X130.81Y-76.9
X133.985Y-109.92
X135.255Y-85.79
X135.255Y-90.87
X135.89Y-116.27
X136.525Y-73.09
X136.525Y-76.9
X137.795Y-109.92
X141.605Y-114.365
X141.605Y-118.81
X147.955Y-116.27
X149.86Y-118.175
X151.765Y-120.08
X155.03Y-124.038
X160.1Y-123.9
X161.29Y-89.6
X161.29Y-94.045
X161.29Y-98.49
X164.465Y-64.2
X164.465Y-68.01
X165.1Y-99.76
X165.1Y-101.665
X170.815Y-97.855
X170.815Y-107.38
X178.435Y-59.755
X178.435Y-90.235
X178.435Y-105.475
X181.61Y-59.755
X184.785Y-59.755
X185.8Y-120.715
X194.945Y-59.755
X194.945Y-74.995
X194.945Y-90.235
X194.945Y-105.475
X194.945Y-120.715
T3
X104.775Y-62.93
X104.775Y-65.47
X104.775Y-68.01
X104.775Y-70.55
X104.775Y-73.09
X104.775Y-75.63
X104.775Y-78.17
X104.775Y-80.71
X104.775Y-83.25
X104.775Y-85.79
X112.395Y-62.93
X112.395Y-65.47
X112.395Y-68.01
X112.395Y-70.55
X112.395Y-73.09
X112.395Y-75.63
X112.395Y-78.17
X112.395Y-80.71
X112.395Y-83.25
X112.395Y-85.79
X116.205Y-62.93
X116.205Y-67.93
X123.19Y-65.47
X123.19Y-73.09
X123.19Y-80.71
X130.81Y-65.47
X130.81Y-73.09
X130.81Y-80.71
X136.525Y-62.93
X136.525Y-67.93
X141.605Y-62.93
X141.605Y-65.47
X141.605Y-68.01
X141.605Y-70.55
X141.605Y-73.09
X141.605Y-75.63
X141.605Y-78.17
X141.605Y-80.71
X141.605Y-83.25
X141.605Y-85.79
X141.605Y-88.33
X141.605Y-90.87
X141.605Y-93.41
X141.605Y-95.95
X141.605Y-98.49
X141.605Y-101.03
X141.605Y-103.57
X141.605Y-106.11
X141.605Y-108.65
X141.605Y-111.19
X156.845Y-62.93
X156.845Y-65.47
X156.845Y-68.01
X156.845Y-70.55
X156.845Y-73.09
X156.845Y-75.63
X156.845Y-78.17
X156.845Y-80.71
X156.845Y-83.25
X156.845Y-85.79
X156.845Y-88.33
X156.845Y-90.87
X156.845Y-93.41
X156.845Y-95.95
X156.845Y-98.49
X156.845Y-101.03
X156.845Y-103.57
X156.845Y-106.11
X156.845Y-108.65
X156.845Y-111.19
X160.655Y-62.93
X160.655Y-67.93
X170.815Y-62.93
X170.815Y-65.47
X170.815Y-68.01
X170.815Y-70.55
X170.815Y-73.09
X170.815Y-75.63
X170.815Y-78.17
X170.815Y-80.71
X170.815Y-83.25
X170.815Y-85.79
X170.815Y-92.14
X170.815Y-94.64
X170.815Y-101.665
X170.815Y-104.165
X170.815Y-111.19
X170.815Y-113.69
X178.435Y-62.93
X178.435Y-65.47
X178.435Y-68.01
X178.435Y-70.55
X178.435Y-73.09
X178.435Y-75.63
X178.435Y-78.17
X178.435Y-80.71
X178.435Y-83.25
X178.435Y-85.79
X182.245Y-62.93
X182.245Y-67.93
T4
X188.319Y-68.58
X188.319Y-71.349
X188.319Y-74.12
X188.319Y-76.891
X188.319Y-79.66
X190.859Y-69.965
X190.859Y-72.736
X190.859Y-75.504
X190.859Y-78.275
T5
X97.866Y-126.35
X97.866Y-128.89
X100.406Y-126.35
X100.406Y-128.89
X102.946Y-126.35
X102.946Y-128.89
X104.14Y-109.285
X104.14Y-111.825
X105.486Y-126.35
X105.486Y-128.89
X106.68Y-109.285
X106.68Y-111.825
X108.026Y-126.35
X108.026Y-128.89
X109.22Y-109.285
X109.22Y-111.825
X110.566Y-126.35
X110.566Y-128.89
X113.106Y-126.35
X113.106Y-128.89
X115.646Y-126.35
X115.646Y-128.89
X118.186Y-126.35
X118.186Y-128.89
X120.726Y-126.35
X120.726Y-128.89
X121.92Y-101.665
X121.92Y-104.205
X121.92Y-106.745
X121.92Y-109.285
X121.92Y-111.825
X123.266Y-126.35
X123.266Y-128.89
X124.46Y-101.665
X124.46Y-104.205
X124.46Y-106.745
X124.46Y-109.285
X124.46Y-111.825
X125.806Y-126.35
X125.806Y-128.89
X128.346Y-126.35
X128.346Y-128.89
X130.886Y-126.35
X130.886Y-128.89
X133.426Y-126.35
X133.426Y-128.89
X135.966Y-126.35
X135.966Y-128.89
X138.506Y-126.35
X138.506Y-128.89
X141.046Y-126.35
X141.046Y-128.89
X143.586Y-126.35
X143.586Y-128.89
X146.126Y-126.35
X146.126Y-128.89
X148.666Y-126.35
X148.666Y-128.89
X151.206Y-126.35
X151.206Y-128.89
X153.746Y-126.35
X153.746Y-128.89
X156.286Y-126.35
X156.286Y-128.89
X158.826Y-126.35
X158.826Y-128.89
X161.366Y-126.35
X161.366Y-128.89
X163.906Y-126.35
X163.906Y-128.89
X166.446Y-126.35
X166.446Y-128.89
X168.986Y-126.35
X168.986Y-128.89
X171.526Y-126.35
X171.526Y-128.89
X174.066Y-126.35
X174.066Y-128.89
T6
X189.589Y-61.626
X189.589Y-86.614
M30
