%TF.GenerationSoftware,KiCad,Pcbnew,9.0.4*%
%TF.CreationDate,2026-04-05T10:38:26-04:00*%
%TF.ProjectId,DualSerialPlusBracket,4475616c-5365-4726-9961-6c506c757342,rev?*%
%TF.SameCoordinates,Original*%
%TF.FileFunction,Legend,Top*%
%TF.FilePolarity,Positive*%
%FSLAX46Y46*%
G04 Gerber Fmt 4.6, Leading zero omitted, Abs format (unit mm)*
G04 Created by KiCad (PCBNEW 9.0.4) date 2026-04-05 10:38:26*
%MOMM*%
%LPD*%
G01*
G04 APERTURE LIST*
%ADD10C,0.250000*%
G04 APERTURE END LIST*
D10*
X137551761Y-125541479D02*
X137647000Y-125636717D01*
X137647000Y-125636717D02*
X137742238Y-125922431D01*
X137742238Y-125922431D02*
X137742238Y-126112907D01*
X137742238Y-126112907D02*
X137647000Y-126398622D01*
X137647000Y-126398622D02*
X137456523Y-126589098D01*
X137456523Y-126589098D02*
X137266047Y-126684336D01*
X137266047Y-126684336D02*
X136885095Y-126779574D01*
X136885095Y-126779574D02*
X136599380Y-126779574D01*
X136599380Y-126779574D02*
X136218428Y-126684336D01*
X136218428Y-126684336D02*
X136027952Y-126589098D01*
X136027952Y-126589098D02*
X135837476Y-126398622D01*
X135837476Y-126398622D02*
X135742238Y-126112907D01*
X135742238Y-126112907D02*
X135742238Y-125922431D01*
X135742238Y-125922431D02*
X135837476Y-125636717D01*
X135837476Y-125636717D02*
X135932714Y-125541479D01*
X135742238Y-124303384D02*
X135742238Y-123922431D01*
X135742238Y-123922431D02*
X135837476Y-123731955D01*
X135837476Y-123731955D02*
X136027952Y-123541479D01*
X136027952Y-123541479D02*
X136408904Y-123446241D01*
X136408904Y-123446241D02*
X137075571Y-123446241D01*
X137075571Y-123446241D02*
X137456523Y-123541479D01*
X137456523Y-123541479D02*
X137647000Y-123731955D01*
X137647000Y-123731955D02*
X137742238Y-123922431D01*
X137742238Y-123922431D02*
X137742238Y-124303384D01*
X137742238Y-124303384D02*
X137647000Y-124493860D01*
X137647000Y-124493860D02*
X137456523Y-124684336D01*
X137456523Y-124684336D02*
X137075571Y-124779574D01*
X137075571Y-124779574D02*
X136408904Y-124779574D01*
X136408904Y-124779574D02*
X136027952Y-124684336D01*
X136027952Y-124684336D02*
X135837476Y-124493860D01*
X135837476Y-124493860D02*
X135742238Y-124303384D01*
X137742238Y-122589098D02*
X135742238Y-122589098D01*
X135742238Y-122589098D02*
X137170809Y-121922431D01*
X137170809Y-121922431D02*
X135742238Y-121255765D01*
X135742238Y-121255765D02*
X137742238Y-121255765D01*
X136694619Y-118112907D02*
X136789857Y-117827193D01*
X136789857Y-117827193D02*
X136885095Y-117731955D01*
X136885095Y-117731955D02*
X137075571Y-117636717D01*
X137075571Y-117636717D02*
X137361285Y-117636717D01*
X137361285Y-117636717D02*
X137551761Y-117731955D01*
X137551761Y-117731955D02*
X137647000Y-117827193D01*
X137647000Y-117827193D02*
X137742238Y-118017669D01*
X137742238Y-118017669D02*
X137742238Y-118779574D01*
X137742238Y-118779574D02*
X135742238Y-118779574D01*
X135742238Y-118779574D02*
X135742238Y-118112907D01*
X135742238Y-118112907D02*
X135837476Y-117922431D01*
X135837476Y-117922431D02*
X135932714Y-117827193D01*
X135932714Y-117827193D02*
X136123190Y-117731955D01*
X136123190Y-117731955D02*
X136313666Y-117731955D01*
X136313666Y-117731955D02*
X136504142Y-117827193D01*
X136504142Y-117827193D02*
X136599380Y-117922431D01*
X136599380Y-117922431D02*
X136694619Y-118112907D01*
X136694619Y-118112907D02*
X136694619Y-118779574D01*
X137551761Y-80816479D02*
X137647000Y-80911717D01*
X137647000Y-80911717D02*
X137742238Y-81197431D01*
X137742238Y-81197431D02*
X137742238Y-81387907D01*
X137742238Y-81387907D02*
X137647000Y-81673622D01*
X137647000Y-81673622D02*
X137456523Y-81864098D01*
X137456523Y-81864098D02*
X137266047Y-81959336D01*
X137266047Y-81959336D02*
X136885095Y-82054574D01*
X136885095Y-82054574D02*
X136599380Y-82054574D01*
X136599380Y-82054574D02*
X136218428Y-81959336D01*
X136218428Y-81959336D02*
X136027952Y-81864098D01*
X136027952Y-81864098D02*
X135837476Y-81673622D01*
X135837476Y-81673622D02*
X135742238Y-81387907D01*
X135742238Y-81387907D02*
X135742238Y-81197431D01*
X135742238Y-81197431D02*
X135837476Y-80911717D01*
X135837476Y-80911717D02*
X135932714Y-80816479D01*
X135742238Y-79578384D02*
X135742238Y-79197431D01*
X135742238Y-79197431D02*
X135837476Y-79006955D01*
X135837476Y-79006955D02*
X136027952Y-78816479D01*
X136027952Y-78816479D02*
X136408904Y-78721241D01*
X136408904Y-78721241D02*
X137075571Y-78721241D01*
X137075571Y-78721241D02*
X137456523Y-78816479D01*
X137456523Y-78816479D02*
X137647000Y-79006955D01*
X137647000Y-79006955D02*
X137742238Y-79197431D01*
X137742238Y-79197431D02*
X137742238Y-79578384D01*
X137742238Y-79578384D02*
X137647000Y-79768860D01*
X137647000Y-79768860D02*
X137456523Y-79959336D01*
X137456523Y-79959336D02*
X137075571Y-80054574D01*
X137075571Y-80054574D02*
X136408904Y-80054574D01*
X136408904Y-80054574D02*
X136027952Y-79959336D01*
X136027952Y-79959336D02*
X135837476Y-79768860D01*
X135837476Y-79768860D02*
X135742238Y-79578384D01*
X137742238Y-77864098D02*
X135742238Y-77864098D01*
X135742238Y-77864098D02*
X137170809Y-77197431D01*
X137170809Y-77197431D02*
X135742238Y-76530765D01*
X135742238Y-76530765D02*
X137742238Y-76530765D01*
X137170809Y-74149812D02*
X137170809Y-73197431D01*
X137742238Y-74340288D02*
X135742238Y-73673622D01*
X135742238Y-73673622D02*
X137742238Y-73006955D01*
M02*
