%TF.GenerationSoftware,KiCad,Pcbnew,9.0.4*%
%TF.CreationDate,2026-04-16T22:09:44-04:00*%
%TF.ProjectId,DualSerialPlusBracket,4475616c-5365-4726-9961-6c506c757342,rev?*%
%TF.SameCoordinates,Original*%
%TF.FileFunction,Legend,Top*%
%TF.FilePolarity,Positive*%
%FSLAX46Y46*%
G04 Gerber Fmt 4.6, Leading zero omitted, Abs format (unit mm)*
G04 Created by KiCad (PCBNEW 9.0.4) date 2026-04-16 22:09:44*
%MOMM*%
%LPD*%
G01*
G04 APERTURE LIST*
%ADD10C,0.250000*%
G04 APERTURE END LIST*
D10*
X150051761Y-80516479D02*
X150147000Y-80611717D01*
X150147000Y-80611717D02*
X150242238Y-80897431D01*
X150242238Y-80897431D02*
X150242238Y-81087907D01*
X150242238Y-81087907D02*
X150147000Y-81373622D01*
X150147000Y-81373622D02*
X149956523Y-81564098D01*
X149956523Y-81564098D02*
X149766047Y-81659336D01*
X149766047Y-81659336D02*
X149385095Y-81754574D01*
X149385095Y-81754574D02*
X149099380Y-81754574D01*
X149099380Y-81754574D02*
X148718428Y-81659336D01*
X148718428Y-81659336D02*
X148527952Y-81564098D01*
X148527952Y-81564098D02*
X148337476Y-81373622D01*
X148337476Y-81373622D02*
X148242238Y-81087907D01*
X148242238Y-81087907D02*
X148242238Y-80897431D01*
X148242238Y-80897431D02*
X148337476Y-80611717D01*
X148337476Y-80611717D02*
X148432714Y-80516479D01*
X148242238Y-79278384D02*
X148242238Y-78897431D01*
X148242238Y-78897431D02*
X148337476Y-78706955D01*
X148337476Y-78706955D02*
X148527952Y-78516479D01*
X148527952Y-78516479D02*
X148908904Y-78421241D01*
X148908904Y-78421241D02*
X149575571Y-78421241D01*
X149575571Y-78421241D02*
X149956523Y-78516479D01*
X149956523Y-78516479D02*
X150147000Y-78706955D01*
X150147000Y-78706955D02*
X150242238Y-78897431D01*
X150242238Y-78897431D02*
X150242238Y-79278384D01*
X150242238Y-79278384D02*
X150147000Y-79468860D01*
X150147000Y-79468860D02*
X149956523Y-79659336D01*
X149956523Y-79659336D02*
X149575571Y-79754574D01*
X149575571Y-79754574D02*
X148908904Y-79754574D01*
X148908904Y-79754574D02*
X148527952Y-79659336D01*
X148527952Y-79659336D02*
X148337476Y-79468860D01*
X148337476Y-79468860D02*
X148242238Y-79278384D01*
X150242238Y-77564098D02*
X148242238Y-77564098D01*
X148242238Y-77564098D02*
X149670809Y-76897431D01*
X149670809Y-76897431D02*
X148242238Y-76230765D01*
X148242238Y-76230765D02*
X150242238Y-76230765D01*
X149670809Y-73849812D02*
X149670809Y-72897431D01*
X150242238Y-74040288D02*
X148242238Y-73373622D01*
X148242238Y-73373622D02*
X150242238Y-72706955D01*
X150051761Y-125241479D02*
X150147000Y-125336717D01*
X150147000Y-125336717D02*
X150242238Y-125622431D01*
X150242238Y-125622431D02*
X150242238Y-125812907D01*
X150242238Y-125812907D02*
X150147000Y-126098622D01*
X150147000Y-126098622D02*
X149956523Y-126289098D01*
X149956523Y-126289098D02*
X149766047Y-126384336D01*
X149766047Y-126384336D02*
X149385095Y-126479574D01*
X149385095Y-126479574D02*
X149099380Y-126479574D01*
X149099380Y-126479574D02*
X148718428Y-126384336D01*
X148718428Y-126384336D02*
X148527952Y-126289098D01*
X148527952Y-126289098D02*
X148337476Y-126098622D01*
X148337476Y-126098622D02*
X148242238Y-125812907D01*
X148242238Y-125812907D02*
X148242238Y-125622431D01*
X148242238Y-125622431D02*
X148337476Y-125336717D01*
X148337476Y-125336717D02*
X148432714Y-125241479D01*
X148242238Y-124003384D02*
X148242238Y-123622431D01*
X148242238Y-123622431D02*
X148337476Y-123431955D01*
X148337476Y-123431955D02*
X148527952Y-123241479D01*
X148527952Y-123241479D02*
X148908904Y-123146241D01*
X148908904Y-123146241D02*
X149575571Y-123146241D01*
X149575571Y-123146241D02*
X149956523Y-123241479D01*
X149956523Y-123241479D02*
X150147000Y-123431955D01*
X150147000Y-123431955D02*
X150242238Y-123622431D01*
X150242238Y-123622431D02*
X150242238Y-124003384D01*
X150242238Y-124003384D02*
X150147000Y-124193860D01*
X150147000Y-124193860D02*
X149956523Y-124384336D01*
X149956523Y-124384336D02*
X149575571Y-124479574D01*
X149575571Y-124479574D02*
X148908904Y-124479574D01*
X148908904Y-124479574D02*
X148527952Y-124384336D01*
X148527952Y-124384336D02*
X148337476Y-124193860D01*
X148337476Y-124193860D02*
X148242238Y-124003384D01*
X150242238Y-122289098D02*
X148242238Y-122289098D01*
X148242238Y-122289098D02*
X149670809Y-121622431D01*
X149670809Y-121622431D02*
X148242238Y-120955765D01*
X148242238Y-120955765D02*
X150242238Y-120955765D01*
X149194619Y-117812907D02*
X149289857Y-117527193D01*
X149289857Y-117527193D02*
X149385095Y-117431955D01*
X149385095Y-117431955D02*
X149575571Y-117336717D01*
X149575571Y-117336717D02*
X149861285Y-117336717D01*
X149861285Y-117336717D02*
X150051761Y-117431955D01*
X150051761Y-117431955D02*
X150147000Y-117527193D01*
X150147000Y-117527193D02*
X150242238Y-117717669D01*
X150242238Y-117717669D02*
X150242238Y-118479574D01*
X150242238Y-118479574D02*
X148242238Y-118479574D01*
X148242238Y-118479574D02*
X148242238Y-117812907D01*
X148242238Y-117812907D02*
X148337476Y-117622431D01*
X148337476Y-117622431D02*
X148432714Y-117527193D01*
X148432714Y-117527193D02*
X148623190Y-117431955D01*
X148623190Y-117431955D02*
X148813666Y-117431955D01*
X148813666Y-117431955D02*
X149004142Y-117527193D01*
X149004142Y-117527193D02*
X149099380Y-117622431D01*
X149099380Y-117622431D02*
X149194619Y-117812907D01*
X149194619Y-117812907D02*
X149194619Y-118479574D01*
M02*
