%TF.GenerationSoftware,KiCad,Pcbnew,9.0.4*%
%TF.CreationDate,2026-04-07T12:48:39-04:00*%
%TF.ProjectId,TandyPlusToISA-Long,54616e64-7950-46c7-9573-546f4953412d,rev?*%
%TF.SameCoordinates,Original*%
%TF.FileFunction,Copper,L1,Top*%
%TF.FilePolarity,Positive*%
%FSLAX46Y46*%
G04 Gerber Fmt 4.6, Leading zero omitted, Abs format (unit mm)*
G04 Created by KiCad (PCBNEW 9.0.4) date 2026-04-07 12:48:39*
%MOMM*%
%LPD*%
G01*
G04 APERTURE LIST*
%TA.AperFunction,SMDPad,CuDef*%
%ADD10R,1.000000X5.000000*%
%TD*%
%TA.AperFunction,ComponentPad*%
%ADD11R,1.700000X1.700000*%
%TD*%
%TA.AperFunction,ComponentPad*%
%ADD12C,1.700000*%
%TD*%
%TA.AperFunction,Conductor*%
%ADD13C,0.340000*%
%TD*%
G04 APERTURE END LIST*
D10*
%TO.P,J1,62*%
%TO.N,A00*%
X97031884Y-105123900D03*
%TO.P,J1,61*%
%TO.N,A01*%
X99571884Y-105123900D03*
%TO.P,J1,60*%
%TO.N,A02*%
X102111884Y-105123900D03*
%TO.P,J1,59*%
%TO.N,A03*%
X104651884Y-105123900D03*
%TO.P,J1,58*%
%TO.N,A04*%
X107191884Y-105123900D03*
%TO.P,J1,57*%
%TO.N,A05*%
X109731884Y-105123900D03*
%TO.P,J1,56*%
%TO.N,A06*%
X112271884Y-105123900D03*
%TO.P,J1,55*%
%TO.N,A07*%
X114811884Y-105123900D03*
%TO.P,J1,54*%
%TO.N,A08*%
X117351884Y-105123900D03*
%TO.P,J1,53*%
%TO.N,A09*%
X119891884Y-105123900D03*
%TO.P,J1,52*%
%TO.N,A10*%
X122431884Y-105123900D03*
%TO.P,J1,51*%
%TO.N,A11*%
X124971884Y-105123900D03*
%TO.P,J1,50*%
%TO.N,A12*%
X127511884Y-105123900D03*
%TO.P,J1,49*%
%TO.N,A13*%
X130051884Y-105123900D03*
%TO.P,J1,48*%
%TO.N,A14*%
X132591884Y-105123900D03*
%TO.P,J1,47*%
%TO.N,A15*%
X135131884Y-105123900D03*
%TO.P,J1,46*%
%TO.N,A16*%
X137671884Y-105123900D03*
%TO.P,J1,45*%
%TO.N,A17*%
X140211884Y-105123900D03*
%TO.P,J1,44*%
%TO.N,A18*%
X142751884Y-105123900D03*
%TO.P,J1,43*%
%TO.N,A19*%
X145291884Y-105123900D03*
%TO.P,J1,42*%
%TO.N,AEN*%
X147831884Y-105123900D03*
%TO.P,J1,41*%
%TO.N,IOCHRDY*%
X150371884Y-105123900D03*
%TO.P,J1,40*%
%TO.N,D0*%
X152911884Y-105123900D03*
%TO.P,J1,39*%
%TO.N,D1*%
X155451884Y-105123900D03*
%TO.P,J1,38*%
%TO.N,D2*%
X157991884Y-105123900D03*
%TO.P,J1,37*%
%TO.N,D3*%
X160531884Y-105123900D03*
%TO.P,J1,36*%
%TO.N,D4*%
X163071884Y-105123900D03*
%TO.P,J1,35*%
%TO.N,D5*%
X165611884Y-105123900D03*
%TO.P,J1,34*%
%TO.N,D6*%
X168151884Y-105123900D03*
%TO.P,J1,33*%
%TO.N,D7*%
X170691884Y-105123900D03*
%TO.P,J1,32*%
%TO.N,~{IO_CH_CK}*%
X173231884Y-105123900D03*
%TD*%
D11*
%TO.P,J3,1*%
%TO.N,GND1*%
X175260000Y-118110000D03*
D12*
%TO.P,J3,2*%
%TO.N,RESET*%
X172720000Y-118110000D03*
%TO.P,J3,3*%
%TO.N,VCC1*%
X170180000Y-118110000D03*
%TO.P,J3,4*%
%TO.N,IRQ2*%
X167640000Y-118110000D03*
%TO.P,J3,5*%
%TO.N,-5V*%
X165100000Y-118110000D03*
%TO.P,J3,6*%
%TO.N,DRQ2*%
X162560000Y-118110000D03*
%TO.P,J3,7*%
%TO.N,-12V*%
X160020000Y-118110000D03*
%TO.P,J3,8*%
%TO.N,UNUSED_THRU*%
X157480000Y-118110000D03*
%TO.P,J3,9*%
%TO.N,12V*%
X154940000Y-118110000D03*
%TO.P,J3,10*%
%TO.N,GND2*%
X152400000Y-118110000D03*
%TO.P,J3,11*%
%TO.N,~{MEMW}*%
X149860000Y-118110000D03*
%TO.P,J3,12*%
%TO.N,~{MEMR}*%
X147320000Y-118110000D03*
%TO.P,J3,13*%
%TO.N,~{IOW}*%
X144780000Y-118110000D03*
%TO.P,J3,14*%
%TO.N,~{IOR}*%
X142240000Y-118110000D03*
%TO.P,J3,15*%
%TO.N,~{DACK3}*%
X139700000Y-118110000D03*
%TO.P,J3,16*%
%TO.N,DRQ3*%
X137160000Y-118110000D03*
%TO.P,J3,17*%
%TO.N,~{DACK1}*%
X134620000Y-118110000D03*
%TO.P,J3,18*%
%TO.N,DRQ1*%
X132080000Y-118110000D03*
%TO.P,J3,19*%
%TO.N,~{DACK0}*%
X129540000Y-118110000D03*
%TO.P,J3,20*%
%TO.N,CLK*%
X127000000Y-118110000D03*
%TO.P,J3,21*%
%TO.N,IRQ7*%
X124460000Y-118110000D03*
%TO.P,J3,22*%
%TO.N,IRQ6*%
X121920000Y-118110000D03*
%TO.P,J3,23*%
%TO.N,IRQ5*%
X119380000Y-118110000D03*
%TO.P,J3,24*%
%TO.N,IRQ4*%
X116840000Y-118110000D03*
%TO.P,J3,25*%
%TO.N,IRQ3*%
X114300000Y-118110000D03*
%TO.P,J3,26*%
%TO.N,~{DACK2}*%
X111760000Y-118110000D03*
%TO.P,J3,27*%
%TO.N,TC*%
X109220000Y-118110000D03*
%TO.P,J3,28*%
%TO.N,ALE*%
X106680000Y-118110000D03*
%TO.P,J3,29*%
%TO.N,VCC2*%
X104140000Y-118110000D03*
%TO.P,J3,30*%
%TO.N,OSC*%
X101600000Y-118110000D03*
%TO.P,J3,31*%
%TO.N,GND3*%
X99060000Y-118110000D03*
%TO.P,J3,32*%
%TO.N,~{IO_CH_CK}*%
X175260000Y-115570000D03*
%TO.P,J3,33*%
%TO.N,D7*%
X172720000Y-115570000D03*
%TO.P,J3,34*%
%TO.N,D6*%
X170180000Y-115570000D03*
%TO.P,J3,35*%
%TO.N,D5*%
X167640000Y-115570000D03*
%TO.P,J3,36*%
%TO.N,D4*%
X165100000Y-115570000D03*
%TO.P,J3,37*%
%TO.N,D3*%
X162560000Y-115570000D03*
%TO.P,J3,38*%
%TO.N,D2*%
X160020000Y-115570000D03*
%TO.P,J3,39*%
%TO.N,D1*%
X157480000Y-115570000D03*
%TO.P,J3,40*%
%TO.N,D0*%
X154940000Y-115570000D03*
%TO.P,J3,41*%
%TO.N,IOCHRDY*%
X152400000Y-115570000D03*
%TO.P,J3,42*%
%TO.N,AEN*%
X149860000Y-115570000D03*
%TO.P,J3,43*%
%TO.N,A19*%
X147320000Y-115570000D03*
%TO.P,J3,44*%
%TO.N,A18*%
X144780000Y-115570000D03*
%TO.P,J3,45*%
%TO.N,A17*%
X142240000Y-115570000D03*
%TO.P,J3,46*%
%TO.N,A16*%
X139700000Y-115570000D03*
%TO.P,J3,47*%
%TO.N,A15*%
X137160000Y-115570000D03*
%TO.P,J3,48*%
%TO.N,A14*%
X134620000Y-115570000D03*
%TO.P,J3,49*%
%TO.N,A13*%
X132080000Y-115570000D03*
%TO.P,J3,50*%
%TO.N,A12*%
X129540000Y-115570000D03*
%TO.P,J3,51*%
%TO.N,A11*%
X127000000Y-115570000D03*
%TO.P,J3,52*%
%TO.N,A10*%
X124460000Y-115570000D03*
%TO.P,J3,53*%
%TO.N,A09*%
X121920000Y-115570000D03*
%TO.P,J3,54*%
%TO.N,A08*%
X119380000Y-115570000D03*
%TO.P,J3,55*%
%TO.N,A07*%
X116840000Y-115570000D03*
%TO.P,J3,56*%
%TO.N,A06*%
X114300000Y-115570000D03*
%TO.P,J3,57*%
%TO.N,A05*%
X111760000Y-115570000D03*
%TO.P,J3,58*%
%TO.N,A04*%
X109220000Y-115570000D03*
%TO.P,J3,59*%
%TO.N,A03*%
X106680000Y-115570000D03*
%TO.P,J3,60*%
%TO.N,A02*%
X104140000Y-115570000D03*
%TO.P,J3,61*%
%TO.N,A01*%
X101600000Y-115570000D03*
%TO.P,J3,62*%
%TO.N,A00*%
X99060000Y-115570000D03*
%TD*%
D13*
%TO.N,~{IO_CH_CK}*%
X173231884Y-113541884D02*
X175260000Y-115570000D01*
X173231884Y-105123900D02*
X173231884Y-113541884D01*
%TO.N,D7*%
X170691884Y-113541884D02*
X170691884Y-105123900D01*
X172720000Y-115570000D02*
X170691884Y-113541884D01*
%TO.N,D6*%
X168151884Y-113541884D02*
X168151884Y-105123900D01*
X170180000Y-115570000D02*
X168151884Y-113541884D01*
%TO.N,A00*%
X97031884Y-113531884D02*
X97031884Y-105123900D01*
%TO.N,A01*%
X99571884Y-113571884D02*
X99571884Y-105123900D01*
%TO.N,A02*%
X102111884Y-113549018D02*
X102111884Y-105123900D01*
X102131433Y-113568567D02*
X102111884Y-113549018D01*
%TO.N,A03*%
X104651884Y-113551884D02*
X104651884Y-105123900D01*
%TO.N,A04*%
X107191884Y-113541884D02*
X107191884Y-105123900D01*
%TO.N,A05*%
X109731884Y-113541884D02*
X109731884Y-105123900D01*
%TO.N,A06*%
X112271884Y-113541884D02*
X112271884Y-105123900D01*
%TO.N,A07*%
X114811884Y-113541884D02*
X114811884Y-105123900D01*
%TO.N,A08*%
X117351884Y-113541884D02*
X117351884Y-105123900D01*
%TO.N,A09*%
X119891884Y-113541884D02*
X119891884Y-105123900D01*
%TO.N,A10*%
X122431884Y-113541884D02*
X122431884Y-105123900D01*
%TO.N,A11*%
X124971884Y-113541884D02*
X124971884Y-105123900D01*
%TO.N,A12*%
X127511884Y-113541884D02*
X127511884Y-105123900D01*
%TO.N,A13*%
X130051884Y-113541884D02*
X130051884Y-105123900D01*
%TO.N,A14*%
X132591884Y-113541884D02*
X132591884Y-105123900D01*
%TO.N,A15*%
X135131884Y-113541884D02*
X135131884Y-105123900D01*
%TO.N,A16*%
X137671884Y-113541884D02*
X137671884Y-105123900D01*
%TO.N,A17*%
X140211884Y-113541884D02*
X140211884Y-105123900D01*
%TO.N,A18*%
X142751884Y-113541884D02*
X142751884Y-105123900D01*
%TO.N,A19*%
X145291884Y-113541884D02*
X145291884Y-105123900D01*
%TO.N,AEN*%
X147831884Y-113541884D02*
X147831884Y-105123900D01*
%TO.N,IOCHRDY*%
X150371884Y-113571884D02*
X150371884Y-105123900D01*
%TO.N,D0*%
X152911884Y-113541884D02*
X152911884Y-105123900D01*
%TO.N,D3*%
X160531884Y-113541884D02*
X160531884Y-105123900D01*
%TO.N,D4*%
X165100000Y-115570000D02*
X163071884Y-113541884D01*
X163071884Y-113541884D02*
X163071884Y-105123900D01*
%TO.N,D5*%
X165611884Y-113541884D02*
X165611884Y-105123900D01*
X167640000Y-115570000D02*
X165611884Y-113541884D01*
%TO.N,D1*%
X155451884Y-113541884D02*
X155451884Y-105123900D01*
%TO.N,D2*%
X157991884Y-113541884D02*
X157991884Y-105123900D01*
%TO.N,D3*%
X162560000Y-115570000D02*
X160531884Y-113541884D01*
%TO.N,D2*%
X160020000Y-115570000D02*
X157991884Y-113541884D01*
%TO.N,D1*%
X157480000Y-115570000D02*
X155451884Y-113541884D01*
%TO.N,D0*%
X154940000Y-115570000D02*
X152911884Y-113541884D01*
%TO.N,IOCHRDY*%
X152370000Y-115570000D02*
X150371884Y-113571884D01*
X152400000Y-115570000D02*
X152370000Y-115570000D01*
%TO.N,AEN*%
X149860000Y-115570000D02*
X147831884Y-113541884D01*
%TO.N,A19*%
X147320000Y-115570000D02*
X145291884Y-113541884D01*
%TO.N,A18*%
X144780000Y-115570000D02*
X142751884Y-113541884D01*
%TO.N,A17*%
X142240000Y-115570000D02*
X140211884Y-113541884D01*
%TO.N,A16*%
X139700000Y-115570000D02*
X137671884Y-113541884D01*
%TO.N,A15*%
X137160000Y-115570000D02*
X135131884Y-113541884D01*
%TO.N,A14*%
X134620000Y-115570000D02*
X132591884Y-113541884D01*
%TO.N,A13*%
X132080000Y-115570000D02*
X130051884Y-113541884D01*
%TO.N,A12*%
X129540000Y-115570000D02*
X127511884Y-113541884D01*
%TO.N,A11*%
X127000000Y-115570000D02*
X124971884Y-113541884D01*
%TO.N,A10*%
X124460000Y-115570000D02*
X122431884Y-113541884D01*
%TO.N,A09*%
X121920000Y-115570000D02*
X119891884Y-113541884D01*
%TO.N,A08*%
X119380000Y-115570000D02*
X117351884Y-113541884D01*
%TO.N,A07*%
X116840000Y-115570000D02*
X114811884Y-113541884D01*
%TO.N,A06*%
X114300000Y-115570000D02*
X112271884Y-113541884D01*
%TO.N,A05*%
X111760000Y-115570000D02*
X109731884Y-113541884D01*
%TO.N,A04*%
X109220000Y-115570000D02*
X107191884Y-113541884D01*
%TO.N,A03*%
X106670000Y-115570000D02*
X104651884Y-113551884D01*
X106680000Y-115570000D02*
X106670000Y-115570000D01*
%TO.N,A02*%
X104132865Y-115570000D02*
X102111884Y-113549019D01*
X104140000Y-115570000D02*
X104132865Y-115570000D01*
%TO.N,A01*%
X101570000Y-115570000D02*
X99571884Y-113571884D01*
X101600000Y-115570000D02*
X101570000Y-115570000D01*
%TO.N,A00*%
X99060000Y-115560000D02*
X97031884Y-113531884D01*
X99060000Y-115570000D02*
X99060000Y-115560000D01*
%TO.N,A19*%
X145291884Y-108041884D02*
X145291884Y-107215340D01*
%TO.N,AEN*%
X147831884Y-108041884D02*
X147831884Y-107213158D01*
%TO.N,IOCHRDY*%
X150371884Y-108071884D02*
X150371884Y-107191330D01*
%TD*%
M02*
