%TF.GenerationSoftware,KiCad,Pcbnew,9.0.4*%
%TF.CreationDate,2026-04-01T11:31:47-04:00*%
%TF.ProjectId,DualSerialPlusBracket,4475616c-5365-4726-9961-6c506c757342,rev?*%
%TF.SameCoordinates,Original*%
%TF.FileFunction,Legend,Bot*%
%TF.FilePolarity,Positive*%
%FSLAX46Y46*%
G04 Gerber Fmt 4.6, Leading zero omitted, Abs format (unit mm)*
G04 Created by KiCad (PCBNEW 9.0.4) date 2026-04-01 11:31:47*
%MOMM*%
%LPD*%
G01*
G04 APERTURE LIST*
%ADD10C,0.250000*%
G04 APERTURE END LIST*
D10*
X135948238Y-80816479D02*
X135853000Y-80911717D01*
X135853000Y-80911717D02*
X135757761Y-81197431D01*
X135757761Y-81197431D02*
X135757761Y-81387907D01*
X135757761Y-81387907D02*
X135853000Y-81673622D01*
X135853000Y-81673622D02*
X136043476Y-81864098D01*
X136043476Y-81864098D02*
X136233952Y-81959336D01*
X136233952Y-81959336D02*
X136614904Y-82054574D01*
X136614904Y-82054574D02*
X136900619Y-82054574D01*
X136900619Y-82054574D02*
X137281571Y-81959336D01*
X137281571Y-81959336D02*
X137472047Y-81864098D01*
X137472047Y-81864098D02*
X137662523Y-81673622D01*
X137662523Y-81673622D02*
X137757761Y-81387907D01*
X137757761Y-81387907D02*
X137757761Y-81197431D01*
X137757761Y-81197431D02*
X137662523Y-80911717D01*
X137662523Y-80911717D02*
X137567285Y-80816479D01*
X137757761Y-79578384D02*
X137757761Y-79197431D01*
X137757761Y-79197431D02*
X137662523Y-79006955D01*
X137662523Y-79006955D02*
X137472047Y-78816479D01*
X137472047Y-78816479D02*
X137091095Y-78721241D01*
X137091095Y-78721241D02*
X136424428Y-78721241D01*
X136424428Y-78721241D02*
X136043476Y-78816479D01*
X136043476Y-78816479D02*
X135853000Y-79006955D01*
X135853000Y-79006955D02*
X135757761Y-79197431D01*
X135757761Y-79197431D02*
X135757761Y-79578384D01*
X135757761Y-79578384D02*
X135853000Y-79768860D01*
X135853000Y-79768860D02*
X136043476Y-79959336D01*
X136043476Y-79959336D02*
X136424428Y-80054574D01*
X136424428Y-80054574D02*
X137091095Y-80054574D01*
X137091095Y-80054574D02*
X137472047Y-79959336D01*
X137472047Y-79959336D02*
X137662523Y-79768860D01*
X137662523Y-79768860D02*
X137757761Y-79578384D01*
X135757761Y-77864098D02*
X137757761Y-77864098D01*
X137757761Y-77864098D02*
X136329190Y-77197431D01*
X136329190Y-77197431D02*
X137757761Y-76530765D01*
X137757761Y-76530765D02*
X135757761Y-76530765D01*
X136329190Y-74149812D02*
X136329190Y-73197431D01*
X135757761Y-74340288D02*
X137757761Y-73673622D01*
X137757761Y-73673622D02*
X135757761Y-73006955D01*
X135948238Y-125541479D02*
X135853000Y-125636717D01*
X135853000Y-125636717D02*
X135757761Y-125922431D01*
X135757761Y-125922431D02*
X135757761Y-126112907D01*
X135757761Y-126112907D02*
X135853000Y-126398622D01*
X135853000Y-126398622D02*
X136043476Y-126589098D01*
X136043476Y-126589098D02*
X136233952Y-126684336D01*
X136233952Y-126684336D02*
X136614904Y-126779574D01*
X136614904Y-126779574D02*
X136900619Y-126779574D01*
X136900619Y-126779574D02*
X137281571Y-126684336D01*
X137281571Y-126684336D02*
X137472047Y-126589098D01*
X137472047Y-126589098D02*
X137662523Y-126398622D01*
X137662523Y-126398622D02*
X137757761Y-126112907D01*
X137757761Y-126112907D02*
X137757761Y-125922431D01*
X137757761Y-125922431D02*
X137662523Y-125636717D01*
X137662523Y-125636717D02*
X137567285Y-125541479D01*
X137757761Y-124303384D02*
X137757761Y-123922431D01*
X137757761Y-123922431D02*
X137662523Y-123731955D01*
X137662523Y-123731955D02*
X137472047Y-123541479D01*
X137472047Y-123541479D02*
X137091095Y-123446241D01*
X137091095Y-123446241D02*
X136424428Y-123446241D01*
X136424428Y-123446241D02*
X136043476Y-123541479D01*
X136043476Y-123541479D02*
X135853000Y-123731955D01*
X135853000Y-123731955D02*
X135757761Y-123922431D01*
X135757761Y-123922431D02*
X135757761Y-124303384D01*
X135757761Y-124303384D02*
X135853000Y-124493860D01*
X135853000Y-124493860D02*
X136043476Y-124684336D01*
X136043476Y-124684336D02*
X136424428Y-124779574D01*
X136424428Y-124779574D02*
X137091095Y-124779574D01*
X137091095Y-124779574D02*
X137472047Y-124684336D01*
X137472047Y-124684336D02*
X137662523Y-124493860D01*
X137662523Y-124493860D02*
X137757761Y-124303384D01*
X135757761Y-122589098D02*
X137757761Y-122589098D01*
X137757761Y-122589098D02*
X136329190Y-121922431D01*
X136329190Y-121922431D02*
X137757761Y-121255765D01*
X137757761Y-121255765D02*
X135757761Y-121255765D01*
X136805380Y-118112907D02*
X136710142Y-117827193D01*
X136710142Y-117827193D02*
X136614904Y-117731955D01*
X136614904Y-117731955D02*
X136424428Y-117636717D01*
X136424428Y-117636717D02*
X136138714Y-117636717D01*
X136138714Y-117636717D02*
X135948238Y-117731955D01*
X135948238Y-117731955D02*
X135853000Y-117827193D01*
X135853000Y-117827193D02*
X135757761Y-118017669D01*
X135757761Y-118017669D02*
X135757761Y-118779574D01*
X135757761Y-118779574D02*
X137757761Y-118779574D01*
X137757761Y-118779574D02*
X137757761Y-118112907D01*
X137757761Y-118112907D02*
X137662523Y-117922431D01*
X137662523Y-117922431D02*
X137567285Y-117827193D01*
X137567285Y-117827193D02*
X137376809Y-117731955D01*
X137376809Y-117731955D02*
X137186333Y-117731955D01*
X137186333Y-117731955D02*
X136995857Y-117827193D01*
X136995857Y-117827193D02*
X136900619Y-117922431D01*
X136900619Y-117922431D02*
X136805380Y-118112907D01*
X136805380Y-118112907D02*
X136805380Y-118779574D01*
M02*
